<?xml version="1.0" encoding="UTF-8" standalone="no"?>
<svg
   xmlns:dc="http://purl.org/dc/elements/1.1/"
   xmlns:cc="http://creativecommons.org/ns#"
   xmlns:rdf="http://www.w3.org/1999/02/22-rdf-syntax-ns#"
   xmlns:svg="http://www.w3.org/2000/svg"
   xmlns="http://www.w3.org/2000/svg"
   version="1.1"
   id="Layer_1"
   x="0px"
   y="0px"
   width="100px"
   height="100px"
   viewBox="0 0 100 100"
   enable-background="new 0 0 100 100"
   xml:space="preserve"><metadata
     id="metadata5357"><rdf:RDF><cc:Work
         rdf:about=""><dc:format>image/svg+xml</dc:format><dc:type
           rdf:resource="http://purl.org/dc/dcmitype/StillImage" /><dc:title></dc:title></cc:Work></rdf:RDF></metadata><defs
     id="defs5355" /><path
     id="path5718"
     style="opacity:1;fill:#ffffff;fill-opacity:1;fill-rule:evenodd;stroke:none;stroke-opacity:1;image-rendering:optimizeQuality"
     d="m 51.793386,81.300128 0,-3.397341 c 1.024063,1.140286 1.01166,2.376078 0,3.397341 m 9.828892,-4.290772 c -2.111779,-0.621344 -2.418987,-0.613035 -4.146014,0.07199 l 0,4.617894 c 1.927627,0.704403 2.569734,0.683646 4.146014,-0.121784 l 0,-4.568073 z m -19.58845,4.659442 c -0.157675,-1.547171 0.283725,-3.182849 -0.294694,-4.872556 -1.303595,-0.341823 -2.517284,-0.398541 -3.822201,0.06088 -0.370879,1.691086 -0.298898,3.311559 -0.06418,4.89745 1.884792,0.595071 2.266712,0.590898 4.180533,-0.08579 m 25.602622,-4.918205 c -0.631013,1.455801 0.308655,3.113682 -0.996336,4.447705 -0.08164,-1.441975 -0.16299,-2.88395 -0.242147,-4.24566 -2.101986,-0.513424 -2.101986,-0.513424 -4.042117,0.01681 l 0,4.770118 c 1.787904,0.607517 2.347005,0.607517 4.811551,0 1.908404,1.112634 3.867925,-0.0471 5.888312,0.01004 l 0,-5.363778 c -0.588147,0.422056 -0.939651,0.671167 -1.372734,0.983924 l 0,3.736373 c -0.138225,0 -0.269968,0.001 -0.406863,0.001 l 0,-4.353581 -3.639508,0 z M 26.801307,76.505687 c -0.226805,0.42347 -0.556309,0.750054 -0.54801,1.068329 0.03885,1.469661 -0.323826,2.984973 0.268453,4.395125 1.815613,0.03466 3.574417,0.362579 5.193544,0.02355 1.78105,-0.375026 3.582826,1.060019 5.370774,-0.329341 0.109731,-1.602509 0.365304,-3.297733 -0.184149,-4.919585 l -3.894142,0 c -0.04989,0.855214 -0.06647,1.547136 -0.135569,2.234921 -0.06755,0.669787 0.225695,1.407359 -0.541014,2.467411 l 0,-4.460153 c -1.457255,-0.601967 -2.724854,-0.58814 -4.15708,-0.03734 -0.06859,1.396292 -0.13698,2.767688 -0.215772,4.400642 -0.88289,-1.652331 0.398545,-3.455474 -1.156884,-4.842109 m 20.350863,1.030987 c -1.477964,-1.139009 -1.477964,-1.139009 -4.280295,-0.729365 l 0,5.001198 c 1.614996,0.536939 2.142196,0.53418 4.619269,-0.072 1.181821,0.527252 2.474336,0.618587 3.843008,0.232458 0.55631,-0.159121 1.213579,0.03599 1.822477,0.08175 1.228843,0.0915 2.499229,0.532803 3.771041,-0.52308 -0.308686,-1.542997 0.415171,-3.213292 -0.476046,-4.821318 -1.624637,-0.280902 -3.15793,-0.380578 -4.433859,0.737572 -1.256514,-1.042022 -1.256514,-1.042022 -4.089327,-0.669787 -0.539689,1.401843 0.233971,3.038935 -0.700213,4.96251 -0.543795,-1.710463 -0.476047,-2.889502 -0.07636,-4.20001 m -21.756763,5.60461 c -0.88011,-2.2363 -0.833062,-5.5451 0.100913,-7.586284 l 48.346122,0 c 0.535484,1.573444 0.5978,5.182522 0.113496,7.620869 -0.582674,0.03734 -1.199863,0.08847 -1.8211,0.112024 -3.009952,0.112024 -6.017024,-0.02355 -9.024179,0.0134 -0.867583,0.0134 -1.735304,0.178632 -2.602943,0.235149 -0.631029,0.04003 -1.266273,0.03599 -1.898655,0.01004 -0.23128,-0.01004 -0.458106,-0.214627 -0.679512,-0.210254 -2.515853,0.06088 -5.028917,0.143982 -7.541987,0.218665 -0.556307,0.01681 -1.149907,0.167531 -1.661928,0.02018 -0.956312,-0.27518 -1.836424,-0.336408 -2.800919,-0.0067 -0.496862,0.170223 -1.141729,0.136924 -1.657849,-0.0134 -1.191446,-0.348721 -2.333175,-0.345962 -3.524618,-0.0067 -0.518992,0.145328 -1.148589,0.178633 -1.657851,0.02692 -1.274573,-0.372268 -2.490907,-0.368097 -3.758533,0 -0.426222,0.125819 -0.939674,-0.04273 -1.411528,-0.08847 -0.550771,-0.05651 -1.104296,-0.196461 -1.650988,-0.178632 -1.873714,0.06224 -3.743233,0.208909 -5.618411,0.247596 -0.441402,0.0067 -0.88843,-0.287964 -1.249573,-0.413747 m 39.788601,-26.42861 c 0.979795,0.545215 1.639846,0.898107 2.288887,1.274512 2.449446,1.42122 3.870551,3.431958 3.923159,6.380937 0.03095,1.839138 -0.355586,3.440235 -1.490349,4.911276 -0.369531,0.478808 -1.144503,0.910553 -0.880118,1.844655 3.130283,-2.514442 4.047698,-5.758181 2.748286,-9.436456 -0.996338,-2.813373 -3.707359,-5.013678 -6.589865,-4.974924 m -7.356557,7.744025 c -0.24228,3.776507 2.286125,6.181651 5.892443,6.270192 3.488644,0.08579 6.015533,-2.219681 6.216244,-6.253606 0.185864,-3.755751 -3.198106,-6.080629 -6.199621,-6.158136 -3.19394,-0.08443 -5.893881,2.764931 -5.909066,6.14155 m 5.86611,9.736733 c -4.854557,0.42902 -9.574803,-3.791746 -9.594182,-9.715977 -0.01648,-5.329227 4.943115,-9.714631 9.953999,-9.613607 4.458715,0.08982 9.69944,3.99517 9.605333,9.967844 -0.07082,4.627617 -3.952292,9.864097 -9.96515,9.36174 M 42.332176,60.464853 c 0.06647,-0.207564 0.171669,-0.36258 0.148053,-0.492634 -0.04326,-0.225731 -0.113575,-0.48436 -0.261557,-0.644894 -1.500086,-1.603854 -3.282489,-2.698489 -5.521559,-2.879778 -0.117676,-0.01004 -0.256072,0.280899 -0.372189,0.416538 1.130556,0.52863 2.229316,0.94241 3.216057,1.534689 0.981093,0.590899 1.855684,1.361709 2.791168,2.066079 m -12.118311,1.267615 c -1.278683,3.921835 -0.379184,7.269356 2.292985,8.4927 3.384906,1.547136 6.800239,0.647617 8.488518,-2.234922 1.50565,-2.567054 0.770879,-6.570535 -1.577564,-8.107983 -1.349209,-0.884281 -2.87975,-1.303577 -4.532061,-1.151355 -2.07023,0.192427 -3.452761,1.440597 -4.671878,3.00156 m 5.33058,12.461564 c -5.272452,0.466361 -9.763088,-4.176462 -9.763088,-9.49045 0,-5.951916 5.165957,-9.880681 9.907023,-9.841928 4.889063,0.03869 9.776843,4.710643 9.68825,9.870994 -0.08955,5.318126 -4.324456,9.465521 -9.832185,9.461384 M 12.068476,64.62002 c -0.152122,-0.887039 -0.323824,-1.888928 -0.489878,-2.843785 -0.805382,-0.903657 -1.5816761,-1.77549 -2.1767126,-2.441105 -0.026911,-1.635713 2.2944026,-2.179582 1.1042906,-3.836051 -4.1059171,1.578994 -5.9782249,4.923757 -5.4689712,9.720149 0.3555813,3.344761 3.4554387,6.113864 7.6097172,6.736587 l 0,-2.449415 c -1.062784,-0.485738 -2.200291,-0.965926 -2.337242,-2.727556 0.463536,-0.572934 1.089017,-1.338193 1.758796,-2.158824 m 75.156781,7.01059 c 6.303462,-1.580341 7.663793,-4.08099 7.896284,-8.595069 0.184021,-3.528843 -1.965055,-7.241702 -5.881373,-8.048473 -0.152056,0.332034 -0.317233,0.684991 -0.492601,1.072465 0.449675,0.549386 0.89528,1.093257 1.180352,1.446114 0.61438,1.924955 -0.518942,2.708213 -1.684122,3.407064 -0.109674,1.389363 -0.214292,2.719246 -0.321268,4.062958 0.500976,0.748673 1.583132,1.115391 1.610852,2.580883 -0.644894,0.571521 -1.446214,1.278682 -2.308292,2.041183 l 0,2.032875 z M 53.486778,23.490208 c 1.105647,-0.290656 1.909707,-1.410118 2.495015,-2.93374 0.672561,-1.739495 0.268452,-3.252048 -0.409631,-4.804735 -0.884209,-2.024566 -2.489472,-3.005731 -4.635881,-3.128889 -1.10708,-0.06224 -2.221021,-0.01004 -3.036166,-0.01004 -3.402818,1.684156 -4.754783,3.816675 -3.598013,8.246383 2.66529,1.364467 5.395682,2.547644 9.184676,2.630671 m 2.49923,10.929632 c -1.786619,1.6454 -3.908002,2.276434 -6.250902,2.171273 -1.909711,-0.08309 -3.746019,-0.525873 -5.337443,-1.7838 0.03363,-0.492634 0.06195,-0.953445 0.08844,-1.327091 1.718738,-1.152733 1.718738,-1.152733 4.110032,-1.610819 l 0,-4.698162 -30.235665,0 c -2.493685,4.20139 -4.46296,8.790218 -7.082511,13.255889 l 76.847791,0 c -2.410694,-4.590208 -4.728539,-9.001919 -7.007831,-13.340293 -10.121482,-0.01681 -20.00493,-0.05551 -29.88838,0.0387 l 0,4.4726 c 1.662065,0.817873 3.757213,0.673924 4.756356,2.821682 M 10.832357,44.510429 c 0.543802,0.625517 0.957613,1.102944 1.156887,1.328506 1.691058,13.93257 3.299101,27.557937 5.233731,41.127963 l 66.486963,0 c 1.735323,-14.8293 3.456853,-29.552091 5.197693,-44.438143 -0.715437,-0.03869 -1.412944,-0.110677 -2.110418,-0.110677 -24.563306,-0.01682 -49.123717,-0.02355 -73.685731,-0.03363 -0.559069,0 -1.122238,-0.0134 -1.677226,0.03466 -0.210253,0.01682 -0.408162,0.192425 -0.601899,0.289309 l 0,1.801764 z m 0.355582,30.818327 C 0.20717221,71.488568 -0.95393761,59.613766 7.4170175,53.600924 6.9201765,52.426056 5.6235622,51.417205 6.0345178,49.993227 6.3777206,48.800361 7.0793646,47.711277 7.6702304,46.474105 7.4680489,45.436223 7.2135583,44.279318 7.0184758,43.112759 6.8193231,41.907412 6.9707002,40.792021 7.5788624,39.655873 10.058721,35.013083 12.4777,30.338436 14.848275,25.640275 c 0.86208,-1.707669 2.111761,-2.40928 4.011742,-2.394042 6.718632,0.05114 13.435822,0.01004 20.154372,0.0067 l 2.620998,0 c -2.239075,-5.730526 -0.754148,-10.135308 4.285741,-12.984677 3.250701,-1.8432766 6.742106,-1.4198067 9.662019,0.911967 3.896921,3.11227 4.720362,7.172503 2.673583,11.979963 0.967365,0.03633 1.738112,0.0915 2.510315,0.0915 6.477842,0.01004 12.958352,0.07199 19.434806,-0.02355 2.207268,-0.03466 3.574493,0.765293 4.547282,2.734485 2.157514,4.361889 4.353614,8.707194 6.729724,12.951441 1.152733,2.059182 1.098773,4.087884 0.766639,6.235642 -0.08746,0.542457 -0.197808,1.080777 -0.278209,1.513901 2.125656,3.127508 2.370628,2.275054 0.960376,6.357422 8.913477,7.712167 5.431758,18.615527 -4.223458,21.866196 -0.362614,3.427787 -0.723679,6.901258 -1.111186,10.369178 -0.116392,1.021266 -0.258698,2.048084 -0.482981,3.052757 -0.368129,1.648153 -1.477971,2.532373 -3.276976,2.55042 -3.917628,0.03422 -7.838128,0.01145 -11.757207,0.01145 l -54.704856,0 c -0.398549,0 -0.801198,0.02288 -1.199747,0 -1.853014,-0.132845 -3.157927,-1.253765 -3.408466,-3.1012 -0.557633,-4.092038 -1.043412,-8.19375 -1.574847,-12.436653"
     mask="none" /></svg>