<?xml version="1.0" encoding="utf-8"?>
<!-- Generator: Adobe Illustrator 17.0.0, SVG Export Plug-In . SVG Version: 6.00 Build 0)  -->
<!DOCTYPE svg PUBLIC "-//W3C//DTD SVG 1.1//EN" "http://www.w3.org/Graphics/SVG/1.1/DTD/svg11.dtd">
<svg version="1.1" id="Layer_1" xmlns="http://www.w3.org/2000/svg" xmlns:xlink="http://www.w3.org/1999/xlink" x="0px" y="0px"
	 width="16px" height="16px" viewBox="0 0 16 16" enable-background="new 0 0 16 16" xml:space="preserve">
<g>
	<path fill="#FFFFFF" d="M2.4,2.4C3.943,0.858,5.81,0.086,8,0.086s4.057,0.772,5.6,2.314c1.542,1.543,2.314,3.409,2.314,5.6
		s-0.772,4.057-2.314,5.6c-1.543,1.542-3.409,2.314-5.6,2.314S3.943,15.142,2.4,13.6C0.857,12.057,0.086,10.19,0.086,8
		S0.857,3.944,2.4,2.4z M10.438,7.117c0.283-0.4,0.424-0.824,0.424-1.272c0-0.777-0.295-1.389-0.883-1.837
		c-0.565-0.424-1.296-0.636-2.19-0.636c-0.66,0-1.213,0.153-1.66,0.459C5.468,4.279,5.138,5.08,5.138,6.234h1.731
		c0-0.495,0.047-0.813,0.141-0.954c0.212-0.353,0.518-0.53,0.919-0.53c0.4,0,0.694,0.13,0.883,0.389
		c0.188,0.259,0.283,0.53,0.283,0.813c0,0.189-0.094,0.424-0.283,0.707C8.765,6.752,8.648,6.869,8.459,7.011
		c-0.613,0.353-1.025,0.707-1.237,1.06C7.034,8.378,6.916,8.86,6.869,9.519c0,0.095,0.047,0.141,0.141,0.141h1.378
		c0.118,0,0.177-0.046,0.177-0.141c0-0.258,0.023-0.482,0.071-0.671C8.707,8.636,8.848,8.436,9.06,8.247l0.495-0.318
		C10.002,7.6,10.296,7.329,10.438,7.117z M8.707,11.639c0.023-0.306-0.065-0.565-0.265-0.777c-0.2-0.212-0.454-0.318-0.76-0.318
		c-0.283,0-0.53,0.095-0.742,0.283c-0.212,0.189-0.318,0.436-0.318,0.742c0,0.307,0.094,0.56,0.283,0.76
		c0.188,0.201,0.424,0.3,0.707,0.3c0.306,0,0.565-0.088,0.777-0.265C8.601,12.187,8.707,11.946,8.707,11.639z"/>
</g>
</svg>
