<?xml version="1.0" encoding="UTF-8" standalone="no"?>
<svg width="16px" height="16px" viewBox="0 0 16 16" version="1.1" xmlns="http://www.w3.org/2000/svg" xmlns:xlink="http://www.w3.org/1999/xlink" xmlns:sketch="http://www.bohemiancoding.com/sketch/ns">
    <!-- Generator: Sketch 3.3.3 (12081) - http://www.bohemiancoding.com/sketch -->
    <title>your-projects</title>
    <desc>Created with Sketch.</desc>
    <defs></defs>
    <g id="Icons" stroke="none" stroke-width="1" fill="none" fill-rule="evenodd" sketch:type="MSPage">
        <g id="your-projects" sketch:type="MSArtboardGroup" fill="#000000">
            <path d="M2.403,5.808 C1.628,5.808 1,5.179 1,4.404 C1,3.629 1.628,3 2.403,3 C3.178,3 3.807,3.629 3.807,4.404 C3.807,5.179 3.178,5.808 2.403,5.808 L2.403,5.808 Z M2.403,9.551 C1.628,9.551 1,8.922 1,8.147 C1,7.372 1.628,6.744 2.403,6.744 C3.178,6.744 3.807,7.372 3.807,8.147 C3.807,8.922 3.178,9.551 2.403,9.551 L2.403,9.551 Z M2.403,13.295 C1.628,13.295 1,12.665 1,11.891 C1,11.116 1.628,10.487 2.403,10.487 C3.178,10.487 3.807,11.116 3.807,11.891 C3.807,12.665 3.178,13.295 2.403,13.295 L2.403,13.295 Z M14.102,5.106 C14.102,5.23 13.992,5.34 13.868,5.34 L4.977,5.34 C4.852,5.34 4.743,5.23 4.743,5.106 L4.743,3.701 C4.743,3.577 4.852,3.468 4.977,3.468 L13.868,3.468 C13.992,3.468 14.102,3.577 14.102,3.701 L14.102,5.106 L14.102,5.106 Z M14.102,8.849 C14.102,8.973 13.992,9.083 13.868,9.083 L4.977,9.083 C4.852,9.083 4.743,8.973 4.743,8.849 L4.743,7.445 C4.743,7.321 4.852,7.211 4.977,7.211 L13.868,7.211 C13.992,7.211 14.102,7.321 14.102,7.445 L14.102,8.849 L14.102,8.849 Z M14.102,12.593 C14.102,12.717 13.992,12.827 13.868,12.827 L4.977,12.827 C4.852,12.827 4.743,12.717 4.743,12.593 L4.743,11.188 C4.743,11.064 4.852,10.955 4.977,10.955 L13.868,10.955 C13.992,10.955 14.102,11.064 14.102,11.188 L14.102,12.593 L14.102,12.593 Z" id="Imported-Layers" sketch:type="MSShapeGroup"></path>
        </g>
    </g>
</svg>