<?xml version="1.0" encoding="UTF-8" standalone="no"?>
<svg width="14px" height="11px" viewBox="0 0 14 11" version="1.1" xmlns="http://www.w3.org/2000/svg" xmlns:xlink="http://www.w3.org/1999/xlink" xmlns:sketch="http://www.bohemiancoding.com/sketch/ns">
    <!-- Generator: Sketch 3.3.2 (12043) - http://www.bohemiancoding.com/sketch -->
    <title>your-projects</title>
    <desc>Created with Sketch.</desc>
    <defs></defs>
    <g id="Icons" stroke="none" stroke-width="1" fill="none" fill-rule="evenodd" sketch:type="MSPage">
        <g id="your-projects" sketch:type="MSArtboardGroup" fill="#000000">
            <path d="M1.403,2.808 C0.628,2.808 0,2.179 0,1.404 C0,0.629 0.628,0 1.403,0 C2.178,0 2.807,0.629 2.807,1.404 C2.807,2.179 2.178,2.808 1.403,2.808 L1.403,2.808 Z M1.403,6.551 C0.628,6.551 0,5.922 0,5.147 C0,4.372 0.628,3.744 1.403,3.744 C2.178,3.744 2.807,4.372 2.807,5.147 C2.807,5.922 2.178,6.551 1.403,6.551 L1.403,6.551 Z M1.403,10.295 C0.628,10.295 0,9.665 0,8.891 C0,8.116 0.628,7.487 1.403,7.487 C2.178,7.487 2.807,8.116 2.807,8.891 C2.807,9.665 2.178,10.295 1.403,10.295 L1.403,10.295 Z M13.102,2.106 C13.102,2.23 12.992,2.34 12.868,2.34 L3.977,2.34 C3.852,2.34 3.743,2.23 3.743,2.106 L3.743,0.701 C3.743,0.577 3.852,0.468 3.977,0.468 L12.868,0.468 C12.992,0.468 13.102,0.577 13.102,0.701 L13.102,2.106 L13.102,2.106 Z M13.102,5.849 C13.102,5.973 12.992,6.083 12.868,6.083 L3.977,6.083 C3.852,6.083 3.743,5.973 3.743,5.849 L3.743,4.445 C3.743,4.321 3.852,4.211 3.977,4.211 L12.868,4.211 C12.992,4.211 13.102,4.321 13.102,4.445 L13.102,5.849 L13.102,5.849 Z M13.102,9.593 C13.102,9.717 12.992,9.827 12.868,9.827 L3.977,9.827 C3.852,9.827 3.743,9.717 3.743,9.593 L3.743,8.188 C3.743,8.064 3.852,7.955 3.977,7.955 L12.868,7.955 C12.992,7.955 13.102,8.064 13.102,8.188 L13.102,9.593 L13.102,9.593 Z" id="Imported-Layers" sketch:type="MSShapeGroup"></path>
        </g>
    </g>
</svg>