<?xml version="1.0" encoding="UTF-8" standalone="no"?>
<svg width="125px" height="116px" viewBox="0 0 125 116" version="1.1" xmlns="http://www.w3.org/2000/svg" xmlns:xlink="http://www.w3.org/1999/xlink" xmlns:sketch="http://www.bohemiancoding.com/sketch/ns">
    <!-- Generator: Sketch 3.3.2 (12043) - http://www.bohemiancoding.com/sketch -->
    <title>Crown</title>
    <desc>Created with Sketch.</desc>
    <defs></defs>
    <g id="Page-1" stroke="none" stroke-width="1" fill="none" fill-rule="evenodd" sketch:type="MSPage">
        <g id="Crown" sketch:type="MSArtboardGroup" fill="#FFFFFF">
            <g id="Imported-Layers" sketch:type="MSLayerGroup">
                <path d="M124.467613,57.4244776 L114.146105,54.7056964 L118.164485,63.8595326 L112.227246,59.4185535 L108.939728,75.0065354 L116.429027,70.5664657 C110.583031,88.6922797 98.4348194,82.0762758 98.4348194,82.0762758 C90.5796331,79.7193926 91.2192527,67.8467752 97.612712,67.8467752 C104.007084,67.8467752 102.636601,77.1824696 102.636601,77.1824696 C106.655894,76.3668353 111.451673,66.8956564 105.742542,61.2307712 C100.536166,56.065087 94.7814141,59.7813608 94.7814141,59.7813608 C99.4403271,48.8153069 93.5030873,42.9240082 93.5030873,42.9240082 C84.7336371,48.9962559 87.0174717,58.9657264 87.0174717,58.9657264 C87.0174717,58.9657264 84.6706788,55.8523128 80.2900597,56.115098 C76.6047191,56.3369651 74.1000743,60.506066 74.120148,64.0404815 C74.1466087,68.9488363 79.1622853,71.743998 79.1622853,71.743998 C79.1622853,71.743998 78.6139095,69.2970949 79.8931488,67.12207 C81.7025151,64.0459373 87.9572837,65.1298126 87.4746035,71.9258563 C86.9718497,78.9946873 79.2535292,79.7193926 76.0563433,79.7193926 C72.7670011,79.7193926 69.342618,77.3188633 67.9274253,75.3693427 C65.4729647,71.990416 65.0048835,67.6658262 65.0048835,67.6658262 L71.3983428,71.1102219 L71.0333673,55.9750671 L65.0048835,60.4151369 L68.1099131,49.449083 L56.3577002,49.449083 L59.4636422,60.4151369 L53.4351585,55.9750671 L53.0692705,71.1102219 L59.4636422,67.6658262 C59.4636422,67.6658262 58.995561,71.990416 56.540188,75.3693427 C55.1240828,77.3188633 51.7006121,79.7193926 48.41127,79.7193926 C45.2140841,79.7193926 37.4957636,78.9946873 36.9939222,71.9258563 C36.5103296,65.1298126 42.7660106,64.0459373 44.5753769,67.12207 C45.8537038,69.2970949 45.305328,71.743998 45.305328,71.743998 C45.305328,71.743998 50.321917,68.9488363 50.3483777,64.0404815 C50.3675389,60.506066 47.8628942,56.3369651 44.178466,56.115098 C39.7978469,55.8523128 37.4501416,58.9657264 37.4501416,58.9657264 C37.4501416,58.9657264 39.7339762,48.9962559 30.9654385,42.9240082 C30.9654385,42.9240082 25.0281986,48.8153069 29.6861991,59.7813608 C29.6861991,59.7813608 23.9323595,56.065087 18.7259833,61.2307712 C13.0168531,66.8956564 17.8117195,76.3668353 21.8310128,77.1824696 C21.8310128,77.1824696 20.461442,67.8467752 26.8549013,67.8467752 C33.2483606,67.8467752 33.8879802,79.7193926 26.0327938,82.0762758 C26.0327938,82.0762758 13.8845825,88.6922797 8.03858658,70.5664657 L15.5287974,75.0065354 L12.2403677,59.4185535 L6.30312782,63.8595326 L10.3224211,54.7056964 L0.000912438886,57.4244776 C0.000912438886,57.4244776 2.55847864,63.4967253 2.10134675,65.127994 C1.64512731,66.7592627 0.955323513,68.8751837 1.41154296,70.5973816 C1.86867484,72.3195794 3.38058607,73.6471448 4.38518128,74.5537083 C5.3897765,75.4602718 6.7602597,81.7134685 7.03399137,82.800981 C7.30772304,83.8884935 8.58696235,89.0541777 6.57685949,97.0304816 L14.8891777,104.824018 C14.8891777,104.824018 30.3258188,97.2114305 62.0212084,97.1205014 L62.4473173,97.1205014 C94.1417945,97.2114305 109.578436,104.824018 109.578436,104.824018 L117.890754,97.0304816 C115.881563,89.0541777 117.15989,83.8884935 117.433622,82.800981 C117.708266,81.7134685 119.077837,75.4602718 120.083344,74.5537083 C121.08794,73.6471448 122.599851,72.3195794 123.056983,70.5973816 C123.513202,68.8751837 122.823398,66.7592627 122.366267,65.127994 C121.910047,63.4967253 124.467613,57.4244776 124.467613,57.4244776 L124.467613,57.4244776 Z M4.86603658,72.0367898 L2.92619151,70.233665 L3.64519335,67.705835 L5.58595086,69.5080505 L4.86603658,72.0367898 L4.86603658,72.0367898 Z M12.5049749,98.50808 L9.50943807,95.7256485 L10.6207886,91.8211513 L13.6172379,94.6044922 L12.5049749,98.50808 L12.5049749,98.50808 Z M19.6393346,89.6888631 C19.6393346,88.7877553 20.3747603,88.0575944 21.2835494,88.0575944 C22.1914261,88.0575944 22.9268519,88.7877553 22.9268519,89.6888631 C22.9268519,90.5899708 22.1914261,91.3201318 21.2835494,91.3201318 C20.3747603,91.3201318 19.6393346,90.5899708 19.6393346,89.6888631 L19.6393346,89.6888631 Z M22.3793886,98.0270649 C21.4705994,98.0270649 20.7351737,97.2969039 20.7351737,96.3957962 C20.7351737,95.4946884 21.4705994,94.7645275 22.3793886,94.7645275 C23.2872652,94.7645275 24.0236034,95.4946884 24.0236034,96.3957962 C24.0236034,97.2969039 23.2872652,98.0270649 22.3793886,98.0270649 L22.3793886,98.0270649 Z M37.1754975,94.038913 C33.3213557,94.6335895 29.8422262,92.8568342 29.4060804,90.0707655 C28.9690222,87.2837874 31.7400991,84.5431832 35.5960658,83.949416 C39.4492952,83.3547394 42.9275123,85.132404 43.3645705,87.9193821 C43.8007163,90.7045415 41.0305518,93.4451457 37.1754975,94.038913 L37.1754975,94.038913 Z M47.7716503,84.795057 C47.7716503,83.8939492 48.5079885,83.1637882 49.4158652,83.1637882 C50.3246543,83.1637882 51.06008,83.8939492 51.06008,84.795057 C51.06008,85.6961647 50.3246543,86.4263257 49.4158652,86.4263257 C48.5079885,86.4263257 47.7716503,85.6961647 47.7716503,84.795057 L47.7716503,84.795057 Z M50.3292165,93.45242 C49.4213398,93.45242 48.6850016,92.7222591 48.6850016,91.820242 C48.6850016,90.9191343 49.4213398,90.1889733 50.3292165,90.1889733 C51.2380056,90.1889733 51.9734314,90.9191343 51.9734314,91.820242 C51.9734314,92.7222591 51.2380056,93.45242 50.3292165,93.45242 L50.3292165,93.45242 Z M62.2347191,62.9329647 C62.8679517,62.9329647 63.3807423,63.4430771 63.3807423,64.0713975 C63.3807423,64.6997178 62.8679517,65.2098302 62.2347191,65.2098302 C61.6005741,65.2098302 61.0877834,64.6997178 61.0877834,64.0713975 C61.0877834,63.4430771 61.5996616,62.9329647 62.2347191,62.9329647 L62.2347191,62.9329647 Z M62.265742,92.4767504 L59.0466576,87.2892432 L62.1982215,82.0871873 L65.4200432,87.2737852 L62.265742,92.4767504 L62.265742,92.4767504 Z M74.1383968,93.45242 C73.2305201,93.45242 72.4941819,92.7222591 72.4941819,91.820242 C72.4941819,90.9191343 73.2305201,90.1889733 74.1383968,90.1889733 C75.0471859,90.1889733 75.7826117,90.9191343 75.7826117,91.820242 C75.7826117,92.7222591 75.0471859,93.45242 74.1383968,93.45242 L74.1383968,93.45242 Z M75.0517481,86.4263257 C74.1447839,86.4263257 73.4075332,85.6961647 73.4075332,84.795057 C73.4075332,83.8939492 74.1447839,83.1637882 75.0517481,83.1637882 C75.9605372,83.1637882 76.695963,83.8939492 76.695963,84.795057 C76.695963,85.6961647 75.9605372,86.4263257 75.0517481,86.4263257 L75.0517481,86.4263257 Z M95.0624453,90.0707655 C94.6262995,92.8577435 91.1480825,94.6344988 87.2930282,94.0398223 C83.4388863,93.446055 80.6678094,90.7045415 81.1039552,87.9202914 C81.5410135,85.1333133 85.0183181,83.3556487 88.8724599,83.9503253 C92.7284266,84.5440925 95.4995035,87.2846967 95.0624453,90.0707655 L95.0624453,90.0707655 Z M102.089137,98.0270649 C101.18126,98.0270649 100.444922,97.2969039 100.444922,96.3957962 C100.444922,95.4946884 101.18126,94.7645275 102.089137,94.7645275 C102.997014,94.7645275 103.733352,95.4946884 103.733352,96.3957962 C103.733352,97.2969039 102.997014,98.0270649 102.089137,98.0270649 L102.089137,98.0270649 Z M103.184976,91.3201318 C102.2771,91.3201318 101.540761,90.5899708 101.540761,89.6888631 C101.540761,88.7877553 102.2771,88.0575944 103.184976,88.0575944 C104.092853,88.0575944 104.829191,88.7877553 104.829191,89.6888631 C104.829191,90.5899708 104.092853,91.3201318 103.184976,91.3201318 L103.184976,91.3201318 Z M111.963551,98.50808 L110.8522,94.6035829 L113.84865,91.820242 L114.96,95.7247392 L111.963551,98.50808 L111.963551,98.50808 Z M119.602489,72.0367898 L118.883487,69.5080505 L120.823332,67.705835 L121.543247,70.233665 L119.602489,72.0367898 L119.602489,72.0367898 Z" id="Fill-1" sketch:type="MSShapeGroup"></path>
                <path d="M62.236544,99.8392826 C86.8048734,99.8392826 106.721589,103.207298 106.721589,107.36185 C106.721589,111.516402 86.8048734,114.884418 62.236544,114.884418 C37.6682145,114.884418 17.7514985,111.516402 17.7514985,107.36185 C17.7514985,103.207298 37.6682145,99.8392826 62.236544,99.8392826" id="Fill-2" sketch:type="MSShapeGroup"></path>
                <path d="M14.093531,53.9173408 L12.1545984,51.7486809 C33.8350588,32.6662923 52.4369503,31.2568907 53.2189104,31.2059704 L54.1568976,31.1450478 L54.6021678,31.9661379 C58.2336746,38.6757989 59.0019481,46.8021358 59.0320586,47.1449387 L56.1213785,47.4040867 C56.114079,47.3295248 55.4361369,40.2225035 52.4743603,34.2075412 C48.4870024,34.7612996 32.2820878,37.9092663 14.093531,53.9182501 L14.093531,53.9173408" id="Fill-3" sketch:type="MSShapeGroup"></path>
                <path d="M50.5117043,23.8316174 C52.2608496,23.8316174 53.6778672,25.2382911 53.6778672,26.9732191 C53.6778672,28.708147 52.2608496,30.1148207 50.5117043,30.1148207 C48.7634714,30.1148207 47.3455413,28.708147 47.3455413,26.9732191 C47.3455413,25.2382911 48.7634714,23.8316174 50.5117043,23.8316174" id="Fill-4" sketch:type="MSShapeGroup"></path>
                <path d="M42.3526758,26.0875693 C43.9895911,26.0875693 45.3162773,27.4042232 45.3162773,29.0282175 C45.3162773,30.6513026 43.9895911,31.9679565 42.3526758,31.9679565 C40.7166728,31.9679565 39.3899867,30.6513026 39.3899867,29.0282175 C39.3899867,27.4042232 40.7166728,26.0875693 42.3526758,26.0875693" id="Fill-5" sketch:type="MSShapeGroup"></path>
                <path d="M34.802244,29.2291709 C36.3269294,29.2291709 37.563284,30.455805 37.563284,31.9688658 C37.563284,33.4819266 36.3269294,34.7076514 34.802244,34.7076514 C33.2775586,34.7076514 32.0412039,33.4819266 32.0412039,31.9688658 C32.0412039,30.455805 33.2775586,29.2291709 34.802244,29.2291709" id="Fill-6" sketch:type="MSShapeGroup"></path>
                <path d="M28.1031177,32.774498 C29.5155731,32.774498 30.6606839,33.9102029 30.6606839,35.3114209 C30.6606839,36.7135482 29.5155731,37.8492531 28.1031177,37.8492531 C26.6906623,37.8492531 25.5455515,36.7135482 25.5455515,35.3114209 C25.5455515,33.9102029 26.6906623,32.774498 28.1031177,32.774498" id="Fill-7" sketch:type="MSShapeGroup"></path>
                <path d="M21.5271706,37.2045655 C22.827396,37.2045655 23.881263,38.2502506 23.881263,39.540535 C23.881263,40.8308195 22.827396,41.8765045 21.5271706,41.8765045 C20.2269452,41.8765045 19.1730783,40.8308195 19.1730783,39.540535 C19.1730783,38.2502506 20.2269452,37.2045655 21.5271706,37.2045655" id="Fill-8" sketch:type="MSShapeGroup"></path>
                <path d="M15.5999676,41.8765045 C16.7879631,41.8765045 17.7514985,42.8321697 17.7514985,44.0115206 C17.7514985,45.1908715 16.7879631,46.1465368 15.5999676,46.1465368 C14.4110598,46.1465368 13.4475243,45.1908715 13.4475243,44.0115206 C13.4475243,42.8321697 14.4110598,41.8765045 15.5999676,41.8765045" id="Fill-9" sketch:type="MSShapeGroup"></path>
                <path d="M11.0122249,46.6702886 C12.0879904,46.6702886 12.9611944,47.535934 12.9611944,48.6043513 C12.9611944,49.6718594 12.0879904,50.5375048 11.0122249,50.5375048 C9.93554703,50.5375048 9.06325545,49.6718594 9.06325545,48.6043513 C9.06325545,47.535934 9.93554703,46.6702886 11.0122249,46.6702886" id="Fill-10" sketch:type="MSShapeGroup"></path>
                <path d="M110.569344,53.9173408 L112.509189,51.7486809 C90.8287289,32.6662923 72.2259249,31.2568907 71.4439648,31.2059704 L70.50689,31.1450478 L70.0616198,31.9661379 C66.4310255,38.6757989 65.662752,46.8021358 65.6326415,47.1449387 L68.5433215,47.4040867 C68.550621,47.3295248 69.2276507,40.2225035 72.1885149,34.2075412 C76.1758728,34.7612996 92.3816999,37.9092663 110.569344,53.9173408" id="Fill-11" sketch:type="MSShapeGroup"></path>
                <path d="M74.1520834,23.8316174 C75.9003163,23.8316174 77.3182463,25.2382911 77.3182463,26.9732191 C77.3182463,28.708147 75.9003163,30.1148207 74.1520834,30.1148207 C72.402938,30.1148207 70.9859204,28.708147 70.9859204,26.9732191 C70.9859204,25.2382911 72.402938,23.8316174 74.1520834,23.8316174" id="Fill-12" sketch:type="MSShapeGroup"></path>
                <path d="M82.3111119,26.0875693 C83.9480272,26.0875693 85.2747134,27.4042232 85.2747134,29.0282175 C85.2747134,30.6522119 83.9480272,31.9688658 82.3111119,31.9688658 C80.6741965,31.9688658 79.3475104,30.6522119 79.3475104,29.0282175 C79.3475104,27.4042232 80.6741965,26.0875693 82.3111119,26.0875693" id="Fill-13" sketch:type="MSShapeGroup"></path>
                <path d="M89.8615437,29.2300802 C91.386229,29.2300802 92.6216713,30.4567143 92.6216713,31.9688658 C92.6216713,33.4810174 91.386229,34.7067421 89.8615437,34.7067421 C88.3377707,34.7067421 87.101416,33.4810174 87.101416,31.9688658 C87.101416,30.4567143 88.3377707,29.2300802 89.8615437,29.2300802" id="Fill-14" sketch:type="MSShapeGroup"></path>
                <path d="M62.2310693,30.8758976 C63.7557547,30.8758976 64.991197,32.1025316 64.991197,33.6146832 C64.991197,35.1268347 63.7557547,36.3525595 62.2310693,36.3525595 C60.7072964,36.3525595 59.4718541,35.1268347 59.4718541,33.6146832 C59.4718541,32.1025316 60.7072964,30.8758976 62.2310693,30.8758976" id="Fill-15" sketch:type="MSShapeGroup"></path>
                <path d="M96.56067,32.774498 C97.9731254,32.774498 99.1182362,33.9102029 99.1182362,35.3114209 C99.1182362,36.7135482 97.9731254,37.8492531 96.56067,37.8492531 C95.1482146,37.8492531 94.0031038,36.7135482 94.0031038,35.3114209 C94.0031038,33.9102029 95.1482146,32.774498 96.56067,32.774498" id="Fill-16" sketch:type="MSShapeGroup"></path>
                <path d="M103.136617,37.2045655 C104.436842,37.2045655 105.490709,38.2502506 105.490709,39.540535 C105.490709,40.8308195 104.436842,41.8765045 103.136617,41.8765045 C101.836392,41.8765045 100.782525,40.8308195 100.782525,39.540535 C100.782525,38.2502506 101.836392,37.2045655 103.136617,37.2045655" id="Fill-17" sketch:type="MSShapeGroup"></path>
                <path d="M62.2319818,37.9474565 C63.5322072,37.9474565 64.5869865,38.9931416 64.5869865,40.2834261 C64.5869865,41.5737105 63.5322072,42.6193956 62.2319818,42.6193956 C60.9317564,42.6193956 59.8778894,41.5737105 59.8778894,40.2834261 C59.8778894,38.9931416 60.9317564,37.9474565 62.2319818,37.9474565" id="Fill-18" sketch:type="MSShapeGroup"></path>
                <path d="M109.06382,41.8774138 C110.251815,41.8774138 111.214438,42.833079 111.214438,44.0115206 C111.214438,45.1899623 110.251815,46.1465368 109.06382,46.1465368 C107.875825,46.1465368 106.912289,45.1899623 106.912289,44.0115206 C106.912289,42.833079 107.875825,41.8774138 109.06382,41.8774138" id="Fill-19" sketch:type="MSShapeGroup"></path>
                <path d="M113.651563,46.6702886 C114.728241,46.6702886 115.600532,47.535934 115.600532,48.6043513 C115.600532,49.6718594 114.728241,50.5375048 113.651563,50.5375048 C112.575797,50.5375048 111.702593,49.6718594 111.702593,48.6043513 C111.702593,47.535934 112.575797,46.6702886 113.651563,46.6702886" id="Fill-20" sketch:type="MSShapeGroup"></path>
                <path d="M62.2319818,44.2133833 C63.3086596,44.2133833 64.1809512,45.0790287 64.1809512,46.1465368 C64.1809512,47.2149541 63.3086596,48.0805995 62.2319818,48.0805995 C61.1562163,48.0805995 60.2830123,47.2149541 60.2830123,46.1465368 C60.2830123,45.0790287 61.1562163,44.2133833 62.2319818,44.2133833" id="Fill-21" sketch:type="MSShapeGroup"></path>
                <path d="M63.804114,15.7616565 L63.804114,11.7471351 L68.9384076,13.9776269 L68.9384076,4.98018881 L63.735681,8.00176401 L66.9346918,0.811997189 L57.5274469,0.811997189 L60.7264576,8.00176401 L55.5228186,4.98018881 L55.5228186,13.9776269 L60.6580247,11.7471351 L60.6580247,15.7616565 C57.6177783,16.4690852 55.3512801,19.1705898 55.3512801,22.4031207 C55.3512801,26.1730427 58.4307614,29.2300802 62.2310693,29.2300802 C66.0313773,29.2300802 69.111771,26.1730427 69.111771,22.4031207 C69.111771,19.1705898 66.8452728,16.4690852 63.804114,15.7616565 L63.804114,15.7616565 Z M61.5011182,17.910312 L61.5011182,21.5356567 L58.7409906,20.085337 L61.5011182,17.910312 L61.5011182,17.910312 Z M58.301195,25.2273796 C58.301195,25.2273796 62.251143,23.7106816 65.8571015,26.3203479 C65.8571015,26.3203479 59.9682209,29.2155316 58.301195,25.2273796 L58.301195,25.2273796 Z M63.856123,21.5356567 L63.856123,17.910312 L66.587965,19.7225297 L63.856123,21.5356567 L63.856123,21.5356567 Z" id="Fill-22" sketch:type="MSShapeGroup"></path>
            </g>
        </g>
    </g>
</svg>