<?xml version="1.0" encoding="utf-8"?>
<!-- Generator: Adobe Illustrator 16.0.0, SVG Export Plug-In . SVG Version: 6.00 Build 0)  -->
<!DOCTYPE svg PUBLIC "-//W3C//DTD SVG 1.1//EN" "http://www.w3.org/Graphics/SVG/1.1/DTD/svg11.dtd">
<svg version="1.1" id="Layer_1" xmlns="http://www.w3.org/2000/svg" xmlns:xlink="http://www.w3.org/1999/xlink" x="0px" y="0px"
	 width="43px" height="42px" viewBox="0 0 43 42" enable-background="new 0 0 43 42" xml:space="preserve">
<path fill="#E7518F" d="M33.07,27.857l-9.067-16.045c-1.1-1.905-2.9-2.075-4-0.17l-9.068,16.301c-1.1,1.905-0.2,4.058,2,4.058H31.07
	C33.271,32,34.17,29.762,33.07,27.857z M21,16.463c0-0.552,0.448-1,1-1s1,0.448,1,1v6.938c0,0.552-0.448,1-1,1s-1-0.448-1-1V16.463z
	 M22.003,27.984c-0.668,0-1.209-0.541-1.209-1.208c0-0.667,0.541-1.208,1.209-1.208c0.667,0,1.208,0.541,1.208,1.208
	C23.211,27.443,22.67,27.984,22.003,27.984z"/>
</svg>
