<?xml version="1.0" encoding="utf-8"?>
<!-- Generator: Adobe Illustrator 16.0.0, SVG Export Plug-In . SVG Version: 6.00 Build 0)  -->
<!DOCTYPE svg PUBLIC "-//W3C//DTD SVG 1.1//EN" "http://www.w3.org/Graphics/SVG/1.1/DTD/svg11.dtd">
<svg version="1.1" id="Layer_1" xmlns="http://www.w3.org/2000/svg" xmlns:xlink="http://www.w3.org/1999/xlink" x="0px" y="0px"
	 width="197.333px" height="42px" viewBox="0 0 197.333 42" enable-background="new 0 0 197.333 42" xml:space="preserve">
<g>
	<g>
		<defs>
			<filter id="Adobe_OpacityMaskFilter" filterUnits="userSpaceOnUse" x="8.06" y="6.859" width="28.022" height="28.021">
				<feFlood  style="flood-color:white;flood-opacity:1" result="back"/>
				<feBlend  in="SourceGraphic" in2="back" mode="normal"/>
			</filter>
		</defs>
		<mask maskUnits="userSpaceOnUse" x="8.06" y="6.859" width="28.022" height="28.021" id="SVGID_1_">
			<g filter="url(#Adobe_OpacityMaskFilter)">
				
					<image overflow="visible" width="810" height="810" xlink:href="E86940FF1AAE84D8.jpg"  transform="matrix(0.0353 0 0 0.0353 7.7764 6.5752)">
				</image>
			</g>
		</mask>
		<g mask="url(#SVGID_1_)">
			<defs>
				<filter id="Adobe_OpacityMaskFilter_1_" filterUnits="userSpaceOnUse" x="8.06" y="6.859" width="28.022" height="28.021">
					<feFlood  style="flood-color:white;flood-opacity:1" result="back"/>
					<feBlend  in="SourceGraphic" in2="back" mode="normal"/>
				</filter>
			</defs>
			<mask maskUnits="userSpaceOnUse" x="8.06" y="6.859" width="28.022" height="28.021" id="SVGID_1_">
				<g filter="url(#Adobe_OpacityMaskFilter_1_)">
					
						<image overflow="visible" width="810" height="810" xlink:href="E86940FF1AAE84D9.jpg"  transform="matrix(0.0353 0 0 0.0353 7.7764 6.5752)">
					</image>
				</g>
			</mask>
			<g>
				<radialGradient id="SVGID_2_" cx="21.9961" cy="20.8701" r="13.9258" gradientUnits="userSpaceOnUse">
					<stop  offset="0.9141" style="stop-color:#010101"/>
					<stop  offset="0.9262" style="stop-color:#010101;stop-opacity:0.8728"/>
					<stop  offset="1" style="stop-color:#010101;stop-opacity:0.1"/>
				</radialGradient>
				<path fill="url(#SVGID_2_)" d="M35.997,20.871c0,7.69-6.234,13.925-13.926,13.925S8.145,28.562,8.145,20.871
					c0-7.693,6.235-13.927,13.927-13.927S35.997,13.178,35.997,20.871z"/>
				<path fill="none" stroke="#FFFFFF" stroke-width="0.1694" stroke-miterlimit="10" d="M35.997,20.871
					c0,7.69-6.234,13.925-13.926,13.925S8.145,28.562,8.145,20.871c0-7.693,6.235-13.927,13.927-13.927S35.997,13.178,35.997,20.871
					z"/>
			</g>
		</g>
	</g>
	<radialGradient id="SVGID_3_" cx="22.3164" cy="29.4082" r="12.973" gradientUnits="userSpaceOnUse">
		<stop  offset="0.0368" style="stop-color:#D1D2D3"/>
		<stop  offset="0.3929" style="stop-color:#DFDFE0"/>
		<stop  offset="1" style="stop-color:#FFFFFF"/>
	</radialGradient>
	<circle fill="url(#SVGID_3_)" cx="22.071" cy="20.722" r="12.973"/>
	<ellipse fill="#FFFFFF" cx="22.071" cy="20.303" rx="12.973" ry="12.777"/>
	<g opacity="0.1">
		<defs>
			<circle id="SVGID_40_" opacity="0.1" cx="22.071" cy="20.623" r="12.996"/>
		</defs>
		<clipPath id="SVGID_5_">
			<use xlink:href="#SVGID_40_"  overflow="visible"/>
		</clipPath>
		
			<radialGradient id="SVGID_6_" cx="13.2979" cy="25.417" r="14.0602" gradientTransform="matrix(0.9999 -0.011 0.011 0.9999 8.4951 -4.6457)" gradientUnits="userSpaceOnUse">
			<stop  offset="0.2393" style="stop-color:#FFFFFF"/>
			<stop  offset="0.3591" style="stop-color:#FCFCFC;stop-opacity:0.9194"/>
			<stop  offset="0.452" style="stop-color:#F4F3F2;stop-opacity:0.857"/>
			<stop  offset="0.5358" style="stop-color:#E6E4E2;stop-opacity:0.8007"/>
			<stop  offset="0.6142" style="stop-color:#D2CECA;stop-opacity:0.748"/>
			<stop  offset="0.6889" style="stop-color:#B9B3AC;stop-opacity:0.6977"/>
			<stop  offset="0.7608" style="stop-color:#999187;stop-opacity:0.6494"/>
			<stop  offset="0.8293" style="stop-color:#75695C;stop-opacity:0.6034"/>
			<stop  offset="0.8344" style="stop-color:#726659;stop-opacity:0.6"/>
			<stop  offset="0.85" style="stop-color:#8B7F73;stop-opacity:0.6407"/>
			<stop  offset="0.8687" style="stop-color:#A89E94;stop-opacity:0.6897"/>
			<stop  offset="0.8885" style="stop-color:#C2BBB4;stop-opacity:0.7412"/>
			<stop  offset="0.9093" style="stop-color:#D9D4CF;stop-opacity:0.7953"/>
			<stop  offset="0.9314" style="stop-color:#EBE8E6;stop-opacity:0.8531"/>
			<stop  offset="0.956" style="stop-color:#F9F7F6;stop-opacity:0.9172"/>
			<stop  offset="0.9877" style="stop-color:#FFFFFF"/>
		</radialGradient>
		<path clip-path="url(#SVGID_5_)" fill="url(#SVGID_6_)" d="M2.382,20.506l0.067-0.07l20.239,19.8l-0.068,0.069L2.382,20.506z
			 M2.584,20.298l0.067-0.07l20.239,19.801l-0.067,0.069L2.584,20.298z M2.787,20.091l0.067-0.069l20.24,19.8l-0.068,0.069
			L2.787,20.091z M2.991,19.884l0.066-0.07l20.238,19.801l-0.066,0.068L2.991,19.884z M3.192,19.677l0.068-0.071l20.239,19.8
			l-0.067,0.07L3.192,19.677z M3.396,19.469l0.068-0.069l20.238,19.799l-0.067,0.07L3.396,19.469z M3.599,19.26l0.067-0.068
			l20.239,19.8l-0.066,0.069L3.599,19.26z M3.802,19.054l0.068-0.069l20.238,19.8l-0.067,0.068L3.802,19.054z M4.005,18.846
			l0.067-0.069l20.239,19.8l-0.068,0.069L4.005,18.846z M4.208,18.639l0.067-0.068l20.239,19.799l-0.068,0.069L4.208,18.639z
			 M4.411,18.431l0.066-0.068l20.239,19.8l-0.067,0.068L4.411,18.431z M4.614,18.225l0.066-0.069l20.239,19.8l-0.067,0.068
			L4.614,18.225z M4.815,18.017l0.068-0.07l20.238,19.8l-0.066,0.07L4.815,18.017z M5.02,17.81l0.067-0.069l20.239,19.799
			l-0.067,0.07L5.02,17.81z M5.222,17.603l0.068-0.07l20.238,19.8l-0.067,0.069L5.222,17.603z M5.425,17.396l0.068-0.07l20.238,19.8
			l-0.067,0.07L5.425,17.396z M5.628,17.187l0.067-0.069l20.239,19.8l-0.068,0.07L5.628,17.187z M5.831,16.979l0.068-0.069
			l20.238,19.799l-0.068,0.07L5.831,16.979z M6.033,16.771l0.067-0.068l20.24,19.8l-0.068,0.068L6.033,16.771z M6.237,16.565
			l0.066-0.069l20.24,19.799l-0.068,0.07L6.237,16.565z M6.438,16.357l0.069-0.069l20.238,19.8l-0.067,0.069L6.438,16.357z
			 M6.642,16.15l0.068-0.068L26.95,35.88l-0.069,0.07L6.642,16.15z M6.846,15.943l0.067-0.07l20.238,19.801l-0.067,0.067
			L6.846,15.943z M7.048,15.736l0.068-0.069l20.238,19.798l-0.066,0.07L7.048,15.736z M7.251,15.527l0.068-0.068l20.238,19.799
			l-0.068,0.069L7.251,15.527z M7.454,15.322l0.066-0.071l20.24,19.8l-0.068,0.069L7.454,15.322z M7.656,15.113l0.068-0.069
			l20.239,19.8l-0.068,0.069L7.656,15.113z M7.86,14.905l0.066-0.068l20.239,19.799l-0.067,0.068L7.86,14.905z M8.062,14.698
			l0.069-0.068l20.238,19.8l-0.068,0.067L8.062,14.698z M8.266,14.49l0.067-0.068l20.239,19.8l-0.067,0.068L8.266,14.49z
			 M8.468,14.283l0.068-0.067l20.239,19.799l-0.068,0.068L8.468,14.283z M8.671,14.075l0.068-0.067l20.238,19.8l-0.067,0.067
			L8.671,14.075z M8.874,13.869L8.941,13.8l20.239,19.801l-0.068,0.068L8.874,13.869z M9.077,13.661l0.067-0.069l20.239,19.799
			l-0.068,0.07L9.077,13.661z M9.28,13.454l0.066-0.069l20.24,19.799l-0.068,0.07L9.28,13.454z M9.483,13.245l0.066-0.068
			l20.239,19.799l-0.067,0.07L9.483,13.245z M9.687,13.04l0.066-0.07l20.239,19.8l-0.067,0.068L9.687,13.04z M9.889,12.831
			l0.067-0.069l20.239,19.8l-0.067,0.07L9.889,12.831z M10.092,12.624l0.067-0.068l20.239,19.799l-0.067,0.069L10.092,12.624z
			 M10.294,12.416l0.068-0.068l20.238,19.8l-0.066,0.068L10.294,12.416z M10.497,12.21l0.068-0.069l20.238,19.8l-0.068,0.069
			L10.497,12.21z M10.7,12.002l0.068-0.068l20.238,19.799l-0.067,0.069L10.7,12.002z M10.903,11.795l0.067-0.068L31.21,31.523
			l-0.067,0.071L10.903,11.795z M11.106,11.588l0.067-0.07l20.239,19.801l-0.068,0.068L11.106,11.588z M11.31,11.381l0.066-0.071
			l20.24,19.8l-0.068,0.071L11.31,11.381z M11.512,11.173l0.067-0.07l20.239,19.8l-0.067,0.07L11.512,11.173z M11.715,10.965
			l0.067-0.069l20.239,19.8l-0.067,0.069L11.715,10.965z M11.917,10.758l0.068-0.069l20.239,19.8l-0.067,0.068L11.917,10.758z
			 M12.121,10.551l0.067-0.07l20.238,19.8l-0.067,0.069L12.121,10.551z M12.323,10.343l0.068-0.068l20.238,19.8l-0.067,0.068
			L12.323,10.343z M12.526,10.137l0.068-0.07l20.238,19.8l-0.067,0.068L12.526,10.137z M12.729,9.929l0.066-0.069l20.24,19.8
			l-0.068,0.068L12.729,9.929z M12.933,9.721L13,9.65l20.239,19.801l-0.067,0.069L12.933,9.721z M13.135,9.514l0.067-0.069
			l20.24,19.801l-0.068,0.068L13.135,9.514z M13.337,9.307l0.068-0.07l20.239,19.8l-0.067,0.068L13.337,9.307z M13.542,9.1
			l0.066-0.07l20.239,19.8l-0.067,0.07L13.542,9.1z M13.743,8.891l0.068-0.068l20.239,19.8l-0.068,0.068L13.743,8.891z
			 M13.946,8.684l0.068-0.068l20.238,19.8l-0.067,0.067L13.946,8.684z M14.149,8.476l0.068-0.068l20.238,19.8l-0.067,0.069
			L14.149,8.476z M14.353,8.269l0.067-0.067L34.659,28l-0.067,0.068L14.353,8.269z M14.555,8.061l0.068-0.067l20.238,19.799
			l-0.067,0.068L14.555,8.061z M14.758,7.854l0.068-0.068l20.239,19.8l-0.067,0.067L14.758,7.854z M14.962,7.646l0.066-0.069
			l20.239,19.801L35.2,27.445L14.962,7.646z M15.164,7.439l0.067-0.069l20.239,19.799l-0.067,0.07L15.164,7.439z M15.367,7.231
			l0.067-0.068l20.239,19.8l-0.067,0.068L15.367,7.231z M15.569,7.025l0.068-0.069l20.238,19.799l-0.067,0.069L15.569,7.025z
			 M15.772,6.816l0.068-0.068l20.238,19.799l-0.067,0.07L15.772,6.816z M15.976,6.609l0.067-0.067L36.282,26.34l-0.068,0.069
			L15.976,6.609z M16.179,6.401l0.067-0.067l20.239,19.799l-0.068,0.07L16.179,6.401z M16.382,6.195l0.066-0.07l20.239,19.8
			l-0.067,0.07L16.382,6.195z M16.585,5.987l0.067-0.069l20.239,19.8l-0.068,0.069L16.585,5.987z M16.787,5.779l0.067-0.068
			L37.094,25.51l-0.067,0.07L16.787,5.779z M16.989,5.573l0.068-0.069l20.239,19.8l-0.067,0.068L16.989,5.573z M17.192,5.365
			l0.068-0.07l20.238,19.801l-0.066,0.07L17.192,5.365z M17.396,5.158l0.068-0.069l20.238,19.799l-0.068,0.07L17.396,5.158z
			 M17.599,4.95l0.067-0.069l20.239,19.8l-0.068,0.069L17.599,4.95z M17.802,4.744l0.068-0.07l20.238,19.8l-0.067,0.068
			L17.802,4.744z M18.004,4.535l0.069-0.068l20.237,19.799l-0.067,0.069L18.004,4.535z M18.207,4.328l0.068-0.068l20.239,19.799
			l-0.068,0.069L18.207,4.328z M18.411,4.121l0.066-0.069l20.239,19.8l-0.067,0.068L18.411,4.121z M18.612,3.914l0.068-0.069
			l20.24,19.8l-0.068,0.069L18.612,3.914z M18.816,3.706l0.067-0.07l20.238,19.801l-0.067,0.069L18.816,3.706z M19.019,3.499
			l0.068-0.068l20.238,19.798l-0.067,0.07L19.019,3.499z M19.222,3.292l0.068-0.07l20.238,19.801l-0.068,0.068L19.222,3.292z
			 M19.425,3.085l0.067-0.07l20.239,19.8l-0.068,0.069L19.425,3.085z M19.628,2.877l0.066-0.069l20.24,19.799l-0.067,0.07
			L19.628,2.877z M19.831,2.669l0.066-0.068l20.239,19.799l-0.067,0.07L19.831,2.669z M20.033,2.462l0.067-0.069l20.24,19.8
			l-0.068,0.07L20.033,2.462z M20.236,2.255l0.067-0.068l20.239,19.799l-0.067,0.068L20.236,2.255z M20.438,2.047l0.068-0.068
			l20.239,19.8l-0.067,0.067L20.438,2.047z M20.643,1.841l0.067-0.07l20.238,19.799l-0.067,0.069L20.643,1.841z M20.845,1.633
			l0.068-0.069l20.238,19.799l-0.066,0.069L20.845,1.633z M21.048,1.426l0.068-0.069l20.238,19.798l-0.068,0.069L21.048,1.426z
			 M21.251,1.219l0.068-0.07l20.238,19.8l-0.068,0.068L21.251,1.219z M21.454,1.012l0.067-0.071l20.239,19.799l-0.068,0.07
			L21.454,1.012z"/>
	</g>
	
		<radialGradient id="SVGID_7_" cx="31.4023" cy="23.9189" r="25.2962" gradientTransform="matrix(0.713 -0.7012 0.0209 0.0212 8.5138 45.4301)" gradientUnits="userSpaceOnUse">
		<stop  offset="0.1104" style="stop-color:#D1D2D3"/>
		<stop  offset="0.1946" style="stop-color:#BCBCBE"/>
		<stop  offset="0.3458" style="stop-color:#A0A0A2"/>
		<stop  offset="0.4947" style="stop-color:#8E8E91"/>
		<stop  offset="0.6389" style="stop-color:#848587"/>
		<stop  offset="0.773" style="stop-color:#808184"/>
	</radialGradient>
	<path fill="url(#SVGID_7_)" d="M35.1,20.146c-0.044,0.043-1.412,1.321-2.477,2.412c-2.521,2.582-6.926,7.035-9.823,10.039
		c-1.727,1.789-2.886,3.099-2.886,3.099s1.312-1.155,3.104-2.876c3.013-2.894,7.481-7.292,10.066-9.801
		c1.079-1.048,2.383-2.409,2.432-2.457C35.919,20.16,35.477,19.771,35.1,20.146z M35.378,20.449l-1.795,1.796
		c-0.057,0.057-0.145,0.063-0.195,0.013c-0.05-0.05-0.044-0.138,0.014-0.195l1.794-1.793c0.058-0.06,0.145-0.064,0.195-0.013
		C35.44,20.305,35.435,20.393,35.378,20.449z"/>
	<g>
		<path fill="#EF4137" d="M34.013,20.938c-0.018,0.091-0.008,0.186,0.062,0.252c0.086,0.079,0.225,0.068,0.326,0.034
			c0.048-0.015,0.16-0.058,0.141-0.128c-0.018-0.068-0.139-0.058-0.186-0.043c-0.064,0.021,0.026,0.006,0.016,0
			c-0.01-0.004-0.02-0.021-0.023-0.031c-0.02-0.039-0.017-0.081-0.009-0.123C34.367,20.771,34.036,20.824,34.013,20.938
			L34.013,20.938z"/>
	</g>
	<g>
		<path fill="#EF4137" d="M34.261,21.155c0.755,0.121,0.506,1.122,0.535,1.665c0.039,0.737,0.602,0.903,1.253,0.84
			c0.16-0.016,0.272-0.203,0.046-0.181c-1.836,0.184-0.179-2.268-1.634-2.501C34.358,20.962,34.075,21.125,34.261,21.155
			L34.261,21.155z"/>
	</g>
	
		<radialGradient id="SVGID_8_" cx="22.2676" cy="16.5977" r="13.6693" gradientTransform="matrix(1 0 0 0.8111 0 3.136)" gradientUnits="userSpaceOnUse">
		<stop  offset="0.184" style="stop-color:#EF4137"/>
		<stop  offset="1" style="stop-color:#BE202E"/>
	</radialGradient>
	<path fill="url(#SVGID_8_)" d="M15.634,26.049c0.02,0.021,0.027,0.052,0.016,0.08s-0.039,0.046-0.068,0.046h-0.105
		c-0.041,0-0.073-0.033-0.073-0.074v-0.104c0-0.03,0.017-0.058,0.046-0.069c0.027-0.011,0.059-0.004,0.08,0.017L15.634,26.049z
		 M15.528,25.533c-0.021-0.02-0.053-0.026-0.08-0.015c-0.029,0.011-0.046,0.038-0.046,0.066v0.138c0,0.021,0.009,0.039,0.022,0.053
		l0.377,0.378c0.015,0.014,0.033,0.021,0.053,0.021h0.137c0.029,0,0.057-0.018,0.068-0.046s0.005-0.06-0.017-0.08L15.528,25.533z
		 M15.528,25.125c-0.021-0.021-0.053-0.028-0.08-0.017c-0.029,0.01-0.046,0.038-0.046,0.068v0.137c0,0.019,0.009,0.038,0.022,0.053
		l0.788,0.787c0.013,0.014,0.032,0.021,0.052,0.021h0.137c0.029,0,0.057-0.018,0.067-0.046s0.005-0.06-0.016-0.08L15.528,25.125z
		 M15.528,24.715c-0.021-0.021-0.053-0.03-0.08-0.017c-0.029,0.012-0.046,0.038-0.046,0.068v0.136c0,0.02,0.009,0.039,0.022,0.053
		l1.197,1.198c0.015,0.014,0.033,0.021,0.053,0.021h0.137c0.029,0,0.056-0.018,0.067-0.046s0.005-0.06-0.017-0.08L15.528,24.715z
		 M15.528,24.303c-0.021-0.021-0.053-0.025-0.08-0.016c-0.029,0.012-0.046,0.039-0.046,0.067v0.138c0,0.021,0.009,0.039,0.022,0.052
		l1.607,1.609c0.014,0.014,0.032,0.021,0.053,0.021h0.137c0.029,0,0.057-0.018,0.067-0.046c0.013-0.028,0.005-0.06-0.016-0.08
		L15.528,24.303z M15.528,23.894c-0.021-0.021-0.053-0.026-0.08-0.016c-0.029,0.011-0.046,0.037-0.046,0.068v0.137
		c0,0.019,0.009,0.039,0.022,0.052l2.018,2.019c0.014,0.014,0.033,0.021,0.053,0.021h0.137c0.029,0,0.056-0.018,0.067-0.046
		c0.011-0.028,0.005-0.06-0.016-0.08L15.528,23.894z M15.528,23.484c-0.021-0.022-0.053-0.028-0.08-0.016
		c-0.029,0.01-0.046,0.037-0.046,0.067v0.137c0,0.02,0.009,0.039,0.022,0.051l2.428,2.43c0.014,0.014,0.033,0.021,0.053,0.021h0.136
		c0.031,0,0.058-0.018,0.068-0.046c0.012-0.028,0.005-0.06-0.016-0.08L15.528,23.484z M15.528,23.074
		c-0.021-0.02-0.053-0.028-0.08-0.016c-0.029,0.012-0.046,0.038-0.046,0.067v0.137c0,0.02,0.009,0.037,0.022,0.053l2.705,2.704
		c0.014,0.014,0.033,0.022,0.052,0.022c0.01,0,0.019-0.001,0.028-0.006c0.027-0.011,0.045-0.039,0.045-0.068v-0.137
		c0-0.021-0.008-0.039-0.021-0.051L15.528,23.074z M15.528,22.664c-0.021-0.021-0.053-0.028-0.08-0.017
		c-0.029,0.012-0.046,0.039-0.046,0.069v0.136c0,0.02,0.009,0.038,0.022,0.053l2.705,2.706c0.014,0.014,0.033,0.021,0.052,0.021
		c0.01,0,0.019-0.002,0.028-0.006c0.027-0.012,0.045-0.039,0.045-0.068v-0.138c0-0.019-0.008-0.037-0.021-0.05L15.528,22.664z
		 M15.528,22.254c-0.021-0.021-0.053-0.026-0.08-0.016c-0.029,0.011-0.046,0.039-0.046,0.067v0.138c0,0.018,0.009,0.037,0.022,0.052
		L18.13,25.2c0.014,0.015,0.033,0.021,0.052,0.021c0.01,0,0.019-0.002,0.028-0.004c0.027-0.013,0.045-0.04,0.045-0.068v-0.139
		c0-0.018-0.008-0.036-0.021-0.051L15.528,22.254z M15.528,21.844c-0.021-0.021-0.053-0.026-0.08-0.016
		c-0.029,0.012-0.046,0.038-0.046,0.067v0.137c0,0.021,0.009,0.039,0.022,0.054l2.705,2.703c0.014,0.015,0.033,0.022,0.052,0.022
		c0.01,0,0.019-0.002,0.028-0.005c0.027-0.013,0.045-0.038,0.045-0.069v-0.136c0-0.02-0.008-0.038-0.021-0.053L15.528,21.844z
		 M15.528,21.435c-0.021-0.022-0.053-0.028-0.08-0.018c-0.029,0.013-0.046,0.039-0.046,0.069v0.137c0,0.02,0.009,0.038,0.022,0.052
		l2.705,2.705c0.014,0.015,0.033,0.021,0.052,0.021c0.01,0,0.019-0.002,0.028-0.006c0.027-0.011,0.045-0.038,0.045-0.066v-0.137
		c0-0.021-0.008-0.04-0.021-0.054L15.528,21.435z M15.528,21.023c-0.021-0.021-0.053-0.026-0.08-0.016
		c-0.029,0.013-0.046,0.039-0.046,0.067v0.138c0,0.021,0.009,0.038,0.022,0.052l2.705,2.706c0.014,0.014,0.033,0.021,0.052,0.021
		c0.01,0,0.019-0.001,0.028-0.006c0.027-0.011,0.045-0.038,0.045-0.067v-0.138c0-0.019-0.008-0.038-0.021-0.051L15.528,21.023z
		 M15.528,20.614c-0.021-0.021-0.053-0.027-0.08-0.016c-0.029,0.011-0.046,0.037-0.046,0.067v0.136c0,0.021,0.009,0.04,0.022,0.054
		l2.705,2.705c0.014,0.016,0.033,0.021,0.052,0.021c0.01,0,0.019-0.001,0.028-0.006c0.027-0.011,0.045-0.038,0.045-0.068v-0.137
		c0-0.02-0.008-0.038-0.021-0.052L15.528,20.614z M21.001,25.677c-0.021-0.021-0.053-0.025-0.08-0.016
		c-0.027,0.012-0.045,0.038-0.045,0.067v0.137c0,0.021,0.008,0.039,0.021,0.052l0.234,0.236c0.015,0.014,0.033,0.021,0.053,0.021
		h0.137c0.029,0,0.057-0.018,0.068-0.046s0.005-0.06-0.016-0.08L21.001,25.677z M15.528,20.204c-0.021-0.021-0.053-0.028-0.08-0.017
		c-0.029,0.013-0.046,0.038-0.046,0.069v0.136c0,0.019,0.009,0.038,0.022,0.053l2.705,2.705c0.014,0.015,0.033,0.022,0.052,0.022
		c0.01,0,0.019-0.002,0.028-0.005c0.027-0.014,0.045-0.04,0.045-0.068v-0.138c0-0.021-0.008-0.039-0.021-0.052L15.528,20.204z
		 M21.001,25.267c-0.021-0.021-0.053-0.027-0.08-0.015c-0.027,0.011-0.045,0.037-0.045,0.067v0.137c0,0.02,0.008,0.039,0.021,0.052
		l0.645,0.646c0.014,0.014,0.032,0.021,0.053,0.021h0.137c0.029,0,0.057-0.018,0.067-0.046s0.005-0.06-0.017-0.08L21.001,25.267z
		 M15.528,19.794c-0.021-0.021-0.053-0.026-0.08-0.018c-0.029,0.013-0.046,0.041-0.046,0.068v0.138c0,0.021,0.009,0.037,0.022,0.052
		l2.705,2.706c0.014,0.015,0.033,0.021,0.052,0.021c0.01,0,0.019-0.001,0.028-0.005c0.027-0.012,0.045-0.038,0.045-0.068v-0.136
		c0-0.02-0.008-0.039-0.021-0.053L15.528,19.794z M21.001,24.856c-0.021-0.021-0.053-0.027-0.08-0.016
		c-0.027,0.011-0.045,0.039-0.045,0.067v0.138c0,0.02,0.008,0.038,0.021,0.051l1.056,1.057c0.014,0.014,0.032,0.021,0.052,0.021
		h0.136c0.03,0,0.057-0.018,0.067-0.046c0.013-0.028,0.006-0.06-0.016-0.08L21.001,24.856z M15.528,19.384
		c-0.021-0.021-0.053-0.027-0.08-0.016c-0.029,0.011-0.046,0.038-0.046,0.067v0.138c0,0.021,0.009,0.038,0.022,0.051l2.705,2.706
		c0.014,0.015,0.033,0.021,0.052,0.021c0.01,0,0.019-0.001,0.028-0.004c0.027-0.011,0.045-0.038,0.045-0.068v-0.137
		c0-0.019-0.008-0.038-0.021-0.053L15.528,19.384z M21.001,24.446c-0.021-0.02-0.053-0.026-0.08-0.015
		c-0.027,0.011-0.045,0.038-0.045,0.067v0.137c0,0.021,0.008,0.038,0.021,0.053l1.465,1.465c0.014,0.014,0.033,0.021,0.052,0.021
		h0.137c0.03,0,0.058-0.018,0.068-0.046s0.005-0.06-0.017-0.08L21.001,24.446z M15.528,18.975c-0.021-0.021-0.053-0.028-0.08-0.016
		c-0.029,0.011-0.046,0.037-0.046,0.068v0.137c0,0.019,0.009,0.038,0.022,0.052l2.705,2.706c0.014,0.012,0.033,0.021,0.052,0.021
		c0.01,0,0.019-0.005,0.028-0.008c0.027-0.011,0.045-0.038,0.045-0.066v-0.138c0-0.021-0.008-0.038-0.021-0.053L15.528,18.975z
		 M21.001,24.038c-0.021-0.021-0.053-0.027-0.08-0.017s-0.045,0.038-0.045,0.068v0.135c0,0.021,0.008,0.04,0.021,0.054l1.875,1.875
		c0.014,0.014,0.032,0.021,0.053,0.021h0.135c0.031,0,0.058-0.018,0.069-0.046c0.011-0.028,0.005-0.06-0.017-0.08L21.001,24.038z
		 M15.528,18.563c-0.021-0.02-0.055-0.028-0.081-0.017c-0.028,0.013-0.046,0.038-0.045,0.069v0.137c0,0.019,0.009,0.038,0.022,0.051
		l2.705,2.707c0.014,0.013,0.033,0.022,0.052,0.022c0.01,0,0.019-0.002,0.028-0.008c0.027-0.01,0.045-0.038,0.045-0.067v-0.136
		c0-0.02-0.008-0.038-0.021-0.052L15.528,18.563z M21.001,23.628c-0.021-0.022-0.053-0.028-0.08-0.018
		c-0.027,0.013-0.045,0.039-0.045,0.068v0.138c0,0.019,0.008,0.036,0.021,0.052l2.285,2.285c0.014,0.014,0.031,0.021,0.052,0.021
		h0.137c0.029,0,0.056-0.018,0.067-0.046s0.006-0.06-0.016-0.08L21.001,23.628z M15.522,18.149c-0.021-0.021-0.052-0.028-0.08-0.017
		c-0.027,0.013-0.045,0.039-0.045,0.07l0.002,0.138c0,0.019,0.008,0.038,0.021,0.051l2.709,2.709
		c0.014,0.015,0.033,0.021,0.052,0.021c0.01,0,0.019-0.001,0.028-0.004c0.027-0.013,0.045-0.038,0.045-0.069v-0.136
		c0-0.02-0.008-0.039-0.021-0.053L15.522,18.149z M21.001,23.216c-0.021-0.02-0.053-0.025-0.08-0.015s-0.045,0.039-0.045,0.066
		v0.138c0,0.021,0.008,0.037,0.021,0.052l2.622,2.625c0.015,0.013,0.033,0.021,0.053,0.021c0.009,0,0.019-0.002,0.028-0.006
		c0.027-0.012,0.045-0.039,0.045-0.067v-0.136c0-0.021-0.008-0.039-0.021-0.053L21.001,23.216z M15.509,17.725
		c-0.021-0.021-0.054-0.026-0.081-0.014c-0.028,0.011-0.044,0.039-0.044,0.07l0.006,0.142c0,0.019,0.008,0.037,0.021,0.049
		l2.719,2.719c0.014,0.016,0.033,0.021,0.052,0.021c0.01,0,0.019-0.002,0.028-0.006c0.027-0.012,0.045-0.038,0.045-0.067v-0.138
		c0-0.02-0.008-0.037-0.021-0.052L15.509,17.725z M15.481,17.285c-0.022-0.021-0.057-0.027-0.084-0.014
		c-0.029,0.013-0.045,0.042-0.043,0.074c0.004,0.047,0.008,0.096,0.013,0.146c0.001,0.019,0.009,0.035,0.021,0.048l2.742,2.741
		c0.014,0.014,0.033,0.021,0.052,0.021c0.01,0,0.019-0.002,0.028-0.005c0.027-0.013,0.045-0.039,0.045-0.069v-0.136
		c0-0.02-0.008-0.038-0.021-0.053L15.481,17.285z M21.001,22.806c-0.021-0.021-0.053-0.025-0.08-0.014
		c-0.027,0.01-0.045,0.037-0.045,0.067v0.138c0,0.019,0.008,0.038,0.021,0.051l2.622,2.623c0.015,0.014,0.033,0.021,0.053,0.021
		c0.009,0,0.019-0.001,0.028-0.006c0.027-0.011,0.045-0.036,0.045-0.068v-0.137c0-0.021-0.008-0.038-0.021-0.052L21.001,22.806z
		 M21.001,22.397c-0.021-0.021-0.053-0.029-0.08-0.016c-0.027,0.01-0.045,0.036-0.045,0.068v0.136c0,0.02,0.008,0.038,0.021,0.052
		l2.622,2.622c0.015,0.016,0.033,0.023,0.053,0.023c0.009,0,0.019-0.003,0.028-0.006c0.027-0.013,0.045-0.039,0.045-0.069v-0.137
		c0-0.02-0.008-0.039-0.021-0.051L21.001,22.397z M15.419,16.814c-0.022-0.022-0.057-0.028-0.086-0.013
		c-0.028,0.015-0.043,0.048-0.038,0.078c0.009,0.052,0.018,0.104,0.025,0.16c0.001,0.016,0.009,0.031,0.021,0.041l2.789,2.788
		c0.014,0.016,0.033,0.021,0.052,0.021c0.01,0,0.019-0.001,0.028-0.005c0.027-0.01,0.045-0.038,0.045-0.067v-0.137
		c0-0.02-0.008-0.039-0.021-0.052L15.419,16.814z M21.001,21.986c-0.021-0.02-0.053-0.027-0.08-0.015
		c-0.027,0.012-0.045,0.038-0.045,0.067v0.136c0,0.021,0.008,0.038,0.021,0.053l2.622,2.623c0.015,0.015,0.033,0.021,0.053,0.021
		c0.009,0,0.019-0.002,0.028-0.006c0.027-0.012,0.045-0.038,0.045-0.067v-0.137c0-0.02-0.008-0.038-0.021-0.052L21.001,21.986z
		 M15.269,16.254c-0.024-0.025-0.063-0.028-0.092-0.009c-0.029,0.019-0.041,0.055-0.029,0.087c0.025,0.065,0.047,0.13,0.067,0.201
		c0.005,0.012,0.011,0.022,0.019,0.032l2.896,2.896c0.014,0.013,0.033,0.021,0.052,0.021c0.01,0,0.019-0.002,0.028-0.007
		c0.027-0.011,0.045-0.037,0.045-0.066v-0.137c0-0.02-0.008-0.038-0.021-0.052L15.269,16.254z M21.001,21.577
		c-0.021-0.021-0.053-0.027-0.08-0.017c-0.027,0.012-0.045,0.039-0.045,0.068v0.136c0,0.02,0.008,0.039,0.021,0.054l2.622,2.622
		c0.015,0.015,0.033,0.021,0.053,0.021c0.009,0,0.019-0.002,0.028-0.006c0.027-0.01,0.045-0.039,0.045-0.067v-0.138
		c0-0.018-0.008-0.037-0.021-0.052L21.001,21.577z M15.339,15.916c-0.019-0.02-0.046-0.025-0.072-0.02l-0.106,0.029
		c-0.025,0.008-0.044,0.026-0.052,0.051c-0.006,0.026,0,0.054,0.019,0.071l3.003,3.003c0.014,0.013,0.033,0.021,0.052,0.021
		c0.01,0,0.019-0.001,0.028-0.006c0.027-0.011,0.045-0.037,0.045-0.068v-0.137c0-0.019-0.008-0.038-0.021-0.052L15.339,15.916z
		 M21.001,21.167c-0.021-0.021-0.053-0.026-0.08-0.015c-0.027,0.01-0.045,0.038-0.045,0.066v0.137c0,0.021,0.008,0.038,0.021,0.053
		l2.622,2.621c0.015,0.015,0.033,0.022,0.053,0.022c0.009,0,0.019-0.002,0.028-0.006c0.027-0.01,0.045-0.038,0.045-0.068v-0.136
		c0-0.02-0.008-0.038-0.021-0.053L21.001,21.167z M15.661,15.828c-0.02-0.02-0.046-0.026-0.07-0.02l-0.109,0.027
		c-0.023,0.009-0.045,0.028-0.051,0.055c-0.006,0.025,0.001,0.051,0.02,0.069l2.68,2.68c0.014,0.016,0.033,0.021,0.052,0.021
		c0.01,0,0.019-0.001,0.028-0.004c0.027-0.013,0.045-0.039,0.045-0.069v-0.137c0-0.02-0.008-0.038-0.021-0.052L15.661,15.828z
		 M15.983,15.739c-0.02-0.019-0.045-0.025-0.071-0.019l-0.108,0.027c-0.024,0.01-0.044,0.029-0.051,0.055
		c-0.006,0.025,0,0.052,0.02,0.069l2.479,2.479c0.013,0.014,0.031,0.022,0.051,0.022c0.017,0,0.033-0.008,0.047-0.019l0.028-0.021
		c0.016-0.014,0.029-0.026,0.045-0.037c0.017-0.015,0.027-0.033,0.028-0.055c0.002-0.021-0.006-0.042-0.021-0.057L15.983,15.739z
		 M21.001,20.757c-0.021-0.021-0.053-0.028-0.08-0.016c-0.027,0.012-0.045,0.038-0.045,0.067v0.138c0,0.02,0.008,0.037,0.021,0.051
		l2.622,2.624c0.015,0.014,0.033,0.022,0.053,0.022c0.009,0,0.019-0.004,0.028-0.008c0.027-0.011,0.045-0.037,0.045-0.067v-0.136
		c0-0.021-0.008-0.04-0.021-0.052L21.001,20.757z M26.329,25.674c-0.02-0.021-0.053-0.025-0.08-0.016
		c-0.027,0.013-0.046,0.039-0.046,0.069v0.137c0,0.019,0.008,0.037,0.022,0.052l0.236,0.237c0.014,0.014,0.033,0.021,0.052,0.021
		h0.138c0.029,0,0.057-0.018,0.068-0.046c0.011-0.028,0.005-0.06-0.017-0.08L26.329,25.674z M16.306,15.652
		c-0.018-0.02-0.046-0.027-0.071-0.02l-0.106,0.029c-0.025,0.006-0.046,0.026-0.053,0.052c-0.008,0.025,0,0.053,0.019,0.07
		l2.39,2.39c0.014,0.015,0.033,0.021,0.052,0.021c0.015,0,0.029-0.004,0.042-0.013l0.031-0.021c0.016-0.013,0.032-0.024,0.049-0.035
		c0.018-0.012,0.029-0.032,0.031-0.053c0.002-0.021-0.005-0.046-0.021-0.061L16.306,15.652z M21.001,20.348
		c-0.021-0.022-0.053-0.028-0.08-0.017c-0.027,0.011-0.045,0.038-0.045,0.069v0.136c0,0.02,0.008,0.038,0.021,0.052l2.622,2.623
		c0.015,0.014,0.033,0.021,0.053,0.021c0.009,0,0.019-0.001,0.028-0.004c0.027-0.013,0.045-0.038,0.045-0.069v-0.136
		c0-0.02-0.008-0.039-0.021-0.053L21.001,20.348z M26.329,25.265c-0.02-0.021-0.053-0.027-0.08-0.017
		c-0.027,0.012-0.046,0.04-0.046,0.069v0.137c0,0.019,0.008,0.038,0.022,0.052l0.647,0.647c0.013,0.014,0.032,0.021,0.052,0.021
		h0.137c0.029,0,0.057-0.018,0.068-0.046c0.01-0.028,0.004-0.06-0.017-0.08L26.329,25.265z M16.628,15.562
		c-0.02-0.018-0.046-0.024-0.072-0.018l-0.107,0.029c-0.025,0.006-0.044,0.026-0.051,0.053c-0.007,0.025,0,0.052,0.02,0.069
		l2.317,2.319c0.015,0.013,0.033,0.021,0.052,0.021c0.014,0,0.025-0.004,0.037-0.011l0.035-0.02
		c0.017-0.011,0.033-0.021,0.049-0.029c0.021-0.011,0.035-0.031,0.039-0.054c0.003-0.021-0.005-0.047-0.021-0.062L16.628,15.562z
		 M21.001,19.938c-0.021-0.021-0.053-0.028-0.08-0.017c-0.027,0.011-0.045,0.037-0.045,0.068v0.137c0,0.021,0.008,0.038,0.021,0.053
		L23.52,22.8c0.015,0.016,0.033,0.022,0.053,0.022c0.009,0,0.019-0.002,0.028-0.006c0.027-0.011,0.045-0.038,0.045-0.068V22.61
		c0-0.019-0.008-0.037-0.021-0.052L21.001,19.938z M26.329,24.854c-0.02-0.021-0.053-0.026-0.08-0.015
		c-0.027,0.011-0.046,0.037-0.046,0.067v0.136c0,0.021,0.008,0.039,0.022,0.054l1.057,1.057c0.015,0.014,0.033,0.021,0.052,0.021
		h0.137c0.03,0,0.057-0.018,0.068-0.046s0.005-0.06-0.016-0.08L26.329,24.854z M21.001,19.527c-0.021-0.021-0.053-0.027-0.08-0.016
		s-0.045,0.037-0.045,0.067v0.136c0,0.021,0.008,0.039,0.021,0.053l2.622,2.623c0.015,0.014,0.033,0.022,0.053,0.022
		c0.009,0,0.019-0.004,0.028-0.008c0.027-0.011,0.045-0.038,0.045-0.066v-0.137c0-0.02-0.008-0.038-0.021-0.052L21.001,19.527z
		 M16.95,15.477c-0.019-0.02-0.047-0.026-0.071-0.02l-0.108,0.028c-0.025,0.008-0.045,0.027-0.051,0.054
		c-0.007,0.023,0,0.052,0.019,0.069l2.268,2.268c0.014,0.014,0.032,0.021,0.052,0.021c0.01,0,0.021-0.003,0.03-0.006l0.021-0.01
		c0.023-0.011,0.047-0.023,0.071-0.032c0.022-0.01,0.04-0.03,0.044-0.054c0.006-0.023-0.002-0.048-0.02-0.064L16.95,15.477z
		 M21,19.115c-0.021-0.019-0.052-0.025-0.08-0.016c-0.026,0.014-0.045,0.04-0.045,0.069l0.001,0.137
		c0,0.019,0.008,0.038,0.021,0.052l2.622,2.623c0.015,0.014,0.033,0.021,0.053,0.021c0.009,0,0.019-0.001,0.028-0.006
		c0.027-0.011,0.045-0.039,0.045-0.067v-0.136c0-0.02-0.008-0.039-0.021-0.053L21,19.115z M26.329,24.446
		c-0.02-0.021-0.053-0.029-0.08-0.017c-0.027,0.011-0.046,0.037-0.046,0.067v0.136c0,0.021,0.008,0.04,0.022,0.052l1.467,1.469
		c0.014,0.014,0.033,0.021,0.053,0.021h0.137c0.029,0,0.056-0.018,0.066-0.046c0.013-0.028,0.006-0.06-0.016-0.08L26.329,24.446z
		 M18.132,16.247c-0.028-0.028-0.073-0.029-0.102-0.002c-0.01,0.008-0.02,0.018-0.029,0.027c0-0.002,0-0.002,0-0.003
		c-0.014-0.062-0.026-0.121-0.039-0.176c-0.004-0.015-0.01-0.025-0.02-0.036l-0.67-0.669c-0.02-0.02-0.047-0.026-0.072-0.02
		l-0.105,0.029c-0.026,0.006-0.046,0.026-0.053,0.052c-0.007,0.026,0,0.052,0.02,0.07l0.814,0.816
		c0.015,0.014,0.033,0.021,0.052,0.021c0.003,0,0.006-0.001,0.009-0.003c-0.001,0.003-0.002,0.006-0.002,0.008
		c0,0.021,0.008,0.039,0.021,0.054l1.342,1.343c0.016,0.014,0.033,0.021,0.053,0.021c0.008,0,0.016-0.002,0.023-0.004
		c0.021-0.008,0.045-0.014,0.066-0.02l0.037-0.009c0.025-0.009,0.045-0.027,0.051-0.052c0.007-0.027-0.001-0.053-0.02-0.072
		L18.132,16.247z M26.329,24.036c-0.02-0.022-0.053-0.029-0.08-0.018c-0.027,0.011-0.046,0.039-0.046,0.068v0.137
		c0,0.02,0.008,0.038,0.022,0.053l1.877,1.877c0.014,0.014,0.033,0.021,0.052,0.021h0.137c0.03,0,0.056-0.018,0.068-0.046
		c0.011-0.028,0.005-0.06-0.017-0.08L26.329,24.036z M17.724,15.774c0.015,0.014,0.033,0.021,0.052,0.021
		c0.015,0,0.028-0.003,0.04-0.013c0.029-0.018,0.041-0.056,0.029-0.088c-0.036-0.094-0.075-0.179-0.121-0.263
		c-0.005-0.007-0.008-0.012-0.014-0.017l-0.115-0.117c-0.02-0.018-0.047-0.024-0.072-0.018l-0.106,0.03
		c-0.026,0.005-0.045,0.025-0.052,0.051c-0.008,0.026,0,0.053,0.018,0.07L17.724,15.774z M18.355,16.062
		c-0.026-0.027-0.068-0.03-0.097-0.008l-0.023,0.018c-0.019,0.017-0.037,0.029-0.056,0.045c-0.017,0.014-0.026,0.032-0.027,0.055
		c-0.001,0.021,0.007,0.039,0.022,0.055l1.452,1.453c0.015,0.012,0.032,0.02,0.052,0.02c0.005,0,0.01,0,0.014,0l0.035-0.008
		c0.025-0.005,0.051-0.01,0.076-0.012c0.027-0.003,0.052-0.022,0.061-0.05c0.01-0.026,0.002-0.056-0.018-0.076L18.355,16.062z
		 M20.989,18.695c-0.021-0.021-0.055-0.028-0.082-0.015c-0.027,0.013-0.045,0.04-0.043,0.07c0.002,0.046,0.004,0.093,0.006,0.14
		c0,0.02,0.008,0.037,0.021,0.052l2.628,2.627c0.015,0.016,0.033,0.022,0.053,0.022c0.009,0,0.019-0.002,0.028-0.005
		c0.027-0.012,0.045-0.037,0.045-0.068v-0.136c0-0.021-0.008-0.039-0.021-0.052L20.989,18.695z M26.329,23.625
		c-0.02-0.021-0.053-0.026-0.08-0.016c-0.027,0.012-0.046,0.037-0.046,0.067v0.138c0,0.02,0.008,0.037,0.022,0.052l2.287,2.287
		c0.013,0.014,0.032,0.021,0.051,0.021h0.138c0.029,0,0.057-0.018,0.067-0.046c0.012-0.028,0.006-0.06-0.016-0.08L26.329,23.625z
		 M18.593,15.891c-0.024-0.026-0.062-0.03-0.092-0.011c-0.021,0.016-0.043,0.029-0.064,0.043l-0.018,0.014
		c-0.019,0.013-0.03,0.031-0.032,0.054c-0.002,0.021,0.007,0.044,0.021,0.06l1.597,1.596c0.014,0.015,0.031,0.021,0.051,0.021
		c0.049,0.001,0.096,0.004,0.14,0.011c0.003,0,0.005,0,0.007,0c0.029,0,0.055-0.016,0.066-0.042
		c0.014-0.028,0.008-0.062-0.014-0.084L18.593,15.891z M20.94,18.234c-0.023-0.022-0.06-0.027-0.088-0.011
		c-0.028,0.012-0.043,0.045-0.039,0.078c0.01,0.049,0.019,0.102,0.025,0.156c0.002,0.016,0.01,0.031,0.021,0.045l2.659,2.658
		c0.015,0.013,0.033,0.021,0.053,0.021c0.009,0,0.019-0.003,0.028-0.006c0.027-0.013,0.045-0.039,0.045-0.068v-0.137
		c0-0.021-0.008-0.038-0.021-0.052L20.94,18.234z M26.329,23.215c-0.02-0.021-0.053-0.026-0.08-0.017
		c-0.027,0.013-0.046,0.038-0.046,0.068v0.138c0,0.019,0.008,0.037,0.022,0.052l2.685,2.685c0.015,0.014,0.033,0.021,0.052,0.021
		c0.01,0,0.02-0.002,0.029-0.005c0.026-0.011,0.044-0.039,0.044-0.068v-0.136c0-0.021-0.007-0.039-0.021-0.054L26.329,23.215z
		 M18.849,15.736c-0.023-0.024-0.059-0.029-0.088-0.014c-0.029,0.017-0.059,0.033-0.088,0.051c-0.02,0.011-0.032,0.031-0.036,0.055
		c-0.003,0.022,0.005,0.044,0.021,0.061l1.924,1.923c0.025,0.021,0.047,0.041,0.07,0.071l2.868,2.867
		c0.015,0.014,0.033,0.022,0.053,0.022c0.009,0,0.019-0.002,0.028-0.005c0.027-0.013,0.045-0.04,0.045-0.07v-0.136
		c0-0.02-0.008-0.038-0.021-0.052L18.849,15.736z M19.123,15.598c-0.021-0.021-0.067-0.021-0.096-0.008
		c-0.027,0.012-0.056,0.023-0.081,0.038c-0.023,0.01-0.037,0.029-0.042,0.054c-0.003,0.023,0.003,0.046,0.021,0.064l4.595,4.595
		c0.015,0.015,0.033,0.021,0.053,0.021c0.009,0,0.019-0.002,0.028-0.006c0.027-0.012,0.045-0.038,0.045-0.067v-0.138
		c0-0.02-0.008-0.038-0.021-0.051L19.123,15.598z M26.329,22.806c-0.02-0.022-0.053-0.028-0.08-0.018
		c-0.027,0.012-0.046,0.039-0.046,0.069v0.137c0,0.021,0.008,0.039,0.022,0.051l2.685,2.687c0.015,0.014,0.033,0.021,0.052,0.021
		c0.01,0,0.02-0.003,0.029-0.007c0.026-0.011,0.044-0.038,0.044-0.068v-0.136c0-0.02-0.007-0.039-0.021-0.053L26.329,22.806z
		 M26.329,22.395c-0.02-0.021-0.053-0.027-0.08-0.015c-0.027,0.011-0.046,0.037-0.046,0.066v0.138c0,0.021,0.008,0.039,0.022,0.052
		l2.685,2.686c0.015,0.014,0.033,0.021,0.052,0.021c0.01,0,0.02-0.001,0.029-0.005c0.026-0.012,0.044-0.038,0.044-0.068v-0.137
		c0-0.019-0.007-0.038-0.021-0.051L26.329,22.395z M19.417,15.483c-0.021-0.021-0.049-0.026-0.075-0.018
		c-0.035,0.012-0.069,0.022-0.103,0.036c-0.023,0.009-0.041,0.029-0.047,0.053c-0.005,0.025,0.003,0.052,0.02,0.068l4.308,4.308
		c0.015,0.014,0.033,0.021,0.053,0.021c0.009,0,0.019-0.001,0.028-0.007c0.027-0.01,0.045-0.037,0.045-0.066V19.74
		c0-0.019-0.008-0.036-0.021-0.051L19.417,15.483z M26.329,21.985c-0.02-0.021-0.053-0.028-0.08-0.017s-0.046,0.04-0.046,0.068
		v0.138c0,0.018,0.008,0.037,0.022,0.053l2.685,2.683c0.015,0.014,0.033,0.022,0.052,0.022c0.01,0,0.02-0.001,0.029-0.006
		c0.026-0.011,0.044-0.037,0.044-0.068v-0.138c0-0.019-0.007-0.038-0.021-0.051L26.329,21.985z M19.733,15.391
		c-0.018-0.02-0.043-0.025-0.068-0.021c-0.037,0.01-0.074,0.02-0.111,0.029c-0.025,0.008-0.045,0.026-0.051,0.052
		c-0.008,0.026,0,0.053,0.02,0.071l3.997,3.998c0.015,0.013,0.033,0.021,0.053,0.021c0.009,0,0.019-0.002,0.028-0.005
		c0.027-0.011,0.045-0.039,0.045-0.068v-0.137c0-0.02-0.008-0.038-0.021-0.053L19.733,15.391z M20.079,15.325
		c-0.018-0.017-0.039-0.024-0.062-0.02c-0.041,0.004-0.08,0.01-0.12,0.019c-0.026,0.004-0.05,0.023-0.058,0.049
		c-0.008,0.026-0.001,0.057,0.018,0.074l3.663,3.662c0.015,0.016,0.033,0.021,0.053,0.021c0.009,0,0.019-0.001,0.028-0.005
		c0.027-0.012,0.045-0.038,0.045-0.068v-0.135c0-0.021-0.008-0.04-0.021-0.053L20.079,15.325z M26.329,21.575
		c-0.02-0.021-0.053-0.025-0.08-0.016s-0.046,0.038-0.046,0.067v0.136c0,0.02,0.008,0.039,0.022,0.053L28.91,24.5
		c0.015,0.014,0.033,0.022,0.052,0.022c0.01,0,0.02-0.002,0.029-0.005c0.026-0.013,0.044-0.04,0.044-0.069v-0.136
		c0-0.021-0.007-0.038-0.021-0.052L26.329,21.575z M20.456,15.292c-0.014-0.015-0.035-0.024-0.055-0.021
		c-0.044,0.001-0.088,0.004-0.133,0.006c-0.027,0.003-0.053,0.021-0.063,0.05c-0.009,0.025-0.003,0.056,0.019,0.076L23.52,18.7
		c0.015,0.015,0.033,0.021,0.053,0.021c0.009,0,0.019-0.002,0.028-0.005c0.027-0.013,0.045-0.038,0.045-0.069v-0.136
		c0-0.019-0.008-0.038-0.021-0.052L20.456,15.292z M26.329,21.164c-0.02-0.02-0.053-0.026-0.08-0.015s-0.046,0.038-0.046,0.067
		v0.136c0,0.021,0.008,0.04,0.022,0.053l2.685,2.686c0.015,0.015,0.033,0.021,0.052,0.021c0.01,0,0.02-0.001,0.029-0.005
		c0.026-0.013,0.044-0.039,0.044-0.068v-0.136c0-0.021-0.007-0.039-0.021-0.053L26.329,21.164z M20.876,15.302
		c-0.013-0.012-0.029-0.021-0.047-0.021c-0.034-0.004-0.07-0.004-0.105-0.005l-0.04-0.001c-0.03-0.003-0.059,0.017-0.069,0.043
		c-0.013,0.029-0.008,0.061,0.014,0.082l3.035,3.033c0.014,0.015,0.033,0.022,0.052,0.022c0.017,0,0.033-0.005,0.046-0.017
		l0.032-0.027c0.013-0.011,0.028-0.022,0.041-0.035c0.017-0.013,0.026-0.032,0.028-0.054c0.001-0.021-0.006-0.041-0.021-0.056
		L20.876,15.302z M26.329,20.755c-0.02-0.021-0.053-0.027-0.08-0.016c-0.027,0.011-0.046,0.038-0.046,0.067v0.138
		c0,0.021,0.008,0.037,0.022,0.052l2.685,2.684c0.015,0.016,0.033,0.021,0.052,0.021c0.01,0,0.02-0.001,0.029-0.005
		c0.026-0.011,0.044-0.037,0.044-0.068v-0.137c0-0.019-0.007-0.037-0.021-0.053L26.329,20.755z M26.329,20.345
		c-0.02-0.021-0.053-0.027-0.08-0.017c-0.027,0.012-0.046,0.039-0.046,0.068v0.137c0,0.021,0.008,0.039,0.022,0.052l2.685,2.687
		c0.015,0.013,0.033,0.021,0.052,0.021c0.01,0,0.02-0.004,0.029-0.007c0.026-0.012,0.044-0.038,0.044-0.066v-0.138
		c0-0.021-0.007-0.039-0.021-0.054L26.329,20.345z M21.364,15.378c-0.01-0.009-0.023-0.016-0.037-0.019L21.3,15.353
		c-0.05-0.014-0.1-0.023-0.151-0.033c-0.032-0.006-0.063,0.01-0.079,0.038c-0.014,0.029-0.008,0.063,0.015,0.086l2.81,2.812
		c0.015,0.014,0.033,0.021,0.053,0.021c0.015,0,0.031-0.005,0.043-0.012l0.033-0.026c0.016-0.011,0.029-0.021,0.045-0.031
		c0.018-0.014,0.029-0.033,0.031-0.055s-0.006-0.042-0.021-0.058L21.364,15.378z M22.007,15.612
		c-0.006-0.006-0.012-0.011-0.02-0.015c-0.086-0.044-0.172-0.083-0.256-0.115c-0.033-0.015-0.07-0.002-0.09,0.026
		c-0.019,0.03-0.016,0.068,0.01,0.093l2.49,2.49c0.014,0.013,0.031,0.021,0.052,0.021c0.013,0,0.026-0.002,0.038-0.012l0.035-0.021
		c0.016-0.009,0.031-0.02,0.047-0.029c0.02-0.012,0.033-0.032,0.035-0.054c0.003-0.022-0.004-0.046-0.02-0.062L22.007,15.612z
		 M26.329,19.936c-0.02-0.021-0.053-0.027-0.08-0.016c-0.027,0.011-0.046,0.037-0.046,0.068v0.135c0,0.021,0.008,0.04,0.022,0.053
		l2.685,2.685c0.015,0.014,0.033,0.023,0.052,0.023c0.01,0,0.02-0.002,0.029-0.007c0.026-0.011,0.044-0.039,0.044-0.068v-0.137
		c0-0.02-0.007-0.038-0.021-0.051L26.329,19.936z M26.329,19.526c-0.02-0.022-0.053-0.029-0.08-0.018s-0.046,0.039-0.046,0.069
		v0.136c0,0.02,0.008,0.038,0.022,0.053l2.685,2.685c0.015,0.014,0.033,0.021,0.052,0.021c0.01,0,0.02-0.001,0.029-0.004
		c0.026-0.013,0.044-0.039,0.044-0.068v-0.137c0-0.02-0.007-0.039-0.021-0.053L26.329,19.526z M23.313,16.509
		c-0.027-0.027-0.074-0.027-0.104,0l-0.068,0.068c-0.014,0.014-0.021,0.032-0.021,0.053c0,0.018,0.008,0.037,0.021,0.052
		l1.261,1.262c0.015,0.014,0.033,0.021,0.052,0.021c0.012,0,0.023-0.003,0.033-0.008l0.03-0.016c0.021-0.011,0.04-0.019,0.06-0.03
		c0.021-0.009,0.037-0.029,0.041-0.055c0.004-0.021-0.004-0.046-0.021-0.062L23.313,16.509z M23.526,16.312
		c-0.026-0.027-0.07-0.027-0.101-0.002l-0.073,0.066c-0.014,0.012-0.023,0.031-0.023,0.051c0,0.021,0.008,0.039,0.021,0.055
		l1.334,1.333c0.014,0.015,0.031,0.02,0.051,0.02c0.01,0,0.019,0,0.027-0.004c0.025-0.011,0.048-0.019,0.072-0.025l0.025-0.01
		c0.024-0.008,0.042-0.028,0.048-0.053c0.005-0.024-0.001-0.051-0.02-0.067L23.526,16.312z M26.329,19.114
		c-0.02-0.021-0.053-0.026-0.08-0.016s-0.046,0.039-0.046,0.068v0.137c0,0.02,0.008,0.038,0.022,0.053l2.685,2.685
		c0.015,0.015,0.033,0.021,0.052,0.021c0.01,0,0.02-0.002,0.029-0.005c0.026-0.013,0.044-0.038,0.044-0.068v-0.139
		c0-0.018-0.007-0.037-0.021-0.051L26.329,19.114z M26.323,18.7c-0.021-0.021-0.055-0.029-0.081-0.017
		c-0.028,0.012-0.045,0.04-0.044,0.069v0.033c0.002,0.034,0.002,0.069,0.003,0.106c0,0.019,0.009,0.036,0.022,0.051l2.687,2.688
		c0.015,0.014,0.033,0.021,0.052,0.021c0.01,0,0.02-0.003,0.029-0.006c0.026-0.01,0.044-0.039,0.044-0.067v-0.137
		c0-0.02-0.007-0.038-0.021-0.053L26.323,18.7z M23.751,16.126c-0.025-0.026-0.068-0.028-0.098-0.006l-0.021,0.017
		c-0.019,0.016-0.038,0.029-0.058,0.045c-0.016,0.015-0.025,0.034-0.026,0.054s0.007,0.043,0.021,0.056l1.425,1.424
		c0.014,0.015,0.031,0.021,0.052,0.021c0.007,0,0.013,0,0.019-0.002c0.035-0.008,0.072-0.016,0.106-0.022
		c0.028-0.006,0.05-0.025,0.058-0.051c0.009-0.025,0.002-0.055-0.018-0.073L23.751,16.126z M26.288,18.253
		c-0.022-0.021-0.057-0.027-0.086-0.013c-0.027,0.013-0.043,0.046-0.039,0.077c0.007,0.046,0.012,0.098,0.018,0.15
		c0.001,0.017,0.01,0.033,0.021,0.045l2.709,2.707c0.015,0.016,0.033,0.022,0.052,0.022c0.01,0,0.02-0.002,0.029-0.006
		c0.026-0.012,0.044-0.038,0.044-0.068v-0.136c0-0.02-0.007-0.039-0.021-0.053L26.288,18.253z M23.985,15.952
		c-0.025-0.025-0.064-0.03-0.094-0.009c-0.027,0.02-0.055,0.038-0.081,0.059c-0.018,0.012-0.028,0.03-0.03,0.052
		c-0.002,0.022,0.006,0.044,0.021,0.06l1.553,1.551c0.014,0.015,0.036,0.021,0.055,0.021c0.047,0,0.092,0.001,0.133,0.004
		c0.002,0,0.004,0,0.005,0s0.002,0,0.003,0c0.041,0,0.073-0.032,0.073-0.073c0-0.026-0.015-0.049-0.035-0.062L23.985,15.952z
		 M24.234,15.792c-0.023-0.025-0.062-0.03-0.091-0.014c-0.02,0.014-0.041,0.026-0.062,0.039l-0.023,0.016
		c-0.019,0.012-0.031,0.031-0.034,0.053c-0.002,0.023,0.006,0.045,0.021,0.062l1.798,1.797c0.006,0.006,0.013,0.01,0.021,0.016
		c0.088,0.04,0.152,0.104,0.201,0.201c0.003,0.006,0.008,0.013,0.013,0.019l2.832,2.831c0.015,0.015,0.033,0.022,0.052,0.022
		c0.01,0,0.02-0.004,0.029-0.007c0.026-0.011,0.044-0.037,0.044-0.067V20.62c0-0.018-0.007-0.037-0.021-0.049L24.234,15.792z
		 M24.501,15.646c-0.022-0.021-0.057-0.028-0.085-0.014l-0.023,0.011c-0.023,0.012-0.046,0.023-0.069,0.036
		c-0.021,0.01-0.035,0.03-0.039,0.052c-0.003,0.024,0.004,0.048,0.021,0.064l4.604,4.605c0.015,0.013,0.033,0.021,0.052,0.021
		c0.01,0,0.02-0.001,0.029-0.006c0.026-0.012,0.044-0.037,0.044-0.068v-0.137c0-0.019-0.007-0.038-0.021-0.052L24.501,15.646z
		 M24.786,15.522c-0.021-0.021-0.052-0.027-0.078-0.019c-0.03,0.013-0.061,0.025-0.1,0.041c-0.022,0.01-0.038,0.03-0.043,0.055
		c-0.006,0.023,0.002,0.049,0.02,0.065l4.325,4.325c0.015,0.015,0.033,0.022,0.052,0.022c0.01,0,0.02-0.002,0.029-0.005
		c0.026-0.013,0.044-0.039,0.044-0.07v-0.136c0-0.02-0.007-0.037-0.021-0.052L24.786,15.522z M25.095,15.421
		c-0.018-0.02-0.045-0.025-0.071-0.02c-0.036,0.011-0.072,0.021-0.108,0.031c-0.023,0.009-0.043,0.029-0.049,0.054
		c-0.007,0.024,0,0.052,0.02,0.069l4.024,4.025c0.015,0.015,0.033,0.021,0.052,0.021c0.01,0,0.02-0.003,0.029-0.006
		c0.026-0.012,0.044-0.038,0.044-0.067v-0.137c0-0.02-0.007-0.039-0.021-0.052L25.095,15.421z M25.431,15.348
		c-0.017-0.019-0.039-0.023-0.063-0.02l-0.024,0.003c-0.031,0.005-0.062,0.011-0.094,0.017c-0.027,0.006-0.049,0.025-0.057,0.051
		c-0.008,0.026,0,0.055,0.019,0.073l3.699,3.698c0.015,0.015,0.033,0.021,0.052,0.021c0.01,0,0.02-0.001,0.029-0.005
		c0.026-0.01,0.044-0.037,0.044-0.068v-0.136c0-0.02-0.007-0.039-0.021-0.054L25.431,15.348z M28.91,18.761
		c0.015,0.015,0.033,0.021,0.052,0.021c0.01,0,0.02-0.001,0.029-0.005c0.026-0.01,0.044-0.039,0.044-0.066v-0.139
		c0-0.02-0.007-0.038-0.021-0.052l-3.217-3.216c-0.016-0.016-0.038-0.024-0.058-0.022c-0.043,0.004-0.085,0.007-0.128,0.012
		c-0.028,0.002-0.052,0.021-0.062,0.049c-0.01,0.026-0.003,0.057,0.018,0.077L28.91,18.761z M28.907,18.349
		c0.014,0.014,0.032,0.022,0.051,0.022c0.012,0,0.021-0.004,0.03-0.008c0.027-0.01,0.044-0.04,0.044-0.068
		c0-0.049-0.002-0.096-0.004-0.143c0-0.02-0.008-0.037-0.021-0.05l-2.812-2.811c-0.014-0.015-0.031-0.022-0.052-0.022h-0.021
		c-0.028-0.003-0.058-0.002-0.085,0h-0.033c-0.029,0.001-0.057,0.019-0.066,0.046c-0.012,0.028-0.006,0.059,0.016,0.08
		L28.907,18.349z M28.89,17.921c0.014,0.014,0.033,0.021,0.053,0.021c0.01,0,0.021-0.001,0.029-0.005
		c0.028-0.014,0.046-0.043,0.044-0.073c-0.004-0.046-0.007-0.09-0.011-0.134l-0.002-0.016c-0.002-0.017-0.01-0.033-0.021-0.047
		l-2.347-2.345c-0.012-0.013-0.027-0.021-0.043-0.023l-0.032-0.003c-0.042-0.004-0.083-0.01-0.126-0.014
		c-0.031-0.002-0.059,0.014-0.071,0.043c-0.013,0.027-0.008,0.062,0.015,0.084L28.89,17.921z M28.843,17.464
		c0.014,0.015,0.033,0.021,0.053,0.021c0.01,0,0.021-0.003,0.032-0.01c0.028-0.013,0.044-0.042,0.04-0.074
		c-0.009-0.058-0.019-0.114-0.028-0.168c-0.003-0.015-0.011-0.027-0.021-0.038l-1.779-1.779c-0.008-0.009-0.021-0.016-0.033-0.02
		c-0.06-0.016-0.12-0.03-0.182-0.043c-0.033-0.006-0.065,0.009-0.08,0.038c-0.016,0.028-0.011,0.064,0.012,0.087L28.843,17.464z
		 M28.72,16.932c0.016,0.014,0.033,0.021,0.053,0.021c0.013,0,0.025-0.004,0.039-0.011c0.028-0.019,0.041-0.053,0.031-0.087
		c-0.03-0.088-0.06-0.162-0.094-0.232c-0.003-0.008-0.008-0.015-0.014-0.021l-0.939-0.939c-0.006-0.007-0.013-0.01-0.018-0.014
		c-0.081-0.042-0.168-0.081-0.259-0.117c-0.032-0.013-0.069-0.002-0.089,0.025c-0.019,0.032-0.016,0.07,0.01,0.096L28.72,16.932z"/>
	
		<radialGradient id="SVGID_9_" cx="17.7666" cy="15.4678" r="16.4738" gradientTransform="matrix(0.9342 0.3566 -0.3351 0.8777 6.351 -4.4449)" gradientUnits="userSpaceOnUse">
		<stop  offset="0" style="stop-color:#010101;stop-opacity:0.6"/>
		<stop  offset="0.0354" style="stop-color:#010101;stop-opacity:0.5279"/>
		<stop  offset="0.2454" style="stop-color:#010101;stop-opacity:0.1"/>
		<stop  offset="1" style="stop-color:#010101;stop-opacity:0"/>
	</radialGradient>
	<path fill="url(#SVGID_9_)" d="M17.698,15.411c-0.756-0.865-1.637-0.609-2.377-0.104c-1.251,0.854-1.725,2.679-1.841,4.091
		c-0.274,3.333,1.872,6.667,5.37,6.907c3.254,0.225,6.274-2.274,8.715-4.093c1.633-1.216,3.273-2.929,5.338-3.322
		c0.904-0.171,1.829,0.069,2.304,0.886c0.323,0.56,0.294,1.283-0.028,1.829c-0.065,0.103-0.144,0.194-0.232,0.276
		c-0.044,0.046-0.627,0.311-0.574,0.21c0.062-0.118-0.222-0.082-0.264-0.004c-0.052,0.103-0.062,0.128-0.104,0.243
		c-0.021,0.06,0.092,0.062,0.121,0.057c0.938-0.167,1.578-0.801,1.594-1.78c0.018-1.09-0.844-1.776-1.844-1.9
		c-1.43-0.175-2.801,0.662-3.909,1.452c-1.538,1.095-2.985,2.315-4.532,3.401c-1.55,1.088-3.238,2.12-5.117,2.492
		c-2.017,0.4-3.973-0.414-5.235-2.003c-1.184-1.486-1.501-3.529-1.241-5.366c0.124-0.882,0.447-1.731,0.922-2.482
		c0.504-0.797,2.032-1.748,2.732-0.754c0.057,0.08,0.117,0.06,0.092-0.036H17.698z"/>
	<g>
		<path fill="#EF4137" d="M17.802,15.464c-0.32-1.042-1.682-0.793-2.42-0.379c-1.176,0.658-1.727,2.187-1.9,3.441
			c-0.459,3.312,2.055,6.147,5.311,6.388c3.289,0.245,6.387-2.041,8.986-3.747c1.684-1.105,3.344-2.609,5.424-2.823
			c0.889-0.091,1.779,0.216,2.125,1.081c0.354,0.884-0.303,1.669-1.164,1.812c0.046,0.041,0.092,0.086,0.139,0.128
			c0.021-0.07,0.053-0.136,0.094-0.197c0.091-0.151-0.242-0.145-0.311-0.029c-0.041,0.061-0.072,0.126-0.094,0.196
			c-0.036,0.089,0.059,0.142,0.139,0.128c1.961-0.324,2.132-2.763,0.162-3.278c-1.324-0.347-2.811,0.293-3.916,0.966
			c-1.463,0.889-2.845,1.918-4.286,2.844c-3.038,1.953-7.06,4.055-10.376,1.468c-1.492-1.165-2.079-3.141-1.901-4.965
			c0.089-0.907,0.438-1.777,0.967-2.516c0.485-0.679,2.284-1.76,2.696-0.427C17.519,15.694,17.845,15.604,17.802,15.464
			L17.802,15.464z"/>
	</g>
</g>
<g>
	<path fill="#FFFFFF" d="M117.129,26.92h-1.395l-2.449-8.127c-0.116-0.359-0.246-0.812-0.39-1.361
		c-0.145-0.547-0.219-0.877-0.225-0.987c-0.121,0.73-0.315,1.53-0.581,2.399l-2.374,8.076h-1.395l-3.229-12.136h1.494l1.917,7.495
		c0.266,1.052,0.46,2.004,0.581,2.855c0.149-1.012,0.371-2.003,0.664-2.971l2.175-7.38h1.494l2.283,7.446
		c0.266,0.857,0.489,1.826,0.672,2.904c0.105-0.785,0.305-1.742,0.598-2.871l1.909-7.479h1.494L117.129,26.92z"/>
	<path fill="#FFFFFF" d="M125.741,27.086c-1.345,0-2.406-0.409-3.184-1.229s-1.166-1.956-1.166-3.412
		c0-1.466,0.36-2.631,1.083-3.494c0.722-0.863,1.692-1.295,2.909-1.295c1.141,0,2.042,0.375,2.706,1.125s0.996,1.738,0.996,2.967
		v0.872h-6.267c0.027,1.068,0.297,1.879,0.809,2.433c0.513,0.553,1.233,0.83,2.163,0.83c0.979,0,1.947-0.205,2.905-0.615v1.229
		c-0.487,0.211-0.948,0.361-1.383,0.453C126.88,27.04,126.355,27.086,125.741,27.086z M125.367,18.811
		c-0.73,0-1.312,0.237-1.747,0.713c-0.435,0.477-0.69,1.135-0.768,1.977h4.756c0-0.869-0.193-1.535-0.581-1.997
		C126.641,19.041,126.087,18.811,125.367,18.811z"/>
	<path fill="#FFFFFF" d="M135.499,17.673c1.195,0,2.123,0.408,2.785,1.225c0.661,0.816,0.991,1.972,0.991,3.466
		s-0.333,2.654-1,3.481s-1.593,1.241-2.776,1.241c-0.593,0-1.133-0.109-1.623-0.328c-0.489-0.219-0.9-0.555-1.232-1.008h-0.1
		l-0.291,1.17h-0.987V14.004h1.378v3.138c0,0.703-0.022,1.334-0.066,1.893h0.066C133.285,18.127,134.237,17.673,135.499,17.673z
		 M135.3,18.826c-0.941,0-1.619,0.271-2.034,0.81c-0.415,0.54-0.622,1.448-0.622,2.728c0,1.277,0.213,2.192,0.639,2.743
		c0.427,0.551,1.109,0.825,2.051,0.825c0.847,0,1.478-0.308,1.893-0.925s0.622-1.504,0.622-2.661c0-1.184-0.207-2.066-0.622-2.647
		S136.168,18.826,135.3,18.826z"/>
	<path fill="#FFFFFF" d="M153.109,26.92v-5.918c0-0.726-0.155-1.27-0.465-1.632c-0.311-0.362-0.792-0.544-1.444-0.544
		c-0.858,0-1.491,0.247-1.901,0.739c-0.409,0.492-0.614,1.251-0.614,2.274v5.08h-1.378v-5.918c0-0.726-0.154-1.27-0.465-1.632
		c-0.31-0.362-0.794-0.544-1.452-0.544c-0.863,0-1.496,0.259-1.897,0.776c-0.4,0.518-0.602,1.366-0.602,2.544v4.773h-1.378v-9.098
		h1.121l0.224,1.245h0.066c0.261-0.442,0.627-0.788,1.1-1.038c0.474-0.248,1.004-0.373,1.59-0.373c1.423,0,2.353,0.515,2.789,1.544
		h0.066c0.271-0.476,0.664-0.853,1.179-1.129s1.102-0.415,1.76-0.415c1.029,0,1.8,0.265,2.312,0.793
		c0.513,0.528,0.769,1.373,0.769,2.535v5.936H153.109z"/>
	<path fill="#FFFFFF" d="M162.75,26.92l-0.273-1.295h-0.066c-0.454,0.57-0.906,0.956-1.357,1.158s-1.014,0.303-1.689,0.303
		c-0.901,0-1.608-0.232-2.121-0.697c-0.512-0.465-0.768-1.126-0.768-1.984c0-1.837,1.47-2.8,4.408-2.889l1.544-0.049v-0.564
		c0-0.715-0.154-1.241-0.461-1.582c-0.308-0.34-0.798-0.51-1.474-0.51c-0.758,0-1.615,0.232-2.573,0.697l-0.423-1.055
		c0.448-0.243,0.939-0.435,1.473-0.572c0.534-0.139,1.07-0.208,1.606-0.208c1.085,0,1.889,0.241,2.411,0.722
		c0.523,0.482,0.785,1.254,0.785,2.316v6.209H162.75z M159.638,25.949c0.857,0,1.531-0.235,2.021-0.706
		c0.49-0.471,0.735-1.129,0.735-1.976v-0.822l-1.378,0.059c-1.096,0.039-1.886,0.209-2.37,0.511s-0.727,0.771-0.727,1.407
		c0,0.498,0.151,0.877,0.452,1.137C158.673,25.818,159.095,25.949,159.638,25.949z"/>
	<path fill="#FFFFFF" d="M167.802,22.264c0.237-0.338,0.601-0.781,1.087-1.328l2.938-3.113h1.636l-3.686,3.877l3.942,5.221h-1.668
		l-3.213-4.3l-1.037,0.896v3.403h-1.361V14.004h1.361v6.848c0,0.305-0.022,0.775-0.066,1.412H167.802z"/>
	<path fill="#FFFFFF" d="M179.037,27.086c-1.345,0-2.406-0.409-3.184-1.229s-1.166-1.956-1.166-3.412
		c0-1.466,0.36-2.631,1.083-3.494c0.722-0.863,1.692-1.295,2.909-1.295c1.141,0,2.042,0.375,2.706,1.125s0.996,1.738,0.996,2.967
		v0.872h-6.267c0.027,1.068,0.297,1.879,0.809,2.433c0.513,0.553,1.233,0.83,2.163,0.83c0.979,0,1.947-0.205,2.905-0.615v1.229
		c-0.487,0.211-0.948,0.361-1.383,0.453C180.176,27.04,179.651,27.086,179.037,27.086z M178.663,18.811
		c-0.73,0-1.312,0.237-1.747,0.713c-0.435,0.477-0.69,1.135-0.768,1.977h4.756c0-0.869-0.193-1.535-0.581-1.997
		C179.937,19.041,179.383,18.811,178.663,18.811z"/>
	<path fill="#FFFFFF" d="M188.712,17.656c0.403,0,0.767,0.033,1.087,0.1l-0.19,1.278c-0.377-0.083-0.709-0.124-0.996-0.124
		c-0.736,0-1.365,0.299-1.889,0.896c-0.522,0.598-0.784,1.342-0.784,2.232v4.881h-1.378v-9.098h1.137l0.158,1.686h0.066
		c0.337-0.593,0.744-1.049,1.22-1.37C187.619,17.816,188.142,17.656,188.712,17.656z"/>
</g>
<g>
	<path fill="#FFFFFF" d="M44.228,16.454c0.178,0.273,0.256,0.518,0.355,1.032c0.691-0.676,1.547-1.032,2.477-1.032
		c0.843,0,1.535,0.273,2.068,0.829c0.143,0.142,0.282,0.322,0.402,0.5c0.932-0.954,1.763-1.329,2.879-1.329
		c0.793,0,1.549,0.237,2.008,0.632c0.572,0.497,0.756,1.094,0.756,2.484v7.228H52.59v-6.712c0-1.216-0.142-1.45-0.834-1.45
		c-0.499,0-1.194,0.339-1.769,0.854v7.309H47.47v-6.616c0-1.268-0.184-1.564-0.924-1.564c-0.492,0-1.17,0.253-1.742,0.772v7.408
		h-2.6v-7.091c0-1.469-0.104-2.102-0.381-2.601L44.228,16.454z"/>
	<path fill="#FFFFFF" d="M64.677,17.961c0.813,0.953,1.176,2.066,1.176,3.711c0,1.749-0.4,2.942-1.275,3.933
		c-0.771,0.873-1.786,1.411-3.353,1.411c-2.763,0-4.565-2.065-4.565-5.262c0-3.198,1.822-5.321,4.565-5.321
		C62.673,16.433,63.806,16.929,64.677,17.961z M59.894,19.429c-0.182,0.538-0.277,1.253-0.277,2.268
		c0,1.167,0.118,2.046,0.337,2.561c0.24,0.555,0.839,0.833,1.349,0.833c1.152,0,1.646-1.032,1.646-3.435
		c0-1.37-0.18-2.266-0.535-2.723c-0.256-0.337-0.672-0.536-1.148-0.536C60.626,18.396,60.11,18.791,59.894,19.429z"/>
	<path fill="#FFFFFF" d="M74.411,16.631v1.826l-4.49,6.493h4.664l-0.635,1.848h-7.483V25.15l4.78-6.652h-4.381v-1.867H74.411z"/>
	<path fill="#FFFFFF" d="M78.91,13.832c0,0.913-0.728,1.645-1.647,1.645c-0.889,0-1.622-0.731-1.622-1.645s0.757-1.648,1.667-1.648
		C78.2,12.184,78.91,12.919,78.91,13.832z M78.598,16.392v10.406h-2.66v-9.987L78.598,16.392z"/>
	<path fill="#FFFFFF" d="M83.442,14.745v7.922c0,1.752,0.02,1.986,0.18,2.264c0.104,0.18,0.318,0.276,0.537,0.276
		c0.099,0,0.154,0,0.299-0.036l0.453,1.588c-0.453,0.176-1.01,0.275-1.586,0.275c-1.135,0-2.047-0.533-2.363-1.387
		c-0.201-0.516-0.242-0.836-0.242-2.285v-7.588c0-1.329-0.035-2.141-0.137-3.058l2.723-0.616
		C83.401,12.655,83.442,13.313,83.442,14.745z"/>
	<path fill="#FFFFFF" d="M88.96,14.745v7.922c0,1.752,0.023,1.986,0.188,2.264c0.092,0.18,0.309,0.276,0.531,0.276
		c0.099,0,0.16,0,0.301-0.036l0.454,1.588c-0.454,0.176-1.013,0.275-1.591,0.275c-1.132,0-2.047-0.533-2.362-1.387
		c-0.204-0.516-0.237-0.836-0.237-2.285v-7.588c0-1.329-0.041-2.141-0.141-3.058l2.715-0.616
		C88.927,12.655,88.96,13.313,88.96,14.745z"/>
	<path fill="#FFFFFF" d="M93.134,17.008c0.992-0.416,1.84-0.595,2.777-0.595c1.711,0,2.881,0.633,3.281,1.767
		c0.133,0.416,0.193,0.734,0.181,1.828l-0.063,3.413c0,0.061,0,0.122,0,0.179c0,1.093,0.18,1.511,0.957,2.084l-1.41,1.633
		c-0.621-0.261-1.178-0.719-1.436-1.232c-0.194,0.199-0.415,0.394-0.616,0.534c-0.494,0.358-1.213,0.559-2.048,0.559
		c-2.262,0-3.494-1.154-3.494-3.176c0-2.387,1.653-3.5,4.887-3.5c0.195,0,0.377,0,0.598,0.021v-0.415
		c0-1.133-0.221-1.512-1.199-1.512c-0.843,0-1.844,0.416-2.934,1.152l-1.134-1.907C92.021,17.503,92.418,17.306,93.134,17.008z
		 M96.585,22.35c-1.84,0-2.485,0.336-2.485,1.552c0,0.791,0.501,1.327,1.179,1.327c0.492,0,0.994-0.26,1.385-0.694l0.045-2.185
		H96.585z"/>
</g>
</svg>
