<?xml version="1.0" encoding="utf-8"?>
<!-- Generator: Adobe Illustrator 16.0.3, SVG Export Plug-In . SVG Version: 6.00 Build 0)  -->
<!DOCTYPE svg PUBLIC "-//W3C//DTD SVG 1.1//EN" "http://www.w3.org/Graphics/SVG/1.1/DTD/svg11.dtd">
<svg version="1.1" id="Layer_1" xmlns="http://www.w3.org/2000/svg" xmlns:xlink="http://www.w3.org/1999/xlink" x="0px" y="0px"
	 width="180px" height="62px" viewBox="0 0 180 62" enable-background="new 0 0 180 62" xml:space="preserve">
<g>
	<path fill="#333333" d="M68.084,19.621v-6.096c0-1.101-0.126-1.317-0.756-1.317c-0.451,0-1.083,0.306-1.606,0.776v6.637h-2.29
		v-6.006c0-1.154-0.163-1.426-0.831-1.426c-0.451,0-1.063,0.235-1.586,0.704v6.728h-2.363v-6.439c0-1.334-0.091-1.912-0.343-2.362
		l2.182-0.596c0.163,0.252,0.235,0.469,0.325,0.938c0.632-0.614,1.406-0.938,2.255-0.938c0.758,0,1.388,0.252,1.875,0.757
		c0.127,0.126,0.253,0.289,0.361,0.452c0.849-0.867,1.605-1.209,2.615-1.209c0.722,0,1.407,0.216,1.822,0.577
		c0.522,0.45,0.686,0.993,0.686,2.255v6.564H68.084z"/>
	<path fill="#333333" d="M78.619,18.539c-0.703,0.794-1.624,1.281-3.048,1.281c-2.507,0-4.148-1.876-4.148-4.78
		c0-2.904,1.658-4.834,4.148-4.834c1.316,0,2.345,0.452,3.138,1.389c0.739,0.866,1.065,1.876,1.065,3.373
		C79.774,16.555,79.414,17.637,78.619,18.539z M76.653,12.479c-0.234-0.307-0.613-0.487-1.047-0.487
		c-0.578,0-1.047,0.36-1.244,0.938c-0.163,0.486-0.253,1.137-0.253,2.056c0,1.065,0.108,1.858,0.307,2.327
		c0.217,0.505,0.759,0.758,1.227,0.758c1.047,0,1.497-0.938,1.497-3.121C77.14,13.706,76.979,12.893,76.653,12.479z"/>
	<polygon fill="#333333" points="86.756,19.621 79.955,19.621 79.955,18.125 84.302,12.082 80.315,12.082 80.315,10.386 
		87.169,10.386 87.169,12.046 83.094,17.944 87.331,17.944 	"/>
	<path fill="#333333" d="M89.262,9.34c-0.812,0-1.479-0.667-1.479-1.496c0-0.83,0.685-1.498,1.515-1.498
		c0.812,0,1.462,0.668,1.462,1.498C90.76,8.673,90.092,9.34,89.262,9.34z M88.054,19.621v-9.072l2.417-0.379v9.451H88.054z"/>
	<path fill="#333333" d="M94.368,19.838c-1.029,0-1.859-0.488-2.147-1.264c-0.181-0.469-0.217-0.757-0.217-2.074v-6.89
		c0-1.209-0.036-1.948-0.127-2.779l2.472-0.558c0.091,0.505,0.126,1.099,0.126,2.399v7.197c0,1.587,0.019,1.803,0.162,2.056
		c0.09,0.163,0.289,0.252,0.488,0.252c0.09,0,0.144,0,0.27-0.036l0.415,1.442C95.395,19.748,94.89,19.838,94.368,19.838z"/>
	<path fill="#333333" d="M98.354,19.838c-1.028,0-1.858-0.488-2.146-1.264c-0.181-0.469-0.217-0.757-0.217-2.074v-6.89
		c0-1.209-0.036-1.948-0.127-2.779l2.472-0.558c0.091,0.505,0.127,1.099,0.127,2.399v7.197c0,1.587,0.018,1.803,0.161,2.056
		c0.091,0.163,0.288,0.252,0.488,0.252c0.09,0,0.144,0,0.271-0.036l0.414,1.442C99.382,19.748,98.876,19.838,98.354,19.838z"/>
	<path fill="#333333" d="M107.046,20.091c-0.558-0.235-1.063-0.651-1.298-1.12c-0.181,0.18-0.378,0.361-0.559,0.488
		c-0.451,0.324-1.101,0.505-1.858,0.505c-2.056,0-3.174-1.046-3.174-2.886c0-2.166,1.496-3.175,4.437-3.175
		c0.18,0,0.343,0,0.541,0.019v-0.379c0-1.028-0.198-1.371-1.082-1.371c-0.774,0-1.677,0.379-2.669,1.046l-1.029-1.731
		c0.488-0.306,0.849-0.487,1.498-0.757c0.901-0.379,1.677-0.541,2.524-0.541c1.553,0,2.616,0.577,2.976,1.606
		c0.128,0.378,0.181,0.667,0.163,1.659l-0.054,3.103c-0.019,1.01,0.054,1.442,0.865,2.056L107.046,20.091z M104.99,15.581
		c-1.677,0-2.255,0.307-2.255,1.407c0,0.721,0.452,1.209,1.064,1.209c0.451,0,0.901-0.235,1.263-0.632l0.037-1.984H104.99z"/>
	<polygon fill="#333333" points="72.516,27.739 66.362,27.739 66.362,48.815 62.296,48.815 62.296,27.739 56.107,27.739 
		56.107,24.345 73.047,24.345 	"/>
	<path fill="#333333" d="M84.609,48.815V36.65c0-2.229-0.777-2.864-2.263-2.864c-1.379,0-3.04,0.885-4.313,2.192v12.837h-3.926
		V27.527c0-1.592-0.141-2.971-0.354-3.89l3.925-0.849c0.248,1.026,0.354,2.476,0.354,4.208v3.818c0,0.99-0.071,1.84-0.071,2.016
		c1.769-1.591,3.572-2.333,5.482-2.333c2.121,0,3.748,1.025,4.347,2.193c0.462,0.884,0.604,1.697,0.604,3.501v12.624H84.609z"/>
	<path fill="#333333" d="M94.519,28.27c-1.414,0-2.511-1.167-2.511-2.581c0-1.451,1.131-2.617,2.581-2.617
		c1.38,0,2.546,1.13,2.546,2.617C97.135,27.102,95.969,28.27,94.519,28.27z M92.573,48.815v-17.61l3.926-0.708v18.318H92.573z"/>
	<path fill="#333333" d="M119.697,48.815V36.438c0-2.085-0.46-2.687-1.838-2.687c-1.309,0-2.547,0.883-3.784,2.051v13.013h-3.713
		V36.544c0-2.085-0.459-2.758-1.945-2.758c-1.097,0-2.369,0.567-3.677,1.768v13.262h-3.784V35.979c0-2.227-0.213-3.572-0.637-4.526
		l3.536-0.991c0.354,0.566,0.566,1.309,0.637,2.299c1.413-1.45,3.077-2.263,4.738-2.263c1.592,0,2.971,0.53,4.279,2.617
		c1.732-1.769,3.431-2.617,5.339-2.617c2.935,0,4.668,1.52,4.668,5.234v13.084H119.697z"/>
	<path fill="#333333" d="M135.718,49.203c-1.768,0-3.253-0.707-4.35-2.051c-0.176,0.956-0.247,1.238-0.494,1.663h-3.572
		c0.318-0.813,0.461-1.592,0.461-3.997V27.952c0-2.051-0.143-3.324-0.461-4.314l4.032-0.884c0.212,1.273,0.283,2.157,0.283,3.572
		v4.172c0,1.025-0.071,1.591-0.107,1.696l0.142,0.037c1.239-1.203,2.546-1.733,4.243-1.733c4.279,0,6.967,3.5,6.967,9.087
		C142.861,45.314,139.891,49.203,135.718,49.203z M135.047,33.786c-1.626,0-2.688,0.919-3.396,1.804v8.734
		c0.779,0.812,1.909,1.556,3.324,1.556c2.44,0,3.502-1.768,3.502-6.259C138.478,36.403,137.839,33.786,135.047,33.786z"/>
	<path fill="#333333" d="M149.97,49.203c-3.925,0-3.925-3.536-3.925-5.057V28.906c0-2.44-0.105-3.748-0.354-5.233l3.996-0.884
		c0.283,1.097,0.319,2.582,0.319,4.916v15.17c0,2.404,0.105,2.793,0.389,3.218c0.212,0.318,0.813,0.496,1.272,0.284l0.637,2.403
		C151.597,49.062,150.854,49.203,149.97,49.203z"/>
	<path fill="#333333" d="M157.82,40.93v0.281c0,2.477,0.92,5.094,4.421,5.094c1.661,0,3.111-0.602,4.455-1.77l1.521,2.371
		c-1.874,1.59-4.031,2.368-6.435,2.368c-5.058,0-8.24-3.643-8.24-9.371c0-3.147,0.673-5.232,2.228-7.002
		c1.449-1.662,3.219-2.404,5.481-2.404c1.768,0,3.395,0.459,4.915,1.838c1.556,1.416,2.334,3.606,2.334,7.78v0.813H157.82z
		 M161.251,33.432c-2.192,0-3.395,1.734-3.395,4.634h6.611C164.468,35.166,163.196,33.432,161.251,33.432z"/>
	<path fill="#A3B5BE" d="M49.425,44.575c-0.392-0.39-2.334-1.453-2.334-1.453s-3.066-28.527-3.627-29.451
		c-0.562-0.922-6.617-6.836-15.48-6.836c-7.286-0.001-14.266,5.312-14.79,6.836c-0.542,1.583-3.63,29.447-3.63,29.447
		s-1.945,0.968-2.247,1.457c-0.3,0.489-0.848,2.618-0.496,3.976s11.271,5.431,21.537,5.431c9.726,0,20.922-4.285,21.553-5.431
		C50.305,47.834,49.814,44.968,49.425,44.575"/>
	<path fill="#FFFFFF" d="M21.573,20.682c0,0.963-0.782,1.739-1.741,1.739c-0.958,0-1.739-0.776-1.739-1.739
		c0-0.959,0.781-1.736,1.739-1.736C20.791,18.946,21.573,19.723,21.573,20.682z"/>
	<path fill="#FFFFFF" d="M29.407,18.945c0,0.963-0.781,1.738-1.741,1.738c-0.955,0-1.737-0.775-1.737-1.738
		c0-0.958,0.782-1.736,1.737-1.736C28.625,17.209,29.407,17.986,29.407,18.945"/>
	<path fill="#FFFFFF" d="M29.407,25.956c0,0.959-0.781,1.736-1.741,1.736c-0.955,0-1.737-0.777-1.737-1.736
		c0-0.958,0.782-1.739,1.737-1.739C28.625,24.217,29.407,24.998,29.407,25.956"/>
	<path fill="#FFFFFF" d="M29.407,33.846c0,0.959-0.781,1.737-1.741,1.737c-0.955,0-1.737-0.778-1.737-1.737
		c0-0.961,0.782-1.738,1.737-1.738C28.625,32.107,29.407,32.885,29.407,33.846"/>
	<path fill="#FFFFFF" d="M37.24,20.681c0,0.962-0.781,1.74-1.743,1.74c-0.955,0-1.736-0.777-1.736-1.74
		c0-0.958,0.781-1.736,1.736-1.736C36.459,18.945,37.24,19.722,37.24,20.681"/>
	<path fill="#FFFFFF" d="M36.003,28.562c0,0.576-0.468,1.042-1.042,1.042c-0.569,0-1.037-0.465-1.037-1.042
		c0-0.572,0.468-1.038,1.037-1.038C35.535,27.523,36.003,27.99,36.003,28.562"/>
	<path fill="#FFFFFF" d="M36.003,33.541c0,0.572-0.468,1.038-1.042,1.038c-0.569,0-1.037-0.466-1.037-1.038
		c0-0.575,0.468-1.039,1.037-1.039C35.535,32.502,36.003,32.966,36.003,33.541"/>
	<path fill="#FFFFFF" d="M20.697,28.562c0,0.576-0.463,1.042-1.038,1.042s-1.042-0.465-1.042-1.042c0-0.572,0.468-1.038,1.042-1.038
		S20.697,27.99,20.697,28.562z"/>
	<circle fill="#FFFFFF" cx="19.657" cy="33.541" r="1.04"/>
	<path fill="#FFFFFF" d="M6.821,48.551c0.002,0.007,0.004,0.012,0.006,0.018C6.825,48.562,6.823,48.558,6.821,48.551 M49.91,48.551
		c-0.631,1.146-11.827,5.431-21.553,5.431C38.367,53.981,49.602,49.534,49.91,48.551 M49.428,44.58
		c0.078,0.081,0.158,0.257,0.236,0.494C49.589,44.838,49.508,44.663,49.428,44.58 M49.427,44.577c0,0,0,0.002,0.001,0.002
		C49.427,44.579,49.427,44.577,49.427,44.577"/>
	<path fill="#B5C4CB" d="M34.961,34.579c-0.569,0-1.037-0.466-1.037-1.038c0-0.575,0.468-1.039,1.037-1.039
		c0.574,0,1.042,0.464,1.042,1.039C36.003,34.113,35.535,34.579,34.961,34.579 M34.961,29.603c-0.569,0-1.037-0.465-1.037-1.042
		c0-0.572,0.468-1.038,1.037-1.038c0.574,0,1.042,0.466,1.042,1.038C36.003,29.138,35.535,29.603,34.961,29.603 M35.497,22.42
		c-0.955,0-1.736-0.777-1.736-1.74c0-0.958,0.781-1.736,1.736-1.736c0.962,0,1.743,0.777,1.743,1.736
		C37.24,21.643,36.459,22.42,35.497,22.42 M27.983,6.835L27.983,6.835l-0.103,10.387c0.858,0.105,1.526,0.838,1.526,1.723
		c0,0.902-0.685,1.639-1.56,1.729l-0.035,3.549c0.893,0.075,1.595,0.824,1.595,1.733c0,0.922-0.722,1.676-1.629,1.732l-0.044,4.422
		c0.929,0.035,1.673,0.798,1.673,1.735c0,0.947-0.763,1.719-1.707,1.737l-0.031,3.182c0,0-9.051,0.355-18.105,4.354l0,0
		c0,0-1.945,0.968-2.247,1.457l0,0c-0.3,0.489-0.812,2.723-0.496,3.976l0,0c0.002,0.007,0.004,0.012,0.006,0.018
		c0.415,1.273,11.465,5.413,21.531,5.413l0,0c9.726,0,20.922-4.285,21.553-5.431l0,0c0.244-0.778,0.042-2.57-0.246-3.477
		c-0.078-0.237-0.158-0.413-0.236-0.494v-0.001c-0.001,0-0.001-0.002-0.001-0.002c-0.001,0-0.001-0.001-0.002-0.002l0,0
		c-0.392-0.39-2.334-1.453-2.334-1.453s-3.066-28.527-3.627-29.451C42.902,12.749,36.847,6.835,27.983,6.835"/>
	<path fill="#FFFFFF" d="M27.881,17.222l-0.034,3.452c0.875-0.09,1.56-0.827,1.56-1.729C29.407,18.06,28.739,17.327,27.881,17.222"
		/>
	<path fill="#FFFFFF" d="M27.812,24.223l-0.034,3.466c0.907-0.057,1.629-0.811,1.629-1.732
		C29.407,25.046,28.704,24.297,27.812,24.223"/>
	<path fill="#FFFFFF" d="M27.733,32.11L27.7,35.583c0.944-0.019,1.707-0.79,1.707-1.737C29.407,32.908,28.662,32.146,27.733,32.11"
		/>
	<path fill="#FFFFFF" d="M35.497,18.945c-0.955,0-1.736,0.777-1.736,1.736c0,0.962,0.781,1.74,1.736,1.74
		c0.962,0,1.743-0.777,1.743-1.74C37.24,19.722,36.459,18.945,35.497,18.945"/>
	<path fill="#FFFFFF" d="M34.961,27.523c-0.569,0-1.037,0.466-1.037,1.038c0,0.576,0.468,1.042,1.037,1.042
		c0.574,0,1.042-0.465,1.042-1.042C36.003,27.99,35.535,27.523,34.961,27.523"/>
	<path fill="#FFFFFF" d="M34.961,32.502c-0.569,0-1.037,0.464-1.037,1.039c0,0.572,0.468,1.038,1.037,1.038
		c0.574,0,1.042-0.466,1.042-1.038C36.003,32.966,35.535,32.502,34.961,32.502"/>
	<path fill="#647882" d="M44.824,47.268c0,0-6.8,3.601-16.467,3.601c-9.095,0-16.447-3.601-16.447-3.601s7.232-4.148,16.447-4.148
		C37.955,43.119,44.824,47.268,44.824,47.268z"/>
</g>
</svg>
