<?xml version="1.0" encoding="UTF-8" standalone="no"?>
<svg width="8px" height="8px" viewBox="0 0 8 8" version="1.1" xmlns="http://www.w3.org/2000/svg" xmlns:xlink="http://www.w3.org/1999/xlink" xmlns:sketch="http://www.bohemiancoding.com/sketch/ns">
    <!-- Generator: Sketch 3.3.3 (12081) - http://www.bohemiancoding.com/sketch -->
    <title>white-x</title>
    <desc>Created with Sketch.</desc>
    <defs></defs>
    <g id="Icons" stroke="none" stroke-width="1" fill="none" fill-rule="evenodd" sketch:type="MSPage">
        <g id="white-x" sketch:type="MSArtboardGroup" fill="#FFFFFF">
            <path d="M6.8951998,7.81201307 C6.77456647,7.93365167 6.60567982,8 6.43779844,8 C6.26891179,8 6.10103041,7.93365167 5.97939181,7.81201307 L4,5.83262126 L2.02060819,7.81201307 C1.89896959,7.93365167 1.73008294,8 1.56220156,8 C1.39432018,8 1.22543353,7.93365167 1.10379492,7.81201307 L0.187986931,6.89620508 C0.0673536064,6.77456647 0,6.6066851 0,6.43779844 C0,6.26991706 0.0673536064,6.10103041 0.187986931,5.98039708 L2.16838402,4 L0.187986931,2.02060819 C0.0673536064,1.89997487 0,1.73108821 0,1.56320684 C0,1.39432018 0.0673536064,1.2264388 0.187986931,1.1048002 L1.10379492,0.188992209 C1.22543353,0.0673536064 1.39432018,0 1.56220156,0 C1.73008294,0 1.89896959,0.0673536064 2.02060819,0.188992209 L4,2.16838402 L5.97939181,0.188992209 C6.10103041,0.0673536064 6.26891179,0 6.43779844,0 C6.60567982,0 6.77456647,0.0673536064 6.8951998,0.188992209 L7.81100779,1.1048002 C7.93264639,1.2264388 8,1.39432018 8,1.56320684 C8,1.73108821 7.93264639,1.89997487 7.81100779,2.02060819 L5.83161598,4 L7.81100779,5.98039708 C7.93264639,6.10103041 8,6.26991706 8,6.43779844 C8,6.6066851 7.93264639,6.77456647 7.81100779,6.89620508 L6.8951998,7.81201307 Z" id="Imported-Layers" sketch:type="MSShapeGroup"></path>
        </g>
    </g>
</svg>