<?xml version="1.0" encoding="UTF-8" standalone="no"?>
<svg width="16px" height="16px" viewBox="0 0 16 16" version="1.1" xmlns="http://www.w3.org/2000/svg" xmlns:xlink="http://www.w3.org/1999/xlink">
    <!-- Generator: Sketch 3.6.1 (26313) - http://www.bohemiancoding.com/sketch -->
    <title>checkbox-white</title>
    <desc>Created with Sketch.</desc>
    <defs></defs>
    <g id="Page-1" stroke="none" stroke-width="1" fill="none" fill-rule="evenodd">
        <g id="checkbox-white" fill="#FFFFFF">
            <path d="M8.23444348,12.3180176 L6.83096771,13.7214934 C6.64455655,13.9079045 6.38727833,14.0095833 6.12845953,14.0095833 C5.87118131,14.0095833 5.61236251,13.9079045 5.42749193,13.7214934 L4.02401616,12.3180176 L0.288089978,8.58209141 C0.103219404,8.39568024 0,8.13840203 0,7.88112381 C0,7.62230501 0.103219404,7.36348621 0.288089978,7.17861563 L1.69156575,5.77513986 C1.87643633,5.58718811 2.13525513,5.48550929 2.39253334,5.48550929 C2.65135215,5.48550929 2.90863036,5.58718811 3.09504153,5.77513986 L6.12845953,8.81934198 L12.8993443,2.03921368 C13.0857555,1.8543431 13.3430337,1.74958311 13.6018525,1.74958311 C13.8591307,1.74958311 14.1179495,1.8543431 14.3028201,2.03921368 L15.7062958,3.44268945 C15.8911664,3.62910061 15.9943858,3.88637883 15.9943858,4.14365704 C15.9943858,4.40247585 15.8911664,4.66129465 15.7062958,4.84616522 L8.23444348,12.3180176 Z" id="Fill-1"></path>
        </g>
    </g>
</svg>