<?xml version="1.0" encoding="UTF-8" standalone="no"?>
<svg width="16px" height="16px" viewBox="0 0 16 16" version="1.1" xmlns="http://www.w3.org/2000/svg" xmlns:xlink="http://www.w3.org/1999/xlink" xmlns:sketch="http://www.bohemiancoding.com/sketch/ns">
    <!-- Generator: Sketch 3.3.3 (12081) - http://www.bohemiancoding.com/sketch -->
    <title>download-cloud</title>
    <desc>Created with Sketch.</desc>
    <defs></defs>
    <g id="Icons" stroke="none" stroke-width="1" fill="none" fill-rule="evenodd" sketch:type="MSPage">
        <g id="download-cloud" sketch:type="MSArtboardGroup" fill="#000000">
            <path d="M12.8998339,6.70008795 C13.7664419,6.74464966 14.4997557,7.08355321 15.1001661,7.71679859 C15.6997948,8.35004398 16,9.111502 16,10 C16,10.9115606 15.6716505,11.6949086 15.0169061,12.350044 C14.360989,13.0059611 13.577641,13.3331379 12.6664712,13.3331379 L4,13.3331379 C2.88869344,13.3331379 1.94429786,12.944591 1.16720414,12.1667155 C0.388546858,11.38884 0,10.4448353 0,9.33352878 C0,8.31134565 0.344376038,7.42245676 1.03351901,6.66686211 C1.72188019,5.91165836 2.56659826,5.4781589 3.56689143,5.36675462 C3.98866413,4.54509919 4.59454705,3.88918206 5.38375843,3.4001759 C6.17179713,2.91156064 7.04426854,2.66686211 8,2.66686211 C9.20042998,2.66686211 10.2550572,3.04993648 11.1670087,3.816867 C12.0773967,4.58340663 12.6551353,5.54500147 12.8998339,6.70008795 L12.8998339,6.70008795 Z M6.93325515,8.64868562 L4.66647122,8.64868562 L8,11.9818235 L11.3335288,8.64868562 L9.06674485,8.64868562 L9.06674485,6.1153132 L6.93325515,6.1153132 L6.93325515,8.64868562 L6.93325515,8.64868562 Z" id="Imported-Layers" sketch:type="MSShapeGroup"></path>
        </g>
    </g>
</svg>