<?xml version="1.0" encoding="UTF-8" standalone="no"?>
<svg width="12px" height="12px" viewBox="0 0 12 12" version="1.1" xmlns="http://www.w3.org/2000/svg" xmlns:xlink="http://www.w3.org/1999/xlink" xmlns:sketch="http://www.bohemiancoding.com/sketch/ns">
    <!-- Generator: Sketch 3.4.2 (15857) - http://www.bohemiancoding.com/sketch -->
    <title>fullscreen-on</title>
    <desc>Created with Sketch.</desc>
    <defs>
        <linearGradient x1="50%" y1="0%" x2="50%" y2="100%" id="linearGradient-1">
            <stop stop-color="#000000" stop-opacity="0.5" offset="0%"></stop>
            <stop stop-color="#000000" stop-opacity="0.5" offset="100%"></stop>
        </linearGradient>
        <path id="path-2" d="M0,0 L12,0 L12,12 L0,12"></path>
        <path id="path-4" d="M0,0 L12,0 L12,12 L0,12"></path>
        <path id="path-6" d="M0,0 L12,0 L12,12 L0,12 L0,0 Z"></path>
        <path id="path-8" d="M0,0 L12,0 L12,12 L0,12 L0,0 Z"></path>
    </defs>
    <g id="Icons" stroke="none" stroke-width="1" fill="none" fill-rule="evenodd" sketch:type="MSPage">
        <g id="fullscreen-on" sketch:type="MSArtboardGroup">
            <mask id="mask-3" sketch:name="Clip 2" fill="white">
                <use xlink:href="#path-2"></use>
            </mask>
            <g id="Clip-2"></g>
            <path d="M4.1652,5.30446667 L1.8012,2.94046667 L0.776533333,3.96646667 C0.690533333,4.0518 0.5772,4.10113333 0.455866667,4.10113333 C0.206533333,4.10113333 -0.000133333333,3.89446667 -0.000133333333,3.6458 L-0.000133333333,0.4558 C-0.000133333333,0.206466667 0.206533333,-0.0002 0.455866667,-0.0002 L3.64586667,-0.0002 C3.89453333,-0.0002 4.1012,0.206466667 4.1012,0.4558 C4.1012,0.577133333 4.0512,0.690466667 3.96586667,0.776466667 L2.94053333,1.80113333 L5.30453333,4.1658 C5.34786667,4.20846667 5.37586667,4.27246667 5.37586667,4.32846667 C5.37586667,4.3858 5.34786667,4.45046667 5.30453333,4.49246667 L4.4932,5.30446667 C4.44986667,5.34713333 4.38653333,5.3758 4.3292,5.3758 C4.27186667,5.3758 4.20853333,5.34713333 4.1652,5.30446667" id="Fill-1" fill="#000000" sketch:type="MSShapeGroup" mask="url(#mask-3)"></path>
            <mask id="mask-5" sketch:name="Clip 5" fill="white">
                <use xlink:href="#path-4"></use>
            </mask>
            <g id="Clip-5"></g>
            <path d="M5.30446667,7.8348 L2.94046667,10.1988 L3.96646667,11.2234667 C4.0518,11.3094667 4.10113333,11.4228 4.10113333,11.5441333 C4.10113333,11.7934667 3.89446667,12.0001333 3.6458,12.0001333 L0.4558,12.0001333 C0.206466667,12.0001333 -0.0002,11.7934667 -0.0002,11.5441333 L-0.0002,8.35413333 C-0.0002,8.10546667 0.206466667,7.8988 0.4558,7.8988 C0.577133333,7.8988 0.690466667,7.9488 0.776466667,8.03413333 L1.80113333,9.05946667 L4.1658,6.69546667 C4.20846667,6.65213333 4.27246667,6.62413333 4.32846667,6.62413333 C4.3858,6.62413333 4.45046667,6.65213333 4.49246667,6.69546667 L5.30446667,7.5068 C5.34713333,7.55013333 5.3758,7.61346667 5.3758,7.6708 C5.3758,7.72813333 5.34713333,7.79146667 5.30446667,7.8348" id="Fill-4" fill="#000000" sketch:type="MSShapeGroup" mask="url(#mask-5)"></path>
            <mask id="mask-7" sketch:name="Clip 8" fill="white">
                <use xlink:href="#path-6"></use>
            </mask>
            <g id="Clip-8"></g>
            <path d="M8.35433333,12 C8.105,12 7.89833333,11.7933333 7.89833333,11.544 C7.89833333,11.4226667 7.94833333,11.31 8.03433333,11.2233333 L9.059,10.1986667 L6.69566667,7.834 C6.65233333,7.792 6.62366667,7.72733333 6.62366667,7.67133333 C6.62366667,7.614 6.65233333,7.55 6.69566667,7.50733333 L7.507,6.69533333 C7.54966667,6.65266667 7.61366667,6.624 7.671,6.624 C7.72766667,6.624 7.79166667,6.65266667 7.835,6.69533333 L10.1983333,9.05933333 L11.2243333,8.03333333 C11.309,7.94866667 11.4236667,7.89866667 11.5443333,7.89866667 C11.7936667,7.89866667 12.0003333,8.10533333 12.0003333,8.354 L12.0003333,11.544 C12.0003333,11.7933333 11.7936667,12 11.5443333,12 L8.35433333,12 Z" id="Fill-7" fill="#000000" sketch:type="MSShapeGroup" mask="url(#mask-7)"></path>
            <mask id="mask-9" sketch:name="Clip 11" fill="white">
                <use xlink:href="#path-8"></use>
            </mask>
            <g id="Clip-11"></g>
            <path d="M12,3.64566667 C12,3.895 11.7933333,4.10166667 11.544,4.10166667 C11.4226667,4.10166667 11.31,4.05166667 11.2233333,3.96566667 L10.1986667,2.941 L7.834,5.30433333 C7.792,5.34766667 7.72733333,5.37633333 7.67133333,5.37633333 C7.614,5.37633333 7.55,5.34766667 7.50733333,5.30433333 L6.69533333,4.493 C6.65266667,4.45033333 6.624,4.38633333 6.624,4.329 C6.624,4.27233333 6.65266667,4.20833333 6.69533333,4.165 L9.05933333,1.80166667 L8.03333333,0.775666667 C7.94866667,0.691 7.89866667,0.576333333 7.89866667,0.455666667 C7.89866667,0.206333333 8.10533333,-0.000333333333 8.354,-0.000333333333 L11.544,-0.000333333333 C11.7933333,-0.000333333333 12,0.206333333 12,0.455666667 L12,3.64566667 Z" id="Fill-10" fill="#000000" sketch:type="MSShapeGroup" mask="url(#mask-9)"></path>
        </g>
    </g>
</svg>