<?xml version="1.0" encoding="UTF-8" standalone="no"?>
<svg width="12px" height="12px" viewBox="0 0 12 12" version="1.1" xmlns="http://www.w3.org/2000/svg" xmlns:xlink="http://www.w3.org/1999/xlink" xmlns:sketch="http://www.bohemiancoding.com/sketch/ns">
    <!-- Generator: Sketch 3.4.2 (15857) - http://www.bohemiancoding.com/sketch -->
    <title>fullscreen-off</title>
    <desc>Created with Sketch.</desc>
    <defs>
        <linearGradient x1="50%" y1="0%" x2="50%" y2="100%" id="linearGradient-1">
            <stop stop-color="#000000" stop-opacity="0.5" offset="0%"></stop>
            <stop stop-color="#000000" stop-opacity="0.5" offset="100%"></stop>
        </linearGradient>
        <path id="path-2" d="M0,0 L12,0 L12,12 L0,12 L0,0 Z"></path>
        <path id="path-4" d="M0,0 L12,0 L12,12 L0,12 L0,0 Z"></path>
    </defs>
    <g id="Icons" stroke="none" stroke-width="1" fill="none" fill-rule="evenodd" sketch:type="MSPage">
        <g id="fullscreen-off" sketch:type="MSArtboardGroup">
            <path d="M1.21093333,0.0716 L2.90826667,1.76893333 L3.93293333,0.742933333 C4.01893333,0.6576 4.13226667,0.608266667 4.2536,0.608266667 C4.50293333,0.608266667 4.7096,0.814933333 4.7096,1.0636 L4.7096,4.2536 C4.7096,4.50293333 4.50293333,4.7096 4.2536,4.7096 L1.0636,4.7096 C0.814933333,4.7096 0.608266667,4.50293333 0.608266667,4.2536 C0.608266667,4.13226667 0.658266667,4.01893333 0.7436,3.93293333 L1.76893333,2.90826667 L0.0716,1.21026667 C0.0282666667,1.1676 0.000266666667,1.1036 0.000266666667,1.0476 C0.000266666667,0.990266667 0.0282666667,0.9256 0.0716,0.8836 L0.882933333,0.0716 C0.926266667,0.0289333333 0.9896,0.000266666667 1.04693333,0.000266666667 C1.10426667,0.000266666667 1.1676,0.0289333333 1.21093333,0.0716" id="Fill-1" fill="#000000" sketch:type="MSShapeGroup"></path>
            <path d="M0.0716,10.7891333 L1.76893333,9.0918 L0.742933333,8.06713333 C0.6576,7.98113333 0.608266667,7.8678 0.608266667,7.74646667 C0.608266667,7.49713333 0.814933333,7.29046667 1.0636,7.29046667 L4.2536,7.29046667 C4.50293333,7.29046667 4.7096,7.49713333 4.7096,7.74646667 L4.7096,10.9364667 C4.7096,11.1851333 4.50293333,11.3918 4.2536,11.3918 C4.13226667,11.3918 4.01893333,11.3418 3.93293333,11.2564667 L2.90826667,10.2311333 L1.21026667,11.9284667 C1.1676,11.9718 1.1036,11.9998 1.0476,11.9998 C0.990266667,11.9998 0.9256,11.9718 0.8836,11.9284667 L0.0716,11.1171333 C0.0289333333,11.0738 0.000266666667,11.0104667 0.000266666667,10.9531333 C0.000266666667,10.8958 0.0289333333,10.8324667 0.0716,10.7891333" id="Fill-3" fill="#000000" sketch:type="MSShapeGroup"></path>
            <mask id="mask-3" sketch:name="Clip 6" fill="white">
                <use xlink:href="#path-2"></use>
            </mask>
            <g id="Clip-6"></g>
            <path d="M10.9362,7.29053333 C11.1855333,7.29053333 11.3922,7.4972 11.3922,7.74653333 C11.3922,7.86786667 11.3422,7.98053333 11.2562,8.0672 L10.2315333,9.09186667 L11.9282,10.7898667 C11.9715333,10.8318667 12.0002,10.8965333 12.0002,10.9525333 C12.0002,11.0098667 11.9715333,11.0738667 11.9282,11.1165333 L11.1168667,11.9285333 C11.0742,11.9712 11.0102,11.9998667 10.9528667,11.9998667 C10.8962,11.9998667 10.8322,11.9712 10.7888667,11.9285333 L9.0922,10.2312 L8.0662,11.2572 C7.98153333,11.3418667 7.86686667,11.3918667 7.7462,11.3918667 C7.49686667,11.3918667 7.2902,11.1852 7.2902,10.9365333 L7.2902,7.74653333 C7.2902,7.4972 7.49686667,7.29053333 7.7462,7.29053333 L10.9362,7.29053333 Z" id="Fill-5" fill="#000000" sketch:type="MSShapeGroup" mask="url(#mask-3)"></path>
            <mask id="mask-5" sketch:name="Clip 9" fill="white">
                <use xlink:href="#path-4"></use>
            </mask>
            <g id="Clip-9"></g>
            <path d="M7.29053333,1.0638 C7.29053333,0.814466667 7.4972,0.6078 7.74653333,0.6078 C7.86786667,0.6078 7.98053333,0.6578 8.0672,0.7438 L9.09186667,1.76846667 L10.7898667,0.0718 C10.8318667,0.0284666667 10.8965333,-0.0002 10.9525333,-0.0002 C11.0098667,-0.0002 11.0738667,0.0284666667 11.1165333,0.0718 L11.9285333,0.883133333 C11.9712,0.9258 11.9998667,0.9898 11.9998667,1.04713333 C11.9998667,1.1038 11.9712,1.1678 11.9285333,1.21113333 L10.2312,2.9078 L11.2572,3.9338 C11.3418667,4.01846667 11.3918667,4.13313333 11.3918667,4.2538 C11.3918667,4.50313333 11.1852,4.7098 10.9365333,4.7098 L7.74653333,4.7098 C7.4972,4.7098 7.29053333,4.50313333 7.29053333,4.2538 L7.29053333,1.0638 Z" id="Fill-8" fill="#000000" sketch:type="MSShapeGroup" mask="url(#mask-5)"></path>
        </g>
    </g>
</svg>