<svg width="10" height="12" viewBox="0 0 10 12" xmlns="http://www.w3.org/2000/svg">
  <title>
    Garbage Can
  </title>
  <g fill="#FFFFFF" fill-rule="evenodd">
    <path d="M8.39 3.565H1.665c-.22 0-.355.027-.41.082-.055.055-.073.164-.055.328l.52 6.618c.035.182.072.296.108.342.036.045.155.068.356.068H7.87c.13 0 .224-.014.288-.04.064-.028.105-.065.123-.11.02-.046.038-.132.056-.26l.52-6.618c.018-.18 0-.295-.055-.34-.054-.047-.19-.07-.41-.07M9.238 2.007c-.054-.146-.228-.246-.52-.3L7.27 1.54c-.128-.018-.22-.082-.274-.192-.036-.072-.077-.168-.123-.286-.046-.12-.082-.2-.11-.247-.027-.045-.06-.1-.095-.164C6.63.59 6.595.55 6.558.53 6.523.512 6.48.503 6.423.503H3.606c-.055 0-.1.01-.137.027-.038.02-.074.055-.11.11-.037.054-.064.11-.083.163-.018.055-.05.137-.095.247l-.123.3c-.056.11-.147.174-.275.192l-1.45.19c-.29.056-.464.157-.518.302l-.11.356c-.036.164-.05.255-.04.273.008.02.086.027.232.027h8.256c.055 0 .118-.1.192-.3-.037-.164-.074-.292-.11-.383"/>
  </g>
</svg>