<?xml version="1.0" encoding="UTF-8" standalone="no"?>
<svg width="12px" height="12px" viewBox="0 0 12 12" version="1.1" xmlns="http://www.w3.org/2000/svg" xmlns:xlink="http://www.w3.org/1999/xlink" xmlns:sketch="http://www.bohemiancoding.com/sketch/ns">
    <!-- Generator: Sketch 3.4.2 (15857) - http://www.bohemiancoding.com/sketch -->
    <title>inspector-off</title>
    <desc>Created with Sketch.</desc>
    <defs>
        <linearGradient x1="50%" y1="0%" x2="50%" y2="100%" id="linearGradient-1">
            <stop stop-color="#000000" stop-opacity="0.5" offset="0%"></stop>
            <stop stop-color="#000000" stop-opacity="0.5" offset="100%"></stop>
        </linearGradient>
    </defs>
    <g id="Icons" stroke="none" stroke-width="1" fill="none" fill-rule="evenodd" sketch:type="MSPage">
        <g id="inspector-off" sketch:type="MSArtboardGroup" fill="#000000">
            <g id="Fill-1-+-Fill-3" sketch:type="MSLayerGroup">
                <path d="M1.2,7.43875 L1.2,1.17857143 L9.7632,1.17857143 L9.7632,4.06096429 L10.9632,4.74060714 L10.9632,0.818321429 C10.9632,0.366535714 10.59,0 10.13,0 L0.8332,0 C0.3732,0 0,0.366535714 0,0.818321429 L0,7.799 C0,8.25078571 0.3732,8.61732143 0.8332,8.61732143 L6.0116,8.61732143 L5.8344,7.43875 L1.2,7.43875 Z M11.70788,9.78123929 L10.24228,7.61620357 L11.55348,7.11648929 C11.64948,7.05088214 11.71628,6.95384643 11.73708,6.84070357 C11.78028,6.60891786 11.57828,6.44234643 11.38388,6.33941786 L7.07868,3.90095357 C6.92748,3.83416786 6.80868,3.79606071 6.72228,3.79606071 C6.56188,3.79606071 6.51148,3.92648929 6.56788,4.24823929 L7.29988,9.116525 C7.33148,9.287025 7.41708,9.575775 7.65308,9.61781071 C7.67868,9.622525 7.70388,9.62448929 7.72908,9.62448929 C7.81828,9.62448929 7.90548,9.59698929 7.98068,9.54670357 L8.96628,8.48441786 L10.43188,10.6486679 C10.46508,10.6954179 10.52068,10.733525 10.57468,10.7429536 C10.58548,10.7449179 10.59628,10.7457036 10.60748,10.7457036 C10.65388,10.7457036 10.70388,10.7303821 10.74268,10.7040607 L11.65148,10.0857036 C11.69988,10.0534893 11.73788,9.99809643 11.74748,9.94506071 C11.75748,9.89281071 11.74148,9.82798929 11.70788,9.78123929 Z" id="Fill-1" sketch:type="MSShapeGroup"></path>
            </g>
        </g>
    </g>
</svg>