<svg xmlns="http://www.w3.org/2000/svg" viewBox="0 0 15.76 15.76"><title>js</title><g id="Layer_2" data-name="Layer 2"><g id="Layer_1-2" data-name="Layer 1"><path d="M14.76,0H1A1,1,0,0,0,0,1V14.76a1,1,0,0,0,1,1H14.76a1,1,0,0,0,1-1V1A1,1,0,0,0,14.76,0ZM9.3,3.91A3.16,3.16,0,0,0,8.55,4a.69.69,0,0,0-.32.2.55.55,0,0,0-.12.37v1.7a1.53,1.53,0,0,1-.35,1.09,1.9,1.9,0,0,1-1.15.49v.07a2,2,0,0,1,1.15.49,1.46,1.46,0,0,1,.35,1v1.73a.53.53,0,0,0,.13.38.78.78,0,0,0,.35.2,3.13,3.13,0,0,0,.71.08V13.6a7.21,7.21,0,0,1-1.92-.2,1.76,1.76,0,0,1-1-.64,2.32,2.32,0,0,1-.3-1.32V9.89a.89.89,0,0,0-.42-.78,2,2,0,0,0-1.12-.28V6.95a2,2,0,0,0,1.13-.28.9.9,0,0,0,.41-.79V4.29A2.25,2.25,0,0,1,6.39,3a1.77,1.77,0,0,1,1-.63,7.29,7.29,0,0,1,1.91-.2Z" style="fill:#f79023"/></g></g></svg>