<?xml version="1.0" encoding="UTF-8" standalone="no"?>
<svg width="16px" height="16px" viewBox="0 0 16 16" version="1.1" xmlns="http://www.w3.org/2000/svg" xmlns:xlink="http://www.w3.org/1999/xlink" xmlns:sketch="http://www.bohemiancoding.com/sketch/ns">
    <!-- Generator: Sketch 3.3.3 (12081) - http://www.bohemiancoding.com/sketch -->
    <title>new-project</title>
    <desc>Created with Sketch.</desc>
    <defs></defs>
    <g id="Icons" stroke="none" stroke-width="1" fill="none" fill-rule="evenodd" sketch:type="MSPage">
        <g id="new-project" sketch:type="MSArtboardGroup" fill="#000000">
            <path d="M9.02123299,1.36225 L13.1061649,5.44718196 L13.1061649,13.3610765 C13.1061649,13.7016638 12.979238,13.9988844 12.7232687,14.2548537 C12.4683571,14.5097653 12.1700788,14.63775 11.8294915,14.63775 L4.17050851,14.63775 C3.83097895,14.63775 3.53270064,14.5097653 3.27673132,14.2548537 C3.02181972,13.9988844 2.89383505,13.7016638 2.89383505,13.3610765 L2.89383505,2.63786573 C2.89383505,2.29833617 3.02181972,2.00005786 3.27673132,1.74514626 C3.53270064,1.48917694 3.83097895,1.36225 4.17050851,1.36225 L9.02123299,1.36225 L9.02123299,1.36225 Z M8.51140979,5.95700516 L12.0854608,5.95700516 L8.51140979,2.38401185 L8.51140979,5.95700516 L8.51140979,5.95700516 Z" id="Imported-Layers" sketch:type="MSShapeGroup"></path>
        </g>
    </g>
</svg>