<?xml version="1.0" encoding="UTF-8" standalone="no"?>
<svg width="12px" height="13px" viewBox="0 0 12 13" version="1.1" xmlns="http://www.w3.org/2000/svg" xmlns:xlink="http://www.w3.org/1999/xlink" xmlns:sketch="http://www.bohemiancoding.com/sketch/ns">
    <!-- Generator: Sketch 3.3.2 (12043) - http://www.bohemiancoding.com/sketch -->
    <title>Share - Green</title>
    <desc>Created with Sketch.</desc>
    <defs></defs>
    <g id="Icons" stroke="none" stroke-width="1" fill="none" fill-rule="evenodd" sketch:type="MSPage">
        <g id="Share---Green" sketch:type="MSArtboardGroup" fill="#52996B">
            <path d="M9.305,8.724 C9.809,8.724 10.236,8.898 10.584,9.247 C10.933,9.596 11.108,10.023 11.108,10.527 C11.108,11.031 10.933,11.457 10.584,11.806 C10.236,12.155 9.809,12.33 9.305,12.33 C8.801,12.33 8.375,12.155 8.026,11.806 C7.677,11.457 7.502,11.031 7.502,10.527 C7.502,10.41 7.522,10.275 7.56,10.12 L3.14,7.561 C2.772,7.89 2.346,8.055 1.861,8.055 C1.357,8.055 0.921,7.871 0.552,7.503 C0.184,7.134 0,6.698 0,6.194 C0,5.69 0.179,5.254 0.538,4.886 C0.896,4.517 1.328,4.333 1.832,4.333 C2.316,4.333 2.743,4.498 3.111,4.827 L7.502,2.298 C7.463,2.104 7.444,1.958 7.444,1.861 C7.444,1.357 7.628,0.921 7.996,0.553 C8.365,0.185 8.801,0 9.305,0 C9.809,0 10.245,0.185 10.614,0.553 C10.982,0.921 11.166,1.357 11.166,1.861 C11.166,2.365 10.982,2.802 10.614,3.17 C10.245,3.538 9.809,3.722 9.305,3.722 C8.82,3.722 8.394,3.558 8.026,3.228 L3.635,5.758 C3.673,5.952 3.693,6.097 3.693,6.194 C3.693,6.291 3.673,6.436 3.635,6.63 L8.084,9.189 C8.394,8.879 8.801,8.724 9.305,8.724" id="Imported-Layers" sketch:type="MSShapeGroup"></path>
        </g>
    </g>
</svg>