<?xml version="1.0" encoding="UTF-8" standalone="no"?>
<svg width="8px" height="12px" viewBox="0 0 8 12" version="1.1" xmlns="http://www.w3.org/2000/svg" xmlns:xlink="http://www.w3.org/1999/xlink" xmlns:sketch="http://www.bohemiancoding.com/sketch/ns">
    <!-- Generator: Sketch 3.3.2 (12043) - http://www.bohemiancoding.com/sketch -->
    <title>Remix</title>
    <desc>Created with Sketch.</desc>
    <defs></defs>
    <g id="Icons" stroke="none" stroke-width="1" fill="none" fill-rule="evenodd" sketch:type="MSPage">
        <g id="Remix" sketch:type="MSArtboardGroup" fill="#000000">
            <path d="M6.825,3.574 C6.802,6.23 4.92,6.818 3.67,7.215 C2.501,7.583 2.118,7.759 2.118,8.473 L2.118,8.664 C2.537,8.907 2.824,9.363 2.824,9.885 C2.824,10.665 2.191,11.297 1.412,11.297 C0.633,11.297 0,10.665 0,9.885 C0,9.363 0.287,8.907 0.706,8.664 L0.706,2.633 C0.287,2.39 0,1.934 0,1.412 C0,0.632 0.633,0 1.412,0 C2.191,0 2.824,0.632 2.824,1.412 C2.824,1.934 2.537,2.39 2.118,2.633 L2.118,6.288 C2.493,6.105 2.89,5.98 3.251,5.869 C4.619,5.435 5.398,5.112 5.413,3.574 C4.994,3.332 4.707,2.876 4.707,2.354 C4.707,1.574 5.339,0.942 6.119,0.942 C6.898,0.942 7.531,1.574 7.531,2.354 C7.531,2.876 7.244,3.332 6.825,3.574 L6.825,3.574 Z M1.412,0.706 C1.022,0.706 0.706,1.023 0.706,1.412 C0.706,1.802 1.022,2.118 1.412,2.118 C1.801,2.118 2.118,1.802 2.118,1.412 C2.118,1.023 1.801,0.706 1.412,0.706 L1.412,0.706 Z M1.412,9.179 C1.022,9.179 0.706,9.495 0.706,9.885 C0.706,10.274 1.022,10.591 1.412,10.591 C1.801,10.591 2.118,10.274 2.118,9.885 C2.118,9.495 1.801,9.179 1.412,9.179 L1.412,9.179 Z M6.119,1.648 C5.729,1.648 5.413,1.964 5.413,2.354 C5.413,2.743 5.729,3.06 6.119,3.06 C6.509,3.06 6.825,2.743 6.825,2.354 C6.825,1.964 6.509,1.648 6.119,1.648 L6.119,1.648 Z" id="Imported-Layers" sketch:type="MSShapeGroup"></path>
        </g>
    </g>
</svg>
