<?xml version="1.0" encoding="UTF-8" standalone="no"?>
<svg width="16px" height="16px" viewBox="0 0 16 16" version="1.1" xmlns="http://www.w3.org/2000/svg" xmlns:xlink="http://www.w3.org/1999/xlink" xmlns:sketch="http://www.bohemiancoding.com/sketch/ns">
    <!-- Generator: Sketch 3.3.3 (12081) - http://www.bohemiancoding.com/sketch -->
    <title>sign-out</title>
    <desc>Created with Sketch.</desc>
    <defs></defs>
    <g id="Icons" stroke="none" stroke-width="1" fill="none" fill-rule="evenodd" sketch:type="MSPage">
        <g id="sign-out" sketch:type="MSArtboardGroup" fill="#000000">
            <path d="M13.1633987,1.3465 C13.555836,1.3465 13.9029109,1.49630133 14.2025136,1.79695893 C14.5031712,2.09761654 14.6529725,2.44469145 14.6529725,2.83712875 L14.6529725,13.1628713 C14.6529725,13.5563635 14.5031712,13.9023835 14.2025136,14.2030411 C13.9029109,14.5036987 13.555836,14.6535 13.1633987,14.6535 L2.83660128,14.6535 C2.44416398,14.6535 2.09708907,14.5036987 1.7974864,14.2030411 C1.4968288,13.9023835 1.34702747,13.5563635 1.34702747,13.1628713 L1.34702747,10.2174817 L2.83660128,10.2174817 L2.83660128,13.1628713 L13.1633987,13.1628713 L13.1633987,2.83712875 L2.83660128,2.83712875 L2.83660128,5.78251831 L1.34702747,5.78251831 L1.34702747,2.83712875 C1.34702747,2.44469145 1.4968288,2.09761654 1.7974864,1.79695893 C2.09708907,1.49630133 2.44416398,1.3465 2.83660128,1.3465 L13.1633987,1.3465 L13.1633987,1.3465 Z M6.57952469,10.6674132 L8.48474445,8.72738041 L1.34702747,8.72738041 L1.34702747,7.27156465 L8.51955744,7.27156465 L6.57952469,5.33153191 L7.61863957,4.29241704 L11.32675,7.99947253 L7.61863957,11.707583 L6.57952469,10.6674132 L6.57952469,10.6674132 Z" id="Imported-Layers" sketch:type="MSShapeGroup"></path>
        </g>
    </g>
</svg>