<?xml version="1.0" encoding="UTF-8" standalone="no"?>
<svg width="13px" height="13px" viewBox="0 0 13 13" version="1.1" xmlns="http://www.w3.org/2000/svg" xmlns:xlink="http://www.w3.org/1999/xlink" xmlns:sketch="http://www.bohemiancoding.com/sketch/ns">
    <!-- Generator: Sketch 3.3.2 (12043) - http://www.bohemiancoding.com/sketch -->
    <title>theme-sun-white</title>
    <desc>Created with Sketch.</desc>
    <defs></defs>
    <g id="Icons" stroke="none" stroke-width="1" fill="none" fill-rule="evenodd" sketch:type="MSPage">
        <g id="theme-sun-white" sketch:type="MSArtboardGroup" fill="#FFFFFF">
            <path d="M0,5.733 L2.278,5.733 L2.278,6.417 L0,6.417 L0,5.733 Z M2.431,1.746 L3.721,2.999 L3.266,3.455 L1.975,2.164 L2.431,1.746 L2.431,1.746 Z M1.975,9.72 L3.266,8.429 L3.683,8.884 L2.431,10.175 L1.975,9.72 L1.975,9.72 Z M8.126,8.125 C7.569,8.681 6.885,8.961 6.075,8.961 C5.265,8.961 4.582,8.681 4.025,8.125 C3.468,7.569 3.19,6.886 3.19,6.075 C3.19,5.264 3.468,4.581 4.025,4.025 C4.582,3.468 5.265,3.189 6.075,3.189 C6.885,3.189 7.569,3.468 8.126,4.025 C8.682,4.581 8.961,5.264 8.961,6.075 C8.961,6.886 8.682,7.569 8.126,8.125 L8.126,8.125 Z M5.734,0 L6.417,0 L6.417,2.127 L5.734,2.127 L5.734,0 Z M5.734,9.872 L6.417,9.872 L6.417,12.15 L5.734,12.15 L5.734,9.872 Z M8.696,3.037 L9.949,1.746 L10.404,2.202 L9.113,3.455 L8.696,3.037 L8.696,3.037 Z M9.113,8.429 L10.404,9.72 L9.949,10.175 L8.696,8.884 L9.113,8.429 L9.113,8.429 Z M10.024,5.733 L12.15,5.733 L12.15,6.417 L10.024,6.417 L10.024,5.733 Z" id="Imported-Layers" sketch:type="MSShapeGroup"></path>
        </g>
    </g>
</svg>