<?xml version="1.0" encoding="UTF-8" standalone="no"?>
<svg width="7px" height="8px" viewBox="0 0 7 8" version="1.1" xmlns="http://www.w3.org/2000/svg" xmlns:xlink="http://www.w3.org/1999/xlink" xmlns:sketch="http://www.bohemiancoding.com/sketch/ns">
    <!-- Generator: Sketch 3.3.2 (12043) - http://www.bohemiancoding.com/sketch -->
    <title>theme-moon-green</title>
    <desc>Created with Sketch.</desc>
    <defs></defs>
    <g id="Icons" stroke="none" stroke-width="1" fill="none" fill-rule="evenodd" sketch:type="MSPage">
        <g id="theme-moon-green" sketch:type="MSArtboardGroup" fill="#52996B">
            <path d="M6.225,5.555 C6.458,5.555 6.682,5.523 6.895,5.459 C6.746,5.694 6.618,5.885 6.512,6.034 C5.788,6.906 4.852,7.342 3.703,7.342 C2.681,7.342 1.808,6.987 1.085,6.273 C0.361,5.559 0,4.693 0,3.672 C0,2.841 0.239,2.102 0.718,1.453 C1.197,0.803 1.819,0.363 2.586,0.128 C2.756,0.085 2.989,0.043 3.288,0 C3.117,0.255 3,0.447 2.937,0.575 C2.702,1.043 2.586,1.543 2.586,2.075 C2.586,3.033 2.926,3.852 3.607,4.534 C4.288,5.215 5.108,5.555 6.065,5.555 L6.225,5.555" id="Imported-Layers" sketch:type="MSShapeGroup"></path>
        </g>
    </g>
</svg>