<svg xmlns="http://www.w3.org/2000/svg" width="512" height="512" viewBox="0 0 569.857 569.857"><g fill="#006DF0"><path d="M406.933 364.322c-3.883 0-7.45.975-10.328 2.63-1.29-8.76-8.424-15.483-17.012-15.483-4.732 0-9.027 2.046-12.154 5.354-2.897-5.775-8.616-9.715-15.196-9.715-3.768 0-7.266 1.3-10.115 3.5v-23.993c0-10.117-7.728-18.332-17.224-18.332-9.506 0-17.232 8.215-17.232 18.332v81.615l-16.418-18.322c-3.098-3.47-6.905-5.373-10.73-5.373l-1.577.115c-4.008.555-7.498 3.27-9.593 7.45-4.035 8.097-2.543 20.3 3.434 27.76l28.65 35.85c2.688 3.345 5.012 6.33 6.254 7.993 0 0 10.9 14.678 19.2 16.19 8.302 1.51 6.8 23.407 6.8 23.407h83.826s-3.195-10.164 2.256-19.162c2.582-4.227 4.352-21.898 4.352-21.898v-79.58c.018-10.117-7.71-18.34-17.195-18.34z"/><path d="M414.132 0H155.706c-21.238 0-38.422 17.212-38.422 38.432v492.975c0 21.24 17.184 38.45 38.422 38.45h258.426c21.23 0 38.44-17.21 38.44-38.45V38.432c0-21.23-17.21-38.432-38.44-38.432zM284.284 546.383c-13.378 0-24.203-10.816-24.203-24.184 0-13.36 10.826-24.185 24.204-24.185 13.33 0 24.184 10.824 24.184 24.184.008 13.366-10.854 24.183-24.184 24.183zm152.82-86.953c-2.087 20.924-5.327 26.21-6.39 27.95-1.875 3.108-.746 7.595-.727 7.642l4.877 18.084-18.637.305h-99.193l1.053-15.327c.2-3.28.01-7.344-.42-9.975-10.31-4.436-19.117-15.156-22.79-20.1-.677-.908-1.767-2.324-3.03-3.92h-112.12c-5.843 0-10.576-4.734-10.576-10.576V73.995c0-5.843 4.734-10.576 10.577-10.576h210.375c5.842 0 10.596 4.723 10.596 10.575V342.93c.898.947 1.883 1.81 2.668 2.87.744-.048 1.5-.067 2.256-.067 17.395 0 31.557 14.668 31.557 32.693l-.077 81.004z"/><path d="M299.42 315.82c.42.115.833.172 1.243.172 2.113 0 4.045-1.404 4.61-3.537.038-.135 3.663-12.967 19.487-13.598 15.76-.71 20.254 10.652 20.426 11.102.928 2.476 3.69 3.747 6.148 2.82 2.486-.93 3.74-3.673 2.822-6.15-.277-.745-6.77-18.15-29.777-17.335-18.208.746-26.49 13.846-28.325 20.674-.7 2.542.823 5.173 3.366 5.85z"/></g></svg>