<svg xmlns="http://www.w3.org/2000/svg" width="512" height="512" viewBox="0 0 569.867 569.867"><g fill="#006DF0"><path d="M414.147 0H155.71c-21.238 0-38.422 17.212-38.422 38.44v492.977c0 21.238 17.184 38.45 38.422 38.45h258.427c21.23 0 38.44-17.212 38.44-38.45V38.432C452.58 17.202 435.368 0 414.148 0zm-129.86 546.382c-13.377 0-24.2-10.815-24.2-24.184 0-13.358 10.823-24.184 24.2-24.184 13.33 0 24.185 10.825 24.185 24.184.01 13.368-10.854 24.184-24.184 24.184zm160.584-52.422c-1.892 7.23-6.854 13.302-13.606 16.706l-52.04 26.46c-3.527 1.854-7.668 2.888-11.78 2.888-9.79 0-18.637-5.585-23.647-14.937-2.046-3.863-5.996-9.065-13.492-12.365-25.13-11.063-42.83-29.03-55.443-43.45-1.358-1.55-2.945-3.28-4.695-5.155h-90.433c-5.842 0-10.576-4.733-10.576-10.576V73.996c0-5.843 4.734-10.567 10.576-10.567H390.11c5.842 0 10.584 4.724 10.584 10.567v292.517l25.608 28.267c6.704 7.41 11.37 19.525 11.37 29.47v38.26c0 2.362 1.626 7.66 2.945 9.61 5.918 8.75 5.584 16.705 4.254 21.84z"/><path d="M425.125 465.99v-38.26c0-6.378-3.366-15.09-7.66-19.842l-30.6-33.766c-1.51-1.683-3.223-3.155-5.097-4.36-3.528-2.267-7.23-2.448-8.28-2.448l-2.544.354c-.526.183-.985.383-1.396.612l-10.9-43.185c-1.693-6.722-7.718-12.01-13.694-12.01-6.034 0-11.504 5.66-12.202 12.612l-10.3 103.62c-.19 2.142-1.013 5.976-4.092 7.448-2.237 1.1-5.326.526-8.386-1.434l-30.543-19.708c-5.756-3.682-14.562-2.658-19.268 2.075-2.42 2.42-3.758 5.623-3.73 9.056.04 3.442 1.464 6.655 3.98 9.037 11.818 11.303 21.18 20.808 27.032 27.482 11.638 13.3 27.884 29.835 50.413 39.76 11.274 4.954 17.3 12.91 20.368 18.725 2.468 4.6 6.56 7.372 10.997 7.372 1.816 0 3.614-.45 5.288-1.33l52.077-26.48c3.09-1.558 5.346-4.283 6.178-7.486.832-3.223.2-6.59-2.237-10.203-2.917-4.3-5.403-12.39-5.403-17.64z"/><path d="M319.03 322.476c.42.115.83.173 1.242.173 2.113 0 4.045-1.407 4.608-3.54.04-.133 3.663-12.956 19.49-13.598 15.768-.525 20.252 10.663 20.424 11.103.928 2.477 3.7 3.758 6.15 2.82 2.484-.927 3.737-3.672 2.82-6.148-.278-.745-6.81-18.178-29.778-17.337-18.207.746-26.488 13.847-28.324 20.675-.698 2.552.823 5.172 3.367 5.85zM258.21 410.374c12.91-8.778 22.846-1.635 23.22-1.367 2.083 1.616 5.086 1.253 6.702-.86 1.616-2.095 1.233-5.097-.86-6.703-.622-.497-15.635-11.762-34.435 1.022-15.08 10.252-15.185 25.752-13.13 32.522.623 2.056 2.516 3.366 4.563 3.366.45 0 .918-.067 1.358-.2 2.524-.737 3.958-3.396 3.242-5.92-.155-.516-3.578-13.072 9.34-21.86z"/></g></svg>