<?xml version="1.0" encoding="iso-8859-1"?>
<!-- Generator: Adobe Illustrator 16.0.0, SVG Export Plug-In . SVG Version: 6.00 Build 0)  -->
<!DOCTYPE svg PUBLIC "-//W3C//DTD SVG 1.1//EN" "http://www.w3.org/Graphics/SVG/1.1/DTD/svg11.dtd">
<svg version="1.1" id="Capa_1" xmlns="http://www.w3.org/2000/svg" xmlns:xlink="http://www.w3.org/1999/xlink" x="0px" y="0px"
	 width="569.857px" height="569.857px" viewBox="0 0 569.857 569.857" style="enable-background:new 0 0 569.857 569.857;"
	 xml:space="preserve">
<g>
	<path d="M406.933,364.322c-3.883,0-7.449,0.975-10.328,2.629c-1.291-8.76-8.424-15.482-17.012-15.482
		c-4.732,0-9.027,2.047-12.154,5.355c-2.896-5.775-8.615-9.715-15.195-9.715c-3.768,0-7.266,1.301-10.115,3.5v-23.992
		c0-10.117-7.727-18.332-17.223-18.332c-9.506,0-17.232,8.215-17.232,18.332v81.615l-16.418-18.322
		c-3.098-3.471-6.905-5.373-10.729-5.373l-1.578,0.115c-4.007,0.555-7.497,3.27-9.592,7.449c-4.035,8.098-2.543,20.301,3.434,27.76
		l28.649,35.85c2.688,3.346,5.012,6.33,6.254,7.994c0,0,10.9,14.678,19.201,16.189c8.301,1.51,6.799,23.408,6.799,23.408h83.826
		c0,0-3.195-10.164,2.256-19.162c2.582-4.227,4.352-21.898,4.352-21.898v-79.58C424.146,372.545,416.419,364.322,406.933,364.322z"
		/>
	<path d="M414.132,0H155.706c-21.238,0-38.422,17.212-38.422,38.432v492.975c0,21.24,17.184,38.451,38.422,38.451h258.426
		c21.23,0,38.441-17.211,38.441-38.451V38.432C452.573,17.203,435.362,0,414.132,0z M284.284,546.383
		c-13.378,0-24.203-10.816-24.203-24.184c0-13.359,10.825-24.184,24.203-24.184c13.331,0,24.184,10.824,24.184,24.184
		C308.476,535.566,297.614,546.383,284.284,546.383z M437.103,459.43c-2.086,20.924-5.326,26.211-6.389,27.951
		c-1.875,3.107-0.746,7.594-0.727,7.641l4.877,18.084l-18.637,0.305h-99.193l1.053-15.328c0.201-3.279,0.01-7.344-0.42-9.975
		c-10.309-4.436-19.117-15.156-22.789-20.1c-0.678-0.908-1.768-2.324-3.031-3.92h-112.12c-5.843,0-10.576-4.734-10.576-10.576
		V73.995c0-5.843,4.733-10.576,10.576-10.576h210.375c5.842,0,10.596,4.724,10.596,10.576V342.93
		c0.898,0.947,1.883,1.809,2.668,2.869c0.744-0.047,1.5-0.066,2.256-0.066c17.395,0,31.557,14.668,31.557,32.693L437.103,459.43z"/>
	<path d="M299.421,315.82c0.42,0.115,0.832,0.172,1.242,0.172c2.113,0,4.045-1.404,4.609-3.537
		c0.039-0.135,3.664-12.967,19.488-13.598c15.76-0.709,20.254,10.652,20.426,11.102c0.928,2.477,3.691,3.748,6.148,2.82
		c2.486-0.928,3.74-3.672,2.822-6.148c-0.277-0.746-6.771-18.15-29.777-17.336c-18.207,0.746-26.488,13.846-28.324,20.674
		C295.356,312.512,296.878,315.143,299.421,315.82z"/>
</g>
<g>
</g>
<g>
</g>
<g>
</g>
<g>
</g>
<g>
</g>
<g>
</g>
<g>
</g>
<g>
</g>
<g>
</g>
<g>
</g>
<g>
</g>
<g>
</g>
<g>
</g>
<g>
</g>
<g>
</g>
</svg>
