<?xml version="1.0" standalone="no"?>
<!DOCTYPE svg PUBLIC "-//W3C//DTD SVG 1.1//EN" "http://www.w3.org/Graphics/SVG/1.1/DTD/svg11.dtd" >
<svg xmlns="http://www.w3.org/2000/svg">
<metadata>
This is a custom SVG webfont generated by Font Squirrel.
Copyright   : Copyright c Andrew Paglinawan 2008 All rights reserved
Designer    : Andrew Paglinawan
Foundry     : Andrew Paglinawan
</metadata>
<defs>
<font id="webfontWxD3UQtx" horiz-adv-x="430" >
<font-face units-per-em="1000" ascent="800" descent="-200" />
<missing-glyph horiz-adv-x="300" />
<glyph unicode=" "  horiz-adv-x="300" />
<glyph unicode="&#x09;" horiz-adv-x="300" />
<glyph unicode="&#xa0;" horiz-adv-x="300" />
<glyph unicode="!" horiz-adv-x="252" d="M93 13v24q0 12 13 12q12 0 12 -12v-24q0 -5 -3.5 -9t-8.5 -4q-13 0 -13 13zM93 167v51q0 12 13 12q12 0 12 -12v-51q0 -13 -12 -13q-13 0 -13 13zM93 268v51q0 13 13 13q12 0 12 -13v-51q0 -12 -12 -12q-13 0 -13 12zM93 370v50q0 13 13 13q12 0 12 -13v-50 q0 -13 -12 -13q-13 0 -13 13zM93 471v51q0 12 13 12q12 0 12 -12v-51q0 -13 -12 -13q-13 0 -13 13zM93 572v51q0 12 13 12q12 0 12 -12v-51q0 -5 -3.5 -9t-8.5 -4q-13 0 -13 13zM93 673v14q0 13 13 13q5 0 8.5 -4t3.5 -9v-14q0 -12 -12 -12q-13 0 -13 12z" />
<glyph unicode="&#x22;" horiz-adv-x="410" d="M68 634v6v3v1q0 45 38 55h3q6 0 6 -6q3 -5 -5 -9q-17 -5 -24 -21q2 1 6 1q11 0 18.5 -7t7.5 -17t-8 -18t-18 -8q-18 0 -23 18q-1 0 -1 2zM142 634v2v4v4q0 45 38 55h3q6 0 6 -6q3 -5 -5 -9q-17 -5 -24 -21q2 1 6 1q11 0 18.5 -7t7.5 -17t-8 -18t-18 -8q-18 0 -23 18 q-1 0 -1 2z" />
<glyph unicode="#" horiz-adv-x="700" d="M45 211q0 13 13 13h26q13 0 13 -13t-13 -13h-26q-13 0 -13 13zM76 465q0 13 13 13h26q13 0 13 -13q0 -14 -13 -14h-26q-13 0 -13 14zM123 211q0 13 13 13h35l10 52q1 5 5.5 8t9.5 2t8 -5.5t2 -9.5l-9 -50q5 -5 5 -10q0 -13 -13 -13h-53q-13 0 -13 13zM135 17l9 51 q2 13 15 11t11 -15l-9 -52q-2 -11 -13 -11h-2q-13 3 -11 16zM153 120l9 52q4 13 16 11t10 -15l-9 -52q-2 -11 -13 -11h-2q-13 2 -11 15zM154 465q0 13 13 13h49l1 5q2 13 15 11q13 -3 11 -16l-9 -51q-2 -11 -13 -11h-2q-13 2 -11 15l3 20h-44q-13 0 -13 14zM190 328l9 51 q2 13 15 11t11 -15l-9 -52q-2 -11 -13 -11h-3q-13 4 -10 16zM226 535l9 52q4 13 16 10q5 -1 8 -5.5t2 -9.5l-9 -52q-2 -11 -13 -11q-1 0 -1 0.5t-1 0.5q-13 2 -11 15zM228 211q0 13 14 13h52q13 0 13 -13t-13 -13h-52q-14 0 -14 13zM245 639l9 51q2 13 15 11t11 -15l-10 -52 q-2 -11 -12 -11h-3q-13 4 -10 16zM259 465q0 13 13 13h53q13 0 13 -13q0 -14 -13 -14h-53q-13 0 -13 14zM319 17l9 51q2 13 15 11t11 -15l-9 -52q-2 -11 -13 -11h-2q-13 4 -11 16zM334 211q0 13 13 13h9l9 52q1 5 5.5 8t9.5 2q13 -2 11 -15l-8 -47h16q14 0 14 -13t-14 -13 h-52q-13 0 -13 13zM337 120l9 52q4 13 16 11q5 -1 8 -5.5t2 -9.5l-9 -52q-2 -11 -13 -11h-2q-13 2 -11 15zM364 465q0 13 14 13h22l1 5q4 13 16 11q12 -3 10 -16h3q13 0 13 -13q0 -14 -13 -14h-8l-4 -24q-2 -11 -13 -11h-2q-13 2 -11 15l3 20h-17q-14 0 -14 14zM374 328 l9 51q2 13 15 11t11 -15l-9 -52q-2 -11 -13 -11h-2q-13 3 -11 16zM410 535l10 52q1 5 5.5 8t9.5 2q13 -2 11 -15l-10 -52q-2 -11 -13 -11q0 1 -2 1q-13 2 -11 15zM429 639l9 51q2 13 15 11t11 -15l-9 -52q-2 -11 -13 -11h-3q-13 4 -10 16zM439 211q0 13 13 13h53 q13 0 13 -13t-13 -13h-53q-13 0 -13 13zM470 465q0 13 13 13h52q14 0 14 -13q0 -14 -14 -14h-52q-13 0 -13 14z" />
<glyph unicode="$" horiz-adv-x="632" d="M66 127q10 12 25 2q22 -20 52 -36q14 -7 7 -22q-5 -10 -15 -10q-5 0 -9 3q-38 24 -56 39q-12 9 -4 24zM82 485q-2 17 13 20q6 2 12 -2t8 -10q5 -24 29 -49q13 -10 1 -22q-5 -5 -13 -5q-6 0 -11 4q-29 29 -39 64zM86 560q15 37 41 61q4 5 11.5 5t11.5 -5q10 -13 0 -24 q-22 -21 -32 -48q-3 -11 -15 -11q-5 0 -6 1q-7 1 -10 7.5t-1 13.5zM173 405q9 15 22 7q48 -18 60 -21q17 -6 12 -20q-3 -12 -16 -12h-4q-35 9 -65 23q-14 6 -9 23zM177 640q-6 14 8 21q40 16 68 21q16 5 20 -14q2 -14 -13 -18q-33 -6 -60 -18q-4 -2 -7 -2q-10 0 -16 10z M178 56q7 15 23 11q21 -10 61 -19q15 -2 13 -19q-4 -13 -16 -13h-3q-37 8 -68 19q-15 6 -10 21zM289 -6q0 7 5 12.5t12 5.5q16 0 16 -18v-66q0 -16 -16 -16q-7 0 -12 5t-5 11v66zM289 60v68q0 16 17 16q16 0 16 -16v-68q0 -16 -16 -16q-17 0 -17 16zM289 194v66q0 16 17 16 q16 0 16 -16v-66q0 -16 -16 -16q-17 0 -17 16zM289 326v67q0 16 17 16q16 0 16 -16v-18q32 -6 63 -14q15 -3 11 -22q-3 -11 -16 -11h-4q-9 3 -54 13v-15q0 -17 -16 -17q-7 0 -12 5t-5 12zM289 460v66q0 6 5 11t12 5q16 0 16 -16v-66q0 -18 -16 -18q-17 0 -17 18zM289 591v67 q0 7 5 12t12 5q4 14 17 12q30 -1 69 -13q15 -10 10 -22q-3 -11 -15 -11q-3 0 -6 1q-34 10 -59 12v-63q0 -16 -16 -16q-7 0 -12 5t-5 11zM289 724v67q0 7 5 12t12 5q16 0 16 -17v-67q0 -16 -16 -16q-17 0 -17 16zM308 27q0 16 15 18q35 2 63 10q14 3 20 -12q1 -7 -2.5 -12.5 t-8.5 -7.5q-35 -10 -70 -11h-1q-14 0 -16 15zM428 328q5 14 22 8q33 -16 58 -39q12 -12 1 -24q-4 -5 -12 -5q-7 0 -11 4q-20 19 -51 34q-16 7 -7 22zM433 639q3 6 9.5 7.5t12.5 -1.5q24 -12 58 -36q13 -8 5 -22q-6 -8 -15 -8q-3 0 -8 3q-9 7 -28 18.5l-27 16.5q-14 7 -7 22z M436 56q-7 14 7 23q32 20 47 37q11 14 23 2q12 -10 1 -23q-24 -29 -55 -46q-6 -2 -8 -2q-9 0 -15 9zM517 168q3 10 3 27q0 15 -3 29q-6 15 12 22q5 2 11.5 -1.5t7.5 -9.5q6 -20 6 -40q0 -22 -5 -36q-3 -12 -15 -12q-3 0 -4 1q-18 4 -13 20z" />
<glyph unicode="&#x26;" horiz-adv-x="696" d="M49 224q0 18 1 27q4 14 14 11q12 -2 12 -13q-2 -8 -2 -25q0 -15 2 -24q2 -11 -12 -14h-1q-10 0 -13 12q-1 9 -1 26zM63 146q-2 4 0.5 9t7.5 7q4 2 9 0t7 -7q6 -19 22 -42q6 -11 -3 -18q-4 -2 -8 -2q-5 0 -10 5q-17 26 -25 48zM63 303q8 24 24 48q9 11 18 4q10 -8 4 -18 q-16 -25 -22 -43q-3 -7 -13 -7h-3q-5 1 -7.5 6t-0.5 10zM106 539q0 6 1 10q0 5 4.5 9t8.5 3q13 0 13 -13q-2 -4 -2 -9t5 -38q6 -11 -8 -15h-3q-10 0 -13 9q-6 28 -6 44zM119 592.5q-2 4.5 1 9.5q9 26 29 46q9 10 18 1q8 -8 1 -17q-15 -16 -25 -40q-4 -7 -12 -7q-3 0 -5 1 q-5 2 -7 6.5zM121 374q-8 10 2 18q17 15 36 26q-11 10 -23 27q-8 9 3 18q10 7 18 -3q16 -21 33 -33q4 -2 4.5 -7.5t-2.5 -9.5q-2 -5 -9 -5q-2 -4 -5 -4q-10 -6 -39 -28q-1 -4 -8 -4q-6 0 -10 5zM123 76q2 4 7.5 4t9.5 -4q16 -13 40 -27q9 -5 5 -17q-5 -7 -12 -7q-4 0 -6 2 q-30 18 -43 31q-13 8 -1 18zM187 664q-6 11 5 18q28 13 52 17q14 2 14 -10q3 -13 -10 -16q-23 -2 -43 -14h-1q-2 -1 -5 -1q-6 0 -12 6zM208 23q4 12 16 9q24 -7 47 -7q13 0 13 -12q-4 -13 -13 -13h-1q-25 0 -54 8q-12 2 -8 15zM249 185q0 14 2 22q2 12 15 10q4 0 7.5 -4.5 t2.5 -9.5q-1 -6 -1 -18q0 -15 1 -20l1 -6q5 -11 -7 -17h-4q-11 0 -13 9l-1 5q-1 4 -2 12t-1 17zM276 241q-10 8 0 18q16 20 46 31q12 6 16 -6q6 -12 -6 -16q-23 -10 -37 -26q-4 -5 -10 -5q-5 0 -9 4zM285 687q2 14 14 10q20 -2 52 -19q4 -1 5 -6.5t-1 -9.5q-4 -6 -11 -6 q-5 0 -6 1q-25 12 -44 16q-11 3 -9 14zM308 15q-3 13 10 15q27 7 44 17q12 3 18 -6q5 -12 -6 -17q-24 -12 -51 -18q0 -1 -3 -1q-8 0 -12 10zM362 290q-2 12 12 14q20 4 50 4h2q12 0 12 -13q0 -12 -12 -12h-2q-28 0 -47 -4h-2q-11 0 -13 11zM374 628q-9 9 1 17q9 8 18 -1 q18 -24 28 -48q4 -11 -8 -15q-1 -1 -5 -1q-8 0 -12 7q-6 18 -22 41zM400 55q-7 11 3 17q29 32 32 36q2 4 7.5 4.5t9.5 -2.5q13 -5 3 -17q-14 -20 -36 -40q-4 -2 -9 -2q-6 0 -10 4zM405 539v4q0 12 13 12t13 -12v-4q0 -13 -13 -13t-13 13zM457 150q7 15 13 45q1 5 5.5 8 t9.5 2q13 -2 10 -14q-3 -25 -14 -52q-3 -7 -11 -7q-4 0 -5 1q-11 6 -8 17zM462 289q-4 11 8 17h2q1 1 3 1q24 2 39 15q12 7 18 -2q8 -9 -1 -18q-19 -16 -41 -19q1 -5 7 -38q2 -12 -12 -14h-1q-9 0 -13 11q-1 24 -9 47zM531 397q-5 13 9 15q13 2 15 -9q4 -16 4 -34v-15 q-1 -10 -13 -10h-2q-13 0 -11 14v11q0 8 -2 28z" />
<glyph unicode="'" horiz-adv-x="230" d="M68 675q0 11 8 18.5t18 7.5q18 0 23 -18q0 -2 1 -2v-10q0 -45 -38 -55h-3q-6 0 -6 6q-3 5 5 9q18 4 23 20h-5q-11 0 -18.5 7t-7.5 17z" />
<glyph unicode="(" d="M71 281v19q0 27 1 40q0 14 15 14q14 -2 14 -15q-1 -13 -1 -39v-18q0 -15 -14 -15q-15 0 -15 14zM74 222q-2 14 13 16q14 0 16 -14q2 -29 6 -56q2 -14 -13 -16q0 -1 -2 -1q-12 0 -14 13q-5 29 -6 58zM76 398q4 37 7 59q3 14 17 12q14 -3 12 -17q-6 -34 -8 -56 q0 -13 -14 -13h-1q-6 0 -10 5t-3 10zM91 106q-4 13 11 17q13 4 17 -11q9 -34 16 -54q5 -12 -8 -18q-2 -1 -5 -1q-10 0 -14 9q-8 21 -17 58zM96 515q8 27 20 56q5 14 19 8q14 -5 8 -19q-8 -19 -19 -53q-2 -11 -14 -11h-2q-1 1 -2 1q-14 4 -10 18zM134 -6q-7 12 5 20 q11 6 20 -6q13 -24 33 -42q11 -11 0 -20q-5 -5 -10 -5q-7 0 -10 4q-21 20 -38 49zM146 624q21 28 44 45q10 9 20 -3q7 -13 -3 -21q-19 -12 -37 -37q-4 -6 -12 -6q-6 0 -9 2q-12 10 -3 20zM216 -70q6 14 19 8q24 -9 51 -9q6 0 10.5 -4.5t4.5 -10.5q0 -14 -15 -14 q-36 0 -61 11q-14 5 -9 19zM236 678q-3 13 11 17q20 5 39 5q6 0 10.5 -4.5t4.5 -10.5q0 -14 -15 -14q-12 0 -32 -4h-4q-11 0 -14 11z" />
<glyph unicode=")" d="M60 -86q0 6 4.5 10.5t10.5 4.5q27 0 51 9q13 6 19 -8q5 -14 -9 -19q-25 -11 -61 -11q-15 0 -15 14zM60 685q0 6 4.5 10.5t10.5 4.5q19 0 39 -5q14 -4 11 -17q-3 -11 -14 -11h-4q-20 4 -32 4q-15 0 -15 14zM151 666q10 12 20 3q23 -17 44 -45q9 -10 -3 -20q-3 -2 -9 -2 q-7 0 -12 6q-18 25 -37 37q-10 8 -3 21zM169 -34q19 18 33 42q9 12 20 6q12 -8 5 -20q-17 -29 -38 -49q-3 -4 -10 -4q-5 0 -10 5q-11 9 0 20zM218 560q-6 14 8 19q14 6 19 -8q12 -29 20 -56q4 -14 -10 -18q-1 0 -3 -1h-1q-12 0 -14 11q-11 34 -19 53zM226 58q7 20 16 54 q4 15 17 11q15 -4 11 -17q-9 -37 -17 -58q-4 -9 -14 -9q-3 0 -5 1q-13 6 -8 18zM249 452q-2 14 12 17q14 2 17 -12q3 -22 7 -59q1 -5 -3 -10t-10 -5h-1q-14 0 -14 13q-2 22 -8 56zM252 168q4 27 6 56q2 14 16 14q15 -2 13 -16q-1 -29 -6 -58q-2 -13 -14 -13q-2 0 -2 1 q-15 2 -13 16zM260 339q0 13 14 15q15 0 15 -14q1 -13 1 -40v-19q0 -14 -15 -14q-14 0 -14 15v18q0 26 -1 39z" />
<glyph unicode="*" d="M76 189q0 15 16 15h58q13 0 13 -15q0 -4 -4 -8t-9 -4h-58q-7 0 -11.5 4t-4.5 8zM122 77q-9 14 0 21l41 41q8 8 21 0q9 -12 0 -21l-41 -41q-4 -3 -12 -3q-4 0 -9 3zM122 283q-7 11 0 19q13 13 21 0l41 -38q10 -11 0 -21q-7 -6 -11 -6q-8 0 -10 6zM190 189q0 12 10 14 q-6 10 4 20t18 0q2 12 12 12t13 -10q9 5 21 -2q5 -9 2 -20q10 -2 10 -14q0 -9 -12 -12q9 -7 0 -18q-5 -3 -11 -3t-9 1q-3 -12 -14 -12q-10 0 -12 12q-2 -1 -8 -1q-8 0 -10 3q-14 10 -2 18q-12 3 -12 12zM222 47v58q0 13 12 13q15 0 15 -13v-58q0 -6 -4.5 -11t-10.5 -5 q-12 0 -12 16zM222 278v57q0 15 12 15q6 0 10.5 -5t4.5 -10v-57q0 -14 -15 -14q-12 0 -12 14zM282 253.5q0 6.5 6 10.5l40 38q8 11 19 0q7 -8 0 -19l-38 -40q-6 -6 -11 -6q-6 0 -10 6q-6 4 -6 10.5zM288 118q-14 9 0 21q8 8 21 0l38 -41q9 -7 0 -21l-8 -3q-8 0 -11 3z M309 189q0 15 14 15h57q15 0 15 -15q0 -3 -5 -7.5t-10 -4.5h-57q-5 0 -9.5 4.5t-4.5 7.5z" />
<glyph unicode="+" horiz-adv-x="620" d="M64 351q0 12 13 12h27q12 0 12 -12q0 -14 -12 -14h-27q-13 0 -13 14zM143 351q0 12 13 12h54q13 0 13 -12q0 -14 -13 -14h-54q-13 0 -13 14zM236 178v27q0 5 3.5 9t8.5 4q14 0 14 -13v-27q0 -5 -4 -9t-10 -4q-4 0 -8 4t-4 9zM236 258v53q0 5 3.5 9t8.5 4q14 0 14 -13v-53 q0 -13 -14 -13q-5 0 -8.5 4t-3.5 9zM236 363v53q0 5 3.5 9t8.5 4q14 0 14 -13v-53q0 -12 -14 -12q-4 0 -8 3.5t-4 8.5zM236 468v54q0 5 3.5 9t8.5 4q14 0 14 -13v-54q0 -12 -14 -12q-4 0 -8 4t-4 8zM248 351q0 12 14 12h53q13 0 13 -12q0 -14 -13 -14h-53q-5 0 -9.5 4 t-4.5 10zM354 351q0 12 13 12h54q13 0 13 -12q0 -14 -13 -14h-54q-13 0 -13 14z" />
<glyph unicode="," horiz-adv-x="230" d="M54 28q0 10 8 18t18 8q18 0 23 -18q0 -2 1 -2v-10q0 -45 -38 -55h-3q-6 0 -6 6q-3 5 5 9q18 5 23 20h-5q-11 0 -18.5 7t-7.5 17z" />
<glyph unicode="-" horiz-adv-x="408" d="M66 350q0 11 7 11h29q8 0 8 -11q0 -10 -8 -10h-29q-7 0 -7 10zM124 350q0 11 7 11h29q8 0 8 -11q0 -10 -8 -10h-29q-7 0 -7 10zM182 350q0 11 7 11h29q8 0 8 -11q0 -10 -8 -10h-29q-7 0 -7 10z" />
<glyph unicode="." horiz-adv-x="230" d="M82 28q0 10 7.5 17.5t18.5 7.5q10 0 17 -7.5t7 -17.5t-7 -17.5t-17 -7.5t-18 7.5t-8 17.5z" />
<glyph unicode="/" horiz-adv-x="422" d="M76 18l8 20q5 12 17 7q5 -2 7 -7t0 -9l-8 -21q-5 -8 -13 -8q-3 0 -4 1q-12 6 -7 17zM105 85l19 46q2 5 7 7.5t9 0.5q11 -7 8 -18l-21 -45q-2 -9 -11 -9l-2 1h-3q-11 5 -6 17zM144 178l19 47q4 12 16 6q12 -4 8 -16l-20 -47q-3 -8 -12 -8q-4 0 -5 2q-12 4 -6 16zM183 272 l19 46q6 10 16 7q12 -4 8 -17l-20 -46q-3 -8 -12 -8q-3 0 -5 1q-11 5 -6 17zM222 365l19 46q7 11 18 7q12 -4 6 -16l-20 -47q-2 -8 -12 -8h-5q-9 6 -6 18zM261 457l19 47q8 11 18 6q12 -4 6 -16l-20 -47q-2 -7 -11 -7q-1 0 -2.5 0.5t-2.5 0.5q-11 5 -7 16zM300 551l21 47 q3 10 16 6q11 -6 6 -16l-20 -47q-2 -8 -11 -8q-3 0 -5 1q-11 5 -7 17zM340 644l20 47q4 12 16 6q11 -3 7 -16l-21 -47q-1 -7 -11 -7q-3 0 -5 1q-11 6 -6 16z" />
<glyph unicode="0" horiz-adv-x="710" d="M65 316q0 14 13 14q12 0 12 -11q3 -29 7 -49q2 -12 -10 -16h-3q-10 0 -13 12q-6 46 -6 50zM65 368q0 11 2 29.5t2 22.5q2 14 15 12q12 -4 10 -16q-4 -30 -4 -48q0 -12 -12 -12h-2q-11 0 -11 12zM79 472q8 28 16 50q6 11 17 7q12 -4 6 -16q-11 -36 -14 -47q-3 -10 -12 -10 h-3q-12 3 -10 16zM83 215q-3 11 9 15q5 2 9.5 -1t5.5 -7q8 -26 16 -47q4 -10 -6 -17h-5q-9 0 -12 8q-11 28 -17 49zM115.5 559q-1.5 5 1.5 9q15 29 29 45q6 9 18 2q10 -8 1 -18q-9 -12 -27 -40v0q-1 -6 -10 -6q-5 0 -6 1q-5 2 -6.5 7zM123 119q-4 12 5 18q12 4 18 -5 q12 -20 28 -40q3 -4 3 -9.5t-4 -7.5q-4 -4 -9 -4q-6 0 -9 5q-12 13 -32 43zM180 634q-8 9 1 18q21 16 46 29q4 3 9 1.5t7 -6.5q5 -10 -6 -18q-16 -7 -39 -25q-4 -4 -8 -4q-6 0 -10 5zM190 57q9 9 18 2q16 -12 41 -24v0q12 -3 7 -16q-2 -8 -11 -8q-4 0 -5 2q-22 8 -47 26 q-9 7 -3 18zM268 684q-4 11 10 13q13 3 25 3q15 0 29 -3q12 -1 10 -15q0 -10 -11 -10h-3q-2 0 -11 1.5t-14 1.5t-12.5 -1.5t-9.5 -1.5v0q-11 0 -13 12zM281 14q0 6 4 9.5t9 1.5h9q5 0 38 5q11 6 15 -8q2 -13 -9 -16q-30 -6 -44 -6h-10q-14 2 -12 14zM366 673q7 12 18 5 q24 -11 43 -30q10 -9 1 -18q-3 -3 -9 -3t-8 2q-10 10 -38 28q-11 3 -7 16zM379 32q-7 10 4 17q20 13 38 31q2 4 7.5 4t9.5 -4q9 -9 0 -18q-17 -19 -41 -34q-3 -1 -7 -1q-8 0 -11 5zM440 603.5q1 5.5 6 7.5q9 7 18 -2q15 -21 28 -44q3 -11 -5 -18q-1 0 -3 -0.5t-4 -0.5 q-8 0 -11 7q-11 20 -26 41q-4 4 -3 9.5zM451 116q12 17 24 43v0q5 11 17 6q10 -5 6 -17q-14 -28 -27 -45q-3 -6 -10 -6q-5 0 -7 2q-10 8 -3 17zM489 508q-4 13 8 16q5 2 10 -0.5t6 -7.5q8 -25 14 -49q2 -6 -1 -10t-8 -5h-1l-1 -1q-11 0 -13 10q-3 11 -14 47zM493 205 q10 30 13 47v0q2 12 15 10q12 -2 10 -15q-3 -14 -14 -51q-2 -9 -11 -9q-1 0 -2 1l-2 1q-11 3 -9 16zM512 413q-2 10 11 14q12 2 14 -12q4 -21 4 -50q0 -6 -1 -8q1 -3 1 -8q0 -34 -3 -50q0 -12 -12 -12h-2q-11 0 -11 14q3 15 3 48q0 2 2 8q-2 2 -2 6q0 16 -4 50z" />
<glyph unicode="1" horiz-adv-x="335" d="M34 599q-6 11 5 18l44 26q12 7 18 -4q7 -10 -5 -18l-44 -26l-6 -2q-9 0 -12 6zM123 652q-6 11 5 18l41 24q5 5 10 5q13 0 13 -13v-52q0 -13 -13 -13t-13 13v29l-25 -15q-4 -2 -6 -2q-7 0 -12 6zM166 13v52q0 5 4 9t9 4q13 0 13 -13v-52q0 -13 -13 -13t-13 13zM166 116v52 q0 13 13 13t13 -13v-52q0 -12 -13 -12t-13 12zM166 220v52q0 5 4 9t9 4q13 0 13 -13v-52q0 -13 -13 -13t-13 13zM166 323v52q0 13 13 13t13 -13v-52q0 -12 -13 -12t-13 12zM166 427v52q0 5 4 9t9 4q13 0 13 -13v-52q0 -13 -13 -13t-13 13zM166 530v52q0 13 13 13t13 -13v-52 q0 -12 -13 -12t-13 12z" />
<glyph unicode="2" horiz-adv-x="590" d="M48 6q-8 10 1 19l38 33q9 9 18 0q4 -4 3 -9.5t-5 -7.5l-36 -35q-5 -3 -9 -3q-7 0 -10 3zM64 591q-10 10 2 18l35 33l1 1q10 10 18 -1q9 -9 0 -18h-1q-1 -1 -2 -1l-35 -32q-6 -4 -9 -4t-9 4zM96 13q0 12 13 12h50q13 0 13 -12q0 -13 -13 -13h-50q-13 0 -13 13zM120 84.5 q0 5.5 4 7.5l38 35q8 7 17 -2q11 -9 -1 -17l-37 -35q-4 -2 -8 -2q-6 0 -9 4q-4 4 -4 9.5zM141 657q-6 13 6 16q27 15 50 19q11 6 15 -8q4 -12 -9 -16q-18 -3 -45 -16q-1 -1 -5 -1q-8 0 -12 6zM197 13q0 12 13 12h50q13 0 13 -12q0 -13 -13 -13h-50q-13 0 -13 13zM198 143 q-8 8 2 18l36 34q10 8 18 -1q9 -9 0 -18l-38 -34q-2 -3 -9 -3q-3 0 -9 4zM238 687q0 13 12 13h2q17 0 51 -6q13 -4 9 -16q-2 -10 -12 -10h-3q-26 7 -45 7h-2q-12 0 -12 12zM273 211q-8 9 1 18l38 33q9 9 18 0q8 -10 -1 -18l-38 -34q-2 -4 -8 -4q-5 0 -10 5zM298 13 q0 12 13 12h51q12 0 12 -12q0 -5 -3.5 -9t-8.5 -4h-51q-13 0 -13 13zM336 670q5 11 17 5q19 -10 44 -29q10 -8 1 -19q-3 -4 -8 -4t-9 2q-17 17 -40 27q-10 7 -5 18zM349 278q-9 11 0 18l36 32l2 2q9 9 18 0q10 -10 -2 -19q0 -1 -2 -1l-34 -32q-5 -3 -9 -3t-9 3zM400 13 q0 12 12 12h51q13 0 13 -12q0 -5 -4 -9t-9 -4h-51q-12 0 -12 13zM414 591q-9 9 2 18q10 8 18 -4q17 -23 25 -47q6 -12 -7 -16h-2l-2 -1q-8 0 -13 8q-5 14 -21 42zM417 367q11 15 22 42q1 5 6 7t9 0q12 -1 8 -15q-8 -25 -23 -48q-4 -6 -11 -6q-1 0 -7 2q-10 7 -4 18zM448 504 q-2 10 11 14q12 2 14 -12l3 -30q0 -4 -1 -11.5t-1 -11.5q-2 -11 -12 -11h-2q-13 2 -11 14q0 3 0.5 10t0.5 10q0 8 -2 28z" />
<glyph unicode="3" horiz-adv-x="610" d="M76 67q-9 9 0 18q10 9 19 0q16 -17 38 -30q11 -7 4 -18q-3 -6 -11 -6q-4 0 -7 2q-18 11 -43 34zM110 686q0 13 13 13h52q13 0 13 -13t-13 -13h-52q-13 0 -13 13zM161 26q4 13 17 9q20 -7 48 -10q12 0 12 -14q-2 -12 -13 -12h-1q-33 3 -54 11q-13 4 -9 16zM214 686 q0 13 13 13h52q13 0 13 -13t-13 -13h-52q-13 0 -13 13zM229 447q-9 9 0 18l36 37q9 11 19 1q10 -9 0 -19l-19 -20q6 0 10 -1q13 -2 11 -14t-13 -12h-2q-9 2 -28 2q-9 0 -12 7q-1 0 -2 1zM264 13q-2 12 10 14q20 4 48 14q12 6 17 -7q3 -12 -7 -17q-25 -10 -53 -15h-2 q-11 0 -13 11zM302 521q-10 9 0 19l36 37q9 9 19 0q9 -9 0 -18l-37 -37q-3 -4 -9 -4q-5 0 -9 3zM311 442q5 12 17 7q28 -11 49 -26q10 -8 3 -18q-4 -6 -11 -6q-3 0 -8 3q-20 14 -43 23q-10 5 -7 17zM318 686q0 13 13 13h52q13 0 13 -13t-13 -13h-52q-13 0 -13 13zM361 47 q-7 11 3 18q12 9 24 21q8 8 12 13q3 4 8.5 4.5t9.5 -3.5q11 -7 2 -18l-7 -7t-7 -8q-12 -12 -26 -23q-3 -2 -8 -2q-7 0 -11 5zM375 596q-9 9 0 18l36 38q9 9 18 0q9 -10 1 -18l-37 -38q-4 -4 -9 -4t-9 4zM398 369q-8 9 1 18q4 4 9.5 3.5t8.5 -4.5q18 -19 32 -46q6 -11 -6 -17 q-4 -2 -6 -2q-7 0 -12 7q-9 20 -27 41zM422 686q0 13 13 13h27q13 0 13 -13q0 -2 -2 -6q0 -2 -3 -4l-4 -5q-4 -4 -9 -4q-6 0 -10 4q0 1 -0.5 1t-0.5 1h-11q-13 0 -13 13zM427 139q12 26 16 46q4 13 16 10q12 -2 10 -15q-6 -25 -19 -52q-3 -7 -12 -7q-4 0 -5 1q-12 5 -6 17z M443 283q-4 13 9 15q12 4 16 -9q7 -31 7 -55q0 -13 -13 -13t-13 13q0 25 -6 49z" />
<glyph unicode="4" horiz-adv-x="664" d="M51 157l34 40q5 11 18 3q8 -10 1 -19l-32 -40q-4 -5 -11 -5q-3 0 -8 3q-9 9 -2 18zM91 149q0 5 4 9t9 4h52q13 0 13 -13t-13 -13h-52q-13 0 -13 13zM117 237l32 42q7 9 19 1q4 -3 4.5 -8.5t-3.5 -9.5l-33 -40q-4 -6 -10 -6q-2 0 -4.5 1.5t-3.5 1.5q-10 9 -1 18z M178.5 309.5q-0.5 5.5 3.5 9.5l32 40q3 4 8.5 4.5t9.5 -3.5q10 -7 2 -18l-33 -40q-3 -4 -9 -4t-9 3q-4 3 -4.5 8.5zM195 149q0 13 13 13h52q13 0 13 -13t-13 -13h-52q-13 0 -13 13zM247 399l32 40q7 12 18 3q10 -10 3 -18l-33 -40q-3 -5 -10 -5q-3 0 -9 2q-10 10 -1 18z M298 149q0 5 4 9t9 4h52q13 0 13 -13t-13 -13h-52q-13 0 -13 13zM311 480l33 41q10 10 18 1q4 -2 5 -8t-2 -10l-33 -40q-2 -5 -10 -5q-6 0 -8 2q-8 8 -3 19zM376 561l33 40q9 11 18 2q10 -6 2 -18l-32 -41q-7 -5 -10 -5q-4 0 -8 4q-11 6 -3 18zM402 149q0 5 4 9t9 4h52 q13 0 13 -13t-13 -13h-52q-13 0 -13 13zM441 642l34 40q2 4 6 4v1q0 5 4 9t9 4q13 0 13 -13v-52q0 -13 -13 -13t-13 13v14l-19 -23q-4 -5 -11 -5q-4 0 -7 3q-11 6 -3 18zM481 13v52q0 5 4.5 9t8.5 4q13 0 13 -13v-52q0 -13 -13 -13t-13 13zM481 117v52q0 4 4 8t9 4 q13 0 13 -12v-15q4 8 12 8h52q13 0 13 -13t-13 -13h-52q-9 0 -12 7v-26q0 -13 -13 -13t-13 13zM481 220v52q0 5 4 9t9 4q13 0 13 -13v-52q0 -13 -13 -13q-5 0 -9 4t-4 9zM481 324v52q0 4 4.5 8.5t8.5 4.5q13 0 13 -13v-52q0 -13 -13 -13t-13 13zM481 428v52q0 4 4.5 8.5 t8.5 4.5q13 0 13 -13v-52q0 -13 -13 -13t-13 13zM481 531v52q0 5 4 9t9 4q13 0 13 -13v-52q0 -12 -13 -12t-13 12z" />
<glyph unicode="5" horiz-adv-x="605" d="M61 391l7 51q2 14 14 12q14 0 12 -15l-7 -52q0 -10 -13 -10h-1q-12 0 -12 14zM65 68q-10 8 0 18q4 4 10 4t8 -4q22 -20 40 -31q4 -2 5 -7.5t-2 -9.5q-4 -7 -10 -7q-5 0 -8 2q-28 20 -43 35zM74 494l7 52q0 12 14 12q12 -2 12 -16l-7 -51q-2 -11 -13 -11h-1q-14 2 -12 14z M86 598l7 51q2 14 14 12q14 -2 12 -14l-7 -53q0 -11 -13 -11h-1q-12 2 -12 15zM99 687q0 13 13 13h52q5 0 9 -4t4 -9q0 -13 -13 -13h-52q-13 0 -13 13zM102 411q-8 11 4 18q19 13 49 25q12 2 17 -9q5 -12 -8 -16q-20 -7 -44 -22q-3 -2 -8 -2q-6 0 -10 6zM150 26q4 11 17 9 q24 -8 48 -9q5 -1 9 -5.5t3 -8.5q0 -12 -13 -12h-1q-30 2 -54 10q-11 4 -9 16zM197 451q0 12 12 14h22q22 0 34 -1q12 -2 10 -16q-2 -10 -13 -10h-1q-11 1 -30 1h-20q-12 -2 -14 12zM203 687q0 5 4 9t9 4h53q5 0 9 -4t4 -9q0 -13 -13 -13h-53q-13 0 -13 13zM253 13 q-2 12 10 14q25 4 49 15q10 3 17 -8q3 -11 -8 -17q-27 -11 -52 -14q-2 -2 -3 -2q-11 0 -13 12zM301 442q5 11 17 8q26 -11 48 -26q9 -9 3 -19q-4 -5 -10 -5t-8 1q-19 16 -43 24q-11 5 -7 17zM308 687q0 13 13 13h52q5 0 9 -4t4 -9q0 -13 -13 -13h-52q-13 0 -13 13zM351 47 q-7 11 2 18q18 14 24 21q7 6 13 13q8 11 18 1q9 -8 1 -18q-4 -5 -13 -14q-14 -14 -27 -24q-6 -2 -8 -2q-7 0 -10 5zM383.5 378.5q0.5 5.5 4.5 8.5q11 9 19 -1q19 -20 31 -46q7 -9 -5 -17q-3 -1 -7 -1q-7 0 -11 6q-10 21 -28 41q-4 4 -3.5 9.5zM412 687q0 13 13 13h26 q13 0 13 -13t-13 -13h-26q-13 0 -13 13zM416 139q11 22 17 47q2 12 15 10q13 -4 11 -16q-8 -30 -20 -52q-3 -7 -11 -7q-4 0 -6 2q-12 4 -6 16zM433 283q-6 12 9 16q12 4 16 -10q6 -36 6 -54q0 -13 -13 -13t-13 13q0 28 -5 48z" />
<glyph unicode="6" horiz-adv-x="642" d="M64 211q0 12 13 14q12 0 12 -12q4 -32 9 -47q5 -11 -7 -15q-1 0 -3 -1l-1 -1q-11 0 -13 9q-9 31 -10 53zM65 332q4 35 7 50q2 13 15 10q12 -2 10 -15q-4 -15 -6 -48q-1 -2 -3 -5q-1 -1 -1 -2q4 3 11 1q12 -4 8 -17q-11 -24 -14 -45q-2 -12 -13 -12l-1 2q-14 2 -11 14 q5 28 15 51l1 2q1 2 2 2q-2 -2 -7 -2h-1q-14 0 -12 14zM83 433q1 5 15 49q5 11 17 8q12 -6 7 -17l-15 -46q-2 -11 -11 -11q-3 0 -4 2q-5 1 -8 6t-1 9zM96 110q-6 12 5 18q12 4 17 -5q11 -20 30 -37q6 -9 0 -19q-6 -2 -11 -2t-8 3q-15 15 -33 42zM110 362q15 22 36 39 q9 8 18 -1q8 -11 -3 -19q-17 -16 -31 -34q-5 -5 -10 -5q-6 0 -8 2q-11 9 -2 18zM120 530q10 22 26 45q7 10 18 3q11 -9 4 -17q-12 -17 -26 -43q-4 -7 -11 -7q-4 0 -6 2q-13 5 -5 17zM167 52q5 10 17 4q22 -13 43 -21q12 -2 8 -15q-1 -9 -12 -9h-3q-30 11 -50 23q-10 8 -3 18 zM180 597q-8 10 0 18q15 16 40 34q11 8 17 -2q7 -11 -2 -18q-14 -9 -37 -32q-3 -3 -9 -3q-5 0 -9 3zM186 413q-8 12 5 17q25 12 50 18q14 2 15 -10q4 -13 -10 -15q-24 -6 -44 -15q-1 -2 -5 -2q-9 0 -11 7zM260 15q0 12 14 12q5 -2 17 -2l30 3q13 2 15 -10q0 -13 -11 -15 q-18 -3 -34 -3q-13 0 -19 1q-5 0 -9 4.5t-3 9.5zM260 659q-6 11 7 17q34 13 49 16q13 4 15 -10q5 -9 -9 -15q-17 -2 -45 -14q-3 -1 -5 -1q-11 0 -12 7zM282 441q0 12 12 12q30 0 54 -7q12 -4 8 -16q-2 -8 -12 -8h-3q-30 6 -47 6q-12 0 -12 13zM356 686q0 12 13 14h4 q13 0 13 -13q0 -5 -4 -8.5t-8 -3.5h-5q-13 0 -13 11zM360 24q-4 12 7 17q25 10 41 22q11 6 18 -2q7 -12 -3 -18q-15 -11 -46 -27h-5q-7 0 -12 8zM380 422q5 11 17 5q30 -17 44 -31q9 -10 1 -18q-5 -5 -10 -5q-3 0 -7 4q-19 15 -39 27q-11 6 -6 18zM444 96q18 21 26 39 q5 11 17 6q11 -7 6 -18q-17 -29 -30 -45q-4 -3 -9 -3q-3 0 -9 2q-9 9 -1 19zM456 342q-7 11 3 17q11 7 18 -3q16 -22 25 -47q6 -11 -6 -17h-5q-10 0 -12 8q-8 21 -23 42zM487 180q5 19 5 47q0 19 -1 27q-3 12 11 14q5 2 9 -1.5t5 -9.5q1 -10 1 -30q0 -32 -6 -54 q-2 -10 -12 -10q-1 0 -1 1l-2 1q-11 2 -9 15z" />
<glyph unicode="7" horiz-adv-x="587" d="M64 686q0 13 13 13h50q5 0 9 -4.5t4 -8.5q0 -5 -4 -9t-9 -4h-50q-13 0 -13 13zM135 18l9 20q4 13 16 7q12 -4 8 -16l-9 -21q-5 -8 -13 -8q-2 0 -4 1q-12 6 -7 17zM164 85l19 46q1 5 6 7.5t10 0.5q11 -6 8 -18l-20 -45q-4 -9 -12 -9q-1 0 -3 1h-2q-11 5 -6 17zM165 686 q0 13 13 13h50q5 0 9 -4t4 -9q0 -13 -13 -13h-50q-13 0 -13 13zM203 178l19 47q4 12 16 6q12 -3 8 -16l-20 -47q-3 -8 -12 -8q-3 0 -5 2q-12 4 -6 16zM242 272l19 46q5 11 17 7q12 -5 7 -17l-20 -46q-1 -8 -11 -8q-4 0 -6 1q-10 5 -6 17zM266 686q0 13 13 13h50q5 0 9 -4 t4 -9q0 -13 -13 -13h-50q-13 0 -13 13zM281 365l19 46q7 11 18 7q12 -4 6 -16l-20 -47q-2 -8 -11 -8h-5q-10 6 -7 18zM320 457l19 47q8 12 18 6q12 -4 6 -16l-20 -47q-2 -7 -11 -7h-2q-2 1 -3 1q-11 5 -7 16zM360 551l20 47q3 10 16 6q11 -5 7 -16l-21 -47q-2 -8 -11 -8 q-2 0 -5 1q-12 6 -6 17zM367 686q0 13 13 13h50q3 0 9 -4v-1l2 -2l1 -2v-2l1 -2q0 -3 -1 -4v-1l-20 -47q-3 -7 -12 -7q-2 0 -5 1q-11 6 -6 16l12 29h-31q-13 0 -13 13z" />
<glyph unicode="8" horiz-adv-x="630" d="M55 222q0 33 6 52q1 5 5.5 7.5t9.5 1.5q11 -2 9 -15q-5 -19 -5 -46q0 -17 1 -26q2 -13 -11 -15h-1q-11 0 -13 11q-1 10 -1 30zM70 141q-5 12 6 17q12 3 16 -8q11 -23 23 -41q6 -10 -3 -17q-6 -3 -7 -3q-7 0 -10 7q-16 21 -25 45zM79 324q13 24 29 43q3 4 8.5 4t9.5 -2 q10 -9 1 -18q-16 -19 -26 -38q-5 -8 -11 -8q-4 0 -5 2q-12 6 -6 17zM128 73q10 9 18 1q24 -18 38 -26q12 -6 5 -17q-3 -6 -11 -6q-4 0 -5 1q-25 14 -44 30q-8 10 -1 17zM138 557q0 12 13 14q12 0 12 -12q1 -24 10 -44q4 -13 -6 -16q-2 -1 -5 -1q-8 0 -11 7q-11 23 -13 52z M144 385q-5 10 3 17q18 14 46 26q10 5 16 -7q4 -13 -6 -16q-27 -13 -41 -23q-6 -2 -8 -2q-5 0 -10 5zM148 611q9 26 29 46q9 9 17 0q4 -3 4.5 -8.5t-3.5 -9.5q-12 -11 -25 -37q-1 -7 -11 -7h-5q-10 3 -6 16zM182 460q-9 9 0 18t17 1q19 -17 37 -24q10 -4 8 -13q9 0 25 2 q4 4 9 4q23 0 44 9q11 4 16 -6q4 -12 -6 -17q-12 -6 -26 -9q-4 -7 -13 -7q-5 2 -16 2l-30 -3h-2q-9 0 -13 11v3q-1 0 -2 1h-2q-25 8 -46 28zM213 22q1 5 5.5 8t9.5 1q21 -6 45 -6q13 0 13 -13q0 -12 -13 -12q-30 0 -52 7q-13 4 -8 15zM215 671q-3 12 6 17q25 11 54 11 q4 1 8 -2.5t4 -8.5q0 -12 -12 -14q-23 0 -44 -9q-1 -1 -5 -1q-7 0 -11 7zM311 15q-4 13 10 15q30 9 43 15q12 6 16 -5q7 -10 -5 -18q-18 -8 -49 -17h-3q-10 0 -12 10zM312 683q4 12 16 7q27 -12 45 -30q8 -8 1 -17q-4 -4 -10 -4t-7 4q-22 19 -39 23q-11 5 -6 17zM332 426 q1 5 5.5 7t9.5 0q28 -10 48 -22q10 -8 4 -18q-5 -5 -11 -5q-4 0 -7 2q-21 13 -42 20q-12 4 -7 16zM358 482q18 18 25 37q2 5 7 7t9 0q5 -2 7 -7t0 -9q-10 -25 -30 -46q-4 -4 -8 -4q-3 0 -9 4q-9 9 -1 18zM381 606q-3 11 7 17q10 5 16 -7q11 -26 12 -53q0 -12 -12 -12t-14 11 q0 27 -9 44zM401 53q-6 10 3 18q20 18 31 33q8 8 17 3q5 -3 6 -8.5t-3 -9.5q-17 -22 -36 -38q-1 0 -3.5 -1.5t-4.5 -1.5q-5 0 -10 5zM417 361q-5 9 0 18q9 9 19 0q12 -13 32 -43q7 -11 -5 -16q-2 -2 -6 -2q-8 0 -11 6q-10 19 -29 37zM458 144q11 24 14 45q2 11 14 11 q13 -2 11 -15q-7 -30 -15 -51q-5 -7 -12 -7q-1 0 -2 1h-2q-12 3 -8 16zM466 282q-5 11 7 15q12 3 16 -8q9 -30 10 -52q0 -12 -12 -12t-12 11q-4 30 -9 46z" />
<glyph unicode="9" horiz-adv-x="642" d="M66 473q0 18 6 54q4 11 16 8q12 -2 10 -15q-7 -26 -7 -47q0 -3 3 -27q0 -12 -12 -14h-1q-12 0 -12 11q-3 15 -3 30zM81 391q-4 12 8 17q12 4 16 -8q13 -27 23 -42q8 -12 -4 -17q-2 -3 -6 -3q-6 0 -11 5q-12 16 -26 48zM90.5 566.5q-1.5 5.5 0.5 9.5q14 27 29 44 q8 11 19 2q8 -6 2 -18q-17 -17 -27 -39q-4 -7 -11 -7q-4 0 -7 1q-4 2 -5.5 7.5zM142 304q-8 8 0 18q3 4 8.5 4.5t9.5 -3.5q20 -18 39 -27q9 -8 5 -18q-6 -6 -11 -6q-4 0 -7 1q-26 16 -44 31zM157 639q-6 11 4 18q24 17 47 25q5 3 9.5 1t6.5 -7q5 -11 -7 -17q-22 -8 -42 -22 q-1 -3 -8 -3q-6 0 -10 5zM198 13q0 12 12 12h4q4 1 8.5 -2.5t4.5 -8.5q2 -12 -12 -14h-5q-10 0 -12 13zM227 270q4 11 16 8q30 -6 47 -6q5 0 9 -4t4 -9q0 -12 -13 -12q-31 0 -53 7q-13 3 -10 16zM248 682q-2 13 10 15q18 3 35 3q4 0 10.5 -0.5t9.5 -0.5q11 0 11 -14 q-2 -12 -14 -12q-6 2 -17 2q-1 0 -31 -3h-1q-10 0 -13 10zM252 18q-2 11 10 14q19 3 46 15q5 3 9.5 1t6.5 -7q5 -12 -6 -17q-40 -14 -51 -16h-2q-12 0 -13 10zM328 262q-2 4 1 9t8 6q14 3 45 15q12 7 17 -5q4 -12 -6 -17q-24 -12 -50 -18h-4q-9 0 -11 10zM346 53q-8 11 4 18 q21 16 36 32q9 9 18 0q8 -10 0 -18q-22 -22 -41 -34q-1 -3 -6 -3q-9 0 -11 5zM348 680q5 11 17 9q36 -16 48 -23q10 -6 4 -18q-3 -6 -10 -6q-5 0 -7 2q-22 13 -43 21q-11 2 -9 15zM417 139l25 42q4 12 16 6q11 -5 7 -17q-15 -27 -28 -45q-2 -5 -10 -5q-5 0 -7 2q-10 8 -3 17 zM420 300q-8 9 2 19q17 13 33 34q6 10 17 3q10 -10 3 -18q-14 -21 -37 -39q-3 -3 -7 -3q-7 0 -11 4zM437 614q-10 10 0 18q9 9 18 0q22 -24 33 -42q5 -11 -4 -18q-3 -1 -7 -1q-6 0 -11 6q-13 21 -29 37zM462 227q9 26 14 46q5 13 17 9q4 -1 7 -5.5t1 -9.5q-12 -38 -16 -49 q-2 -9 -11 -9q-1 0 -2.5 0.5t-2.5 0.5q-11 5 -7 17zM479 394q5 12 14 45q0 6 4.5 9t9.5 1q12 -2 10 -14q-5 -29 -16 -51l-1 -1v-2q4 2 8 1q5 0 8.5 -4t2.5 -10q0 -4 -6 -50q-1 -10 -13 -10h-2q-14 2 -10 14q6 47 6 49q0 4 3 7q-4 -2 -7 -2q-4 0 -5 1q-11 5 -6 17zM485 533 q-2 12 9 16q4 2 9 0t7 -7q7 -27 9 -53q2 -12 -11 -14h-1q-11 0 -13 12q0 21 -9 46z" />
<glyph unicode=":" horiz-adv-x="240" d="M87 26q0 10 7.5 18t18.5 8q10 0 17 -7.5t7 -18.5q0 -10 -7 -17t-17 -7q-11 0 -18.5 7t-7.5 17zM87 392q0 10 7.5 17.5t18.5 7.5q10 0 17 -7.5t7 -17.5t-7 -17.5t-17 -7.5t-18 7.5t-8 17.5z" />
<glyph unicode=";" horiz-adv-x="240" d="M59 26q0 10 7.5 18t18.5 8q18 0 23 -18q0 -2 1 -2v-3v-3v-4q0 -45 -38 -55h-3q-6 0 -6 6q-3 5 5 9q18 5 23 20h-5q-11 0 -18.5 7t-7.5 17zM59 392q0 10 7.5 17.5t18.5 7.5q10 0 17 -7.5t7 -17.5t-7 -17.5t-17 -7.5t-18 7.5t-8 17.5z" />
<glyph unicode="&#x37e;" horiz-adv-x="240" d="M59 26q0 10 7.5 18t18.5 8q18 0 23 -18q0 -2 1 -2v-3v-3v-4q0 -45 -38 -55h-3q-6 0 -6 6q-3 5 5 9q18 5 23 20h-5q-11 0 -18.5 7t-7.5 17zM59 392q0 10 7.5 17.5t18.5 7.5q10 0 17 -7.5t7 -17.5t-7 -17.5t-17 -7.5t-18 7.5t-8 17.5z" />
<glyph unicode="&#x3c;" horiz-adv-x="620" d="M66 301q-10 11 0 21t21 0l42 -42q9 -11 0 -22q-5 -3 -11 -3t-10 3zM66 377q-10 11 0 21l42 43q13 8 21 0q10 -12 0 -22l-42 -42q-5 -5 -11 -5q-5 0 -10 5zM149 216q-7 10 0 21q11 11 23 0l41 -42q11 -11 0 -21q-4 -4 -10 -4t-10 4zM149 462q-7 10 0 21l44 41q3 4 9 4 t11 -4q5 -3 5 -9.5t-5 -11.5l-41 -41q-5 -5 -12 -5q-6 0 -11 5zM230 556q0 6 4 11l42 42q10 11 21 0t0 -21l-42 -41q-5 -5 -10 -5q-6 0 -11 5q-4 3 -4 9zM234 131q-11 11 0 21q10 10 21 0l42 -42q11 -10 0 -21q-4 -4 -11 -4q-6 0 -10 4zM314 57.5q0 6.5 4 11.5q10 9 21 0 l43 -44q8 -11 -2 -21q-1 -4 -10 -4q-7 0 -11 4l-41 44q-4 3 -4 9.5zM318 630q-11 11 0 22l41 42q5 4 11.5 4t9.5 -4q10 -10 2 -21l-43 -43q-4 -4 -11 -4q-6 0 -10 4z" />
<glyph unicode="=" horiz-adv-x="620" d="M79 248q0 13 13 13h26q13 0 13 -13t-13 -13h-26q-4 0 -8.5 4.5t-4.5 8.5zM79 452q0 5 4 9.5t9 4.5h26q13 0 13 -14q0 -12 -13 -12h-26q-13 0 -13 12zM157 248q0 13 13 13h52q13 0 13 -13t-13 -13h-52q-4 0 -8.5 4.5t-4.5 8.5zM157 452q0 5 4 9.5t9 4.5h52q13 0 13 -14 q0 -12 -13 -12h-52q-13 0 -13 12zM262 248q0 13 12 13h52q14 0 14 -13q0 -5 -4 -9t-10 -4h-52q-4 0 -8 4t-4 9zM262 452q0 5 4 9.5t8 4.5h52q6 0 10 -4.5t4 -9.5q0 -12 -14 -12h-52q-12 0 -12 12zM366 248q0 13 13 13h52q13 0 13 -13t-13 -13h-52q-5 0 -9 4t-4 9zM366 452 q0 5 4 9.5t9 4.5h52q13 0 13 -14q0 -12 -13 -12h-52q-13 0 -13 12z" />
<glyph unicode="&#x3e;" horiz-adv-x="620" d="M93 4q-7 10 0 21l44 44q3 4 9.5 4t11.5 -4q10 -13 0 -21l-42 -44q-4 -4 -11 -4q-8 0 -12 4zM93 673q-7 11 0 21q5 4 12 4t11 -4l42 -43q10 -10 0 -21q-4 -4 -11 -4q-6 0 -10 4zM178 89q-10 11 0 21l42 42q10 10 21 0t0 -21l-42 -42q-4 -4 -10 -4q-7 0 -11 4zM178 588 q-10 10 0 21t21 0l42 -42q5 -5 5 -11t-5 -9q-5 -5 -11 -5q-5 0 -10 5zM262 174q-10 10 0 21l41 42q5 5 11.5 5t9.5 -5q10 -10 2 -21l-43 -42q-4 -4 -11 -4q-6 0 -10 4zM262 503q-10 11 0 21t21 0l43 -41q8 -11 -2 -21q-2 -5 -10 -5q-6 0 -11 5zM345 280l43 42q10 10 21 0 t0 -21l-41 -43q-4 -3 -11 -3t-10 3q-10 10 -2 22zM345 419q-9 11 2 22q6 10 21 0l41 -43q11 -10 0 -21q-5 -5 -10 -5q-6 0 -11 5z" />
<glyph unicode="?" horiz-adv-x="534" d="M41 595q9 18 31 41q8 9 17 0q9 -8 0 -17q-10 -10 -28 -36q-2 -6 -10 -6q-4 0 -6 1q-11 7 -4 17zM107 651q-6 9 3 16q21 14 47 22q5 2 9.5 0t5.5 -7q4 -11 -7 -16q-22 -7 -41 -19q-3 -1 -6 -1q-8 0 -11 5zM196 687q0 11 11 13h17q13 0 33 -2q14 -4 11 -15q-2 -10 -12 -10 h-2q-15 3 -30 3h-15q-13 -2 -13 11zM212 12v23q0 12 12 12t12 -12v-23q0 -4 -4 -8t-8 -4q-12 0 -12 12zM212 157v32q0 12 12 12q4 0 8 -3.5t4 -8.5v-32q0 -12 -12 -12t-12 12zM212 237v49q0 12 12 12h2l2 -1q4 4 9 5q29 4 45 9q11 4 15 -7q2 -4 -0.5 -9t-7.5 -7 q-21 -7 -50 -10h-1h-2v-41q0 -12 -12 -12t-12 12zM291 677q6 11 16 6q16 -7 44 -25q8 -8 3 -17q-4 -5 -10 -5t-7 3q-22 15 -40 22q-10 5 -6 16zM319 313q-7 11 4 17q24 16 34 29q9 9 17 0q8 -8 2 -17q-18 -18 -40 -32q-3 -2 -7 -2q-7 0 -10 5zM368 607q-5 9 3 17q9 8 17 -2 q17 -23 27 -44q6 -11 -6 -15q-2 -2 -6 -2q-6 0 -11 8q-10 21 -24 38zM385 394q9 17 18 42q2 11 15 9q13 -5 8 -16q-7 -25 -20 -47q-4 -6 -10 -6q-4 0 -6 2q-10 7 -5 16zM407 525q-2 13 10 15t14 -10q4 -26 4 -41v-9q0 -5 -3.5 -9t-8.5 -4q-13 3 -13 14v8q0 18 -3 36z" />
<glyph unicode="@" horiz-adv-x="980" d="M53 349q0 24 4 47q2 10 14 10q11 0 11 -14q-4 -19 -4 -43q0 -4 1 -6q0 -12 -12 -12q-13 0 -13 11q-1 3 -1 7zM58 289q-2 14 10 17q13 2 15 -11q3 -16 11 -48q2 -5 0 -10t-7 -5q-1 -1 -4 -1q-10 0 -12 8q-8 24 -13 50zM67 446q6 26 19 50q5 10 15 6q12 -5 7 -16 q-10 -24 -16 -47q-3 -8 -13 -8h-4q-11 3 -8 15zM92 191q-5 13 5 17q10 7 17 -5q11 -24 25 -42q8 -10 -2 -18q-1 0 -4 -0.5t-5 -0.5q-6 0 -10 4q-16 23 -26 45zM111 540q16 26 32 43q10 8 18 2q10 -10 0 -19q-2 -3 -12.5 -17t-16.5 -21q-6 -6 -11 -6q-2 0 -3 1q-2 2 -4 2 q-10 6 -3 15zM151 106q-7 7 0 18q11 7 20 -2q11 -12 35 -30q13 -11 2 -18q-3 -6 -9 -6q-5 0 -7 3q-18 12 -41 35zM179 602q-8 8 2 18q28 23 43 30q13 5 17 -5q8 -8 -5 -17q-17 -10 -37 -28q-1 0 -4.5 -2t-5.5 -2q-6 0 -10 6zM231 60q5 8 18 5q22 -15 43 -21q14 -5 6 -15 q0 -11 -10 -11q-2 0 -3 1l-1 1l-49 22q-11 6 -4 18zM231 349q0 19 7 44q0 6 4.5 9.5t10.5 1.5q13 -4 8 -15q0 -4 -2 -18.5t-2 -21.5q0 -4 1 -7q0 -12 -12 -14q-6 0 -10 4t-4 9q-1 2 -1 8zM241 288q0 15 10 16q5 2 9.5 -0.5t4.5 -8.5q10 -28 23 -39q5 -10 -3 -20q-3 -1 -8 -1 q-7 0 -10 4q-13 19 -26 49zM258 445q20 31 34 41q11 11 18 0q10 -10 -2 -18q-20 -22 -29 -36q-4 -6 -11 -6h-7q-7 8 -3 19zM265 656q-6 11 6 17q30 12 51 17q12 0 14 -10q4 -14 -9 -14q-3 -1 -20.5 -6.5t-25.5 -9.5q-2 -1 -6 -1q-10 0 -10 7zM303 218q7 10 18 3 q22 -16 40 -21q5 -1 8 -6.5t1 -9.5q-3 -9 -13 -9h-4q-24 8 -47 25q-10 10 -3 18zM324 20q2 14 15 10q7 0 23.5 -2.5t25.5 -2.5q9 -2 9 -14q0 -11 -11 -11q-21 0 -51 6q-14 4 -11 14zM332 500q-6 10 6 16q29 13 54 13q4 1 7.5 -2.5t3.5 -8.5q1 -10 -11 -14q-20 -1 -44 -11h-6 q-10 0 -10 7zM363 684q-3 10 11 15q5 0 14.5 0.5t14.5 0.5t12 -0.5t10 -0.5q5 0 9 -4.5t2 -8.5q0 -13 -11 -13q-7 1 -22 1q-5 0 -14 -0.5t-14 -0.5q-12 0 -12 11zM395 179q0 14 12 14q27 2 45 10q12 2 17 -7q3 -14 -9 -18q-24 -9 -53 -11q-12 0 -12 12zM425 13q0 12 10 12 l23 4t25 6q13 2 16 -10q2 -5 -1 -9.5t-9 -5.5q-17 -5 -50 -9l-3 -1q-4 0 -7.5 4t-3.5 9zM429 516q7 14 16 9q15 -3 50 -23q10 -7 4 -16q-5 -7 -11 -7q-3 0 -6 3q-17 11 -43 18q-12 3 -10 16zM461 681q4 15 17 9q15 -1 51 -15q5 -1 7 -6t0 -9q-6 -8 -14 -8q0 1 -4 1 q-22 9 -46 13q-13 2 -11 15zM492 208q-9 8 0 17q19 17 30 35q3 4 9 5.5t9 -1.5q11 -6 5 -19q-15 -22 -36 -39q-5 -3 -9 -3q-8 0 -8 5zM514 449q-8 9 2 19q13 8 19 -4q16 -20 26 -46q6 -12 -7 -16h-5q-9 0 -10 7q-7 19 -25 40zM543 303q6 21 6 46v15q0 11 12 14q4 0 8.5 -3.5 t4.5 -7.5q1 -7 1 -18q0 -14 -1 -21q1 -1 1 -6v-50q0 -12 -14 -12q-12 0 -12 12v16q-10 5 -6 15zM549 175v47q0 13 12 13q5 0 9.5 -4t4.5 -9v-44q2 -12 -11 -14h-3q-10 0 -12 11zM556.5 639.5q-1.5 4.5 2.5 9.5q3 11 16 4q26 -12 43 -29q11 -8 3 -18q-4 -4 -10 -4q-3 0 -7 2 q-10 8 -41 29q-5 2 -6.5 6.5zM578 142q2 4 7 5.5t8 -1.5q6 -3 17 -3h13q2 3 10 3q12 6 16 -7q5 -12 -7 -17q-6 -4 -13 -4q-6 -1 -19 -1q-18 0 -28 5q-10 8 -4 20zM636 581q0 6 3 8q10 10 20 0l33 -40q8 -11 -4 -18q-2 -2 -7 -2t-11 4q-17 26 -31 38q-3 4 -3 10zM670 153 q-10 8 0 18t16 22l7 7q3 6 3 8q5 12 17 7q13 -5 5 -16q0 -1 -4 -11l-8 -12q-7 -12 -18 -23q-3 -3 -10 -3q-4 0 -8 3zM694.5 501.5q1.5 5.5 5.5 7.5q11 4 18 -6q13 -29 19 -49q4 -13 -9 -15h-3q-11 0 -12 8q-5 16 -17 45q-3 4 -1.5 9.5zM714 256q9 32 10 47q2 12 15 10 q5 0 8.5 -4.5t1.5 -9.5q-2 -19 -10 -52q-4 -9 -12 -9q-3 0 -4 1q-5 2 -8 7.5t-1 9.5zM724 399q-1 10 10 16q6 1 10.5 -3t4.5 -10q4 -16 4 -52q0 -11 -11 -11q-14 0 -14 11q0 28 -4 49z" />
<glyph unicode="A" horiz-adv-x="646" d="M56 18l19 46q1 5 5.5 7.5t9.5 0.5q12 -4 8 -16l-18 -47q-2 -9 -11 -9q-4 0 -5 1q-10 5 -8 17zM93 111l18 48q3 11 16 8q11 -5 6 -17l-17 -48q-3 -7 -12 -7q-2 0 -5 1q-11 5 -6 15zM128 206l18 48q5 11 16 8q10 -4 8 -17l-13 -31h34q13 0 13 -13t-13 -13h-50q-7 0 -10 4 q-6 6 -3 14zM164 301l17 48q6 12 17 7q5 -2 7 -7t0 -9l-17 -48q-5 -8 -13 -8h-4q-12 6 -7 17zM199 395l18 49q3 10 16 6q4 -1 7 -5.5t1 -9.5l-18 -48q-3 -8 -13 -8h-3q-12 5 -8 16zM229 201q0 5 4.5 9t8.5 4h51q12 0 12 -13t-12 -13h-51q-13 0 -13 13zM234 490l18 47 q4 12 17 8q11 -6 7 -17l-18 -47q-3 -7 -12 -7h-4q-12 4 -8 16zM270 576q-2 5 0 9l17 47q5 13 17 7q12 -4 7 -16l-17 -47q-5 -9 -12 -9q-1 0 -2.5 1t-2.5 1q-5 2 -7 7zM305 680l4 10q2 10 13 8q8 2 14 -8l3 -10q5 -11 -7 -17q-1 0 -2 -1h-2q-4 0 -6 1q-1 -1 -4 -1h-2 q-2 1 -3 1q-11 5 -8 17zM330 201q0 5 4 9t9 4h51q12 0 12 -13t-12 -13h-51q-13 0 -13 13zM333 623q-5 12 8 16q11 5 16 -7l18 -47q4 -12 -8 -16l-1 -1q-2 -1 -3 -1q-8 0 -12 9zM370 528q-4 12 6 17q13 3 16 -7l18 -48q6 -12 -8 -16h-3q-9 0 -12 7zM405 435q-2 4 0 9t6 6 q12 3 17 -6l17 -49q5 -10 -6 -16h-5q-9 0 -11 8zM432 201q0 5 4 9t8 4h43l-11 31q-5 11 7 17q11 3 17 -8l17 -48q2 -4 0 -9t-7 -7h-5h-3q-2 -2 -7 -2h-51q-12 0 -12 13zM440 340q-4 13 8 16q4 2 9 0t6 -7l19 -48q2 -13 -8 -17h-5q-9 0 -11 8zM511 150q-3 12 8 17q13 4 16 -8 l18 -48q3 -10 -8 -15q-1 -1 -5 -1q-8 0 -11 7zM547 56q-5 10 7 16q11 6 17 -8l17 -46q4 -11 -7 -17q-2 -1 -4 -1q-8 0 -13 9z" />
<glyph unicode="B" horiz-adv-x="594" d="M104 28v51q0 12 13 12q12 0 12 -12v-51q0 -2 -1 -3h41q12 0 12 -12q0 -13 -12 -13h-50q-12 0 -12 13q0 3 1 5q-4 3 -4 10zM104 129v51q0 13 13 13q12 0 12 -13v-51q0 -5 -3.5 -8.5t-8.5 -3.5q-13 0 -13 12zM104 231v51q0 12 13 12q12 0 12 -12v-51q0 -5 -3.5 -9t-8.5 -4 q-13 0 -13 13zM104 332v51q0 13 13 13q12 0 12 -13v-51q0 -4 -3.5 -8t-8.5 -4q-13 0 -13 12zM104 434v50q0 13 13 13q12 0 12 -13v-50q0 -5 -3.5 -9t-8.5 -4q-13 0 -13 13zM104 535v51q0 13 13 13q5 0 8.5 -4t3.5 -9v-51q0 -5 -4 -9t-8 -4q-13 0 -13 13zM104 637v50 q0 13 13 13h2h51q13 0 13 -13q0 -12 -13 -12h-41v-38q0 -5 -3.5 -9t-8.5 -4q-13 0 -13 13zM150 378q0 5 4 9t8 4h51q13 0 13 -13t-13 -13h-51q-12 0 -12 13zM207 13q0 5 3.5 8.5t8.5 3.5h51q13 0 13 -12q0 -13 -13 -13h-51q-12 0 -12 13zM208 687q0 13 13 13h50q13 0 13 -13 q0 -12 -13 -12h-50q-5 0 -9 3.5t-4 8.5zM251 378q0 5 4 9t9 4h14q18 0 34 3q13 4 15 -10q2 -10 -9 -15q-16 -4 -40 -4h-14q-13 0 -13 13zM308 13q0 4 4 8t9 4h2q22 0 45 5q12 5 16 -8q3 -11 -9 -16q-32 -6 -52 -6h-2q-13 0 -13 13zM309 685q5 11 16 9q26 -8 49 -24 q11 -7 4 -18q-4 -5 -12 -5q-5 0 -6 2q-17 11 -42 21q-5 1 -7.5 5.5t-1.5 9.5zM336 377q0 12 13 12h10q-6 0 -9 5q-6 10 4 18q21 13 35 32q8 10 18 1q4 -3 4.5 -8.5t-3.5 -9.5q-15 -20 -40 -36q-2 -2 -7 -2h-2q27 -2 43 -9q12 -2 8 -15q-3 -9 -12 -9h-4q-22 8 -45 8 q-13 0 -13 13zM393 616q-6 11 3 18q4 3 9.5 2.5t7.5 -4.5q16 -24 25 -50q4 -11 -8 -15l-2 -1h-2q-8 0 -13 8q-4 20 -20 42zM407 32q-7 10 4 17q24 15 37 31q8 8 17 0q8 -8 2 -18q-22 -22 -42 -34q-3 -1 -8 -1q-6 0 -10 5zM412 483q8 24 8 46q2 12 14 12q5 0 8.5 -4t2.5 -8 q0 -25 -10 -55q-1 -7 -11 -7q-3 0 -4 1q-12 2 -8 15zM432 353q9 9 18 2q23 -18 37 -42q3 -4 1.5 -9t-6.5 -7q-2 -3 -6 -3q-6 0 -11 7q-14 21 -30 34q-8 7 -3 18zM474 118q11 19 16 44q2 13 15 10q12 -2 10 -15q-6 -25 -18 -50q-3 -7 -11 -7q-4 0 -7 1q-9 5 -5 17zM484 257 q-3 12 8 16q12 3 17 -9q6 -21 8 -52q0 -12 -11 -14h-1q-13 0 -13 13q-1 21 -8 46z" />
<glyph unicode="C" horiz-adv-x="771" d="M73 344q0 12 11 14q12 0 14 -13q0 -24 5 -47q3 -13 -10 -15h-2q-11 0 -13 10q-5 43 -5 51zM76 398q1 20 10 52q4 13 15 9q12 -3 9 -17q-8 -30 -9 -48q-2 -11 -13 -11q-1 0 -2 1q-5 0 -8.5 4.5t-1.5 9.5zM92 241q-6 11 8 17q13 2 15 -8q3 -9 20 -47q6 -12 -5 -16 q-2 -1 -6 -1q-8 0 -12 6q-15 32 -20 49zM103 499q14 30 27 48q7 10 19 4q9 -7 2 -18q-13 -20 -23 -44v0q-4 -7 -12 -7q-4 0 -6 1q-11 3 -7 16zM140 147q-8 10 3 17q13 7 18 -2q4 -5 11 -12.5l12.5 -13.5l10.5 -11q11 -9 0 -18q-4 -4 -8 -4q-5 0 -11 4zM164 589q17 18 38 38 q11 7 18 -3q8 -9 -2 -19q-20 -17 -35 -33v0q-5 -3 -9 -3q-6 0 -9 2q-11 9 -1 18zM214 91q7 9 18 2q20 -17 42 -28q5 -2 6.5 -7.5t-1.5 -9.5q-1 -7 -10 -7q-3 0 -7 2q-26 13 -45 28q-8 7 -3 20zM240 639q-5 11 5 18q26 15 48 25q13 6 17 -8q5 -12 -7 -17q-18 -7 -44 -22 q-4 -2 -7 -2q-9 0 -12 6zM304 37q5 12 16 7l48 -12q12 -4 8 -16q-2 -10 -10 -10q-3 0 -3 2q-26 3 -51 14q-13 4 -8 15zM334 683q-3 10 10 16q42 7 51 8q12 3 14 -11q0 -12 -11 -14q-26 -2 -47 -10h-4q-9 0 -13 11zM402 14q2 11 14 11h20q20 0 29 2q14 0 14 -13q1 -5 -2.5 -9 t-9.5 -4q-10 -1 -31 -1h-22q-12 0 -12 14zM435 697q0 13 13 13q12 0 52 -5q14 -2 10 -15q-1 -10 -12 -10h-2q-40 5 -49 5q-5 0 -9 4t-3 8zM504 18q-2 13 9 15q25 6 48 15q4 2 9 0t7 -7q5 -12 -6 -17q-24 -9 -51 -15h-2q-12 0 -14 9zM537 683q1 6 5.5 8.5t9.5 0.5 q28 -9 50 -21q12 -5 7 -17q-4 -7 -14 -7q-1 0 -3 1h-2q-21 11 -46 19q-12 6 -7 16zM601 51q-4 13 6 17q20 13 41 29v0q10 9 18 -1q8 -12 -3 -19q-18 -17 -43 -30q-1 0 -3 -1.5t-3 -1.5q-8 0 -13 7zM630 642q9 9 18 2q6 -3 16 -11q10 -10 3 -19q-4 -5 -10 -5q-7 0 -8 3 q-7 4 -15 12q-10 7 -4 18z" />
<glyph unicode="D" horiz-adv-x="719" d="M104 13q0 4 3 7q-3 5 -3 8v51q0 12 13 12q12 0 12 -12v-51q0 -2 -1 -3q13 -2 13 -12q0 -13 -13 -13h-11q-13 0 -13 13zM104 129v51q0 13 13 13q12 0 12 -13v-51q0 -5 -3.5 -8.5t-8.5 -3.5q-13 0 -13 12zM104 231v51q0 12 13 12q12 0 12 -12v-51q0 -5 -3.5 -9t-8.5 -4 q-13 0 -13 13zM104 332v51q0 13 13 13q12 0 12 -13v-51q0 -4 -3.5 -8t-8.5 -4q-13 0 -13 12zM104 434v50q0 13 13 13q12 0 12 -13v-50q0 -5 -3.5 -9t-8.5 -4q-13 0 -13 13zM104 535v51q0 13 13 13q5 0 8.5 -4t3.5 -9v-51q0 -5 -4 -9t-8 -4q-13 0 -13 13zM104 637v50 q0 11 11 13h2h2h48q13 0 13 -13q0 -12 -13 -12h-38v-38q0 -5 -3.5 -9t-8.5 -4q-13 0 -13 13zM166 13q0 12 13 12h51q4 0 8 -3.5t4 -8.5q0 -13 -12 -13h-51q-13 0 -13 13zM205 687q0 13 13 13h52q13 -2 12 -14q0 -11 -13 -11h-51q-5 0 -9 4t-4 8zM268 13q-3 10 11 14 q28 2 48 7q13 4 15 -10q2 -5 -1 -9.5t-7 -5.5q-18 -4 -52 -8h-2q-12 0 -12 12zM307 684q1 5 6 7.5t9 0.5q23 -3 51 -14q5 -2 7 -7t0 -9q-3 -8 -12 -8h-4q-13 6 -47 14q-12 4 -10 16zM366 32q-4 13 7 16q30 14 44 22q11 6 18 -4q5 -11 -5 -18q-15 -9 -47 -23q-1 -1 -5 -1 q-7 0 -12 8zM403 652q6 9 18 5q15 -9 43 -29q5 -3 6 -8.5t-3 -9.5q-4 -5 -10 -5q-4 0 -8 2q-13 11 -41 27q-11 7 -5 18zM455 80q-9 11 2 18q30 27 35 34q9 9 18 1q10 -9 1 -18q-13 -16 -38 -36q-3 -3 -8 -3q-6 0 -10 4zM486 576q-8 8 0 17q7 9 17 -1q21 -19 35 -39 q6 -11 -4 -18q-1 -2 -6 -2q-8 0 -12 5zM522 170q12 19 25 43q4 12 16 6t6 -17q-7 -16 -25 -46q-4 -5 -11 -5q-5 0 -7 1q-11 7 -4 18zM541 496q-4 13 7 16q12 8 16 -5q15 -29 21 -48q3 -13 -9 -16h-4q-10 0 -11 7q-10 29 -20 46zM563 259q7 20 10 47q2 13 14 11q14 -2 12 -14 q-4 -26 -12 -52q-2 -9 -11 -9h-4q-11 5 -9 17zM572 403q-2 13 10 15q13 3 15 -11q4 -21 4 -52q1 -4 -2.5 -8.5t-8.5 -4.5h-2q-10 0 -12 13q0 18 -4 48z" />
<glyph unicode="E" horiz-adv-x="593" d="M104 28v51q0 12 13 12q12 0 12 -12v-51l-1 -1v-2h42q13 0 13 -12q0 -13 -13 -13h-51q-12 0 -12 13q0 4 1 5q-4 4 -4 10zM104 129v51q0 13 13 13q12 0 12 -13v-51q0 -12 -12 -12q-5 0 -9 3.5t-4 8.5zM104 231v51q0 12 13 12q12 0 12 -12v-51q0 -13 -12 -13q-13 0 -13 13z M104 332v51q0 13 13 13q12 0 12 -13v-20h41q13 0 13 -13t-13 -13h-41v-5q0 -12 -12 -12q-5 0 -9 3.5t-4 8.5zM104 434v50q0 13 13 13q12 0 12 -13v-50q0 -13 -12 -13q-13 0 -13 13zM104 535v51q0 13 13 13q12 0 12 -13v-51q0 -13 -12 -13q-5 0 -9 4t-4 9zM104 637v50 q0 13 13 13h2h51q13 0 13 -13q0 -12 -13 -12h-41v-38q0 -13 -12 -13q-13 0 -13 13zM208 13q0 5 4 8.5t9 3.5h50q13 0 13 -12q0 -13 -13 -13h-50q-13 0 -13 13zM208 350q0 5 4 9t9 4h50q13 0 13 -13t-13 -13h-50q-13 0 -13 13zM208 687q0 13 13 13h50q13 0 13 -13 q0 -12 -13 -12h-50q-5 0 -9 3.5t-4 8.5zM309 13q0 4 4 8t9 4h51q5 0 9 -3.5t4 -8.5q0 -13 -13 -13h-51q-13 0 -13 13zM309 350q0 4 4.5 8.5t8.5 4.5h51q5 0 9 -4t4 -9q0 -13 -13 -13h-51q-13 0 -13 13zM309 687q0 13 13 13h51q13 0 13 -13q0 -5 -4 -8.5t-9 -3.5h-51 q-5 0 -9 4t-4 8zM411 13q0 5 4 8.5t9 3.5h50q13 0 13 -12q0 -13 -13 -13h-50q-13 0 -13 13zM411 350q0 5 4 9t9 4h24q12 0 12 -13t-12 -13h-24q-13 0 -13 13zM411 687q0 13 13 13h50q13 0 13 -13q0 -12 -13 -12h-50q-5 0 -9 3.5t-4 8.5z" />
<glyph unicode="F" horiz-adv-x="605" d="M104 13v52q0 13 13 13t13 -13v-52q0 -13 -13 -13t-13 13zM104 117v52q0 12 13 12t13 -12v-52q0 -13 -13 -13t-13 13zM104 220v52q0 13 13 13t13 -13v-52q0 -13 -13 -13q-5 0 -9 4t-4 9zM104 324v52q0 13 13 13t13 -13v-21h41q13 0 13 -13t-13 -13h-41v-5q0 -13 -13 -13 q-5 0 -9 4t-4 9zM104 428v52q0 13 13 13t13 -13v-52q0 -13 -13 -13t-13 13zM104 531v52q0 13 13 13t13 -13v-52q0 -12 -13 -12q-5 0 -9 3.5t-4 8.5zM104 635v52q0 13 13 13h3h51q13 0 13 -13t-13 -13h-41v-39q0 -13 -13 -13q-5 0 -9 4t-4 9zM210 342q0 13 13 13h52 q13 0 13 -13t-13 -13h-52q-13 0 -13 13zM210 687q0 13 13 13h52q13 0 13 -13t-13 -13h-52q-13 0 -13 13zM314 342q0 13 13 13h52q13 0 13 -13t-13 -13h-52q-13 0 -13 13zM314 687q0 13 13 13h52q13 0 13 -13t-13 -13h-52q-13 0 -13 13zM418 342q0 13 13 13h24q13 0 13 -13 t-13 -13h-24q-13 0 -13 13zM418 687q0 13 13 13h52q12 0 12 -13t-12 -13h-52q-13 0 -13 13z" />
<glyph unicode="G" horiz-adv-x="814" d="M73 344q0 12 13 14q4 0 8 -4t4 -9q0 -11 5 -48q3 -13 -10 -15h-2q-11 0 -13 10q-5 40 -5 52zM76 398q2 18 10 52q4 13 16 9q12 -3 10 -16q-10 -32 -11 -49q-2 -11 -13 -11q-1 0 -1 1q-6 0 -9.5 4.5t-1.5 9.5zM92 241q-6 11 8 17q14 2 17 -9q4 -11 19 -46q3 -5 1.5 -9.5 t-6.5 -6.5q-1 -1 -6 -1q-9 0 -10 6q-12 18 -23 49zM105 500q13 28 26 46q7 10 18 4q10 -6 4 -18q-17 -25 -24 -43q-4 -7 -12 -7q-4 0 -5 1q-13 4 -7 17zM139 156.5q1 5.5 6 7.5q9 9 18 -2q11 -16 32 -37q11 -9 0 -18q-4 -4 -8 -4q-5 0 -9 4q-14 12 -36 40q-4 4 -3 9.5z M163 589l39 37q12 6 18 -3q7 -7 -2 -18q-20 -17 -35 -33q-7 -5 -9 -5q-4 0 -10 4q-9 9 -1 18zM214 90q8 10 18 2q24 -17 43 -26q11 -7 5 -17q-3 -7 -11 -7q-1 0 -3 0.5t-4 0.5q-34 21 -45 29q-8 6 -3 18zM242 639q-7 10 4 18q15 9 47 24q5 2 10.5 -0.5t6.5 -7.5 q5 -11 -7 -16q-21 -8 -43 -22q-6 -2 -8 -2q-5 0 -10 6zM303 38q7 12 17 7l23.5 -6t23.5 -7q13 -4 11 -16q-4 -10 -13 -10h-3q-29 7 -50 16q-14 2 -9 16zM334 682q-1 10 9 17q42 7 52 8q12 4 14 -12q1 -4 -2.5 -8.5t-8.5 -5.5q-24 -1 -48 -9h-3q-10 0 -13 10zM403 14 q0 11 13 11h50q5 2 9 -1.5t5 -9.5q0 -13 -13 -13q-9 -1 -31 -1h-22q-5 0 -8.5 4t-2.5 10zM418 339q0 5 4 8.5t9 3.5h52q12 0 12 -12q0 -13 -12 -13h-52q-13 0 -13 13zM435 696q0 14 13 14q12 0 52 -5q15 -2 13 -16q-3 -10 -14 -10h-3q-37 5 -48 5q-5 0 -9 3.5t-4 8.5z M504 18q-2 12 11 16q23 5 47 15q4 2 10 0t8 -7q4 -12 -8 -18q-26 -9 -52 -15h-2q-10 0 -14 9zM522 339q0 5 4 8.5t8 3.5h52q13 0 13 -12q0 -13 -13 -13h-52q-12 0 -12 13zM537 673q-2 5 0 9q3 13 16 9q34 -12 49 -20q11 -5 7 -17q-4 -7 -12 -7q-3 0 -6 1q-19 11 -47 19 q-5 1 -7 6zM602 52q-6 12 6 17q34 22 36 23v42q0 5 4 9t9 4q12 0 12 -13v-46v-3q-1 -4 -5 -8q-20 -16 -45 -29q-3 -3 -6 -3q-6 0 -11 7zM624 339q0 5 4 8.5t9 3.5h17h2h1q12 0 12 -12v-51q0 -13 -12 -13q-13 0 -13 13v38h-7q-13 0 -13 13zM630 642q8 10 19 2q5 -3 15 -11 q11 -9 3 -19q-4 -5 -10 -5q-3 0 -8 3q-3 2 -8.5 6t-7.5 5q-8 7 -3 19zM644 186v51q0 13 13 13q12 0 12 -13v-51q0 -13 -12 -13q-13 0 -13 13z" />
<glyph unicode="H" horiz-adv-x="709" d="M104 13v52q0 13 13 13t13 -13v-52q0 -5 -4 -9t-9 -4q-13 0 -13 13zM104 117v52q0 12 13 12t13 -12v-52q0 -5 -4 -9t-9 -4q-13 0 -13 13zM104 220v52q0 13 13 13t13 -13v-52q0 -4 -4 -8.5t-9 -4.5q-13 0 -13 13zM104 324v52q0 13 13 13t13 -13v-21h43q13 0 13 -13t-13 -13 h-43v-5q0 -4 -4 -8.5t-9 -4.5q-13 0 -13 13zM104 428v52q0 13 13 13q5 0 9 -4t4 -9v-52q0 -5 -4 -9t-9 -4q-13 0 -13 13zM104 531v52q0 13 13 13t13 -13v-52q0 -4 -4 -8t-9 -4q-13 0 -13 12zM104 635v52q0 13 13 13t13 -13v-52q0 -5 -4 -9t-9 -4q-13 0 -13 13zM212 342 q0 13 13 13h51q13 0 13 -13t-13 -13h-51q-13 0 -13 13zM315 342q0 5 4 9t9 4h52q13 0 13 -13t-13 -13h-52q-13 0 -13 13zM419 342q0 13 13 13h52q13 0 13 -13t-13 -13h-52q-13 0 -13 13zM523 342q0 13 13 13h1v21q0 13 13 13t13 -13v-52q0 -4 -4.5 -8.5t-8.5 -4.5 q-13 0 -13 13v5h-1q-13 0 -13 13zM537 13v52q0 13 13 13t13 -13v-52q0 -5 -4 -9t-9 -4q-13 0 -13 13zM537 117v52q0 12 13 12t13 -12v-52q0 -5 -4 -9t-9 -4q-13 0 -13 13zM537 220v52q0 13 13 13t13 -13v-52q0 -4 -4.5 -8.5t-8.5 -4.5q-13 0 -13 13zM537 428v52q0 13 13 13 q5 0 9 -4t4 -9v-52q0 -5 -4 -9t-9 -4q-13 0 -13 13zM537 531v52q0 13 13 13t13 -13v-52q0 -4 -4 -8t-9 -4q-13 0 -13 12zM537 635v52q0 13 13 13t13 -13v-52q0 -5 -4.5 -9t-8.5 -4q-13 0 -13 13z" />
<glyph unicode="I" horiz-adv-x="305" d="M111 13v52q0 13 13 13t13 -13v-52q0 -5 -4 -9t-9 -4q-13 0 -13 13zM111 117v52q0 12 13 12t13 -12v-52q0 -5 -4 -9t-9 -4q-13 0 -13 13zM111 220v52q0 13 13 13t13 -13v-52q0 -4 -4.5 -8.5t-8.5 -4.5q-13 0 -13 13zM111 324v52q0 13 13 13t13 -13v-52q0 -4 -4.5 -8.5 t-8.5 -4.5q-13 0 -13 13zM111 428v52q0 13 13 13q5 0 9 -4t4 -9v-52q0 -5 -4 -9t-9 -4q-13 0 -13 13zM111 531v52q0 13 13 13t13 -13v-52q0 -4 -4 -8t-9 -4q-13 0 -13 12zM111 635v52q0 13 13 13t13 -13v-52q0 -5 -4.5 -9t-8.5 -4q-13 0 -13 13z" />
<glyph unicode="J" horiz-adv-x="594" d="M45 147q-6 11 6 17q12 3 16 -8q16 -32 23 -42v0q8 -10 -2 -18q-6 -2 -8 -2q-7 0 -10 6q-16 22 -25 47zM104 77q10 10 18 2q17 -17 39 -28q11 -6 5 -18q-3 -6 -11 -6q-2 0 -6 2q-23 11 -44 31q-9 9 -1 17zM189 24q5 11 15 9q26 -8 49 -8q11 0 11 -14q0 -11 -13 -11v0 q-24 0 -53 9q-11 2 -9 15zM289 14q-2 12 10 14q30 7 46 14q11 7 17 -6q4 -12 -7 -17q-24 -12 -51 -15h-2q-10 0 -13 10zM384 48q-8 11 3 18q18 14 34 33q3 4 8.5 4.5t9.5 -3.5q9 -7 1 -18q-20 -22 -38 -36q-3 -3 -7 -3q-6 0 -11 5zM448 139q12 28 16 45q4 12 15 9 q12 -4 9 -15q-4 -25 -19 -50q-2 -8 -10 -8q-5 0 -6 2q-11 8 -5 17zM469 231v2v49q0 12 13 12t13 -12v-49v-2q0 -13 -13 -13v0q-5 0 -9 4t-4 9zM469 332v51q0 13 13 13t13 -13v-51q0 -12 -13 -12q-5 0 -9 4t-4 8zM469 434v50q0 13 13 13t13 -13v-50q0 -13 -13 -13q-5 0 -9 4 t-4 9zM469 535v51q0 5 4 9t9 4q13 0 13 -13v-51q0 -13 -13 -13q-4 0 -8.5 4t-4.5 9zM469 637v50q0 13 13 13t13 -13v-50q0 -13 -13 -13q-5 0 -9 4t-4 9z" />
<glyph unicode="K" horiz-adv-x="715" d="M104 13v52q0 13 12 13q13 0 13 -13v-52q0 -13 -13 -13q-12 0 -12 13zM104 117v52q0 12 12 12q13 0 13 -12v-52q0 -13 -13 -13q-12 0 -12 13zM104 220v52q0 13 12 13q13 0 13 -13v-43l22 21q9 9 18 0t0 -18l-36 -36q-4 -4 -11 -4q-5 0 -9 4q-5 5 -3 13q-6 3 -6 11z M104 324v52q0 13 12 13q13 0 13 -13v-52q0 -5 -4 -9t-9 -4q-12 0 -12 13zM104 428v52q0 13 12 13q13 0 13 -13v-52q0 -13 -13 -13q-12 0 -12 13zM104 531v52q0 13 12 13q13 0 13 -13v-52q0 -5 -4 -8.5t-9 -3.5q-12 0 -12 12zM104 635v52q0 13 12 13q13 0 13 -13v-52 q0 -5 -4 -9t-9 -4q-12 0 -12 13zM187 268q-8 10 0 18l36 38q4 4 10 4t8 -4q5 -4 5 -9.5t-5 -8.5l-36 -38q-4 -4 -9 -4q-3 0 -9 4zM261 342q-9 9 0 18l36 37q9 9 18 0l2 -4q3 -1 6 -4l32 -40q3 -4 2.5 -10t-5.5 -8q-1 -3 -8 -3q-6 0 -10 4l-28 37l-27 -27q-6 -4 -9 -4 q-5 0 -9 4zM333 415q-9 9 0 19l37 37q10 9 19 0q6 -10 0 -19l-37 -37q-4 -4 -9 -4q-6 0 -10 4zM366 292q-9 10 1 18q4 4 9.5 3.5t8.5 -4.5l34 -41q8 -10 -3 -18q-4 -2 -7 -2q-7 0 -11 5zM407 489q-9 9 0 18l37 36q9 9 18 0t0 -18l-37 -36q-3 -4 -9 -4q-5 0 -9 4zM432 213 q-8 9 1 18q11 9 18 -3l34 -39q7 -11 -3 -19q-6 -3 -7 -3q-6 0 -11 5zM476 571q0 6 4 10l38 36q6 10 18 0q9 -9 0 -18l-38 -36q-4 -4 -9 -4t-9 4q-4 2 -4 8zM498 132q-8 8 1 18q9 8 18 -1l33 -40q8 -11 -1 -18q-4 -4 -8 -4q-6 0 -11 5zM554 635q-9 9 0 18l36 38q9 7 18 0 q9 -9 0 -20l-36 -36q-6 -4 -9 -4q-5 0 -9 4zM563 52q-8 10 2 18q9 7 19 -1l32 -40q9 -11 -1 -19q-3 -2 -8 -2q-7 0 -11 4z" />
<glyph unicode="L" horiz-adv-x="563" d="M104 28v51q0 12 13 12q12 0 12 -12v-51l-1 -1v-2h42q5 0 9 -4t4 -8q0 -13 -13 -13h-51q-12 0 -12 13q0 4 1 5q-4 4 -4 10zM104 129v51q0 13 13 13q12 0 12 -13v-51q0 -12 -12 -12q-5 0 -9 3.5t-4 8.5zM104 231v51q0 12 13 12q12 0 12 -12v-51q0 -13 -12 -13q-13 0 -13 13 zM104 332v51q0 13 13 13q12 0 12 -13v-51q0 -12 -12 -12q-5 0 -9 3.5t-4 8.5zM104 434v50q0 13 13 13q12 0 12 -13v-50q0 -13 -12 -13q-13 0 -13 13zM104 535v51q0 13 13 13q12 0 12 -13v-51q0 -13 -12 -13q-5 0 -9 4t-4 9zM104 637v50q0 13 13 13q12 0 12 -13v-50 q0 -13 -12 -13q-13 0 -13 13zM208 13q0 12 13 12h50q5 0 9 -3.5t4 -8.5q0 -13 -13 -13h-50q-13 0 -13 13zM309 13q0 5 4 8.5t9 3.5h51q5 0 9 -4t4 -8q0 -13 -13 -13h-51q-13 0 -13 13zM411 13q0 12 13 12h50q5 0 9 -3.5t4 -8.5q0 -13 -13 -13h-50q-13 0 -13 13z" />
<glyph unicode="M" horiz-adv-x="844" d="M104 13v52q0 13 13 13t13 -13v-52q0 -13 -13 -13t-13 13zM104 116v52q0 13 13 13t13 -13v-52q0 -12 -13 -12t-13 12zM104 220v52q0 13 13 13t13 -13v-52q0 -13 -13 -13t-13 13zM104 323v52q0 13 13 13t13 -13v-52q0 -12 -13 -12t-13 12zM104 427v52q0 13 13 13t13 -13 v-52q0 -13 -13 -13t-13 13zM104 530v52q0 13 13 13t13 -13v-52q0 -12 -13 -12t-13 12zM104 634v52q0 13 13 13q3 0 4 -1q3 0 9 -4l30 -43q7 -9 -3 -17q-3 -3 -8 -3t-10 6l-9 12v-15q0 -13 -13 -13t-13 13zM169 594q-7 11 2 18q13 9 18 -3l31 -41q7 -11 -3 -18q-2 -3 -7 -3 q-7 0 -12 5zM230 510q-7 11 2 18q12 8 18 -3l30 -41q8 -12 -3 -18q-2 -3 -7 -3q-6 0 -11 5zM290 427q-10 10 3 17q10 10 18 -3l30 -41q6 -11 -3 -18q-3 -3 -8 -3q-6 0 -10 5zM350 343q-8 10 4 18q10 8 18 -4l30 -41q2 -8 1 -11q-1 4 2 11l32 41q5 11 18 4q9 -9 2 -18 l-31 -43q-1 -5 -10 -5q-4 0 -7 3q-4 1 -6 7q0 -5 -4 -7q-5 -3 -8 -3q-7 0 -10 5zM466 400l30 41q9 12 18 3q12 -7 4 -17l-31 -43q-4 -5 -10 -5q-5 0 -8 3q-9 7 -3 18zM527 484l30 41q8 13 18 3q12 -8 3 -18l-30 -42q-5 -5 -11 -5q-5 0 -7 3q-9 7 -3 18zM588 568l30 41 q6 11 18 3q9 -7 2 -18l-29 -42q-5 -5 -11 -5q-5 0 -7 3q-12 7 -3 18zM647 651l31 43q4 4 8 4q1 1 4 1q13 0 13 -13v-52q0 -13 -13 -13q-4 0 -8.5 4.5t-4.5 8.5v14l-8 -11q-3 -6 -11 -6q-5 0 -7 3q-10 7 -4 17zM677 13v52q0 5 4 9t9 4q13 0 13 -13v-52q0 -13 -13 -13 q-5 0 -9 4t-4 9zM677 116v52q0 13 13 13t13 -13v-52q0 -12 -13 -12q-5 0 -9 4t-4 8zM677 220v52q0 5 4 9t9 4q13 0 13 -13v-52q0 -13 -13 -13q-5 0 -9 4t-4 9zM677 323v52q0 13 13 13t13 -13v-52q0 -12 -13 -12q-5 0 -9 4t-4 8zM677 427v52q0 13 13 13t13 -13v-52 q0 -13 -13 -13q-4 0 -8.5 4t-4.5 9zM677 530v52q0 13 13 13t13 -13v-52q0 -12 -13 -12q-5 0 -9 4t-4 8z" />
<glyph unicode="N" horiz-adv-x="771" d="M104 24v51q0 12 13 12t13 -12v-51q0 -13 -13 -13q-5 0 -9 4.5t-4 8.5zM104 125v51q0 13 13 13t13 -13v-51q0 -12 -13 -12q-5 0 -9 4t-4 8zM104 227v50q0 13 13 13t13 -13v-50q0 -13 -13 -13q-5 0 -9 4t-4 9zM104 328v50q0 13 13 13t13 -13v-50q0 -13 -13 -13q-5 0 -9 4.5 t-4 8.5zM104 429v51q0 12 13 12t13 -12v-51q0 -13 -13 -13q-5 0 -9 4t-4 9zM104 530v51q0 13 13 13t13 -13v-51q0 -12 -13 -12q-5 0 -9 4t-4 8zM104 632v50v4q0 5 5 10q11 6 18 -2l30 -42q7 -9 -3 -18q-2 -1 -8 -1q-8 0 -10 5l-6 8v-14q0 -13 -13 -13q-5 0 -9 4t-4 9z M166 596q-6 11 3 18q10 8 18 -3l29 -41q9 -9 -3 -17q-2 -2 -7 -2q-7 0 -11 5zM225 514q-7 11 3 18q8 8 18 -3l29 -40q6 -11 -2 -18q-3 -3 -8 -3q-7 0 -10 5zM284 432q-8 12 4 17q9 9 16 -2l31 -41q6 -12 -3 -17q-2 -3 -7 -3q-7 0 -11 5zM344 351q-7 9 2 16q11 9 18 -2 l30 -41q8 -11 -4 -18q-2 -2 -7 -2q-7 0 -10 5zM403 268q-7 9 3 18q10 8 17 -4l29 -40q8 -11 -2 -18q-6 -2 -8 -2q-6 0 -10 5zM462 186q-8 8 3 18q9 7 18 -4l29 -41q6 -10 -3 -17q-6 -3 -7 -3q-5 0 -10 5zM519 113.5q1 5.5 6 8.5q10 6 16 -4l30 -41q8 -10 -2 -18q-6 -2 -8 -2 q-5 0 -10 5l-30 42q-3 4 -2 9.5zM580 22q-7 9 3 17q5 4 10 2v34q0 12 13 12q12 0 12 -12v-51q0 -4 -3 -9q2 -8 -6 -14q-1 -1 -6 -1q-9 0 -11 5zM593 125v51q0 13 13 13q12 0 12 -13v-51q0 -12 -12 -12q-5 0 -9 3.5t-4 8.5zM593 227v50q0 13 13 13q12 0 12 -13v-50 q0 -13 -12 -13q-13 0 -13 13zM593 328v50q0 13 13 13q12 0 12 -13v-50q0 -13 -12 -13q-5 0 -9 4t-4 9zM593 429v51q0 12 13 12q12 0 12 -12v-51q0 -13 -12 -13q-5 0 -9 4t-4 9zM593 530v51q0 13 13 13q12 0 12 -13v-51q0 -12 -12 -12q-5 0 -9 3.5t-4 8.5zM593 632v50 q0 13 13 13q12 0 12 -13v-50q0 -13 -12 -13q-13 0 -13 13z" />
<glyph unicode="O" horiz-adv-x="850" d="M73 339v16q0 18 3 36q0 5 3.5 8.5t8.5 2.5q14 0 12 -13q0 -5 -1 -17t-1 -17v-15q1 -6 -2.5 -10t-8.5 -4h-1q-11 0 -13 13zM79 286q-2 11 10 15q12 2 16 -10q3 -22 13 -50v0q3 -10 -9 -15q-2 -1 -4 -1q-8 0 -12 9q-6 16 -14 52zM84 443q6 29 16 52q3 12 17 7q12 -6 8 -17 q-10 -23 -16 -47q-3 -10 -13 -10h-3q-13 4 -9 15zM115 185q-8 13 5 17q11 7 17 -5q14 -26 26 -43q8 -10 -4 -18q-2 -2 -6 -2q-7 0 -12 6q-18 25 -26 45zM125 542q13 21 29 44q10 10 18 2q10 -6 2 -18q-23 -32 -28 -41v0q-4 -6 -11 -6q-4 0 -6 1q-12 7 -4 18zM175 99 q-8 8 0 18q11 10 19 0q21 -21 37 -32v0q11 -10 3 -18q-4 -5 -11 -5q-5 0 -7 1zM190 607q-8 7 2 17q18 20 42 33q9 8 16 -4q7 -9 -3 -16q-26 -20 -39 -32q-4 -2 -9 -2t-9 4zM255 53q9 11 19 5q21 -12 44 -18q11 -3 9 -17q-4 -9 -13 -9h-3q-17 6 -49 20q-11 8 -7 19zM274 666 q-6 12 6 16q20 9 51 18q13 2 16 -10q2 -12 -10 -15q-21 -5 -47 -15v0q-1 -2 -5 -2q-8 0 -11 8zM352 16q2 14 14 12q14 -3 43 -3h8q5 0 8.5 -3.5t3.5 -8.5q0 -13 -12 -13h-8q-31 0 -45 3q-14 2 -12 13zM371 695q0 14 13 14q7 1 25 1q19 0 28 -1q5 0 8.5 -5t2.5 -10 q0 -12 -12 -12h-2q-7 2 -25 2q-16 0 -24 -2q-12 0 -14 13zM455 15q-3 13 10 15q15 3 46 14q12 4 17 -6q3 -14 -6 -18q-23 -8 -52 -15h-3q-10 0 -12 10zM474 690q2 11 16 9q32 -9 49 -18q13 -4 7 -16q-3 -8 -12 -8q-4 0 -5 1q-16 8 -45 17q-13 2 -10 15zM551 48q-6 12 5 18 q22 10 40 28v0q12 6 19 -3t-2 -18q-19 -15 -44 -29q-4 -2 -6 -2q-9 0 -12 6zM569 652q8 10 18 4q18 -13 41 -34q11 -9 1 -18q-3 -4 -10 -4q-5 0 -8 3q-12 11 -38 31q-10 6 -4 18zM633 128q10 11 30 39v0q6 9 17 4q10 -7 3 -18q-9 -15 -31 -43q-6 -4 -9 -4t-9 3q-9 9 -1 19z M645 567q-9 9 2 18q12 8 17 -3q14 -14 31 -44q4 -12 -5 -17q-2 0 -4 -1t-3 -1q-7 0 -11 7q-13 23 -27 41zM686 211q14 33 18 46q1 5 6 8t10 1q11 -4 9 -17q-6 -19 -19 -49q-4 -8 -13 -8h-3l-2 1q-11 7 -6 18zM693 480v0q-3 14 8 18q13 4 18 -7q9 -25 15 -51q2 -13 -10 -16 h-3q-10 0 -13 11q-9 32 -15 45zM715 305q2 32 2 50q0 20 -1 30q0 13 11 13q14 2 14 -11q2 -10 2 -32q0 -21 -4 -53q0 -11 -12 -11h-2q-12 2 -10 14z" />
<glyph unicode="P" horiz-adv-x="583" d="M104 13v52q0 13 13 13t13 -13v-52q0 -13 -13 -13t-13 13zM104 117v52q0 12 13 12t13 -12v-52q0 -13 -13 -13t-13 13zM104 220v52q0 13 13 13t13 -13v-52q0 -13 -13 -13q-5 0 -9 4t-4 9zM104 324v52q0 13 13 13t13 -13v-49l2 1h3h52q5 0 9 -4t4 -9q0 -13 -13 -13h-52 q-12 0 -13 10q-2 -1 -5 -1q-5 0 -9 4t-4 9zM104 428v52q0 13 13 13t13 -13v-52q0 -13 -13 -13t-13 13zM104 531v52q0 13 13 13t13 -13v-52q0 -12 -13 -12q-5 0 -9 3.5t-4 8.5zM104 635v52q0 13 13 13h1h1h51q13 0 13 -13t-13 -13h-40v-39q0 -13 -13 -13q-5 0 -9 4t-4 9z M209 687q0 13 13 13h52q13 0 13 -13t-13 -13h-52q-5 0 -9 4t-4 9zM226 315q0 13 13 13h52q5 0 9 -4t4 -9q0 -13 -13 -13h-52q-13 0 -13 13zM313 687q0 13 13 13h1q25 0 54 -8q13 -2 9 -15q-3 -9 -12 -9h-4q-30 6 -47 6h-1q-5 0 -9 4t-4 9zM330 315q-1 4 2.5 8.5t8.5 4.5 q26 2 47 12q12 2 17 -8q3 -11 -8 -17q-22 -8 -53 -13h-1q-13 0 -13 13zM414 666q6 11 18 4q24 -14 41 -35q11 -9 0 -18q-3 -4 -9 -4q-5 0 -9 5q-17 19 -37 30q-12 7 -4 18zM428 344q-9 11 3 18q16 12 33 33q7 13 19 3q10 -6 2 -18q-18 -21 -39 -39q-6 -3 -8 -3q-4 0 -10 6z M483 578q-7 12 5 17q10 7 18 -5q11 -22 17 -53q2 -11 -11 -15h-2q-11 0 -13 11q-5 23 -14 45zM488 438q10 22 11 47q0 11 15 11q11 -2 11 -14q-1 -26 -13 -54q-3 -8 -11 -8q-4 0 -6 1q-12 6 -7 17z" />
<glyph unicode="Q" horiz-adv-x="844" d="M66 340v16q0 12 2 36q0 6 4 10t9 3q12 -1 12 -16q-2 -20 -2 -33q0 -10 1 -15q0 -11 -13 -13q-11 0 -13 12zM72 288q-2 12 10 14q13 2 15 -9q5 -27 14 -48q4 -13 -9 -15q-2 -1 -4 -1q-8 0 -14 8zM76 446q2 9 8.5 28l7.5 22q7 13 17 8q13 -5 7 -17q-13 -41 -14 -47 q-5 -10 -13 -10h-2q-13 3 -11 16zM106 189q-6 9 6 16q13 6 18 -6q14 -27 24 -41q3 -4 2 -9.5t-4 -7.5q-2 -3 -8 -3t-9 5q-22 30 -29 46zM116 544q8 15 30 43q8 10 18 3q9 -8 3 -18q-14 -14 -29 -42q-3 -5 -10 -5q-3 0 -7 2q-10 5 -5 17zM168 103q-9 8 0 17q8 9 17 0 q35 -30 38 -32q11 -8 2 -17q-3 -6 -9 -6q-4 0 -8 2q-35 30 -40 36zM182 607q-10 12 0 18q14 13 42 33q5 4 10.5 3t7.5 -6q6 -11 -3 -18q-22 -14 -38 -30q-3 -3 -9 -3q-7 0 -10 3zM247 55q5 12 18 7q24 -13 47 -20q11 -6 8 -16t-13 -10q-2 0 -3 1q-26 7 -50 21q-13 8 -7 17z M258 -79q-6 11 6 16l48 21q11 6 16 -6q1 0 1 -1q1 -1 2 -3.5t1 -3.5q2 -12 -9 -15q-19 -4 -32 -10l-12 -5q-6 -2 -7 -2q-6 0 -9 3q-5 3 -5 6zM265 666q-5 12 7 17q7 2 24.5 8.5t26.5 9.5q13 2 15 -9q2 -13 -9 -16q-12 -3 -45 -15q-2 -1 -5 -1q-11 0 -14 6zM344 20 q3 13 16 11q18 -3 40 -3q1 0 3 0.5t4 0.5q5 0 9 -4.5t4 -9.5q0 -13 -12 -13h-8q-15 0 -45 4q-13 2 -11 14zM352 -38q-6 10 6 18l46 21q10 5 17 -6q5 -11 -6 -18l-34 -15q21 0 43 -3q12 -3 9 -16q-1 -9 -12 -9h-3q-20 3 -37 3h-10q-5 -1 -9 3t-4 10l3 6q-8 2 -9 6zM364 695 q0 12 12 14q5 0 12.5 0.5t11.5 0.5t13.5 -0.5t14.5 -0.5q13 -2 13 -14q-2 -12 -14 -12h-1q-9 1 -26 1h-23q-5 -1 -9 2.5t-4 8.5zM444 6q-3 5 1 11v1q-2 13 12 15q36 10 46 14q4 2 9.5 -0.5t7.5 -7.5q4 -11 -9 -17h-1q0 -1 -1 -1l-2 -1l-46 -21q-1 0 -2 -0.5t-2 -0.5 q-8 0 -13 8zM459 -65q3 10 16 6q2 -1 5 -3t4 -3l17.5 -9t18.5 -9q10 -5 6 -18q-4 -7 -13 -7h-2q-2 1 -4 1q-5 4 -17 10.5t-17 10.5q-2 1 -5 3t-4 2q-12 6 -5 16zM466 689q2 13 15 11q14 -4 50 -19q11 -3 7 -16q-4 -7 -12 -7q-4 0 -5 2q-41 13 -47 14q-12 5 -8 15zM543 50 q-7 10 4 21q32 20 39 26q9 9 20 -1q8 -12 -3 -17q-23 -21 -44 -33q-1 -1 -6 -1q-7 0 -10 5zM548 -112q6 13 17 8q24 -9 47 -13q14 -2 12 -14q-4 -11 -14 -11h-2q-30 7 -52 14q-11 6 -8 16zM559 653q7 11 18 4q37 -29 42 -34q5 -4 5 -9.5t-5 -8.5q-3 -4 -9 -4t-10 3 q-14 14 -38 31q-11 6 -3 18zM624 113q-11 9 0 17q17 22 28 40q7 10 18 5q10 -10 3 -18q-16 -27 -31 -43q-4 -3 -9 -3q-7 0 -9 2zM633 578.5q1 5.5 5 7.5q9 9 17 -1q16 -22 29 -45q8 -10 -4 -17q-2 -2 -7 -2q-7 0 -10 7q-10 18 -28 41q-3 4 -2 9.5zM649 -132q-1 4 3 8.5 t8 4.5q22 1 48 9q4 2 9 -0.5t7 -7.5q5 -12 -9 -16q-30 -9 -53 -10h-2q-11 0 -11 12zM675 214q14 26 19 45q4 12 17 9q13 -4 9 -15q-11 -33 -20 -51q-4 -7 -11 -7q-5 0 -7 2q-10 3 -7 17zM683 484q-4 9 8 17q11 3 17 -8q13 -35 16 -52q2 -4 -1 -8.5t-9 -6.5h-1l-1 -1 q-11 0 -14 12q-4 21 -15 47zM704 307q4 32 4 49q0 20 -2 29q-1 6 3.5 10.5t10.5 5.5q12 0 12 -13q1 -11 1 -32q0 -26 -3 -53q-2 -10 -11 -10h-4q-13 2 -11 14zM747 -107q-6 12 4 17q24 16 35 24q12 7 18 -1q9 -11 -2 -18q-14 -14 -38 -27q-2 -1 -5 -1q-11 0 -12 6z" />
<glyph unicode="R" horiz-adv-x="625" d="M90 18v51q0 13 13 13t13 -13v-51q0 -13 -13 -13q-5 0 -9 4t-4 9zM90 121v51q0 13 13 13t13 -13v-51q0 -13 -13 -13q-5 0 -9 4t-4 9zM90 224v51q0 13 13 13t13 -13v-51q0 -13 -13 -13t-13 13zM90 327v51q0 13 13 13t13 -13v-48h2q2 1 3 1h51q5 0 9 -4t4 -9q0 -13 -13 -13 h-51q-12 0 -13 10q-2 -1 -5 -1q-13 0 -13 13zM90 430v51q0 13 13 13t13 -13v-51q0 -13 -13 -13t-13 13zM90 533v51q0 13 13 13t13 -13v-51q0 -13 -13 -13t-13 13zM90 636v51q0 11 12 13h2h52q12 0 12 -13t-12 -13h-40v-38q0 -13 -13 -13t-13 13zM194 687q0 13 13 13h52 q12 0 12 -13t-12 -13h-52q-5 0 -9 4t-4 9zM211 318q0 13 13 13h51q5 0 9 -4t4 -9q0 -13 -13 -13h-51q-13 0 -13 13zM297 687q0 13 13 13h1q26 0 53 -8q6 -1 8.5 -5.5t0.5 -9.5q-2 -9 -11 -9h-4q-22 6 -47 6h-1q-4 0 -8.5 4t-4.5 9zM298 320q4 13 16 11l6 -2q4 2 5 2 q25 1 47 11q12 4 17 -7q4 -13 -8 -17q-12 -5 -13 -5q8 -6 5 -14q-3 -9 -13 -9h-2q-1 1 -2 1q-26 9 -34 11l-13 3q-13 2 -11 15zM395 286q7 11 18 4q26 -16 42 -37q7 -9 -1 -18q-4 -2 -9 -2q-7 0 -10 4q-13 17 -36 31q-10 10 -4 18zM398 667q5 10 18 3q24 -15 41 -34 q9 -9 0 -18q-4 -4 -9 -4q-6 0 -9 5q-21 21 -38 30q-10 5 -3 18zM412 346q-8 11 2 18t34 34q8 12 18 2q8 -7 2 -18q-17 -21 -38 -38q-4 -3 -8 -3q-5 0 -10 5zM461 197q-6 11 6 17q12 4 17 -7q10 -30 13 -54q0 -12 -13 -14q-13 0 -13 13q-1 22 -10 45zM466 579q-8 12 5 17 q11 7 17 -5q11 -21 18 -53q2 -12 -11 -14h-2q-11 0 -13 10q-5 23 -14 45zM471 440q10 22 11 46q0 12 15 12q11 -2 11 -14q-3 -30 -13 -54q-3 -8 -11 -8q-4 0 -5 1q-14 6 -8 17zM472 99q0 14 12 14q12 3 14 -11q1 -20 8 -48q4 -11 -8 -17h-4q-8 0 -13 9q-8 27 -9 53zM512 14 q2 14 14 12h3q13 2 15 -8q4 -11 -7 -17q-1 0 -3.5 -0.5t-5.5 -0.5h-4q-12 2 -12 14z" />
<glyph unicode="S" horiz-adv-x="667" d="M69 118q7 8 16 1q31 -23 35 -25v0q10 -8 3 -16q-3 -5 -10 -5q-2 0 -6 2q-19 13 -36 27q-9 7 -2 16zM90 523v0q-2 10 10 12q12 0 12 -10q3 -25 12 -40q6 -10 -5 -15q-2 -1 -5 -1q-6 0 -11 6q-12 23 -13 48zM95 572q5 19 21 44q8 10 16 3q10 -8 3 -16q-14 -22 -18 -37 q-4 -9 -11 -9q-3 0 -4 1q-10 4 -7 14zM133 452q9 8 16 1q17 -15 35 -25q10 -5 5 -16q-5 -6 -10 -6q-2 0 -6 2q-24 13 -39 28q-8 7 -1 16zM143 66q5 11 15 5q26 -14 40 -20q12 -4 6 -15q-4 -7 -10 -7q-1 0 -2.5 0.5t-2.5 0.5l-42 21q-10 6 -4 15zM148 636q-8 8 1 16 q12 10 40 26q11 5 16 -5q6 -10 -5 -15q-20 -10 -36 -24q-3 -3 -7 -3q-6 0 -9 5zM209 402q5 10 15 7q24 -9 42 -14q11 -4 8 -14q-2 -9 -11 -9q-2 0 -3 1q-24 6 -44 15q-11 4 -7 14zM226 29q3 10 14 8q19 -7 43 -10q12 -2 10 -13q-2 -10 -12 -10h-1q-32 6 -46 11q-12 2 -8 14z M226 682q-3 10 7 14q25 8 47 11q11 2 13 -10q2 -11 -10 -13q-22 -3 -43 -9q-1 -1 -3 -1q-8 0 -11 8zM296 375q4 11 14 9q12 -2 18 -4h2q4 -1 12.5 -2.5t12.5 -2.5q11 -2 9 -13q-3 -10 -12 -10q0 1 -2 1q-8 1 -24 5h-2q-14 2 -19 4q-11 2 -9 13zM315 12q0 11 12 11h1 q22 0 43 3v0q11 2 13 -10q2 -11 -10 -13q-22 -3 -46 -3h-1q-12 0 -12 12zM315 699q0 11 12 11q27 0 47 -4v0q12 -2 10 -13q-2 -10 -12 -10q0 1 -2 1q-21 3 -43 3q-12 2 -12 12zM386 356q2 12 14 8q40 -14 44 -15q11 -4 7 -15q-3 -7 -11 -7q-3 0 -4 1q-24 9 -42 14 q-11 4 -8 14zM406 21q-3 10 8 14q22 6 41 15v0q11 5 15 -5q5 -11 -5 -15q-23 -12 -45 -17h-3q-8 0 -11 8zM406 687q4 11 14 7q24 -8 44 -18v0q10 -6 5 -16q-3 -6 -10 -6q-4 0 -6 1q-20 11 -40 18q-11 3 -7 14zM472 325q5 11 15 5q21 -11 40 -27q9 -7 2 -16q-6 -4 -9 -4 q-4 0 -7 3q-18 13 -37 24v0q-10 6 -4 15zM489 649q5 10 15 4q11 -6 39 -25q10 -5 4 -15q-5 -6 -10 -6q-2 0 -6 2l-19 12.5l-19 12.5q-11 6 -4 15zM490 56q-7 8 3 16q21 16 32 29q7 8 16 1q9 -8 1 -16q-18 -19 -36 -32q-3 -3 -7 -3q-6 0 -9 5zM541 255q-6 9 3 16q11 5 16 -3 q13 -19 20 -45q3 -12 -8 -14h-3q-9 0 -11 8q-4 18 -17 38zM548 136q11 20 12 40q2 12 13 10q12 -2 10 -13q-3 -23 -14 -47q-3 -6 -10 -6q-4 0 -5 1q-10 3 -6 15z" />
<glyph unicode="T" horiz-adv-x="648" d="M50 687q0 13 13 13h52q13 0 13 -13q0 -5 -4 -9t-9 -4h-52q-13 0 -13 13zM154 687q0 13 13 13h52q12 0 12 -13q0 -5 -4 -9t-8 -4h-52q-13 0 -13 13zM257 687q0 13 13 13h11h2h39q13 0 13 -13q0 -5 -4 -9t-9 -4h-28v-39q0 -13 -13 -13t-13 13v39q-11 2 -11 13zM268 13v52 q0 13 13 13q5 0 9 -4t4 -9v-52q0 -13 -13 -13t-13 13zM268 117v52q0 12 13 12q5 0 9 -4t4 -8v-52q0 -13 -13 -13t-13 13zM268 220v52q0 13 13 13q5 0 9 -4t4 -9v-52q0 -5 -4 -9t-9 -4q-13 0 -13 13zM268 324v52q0 13 13 13q5 0 9 -4.5t4 -8.5v-52q0 -13 -13 -13t-13 13z M268 428v52q0 13 13 13q5 0 9 -4.5t4 -8.5v-52q0 -13 -13 -13t-13 13zM268 531v52q0 13 13 13q5 0 9 -4t4 -9v-52q0 -12 -13 -12t-13 12zM361 687q0 13 13 13h52q13 0 13 -13q0 -5 -4.5 -9t-8.5 -4h-52q-13 0 -13 13zM465 687q0 13 13 13h52q13 0 13 -13q0 -5 -4.5 -9 t-8.5 -4h-52q-13 0 -13 13z" />
<glyph unicode="U" horiz-adv-x="814" d="M105 280v19q0 13 13 13q5 0 8.5 -4t3.5 -9v-19q0 -20 2 -30v0q2 -14 -12 -14h-1q-10 0 -13 11q-1 10 -1 33zM105 350v51q0 12 13 12q4 0 8 -3.5t4 -8.5v-51q0 -13 -12 -13q-13 0 -13 13zM105 451v51q0 13 13 13q5 0 8.5 -4t3.5 -9v-51q0 -12 -12 -12q-13 0 -13 12z M105 553v51q0 12 13 12q4 0 8 -4t4 -8v-51q0 -13 -12 -13q-13 0 -13 13zM105 654v33q0 13 13 13q12 0 12 -13v-33q0 -12 -12 -12q-13 0 -13 12zM118 195q-4 13 9 16q5 2 9.5 -1t5.5 -7q10 -29 19 -44q6 -11 -5 -18q-2 -2 -7 -2q-7 0 -10 7q-13 22 -21 49zM168 103q-6 9 2 17 q12 8 17 -2q19 -21 35 -34q11 -7 2 -18q-3 -4 -10 -4q-6 0 -9 3q-16 14 -37 38zM244 52q7 10 18 5q21 -12 45 -19q5 -2 7 -7t0 -9q-2 -9 -12 -9q-3 0 -4 1q-29 8 -48 20q-12 7 -6 18zM338 16q4 13 16 11q10 -2 31 -2h17q12 0 12 -11q1 -6 -2.5 -10t-8.5 -4h-18q-24 0 -35 1 q-12 3 -12 15zM440 18q-2 13 9 15q26 7 45 16q12 5 17 -6q3 -5 1.5 -9.5t-6.5 -6.5q-27 -13 -51 -18q-1 -1 -3 -1q-11 0 -12 10zM534 56q-9 11 2 18q26 20 36 33q8 9 17 0q9 -11 2 -18q-26 -26 -40 -36q-4 -2 -7 -2q-8 0 -10 5zM601 145q10 13 23 43v0q4 11 16 6 q11 -6 6 -16q-10 -28 -24 -47q-4 -7 -10 -7q-3 0 -6 3q-11 7 -5 18zM636 233q4 21 4 47v2q0 12 13 12t13 -12v-2q0 -18 -4 -50q-3 -12 -13 -12q-1 0 -3 1q-12 4 -10 14zM640 332v51q0 13 13 13t13 -13v-51q0 -5 -4 -8.5t-9 -3.5t-9 3.5t-4 8.5zM640 434v50q0 13 13 13 t13 -13v-50q0 -13 -13 -13t-13 13zM640 535v51q0 13 13 13t13 -13v-51q0 -5 -4 -9t-9 -4t-9 4t-4 9zM640 637v50q0 13 13 13t13 -13v-50q0 -13 -13 -13t-13 13z" />
<glyph unicode="V" horiz-adv-x="750" d="M59 681q-6 12 6 16q12 6 16 -6l21 -47q4 -13 -7 -16q-2 -1 -5 -1q-9 0 -11 7zM98 587q-4 11 6 18q11 6 17 -8l20 -46q4 -12 -7 -17h-5q-9 0 -11 8zM137 495q-6 12 6 16q11 4 18 -6l19 -47q6 -12 -6 -16q-3 -1 -5 -1q-9 0 -12 7zM176 401q-4 12 7 17q12 4 17 -7l19 -46 q5 -12 -6 -17q-3 -1 -5 -1q-10 0 -11 7zM215 308q-4 13 8 16q9 6 17 -6l19 -47q4 -12 -7 -17h-2q-2 -1 -3 -1q-9 0 -11 8zM255 215q-5 11 7 17q11 3 17 -8l19 -47q3 -10 -7 -16h-5q-10 0 -11 7zM294 122q-5 10 8 16q10 5 16 -6l19 -47q5 -12 -6 -17q-2 -1 -5 -1q-10 0 -12 8 zM333 28q-4 13 8 16q6 3 13 -2q6 6 13 2q5 -2 7.5 -7t0.5 -9l-8 -18q-2 -7 -8 -10h-9q-2 1 -4 3q-1 0 -1 1l-2 2q-1 1 -1 2zM371 85l19 47q5 11 17 6q12 -6 7 -16l-20 -47q-2 -8 -11 -8q-4 0 -5 1q-11 5 -7 17zM410 177l19 47q6 12 17 8q12 -5 7 -17l-20 -47q-1 -7 -11 -7 h-5q-10 6 -7 16zM450 271l19 47q6 12 16 6q12 -3 8 -16l-21 -47q-2 -8 -11 -8q-1 0 -3 1h-2q-12 6 -6 17zM489 365l19 46q6 10 18 7q10 -5 6 -17l-20 -47q-3 -7 -12 -7q-2 0 -5 1q-11 5 -6 17zM528 458l20 47q6 12 17 6q12 -4 6 -16l-20 -47q-1 -7 -11 -7q-3 0 -6 1 q-10 3 -6 16zM567 551l21 46q2 5 7 7.5t9 0.5q10 -7 6 -16l-20 -47q-2 -8 -11 -8h-5q-11 5 -7 17zM607 644l20 47q4 12 16 6q11 -3 7 -16l-19 -47q-5 -7 -13 -7q-3 0 -5 1q-12 4 -6 16z" />
<glyph unicode="W" horiz-adv-x="1102" d="M63 681q-2 4 0 9t7 7q11 6 17 -6l19 -47q4 -13 -7 -16q-1 -1 -5 -1q-8 0 -11 7zM102 587q-4 11 7 18q11 5 17 -8l19 -46q6 -11 -7 -17h-5q-6 0 -11 8zM141 495q-2 5 0.5 10t7.5 6q12 6 16 -6l19 -47q3 -5 1 -9.5t-7 -6.5q-2 -1 -5 -1q-8 0 -12 7zM182 401q-6 11 6 17 q13 4 16 -7l19 -46q6 -11 -6 -17q-1 -1 -5 -1q-8 0 -11 7zM220 317.5q2 4.5 7 6.5q11 7 17 -6l20 -47q4 -12 -8 -17h-2q-1 -1 -3 -1q-7 0 -11 8l-19 47q-3 5 -1 9.5zM260 215q-5 12 6 17q11 3 17 -8l20 -47q4 -9 -8 -16h-5q-7 0 -11 7zM299 122q-4 11 7 16q10 5 16 -6 l20 -47q5 -11 -7 -17q-2 -1 -5 -1q-7 0 -12 8zM338 28q-4 13 7 16q6 3 13 -2l1 2q3 11 16 7q11 -5 7 -17l-11 -24q-2 -6 -7 -10h-5h-2h-3q-6 3 -8 9zM378 82q-2 5 0 9l20 47q6 11 16 6q11 -3 7 -16l-19 -47q-5 -8 -13 -8q-2 0 -4 2q-5 2 -7 7zM417 185l20 45q6 13 17 8 q11 -6 6 -16l-19 -47q-5 -8 -11 -8h-5q-12 7 -8 18zM456 277l20 47q7 13 17 6q12 -4 6 -16l-19 -47q-4 -8 -11 -8q-2 0 -3 1l-2 1q-12 3 -8 16zM495 371l21 47q4 12 16 6q5 -2 7 -6.5t-1 -9.5l-19 -47q-3 -8 -11 -8q-4 0 -5 1q-12 6 -8 17zM535 465l20 46q4 11 15 7 q9 0 12 -7l20 -46q3 -12 -8 -17q-1 -1 -5 -1q-8 0 -11 7l-10 23l-9 -23q-4 -7 -12 -7q-3 0 -5 1q-12 6 -7 17zM597 417.5q2 4.5 7 6.5q12 5 17 -6l20 -47q6 -11 -8 -17q-1 -1 -5 -1q-8 0 -11 8l-19 47q-3 5 -1 9.5zM637 314q-4 13 7 16q10 6 16 -6l20 -47q2 -4 0 -9t-7 -7 q-1 0 -2.5 -1t-2.5 -1q-6 0 -12 8zM676 222q-4 11 7 16q5 2 10 -0.5t6 -7.5l20 -45q4 -11 -7 -18h-5q-7 0 -12 8zM716 128q-6 12 6 16q12 6 16 -6l21 -47q4 -12 -8 -16q-1 -2 -4 -2q-9 0 -12 8zM755 34q-5 12 6 17q12 4 17 -7v-2q7 5 14 2q12 -4 6 -16l-8 -18q-2 -6 -7 -10 h-10q-6 3 -8 9zM794 85l20 47q6 12 17 6t6 -16l-19 -47q-3 -8 -11 -8q-4 0 -5 1q-11 5 -8 17zM833 177l21 47q4 12 16 8q12 -6 6 -17l-19 -47q-3 -7 -11 -7h-5q-11 7 -8 16zM873 271l20 47q2 5 6.5 7t9.5 -1q13 -4 7 -16l-19 -47q-6 -8 -12 -8q-1 0 -2.5 0.5t-2.5 0.5 q-12 6 -7 17zM913 365l19 46q5 11 17 7q12 -6 6 -17l-19 -47q-4 -7 -11 -7q-4 0 -6 1q-12 6 -6 17zM952 458l19 47q6 12 17 6q5 -2 7 -7t0 -9l-20 -47q-3 -7 -11 -7q-4 0 -5 1q-13 4 -7 16zM992 551l19 46q1 5 6 7.5t10 0.5q11 -7 8 -18l-21 -45q-3 -8 -11 -8h-5 q-12 6 -6 17zM1031 644l19 47q4 12 16 6q12 -3 8 -16l-20 -47q-5 -7 -12 -7q-4 0 -5 1q-12 4 -6 16z" />
<glyph unicode="X" horiz-adv-x="722" d="M78 20l29 41q8 10 18 2q11 -8 2 -17l-29 -41q-2 -5 -10 -5q-5 0 -7 3q-13 5 -3 17zM78 678q-8 12 3 18q8 7 17 -2l14 -21q4 -4 3 -9.5t-5 -7.5q-5 -3 -8 -3q-2 0 -10 5zM122 618q-9 11 3 17q10 8 18 -2l29 -41q10 -12 -3 -17q-1 -3 -7 -3q-7 0 -11 5zM135.5 91.5 q-0.5 5.5 2.5 9.5l29 41q8 9 17 4q12 -8 4 -18l-30 -42q-8 -5 -10 -5q-4 0 -8 3q-4 2 -4.5 7.5zM182 537q-7 8 2 17q12 7 18 -3l30 -41q8 -10 -3 -18q-4 -2 -7 -2q-7 0 -10 5zM197 184l30 40q7 9 18 3q9 -7 3 -18l-31 -41q-3 -5 -10 -5q-5 0 -7 3q-9 7 -3 18zM241 454 q-6 11 3 18q11 7 18 -2l30 -42q7 -9 -3 -18q-2 -1 -7 -1q-8 0 -10 5zM257 265l30 41q7 9 18 3q10 -8 2 -18l-30 -42q-7 -5 -10 -5q-2 0 -4.5 1.5t-3.5 1.5q-8 8 -2 18zM301 372q-8 11 4 18q9 9 16 -3l12 -17l13 17q8 13 18 3q9 -7 3 -18l-17 -24l1 -1q7 -11 -2 -18 q-6 -2 -8 -2q-5 0 -7 1q-3 -1 -8 -1q-4 0 -6 2q-11 7 -4 18l2 2zM362 291q-10 10 2 18q8 7 18 -3l29 -41q8 -10 -3 -18q-6 -3 -7 -3q-5 0 -10 5zM377 428l29 42q8 10 18 2q12 -8 2 -18l-29 -40q-3 -5 -10 -5q-5 0 -8 1q-11 9 -2 18zM421 209q-9 11 3 18q11 7 17 -3l31 -40 q6 -11 -4 -18q-1 -3 -8 -3q-5 0 -10 5zM436 510l29 41q9 10 18 3q11 -9 4 -17l-30 -42q-5 -5 -11 -5q-3 0 -7 2q-11 8 -3 18zM481 128q-7 9 2 18q11 6 18 -4l30 -41q3 -4 2.5 -9.5t-4.5 -7.5q-5 -3 -8 -3t-10 5zM496 592l30 41q7 9 18 2q10 -6 2 -17l-30 -41q-2 -5 -10 -5 q-5 0 -8 3q-10 6 -2 17zM540 46q-7 9 3 17q11 8 17 -2l31 -41q7 -11 -3 -17q-2 -3 -7 -3q-7 0 -11 5zM555 673l15 21q7 9 18 2q9 -7 3 -18l-15 -20q-8 -5 -11 -5q-4 0 -7 3q-11 7 -3 17z" />
<glyph unicode="Y" horiz-adv-x="604" d="M59 678q-8 12 3 18q8 7 17 -2l7 -10q9 -10 -3 -18q-3 -3 -7 -3t-11 5zM96 628q-8 10 2 18q12 5 18 -3l30 -42q7 -9 -2 -16q-3 -3 -8 -3t-10 5zM155 546q-6 10 3 17q11 9 18 -2l30 -41q7 -11 -3 -17q-3 -3 -7 -3q-8 0 -10 5zM215 465q-8 10 4 17q8 7 17 -2l29 -42 q7 -9 -2 -18q-6 -2 -8 -2q-5 0 -10 6zM276 382q-9 11 2 18q9 7 18 -3l21 -30l22 30q8 10 18 3t2 -18l-29 -40v-39q0 -13 -13 -13q-12 0 -12 13v39zM305 13v36q0 13 12 13q13 0 13 -13v-36q0 -13 -13 -13q-12 0 -12 13zM305 100v51q0 12 12 12q13 0 13 -12v-51q0 -13 -13 -13 q-12 0 -12 13zM305 201v51q0 13 12 13q13 0 13 -13v-51q0 -12 -13 -12q-12 0 -12 12zM369 438l29 42q9 9 18 2q11 -8 4 -17l-31 -41q-3 -6 -10 -6q-3 0 -7 2q-10 10 -3 18zM429 520l30 41q7 10 18 2q9 -7 2 -17l-30 -41q-4 -5 -10 -5q-3 0 -8 3q-10 6 -2 17zM488 601l31 42 q5 9 17 3q11 -8 3 -18l-31 -41q-3 -5 -10 -5q-5 0 -7 3q-10 8 -3 16zM548 684l7 10q9 9 18 2q11 -7 3 -18l-7 -10q-5 -5 -10 -5q-2 0 -8 3q-10 7 -3 18z" />
<glyph unicode="Z" horiz-adv-x="667" d="M76 20l29 41q8 10 18 2q11 -8 2 -17l-29 -41q-2 -5 -10 -5q-5 0 -7 3q-13 5 -3 17zM110 13q0 12 13 12h51q4 0 8 -3.5t4 -8.5q0 -13 -12 -13h-51q-13 0 -13 13zM110 686q0 13 13 13h51q12 0 12 -13q0 -5 -4 -9t-8 -4h-51q-13 0 -13 13zM136 101l29 41q8 9 17 4 q12 -8 4 -18l-30 -42q-8 -5 -10 -5q-4 0 -8 3q-11 6 -2 17zM195 184l30 40q7 9 18 3q9 -7 3 -18l-31 -41q-3 -5 -10 -5q-5 0 -7 3q-9 7 -3 18zM212 13q0 12 12 12h51q5 0 8.5 -3.5t3.5 -8.5q0 -13 -12 -13h-51q-12 0 -12 13zM212 686q0 13 12 13h51q12 0 12 -13q0 -5 -4 -9 t-8 -4h-51q-12 0 -12 13zM255 265l30 41q7 9 18 3q10 -8 2 -18l-30 -42q-7 -5 -10 -5q-2 0 -4.5 1.5t-3.5 1.5q-8 8 -2 18zM313 13q0 12 12 12h51q5 0 9 -4t4 -8q0 -13 -13 -13h-51q-12 0 -12 13zM313 686q0 13 12 13h51q13 0 13 -13q0 -4 -4.5 -8.5t-8.5 -4.5h-51 q-12 0 -12 13zM314 347l30 40q8 13 18 3q9 -7 3 -18l-29 -40q-4 -5 -12 -5q-4 0 -6 2q-11 7 -4 18zM375 428l29 42q8 10 18 2q12 -8 2 -18l-29 -40q-3 -5 -10 -5q-5 0 -8 1q-11 9 -2 18zM414 13q0 12 13 12h50q5 0 9 -3.5t4 -8.5q0 -13 -13 -13h-50q-13 0 -13 13zM414 686 q0 13 13 13h50q13 0 13 -13q0 -5 -4 -9t-9 -4h-50q-13 0 -13 13zM434 510l29 41q9 10 18 3q11 -9 4 -17l-30 -42q-5 -5 -11 -5q-3 0 -7 2q-11 8 -3 18zM494 592l30 41q7 9 18 2q10 -6 2 -17l-30 -41q-2 -5 -10 -5q-5 0 -8 3q-10 6 -2 17zM515 13q0 12 13 12h51q5 0 8.5 -3.5 t3.5 -8.5q0 -13 -12 -13h-51q-13 0 -13 13zM515 686q0 13 13 13h51q10 0 12 -11v-2v-2q0 -2 -2 -6l-15 -20q-8 -5 -11 -5q-4 0 -7 3q-9 9 -3 17h-25q-13 0 -13 13z" />
<glyph unicode="[" d="M98 -4q0 14 15 14q14 0 14 -14v-58q0 -2 -1 -4h45q14 0 14 -14q0 -15 -14 -15h-58q-6 0 -10.5 4.5t-4.5 10.5t3 9q-3 5 -3 9v58zM98 54v58q0 14 15 14q14 0 14 -14v-58q0 -15 -14 -15q-6 0 -10.5 4.5t-4.5 10.5zM98 170v57q0 6 4.5 10.5t10.5 4.5q14 0 14 -15v-57 q0 -15 -14 -15q-6 0 -10.5 4.5t-4.5 10.5zM98 285v58q0 6 4.5 10.5t10.5 4.5q14 0 14 -15v-58q0 -14 -14 -14q-15 0 -15 14zM98 401v58q0 6 4.5 10.5t10.5 4.5q14 0 14 -15v-58q0 -14 -14 -14q-15 0 -15 14zM98 517v58q0 14 15 14q14 0 14 -14v-58q0 -14 -14 -14 q-15 0 -15 14zM98 633v58q0 12 13 14h2h2h56q14 0 14 -14q0 -15 -14 -15h-44v-43q0 -15 -14 -15q-6 0 -10.5 4.5t-4.5 10.5zM214 -80q0 14 15 14h25q15 0 15 -14q0 -6 -4.5 -10.5t-10.5 -4.5h-25q-6 0 -10.5 4.5t-4.5 10.5zM214 691q0 14 15 14h25q15 0 15 -14 q0 -6 -4.5 -10.5t-10.5 -4.5h-25q-6 0 -10.5 4.5t-4.5 10.5z" />
<glyph unicode="\" horiz-adv-x="448" d="M64 18l8 20q5 12 17 7q5 -2 7 -7t0 -9l-8 -21q-5 -8 -13 -8q-3 0 -4 1q-12 6 -7 17zM93 85l19 46q2 5 7 7.5t9 0.5q11 -7 8 -18l-21 -45q-2 -9 -11 -9l-2 1h-3q-11 5 -6 17zM132 178l19 47q4 12 16 6q12 -4 8 -16l-20 -47q-3 -8 -12 -8q-4 0 -5 2q-12 4 -6 16zM171 272 l19 46q6 10 16 7q12 -4 8 -17l-20 -46q-3 -8 -12 -8q-3 0 -5 1q-11 5 -6 17zM210 365l19 46q7 11 18 7q12 -4 6 -16l-20 -47q-2 -8 -12 -8h-5q-9 6 -6 18zM249 457l19 47q8 11 18 6q12 -4 6 -16l-20 -47q-2 -7 -11 -7q-1 0 -2.5 0.5t-2.5 0.5q-11 5 -7 16zM288 551l21 47 q3 10 16 6q11 -6 6 -16l-20 -47q-2 -8 -11 -8q-3 0 -5 1q-11 5 -7 17zM328 644l20 47q4 12 16 6q11 -3 7 -16l-21 -47q-1 -7 -11 -7q-3 0 -5 1q-11 6 -6 16z" />
<glyph unicode="]" d="M55 -80q0 14 15 14h25q15 0 15 -14q0 -6 -4.5 -10.5t-10.5 -4.5h-25q-6 0 -10.5 4.5t-4.5 10.5zM55 691q0 14 15 14h25q15 0 15 -14q0 -6 -4.5 -10.5t-10.5 -4.5h-25q-6 0 -10.5 4.5t-4.5 10.5zM139 -80q0 14 14 14h45q-1 2 -1 4v58q0 14 14 14q15 0 15 -14v-58 q0 -4 -3 -9q3 -3 3 -9t-4.5 -10.5t-10.5 -4.5h-58q-14 0 -14 15zM139 691q0 14 14 14h56h2h2q13 -2 13 -14v-58q0 -6 -4.5 -10.5t-10.5 -4.5q-14 0 -14 15v43h-44q-14 0 -14 15zM197 54v58q0 14 14 14q15 0 15 -14v-58q0 -6 -4.5 -10.5t-10.5 -4.5q-14 0 -14 15zM197 170v57 q0 15 14 15q6 0 10.5 -4.5t4.5 -10.5v-57q0 -6 -4.5 -10.5t-10.5 -4.5q-14 0 -14 15zM197 285v58q0 15 14 15q6 0 10.5 -4.5t4.5 -10.5v-58q0 -14 -15 -14q-14 0 -14 14zM197 401v58q0 15 14 15q6 0 10.5 -4.5t4.5 -10.5v-58q0 -14 -15 -14q-14 0 -14 14zM197 517v58 q0 14 14 14q15 0 15 -14v-58q0 -14 -15 -14q-14 0 -14 14z" />
<glyph unicode="_" horiz-adv-x="600" d="M-24 11q0 11 7 11h29q8 0 8 -11q0 -10 -8 -10h-29q-7 0 -7 10zM34 11q0 11 7 11h29q8 0 8 -11q0 -10 -8 -10h-29q-7 0 -7 10zM92 11q0 11 7 11h29q8 0 8 -11q0 -10 -8 -10h-29q-7 0 -7 10z" />
<glyph unicode="a" horiz-adv-x="619" d="M40 245v22q2 12 14 12q6 -1 9.5 -5t1.5 -9v-20q0 -19 2 -28q2 -10 -12 -14h-1q-9 0 -13 11q-1 10 -1 31zM50 319q6 22 20 49q6 9 18 6q8 -7 5 -19q-13 -23 -19 -44q-2 -8 -12 -8h-3q-11 4 -9 16zM53 163q-4 13 9 15q11 4 14 -8q7 -21 21 -42q5 -11 -4 -18q-3 -1 -7 -1 q-7 0 -11 5q-15 28 -22 49zM100 411q15 17 40 37q12 6 17 -3q8 -11 -2 -17q-13 -10 -36 -33q-3 -4 -8 -4q-7 0 -9 2q-7 9 -2 18zM107 72q-9 8 1 18q9 9 18 0q10 -14 35 -32q11 -6 4 -17q-2 -6 -10 -6q-5 0 -8 3q-17 11 -40 34zM180 456q-5 10 6 18q28 11 52 14q12 2 14 -10 q2 -13 -10 -15q-28 -5 -46 -13q-1 0 -2.5 -0.5t-2.5 -0.5q-6 0 -11 7zM188 29q2 5 7 7t9 0q24 -7 46 -11q13 0 11 -14q-4 -11 -13 -11h-1q-34 6 -52 13q-12 4 -7 16zM277 478q2 13 14 13q28 -5 52 -12q12 -3 8 -16q-4 -9 -12 -9q-1 0 -2 1t-2 1q-30 8 -47 9q-11 0 -11 13z M286 11q-2 13 11 16q20 1 46 11q4 2 9 -0.5t7 -7.5q2 -4 -0.5 -9t-7.5 -7q-22 -8 -51 -13h-1q-11 0 -13 10zM374 451q7 12 16 5q24 -15 42 -33q9 -9 0 -18q-3 -4 -9 -4q-5 0 -9 4q-12 12 -36 30q-12 7 -4 16zM382 43q-8 7 2 17q21 14 36 31q8 8 19 1q9 -9 0 -18 q-17 -20 -41 -35q-3 -3 -6 -3q-8 0 -10 7zM444 367q-7 10 3 18q11 6 18 -4q1 -2 14 -24v20q0 13 12 13q13 0 13 -13v-50q0 -13 -13 -13q-5 0 -8 3h-1h-5q-11 0 -12 7q-18 38 -21 43zM449 130q14 28 19 43q2 9 12 9q4 6 11 6q13 0 13 -13v-50q0 -13 -13 -13q-12 0 -12 13v9 q-1 -2 -4.5 -8t-4.5 -9q-4 -6 -12 -6l-6 1q-9 7 -3 18zM479 24v50q0 13 12 13q13 0 13 -13v-50q0 -5 -4 -9t-9 -4q-12 0 -12 13zM479 226v50q0 13 12 13q13 0 13 -13v-50q0 -13 -13 -13q-12 0 -12 13zM479 428v50q0 13 12 13q13 0 13 -13v-50q0 -13 -13 -13q-12 0 -12 13z " />
<glyph unicode="b" horiz-adv-x="660" d="M93 28v51q0 12 13 12q12 0 12 -12v-51q0 -13 -12 -13q-5 0 -9 4t-4 9zM93 129v51q0 13 13 13q12 0 12 -13v-19q0 1 2 1q12 6 16 -6q0 -4 3 -8q4 -13 -7 -16h-2q-2 -1 -3 -1q-6 0 -9 3v-5q0 -12 -12 -12q-5 0 -9 3.5t-4 8.5zM93 231v51q0 12 13 12q12 0 12 -12v-51 q0 -13 -12 -13q-13 0 -13 13zM93 332v51q0 13 13 13q12 0 12 -13v-33q9 18 22 34q7 12 16 4q12 -8 4 -18q-15 -18 -24 -42q-1 -7 -11 -7q-4 0 -5 1q-5 2 -5 3q-3 -5 -9 -5q-5 0 -9 3.5t-4 8.5zM93 434v50q0 13 13 13q12 0 12 -13v-50q0 -13 -12 -13q-13 0 -13 13zM93 535v51 q0 13 13 13q12 0 12 -13v-51q0 -13 -12 -13q-5 0 -9 4t-4 9zM93 637v50q0 13 13 13q12 0 12 -13v-50q0 -13 -12 -13q-13 0 -13 13zM142 93q-7 11 3 17q11 7 18 -2q14 -18 33 -34q9 -10 1 -18q-4 -5 -9 -5q-3 0 -9 2q-19 19 -37 40zM174 407q-8 9 1 18q19 16 44 30 q10 7 17 -5q7 -11 -5 -18q-23 -12 -39 -26q-4 -4 -9 -4t-9 5zM219 42q5 9 17 5q19 -11 45 -17q11 -2 9 -15q-3 -10 -13 -10l-3 1q-26 6 -50 18q-10 8 -5 18zM260 459q-3 13 9 15q27 8 52 8q14 0 14 -12q0 -5 -3.5 -9t-8.5 -4q-21 0 -47 -7h-4q-8 0 -12 9zM315 13q0 5 4 8.5 t9 3.5q20 0 47 5q11 5 15 -8q3 -12 -9 -16q-34 -6 -53 -6q-13 0 -13 13zM361 468q2 11 15 9q33 -8 49 -18q13 -4 7 -16q-6 -8 -12 -8l-2 1h-3q-18 10 -46 17q-13 2 -8 15zM414 30q-4 10 5 18q24 11 40 27q11 7 18 -3q7 -9 -1 -17q-20 -17 -44 -30q-3 -1 -7 -1q-7 0 -11 6z M453 429q7 11 18 2q21 -17 38 -38q7 -10 -3 -18q-2 -2 -7 -2q-7 0 -10 4q-16 20 -35 34q-9 9 -1 18zM491 109q15 19 24 42q7 11 18 6q10 -7 6 -18q-13 -27 -28 -45q-3 -5 -10 -5q-3 0 -7 2q-11 8 -3 18zM514 336q-7 10 5 18q12 4 18 -7q10 -23 18 -50q2 -13 -11 -15h-2 q-12 0 -13 10q-6 24 -15 44zM530 197q6 28 6 44v2q-1 6 2.5 9.5t8.5 3.5q12 0 14 -13v-2q0 -10 -5 -50q-2 -10 -13 -10h-2q-13 3 -11 16z" />
<glyph unicode="c" horiz-adv-x="571" d="M58 246q0 15 2 23q0 11 12 11q12 -2 12 -13v-21v-28q0 -11 -10 -13h-2q-12 0 -12 12q-2 8 -2 29zM70 321q3 11 22 48q6 9 18 5q10 -8 3 -18q-17 -34 -20 -43q-1 -9 -11 -9h-3q-13 4 -9 17zM72 165q-4 13 8 15q12 5 14 -8q13 -28 22 -42q7 -8 -4 -17q-4 -2 -6 -2 q-8 0 -12 6q-15 24 -22 48zM121 401.5q0 5.5 2 9.5q17 17 41 34q10 7 17 -2q7 -11 -2 -18q-26 -20 -37 -31q-3 -4 -8 -4q-6 0 -10 4q-3 2 -3 7.5zM127 76q-8 8 0 17q10 10 18 0q19 -19 38 -30v0q8 -7 2 -18q-1 -5 -10 -5q-5 0 -6 1q-22 15 -42 35zM204 454q-4 12 6 17 q46 13 51 14q13 4 15 -10q0 -10 -10 -14q-22 -5 -45 -14h-6q-10 0 -11 7zM208 34q4 12 16 6q30 -10 47 -13q11 -2 9 -13q0 -12 -12 -12h-1l-1 1q-14 3 -51 14q-11 7 -7 17zM300 478q0 12 13 12q36 -2 53 -5q5 -2 7.5 -7t1.5 -9q-2 -10 -12 -10h-3q-10 3 -47 7v0 q-13 0 -13 12zM306 12q0 14 12 14q27 0 47 5q13 4 15 -9q2 -11 -9 -15q-24 -7 -52 -7v0q-13 0 -13 12zM399 461q9 11 18 5q27 -12 45 -26q4 -2 4.5 -7.5t-2.5 -9.5q-2 -5 -10 -5q-3 0 -7 2q-25 17 -42 24q-11 5 -6 17zM405 31q-6 10 5 17q19 8 41 25v0q9 6 17 -2 q7 -11 -2 -18q-18 -16 -46 -27q-1 -2 -5 -2q-9 0 -10 7z" />
<glyph unicode="d" horiz-adv-x="660" d="M60 241v2q0 13 13 13q12 0 12 -13v-2q0 -9 5 -44q3 -12 -10 -16h-2q-11 0 -13 10q-5 40 -5 50zM66 297q6 26 18 50q5 11 17 7q12 -8 6 -18q-9 -20 -15 -44q-3 -10 -13 -10h-3q-12 2 -10 15zM82 139q-4 11 6 18q12 6 16 -6q12 -23 24 -42q11 -9 -2 -18q-2 -2 -8 -2t-10 5 q-14 20 -26 45zM112 393q17 21 38 38q10 8 18 -2t-3 -18q-19 -17 -33 -34q-3 -4 -10 -4q-5 0 -7 2q-10 7 -3 18zM144 72q8 11 17 3q17 -15 40 -27q11 -7 6 -18q-4 -6 -11 -6q-4 0 -7 1q-24 13 -44 30q-9 9 -1 17zM189 443q-6 12 5 16q22 11 51 18q13 2 15 -9q3 -13 -9 -15 q-27 -7 -45 -17h-2q-2 -1 -3 -1q-8 0 -12 8zM230 22q4 13 16 8q23 -5 47 -5q5 0 9 -3.5t4 -8.5q0 -13 -13 -13q-19 0 -53 6q-12 3 -10 16zM286 470q0 12 12 12q27 0 54 -8q12 -2 9 -15q-4 -9 -12 -9h-4q-26 7 -47 7q-12 0 -12 13zM331 15q-1 5 1.5 9.5t7.5 5.5q29 8 45 17 q12 4 17 -5q5 -10 -6 -18q-22 -12 -49 -18q-2 -1 -4 -1q-9 0 -12 10zM385 450q6 13 16 5q25 -13 45 -30q10 -9 1 -18q-4 -5 -10 -5q-4 0 -8 4q-24 19 -39 26q-12 7 -5 18zM423 56q-7 9 2 18q19 16 33 34q7 9 18 2q4 -2 4.5 -7.5t-2.5 -9.5q-15 -19 -36 -40q-6 -2 -9 -2 q-7 0 -10 5zM461 370q-7 9 2 18q12 7 18 -4q8 -11 22 -35v34q0 13 12 13q13 0 13 -13v-51q0 -5 -4 -8.5t-9 -3.5q-7 0 -10 5q-1 -1 -4 -3q-2 -1 -5 -1q-10 0 -11 7q-11 24 -24 42zM482 148q1 1 3 8q4 12 16 6q0 -1 2 -1v19q0 13 12 13q13 0 13 -13v-51q0 -5 -4 -8.5t-9 -3.5 q-12 0 -12 12v5q-3 -3 -9 -3q-1 0 -3 1h-2q-11 3 -7 16zM503 28v51q0 12 12 12q13 0 13 -12v-51q0 -5 -4 -9t-9 -4q-12 0 -12 13zM503 231v51q0 12 12 12q13 0 13 -12v-51q0 -13 -13 -13q-12 0 -12 13zM503 434v50q0 13 12 13q13 0 13 -13v-50q0 -13 -13 -13q-12 0 -12 13z M503 535v51q0 13 12 13q13 0 13 -13v-51q0 -5 -4 -9t-9 -4q-12 0 -12 13zM503 637v50q0 13 12 13q13 0 13 -13v-50q0 -13 -13 -13q-12 0 -12 13z" />
<glyph unicode="e" horiz-adv-x="609" d="M59 265q3 29 10 51q3 13 16 9q10 -2 8 -15q-6 -19 -8 -38h44q13 0 13 -12t-13 -12h-49q-6 0 -9 3q-14 4 -12 14zM61 212q-3 14 11 14q5 1 9 -2.5t4 -7.5q2 -19 11 -47q3 -10 -8 -16h-3q-10 0 -12 8q-9 24 -12 51zM89 365q11 20 31 44q7 8 17 2q9 -9 1 -19q-7 -8 -28 -38 q0 -8 -9 -8q-1 0 -7 3q-12 6 -5 16zM96 113q-7 12 3 18q11 5 18 -4q9 -18 29 -38q8 -9 -1 -18q-3 -3 -8 -3q-7 0 -10 3q-23 27 -31 42zM156 427q-8 12 3 17q14 11 46 27q12 6 16 -6q5 -12 -6 -17q-13 -5 -42 -23q-3 -3 -7 -3q-6 0 -10 5zM165 55q6 11 18 4q19 -14 41 -21 q5 -2 7 -7t0 -9q-1 -9 -11 -9l-2 1h-3q-30 11 -46 24q-12 5 -4 17zM167 260q0 12 13 12h50q13 0 13 -12t-13 -12h-50q-13 0 -13 12zM245 471q-2 13 10 15q28 4 40 4q9 0 13 -2q12 0 12 -12q-2 -13 -14 -13q-3 2 -11 2q-13 0 -35 -4h-3q-10 0 -12 10zM257 15q0 12 13 12 q8 -2 25 -2q16 0 22 2q13 0 13 -12q2 -5 -1.5 -9.5t-8.5 -4.5q-8 -1 -25 -1q-19 0 -29 1q-12 4 -9 14zM268 260q0 12 12 12h50q13 0 13 -12t-13 -12h-50q-12 0 -12 12zM346 471q2 13 15 9q31 -11 49 -20q9 -6 5 -18q-4 -6 -11 -6q-6 0 -7 1q-26 13 -44 19q-12 4 -7 15z M355 20q-3 12 8 16q15 5 43 21q12 6 17 -5q8 -8 -3 -16q-27 -15 -48 -23h-5q-9 0 -12 7zM368 260q0 12 12 12h51q12 0 12 -12t-12 -12h-51q-12 0 -12 12zM434 409q-9 9 0 18t19 1q15 -15 35 -40q7 -11 -5 -18q-4 -2 -7 -2q-5 0 -10 6q-15 22 -32 35zM442 69q-9 9 0 18 q19 19 30 38q8 8 18 3q10 -6 4 -17q-14 -20 -34 -42q-1 -4 -9 -4q-5 0 -9 4zM469 260q0 12 12 12h38q13 0 13 -12t-13 -12h-38q-12 0 -12 12zM490 333q-6 10 6 16t17 -8q9 -22 14 -50q4 -11 -9 -15h-3q-9 0 -13 10q-2 17 -12 47z" />
<glyph unicode="f" horiz-adv-x="362" d="M65 480q0 12 12 12h51q13 0 13 -12q0 -13 -13 -13h-51q-12 0 -12 13zM141 13v50q0 13 13 13t13 -13v-50q0 -13 -13 -13t-13 13zM141 114v51q0 12 13 12t13 -12v-51q0 -13 -13 -13t-13 13zM141 215v51q0 13 13 13t13 -13v-51q0 -12 -13 -12t-13 12zM141 317v50q0 13 13 13 t13 -13v-50q0 -13 -13 -13t-13 13zM141 418v51q0 12 13 12t13 -12v-51q0 -13 -13 -13t-13 13zM141 520v39v12q2 12 13 12q13 0 13 -13v-11v-39q0 -13 -13 -13t-13 13zM148 624q10 32 28 49q9 9 18 0q9 -11 -1 -18q-13 -12 -20 -38q-3 -9 -12 -9h-4q-11 4 -9 16zM166 480 q0 12 13 12h50q13 0 13 -12q0 -13 -13 -13h-50q-13 0 -13 13zM218 683q-2 4 1.5 8.5t8.5 5.5q16 3 35 3q13 0 13 -13q0 -12 -13 -12q-16 0 -31 -3h-2q-10 0 -12 11z" />
<glyph unicode="g" horiz-adv-x="660" d="M60 223q0 12 11 14q14 0 14 -12q4 -32 9 -47q4 -13 -9 -15q-1 -2 -3 -2q-10 0 -12 10q-9 29 -10 52zM61 277q5 30 13 52q1 5 6 7t9 0q12 -3 8 -16q-7 -20 -10 -47q-3 -10 -13 -10h-1q-14 0 -12 14zM89 122q-4 13 7 16q9 7 16 -5q16 -28 27 -39v0q9 -9 -2 -18q-3 -3 -7 -3 q-7 0 -10 5q-20 24 -31 44zM96 377q18 26 32 42q9 8 18 1q10 -10 0 -19q-16 -17 -29 -38q-1 -5 -10 -5q-5 0 -6 1q-12 7 -5 18zM156 59q7 11 18 2q24 -17 41 -24v0q12 -5 7 -16q-4 -8 -12 -8q-1 0 -2 1h-2q-27 13 -47 27q-9 7 -3 18zM165 436q-6 9 4 17q25 17 48 24 q12 5 17 -8q2 -5 -1 -9.5t-7 -5.5q-27 -11 -43 -21v0q-5 -3 -6 -3q-6 0 -12 6zM219 -185q4 11 16 9q24 -8 47 -8q14 -2 11 -14q0 -11 -11 -11h-1q-18 0 -54 8q-11 4 -8 16zM246 14q4 13 14 10q24 -2 33 -2h16q11 2 13 -12q0 -11 -12 -14h-17q-3 0 -36 3q-13 2 -11 15z M258 476q0 10 11 14q8 1 24 1q17 0 29 -3q6 0 9.5 -4t2.5 -9q-2 -12 -13 -12h-1l-27 3q-14 0 -21 -2v0q-12 -2 -14 12zM319 -196q-1 5 2 9.5t8 5.5q20 3 45 14q12 3 18 -6q5 -12 -7 -17q-23 -11 -51 -16h-3q-10 0 -12 10zM347 15q-3 12 8 17q25 8 44 20v0q8 6 16 -4 q8 -12 -4 -17q-24 -16 -48 -23h-1q-2 -1 -3 -1q-9 0 -12 8zM358 468q5 12 16 8q27 -13 47 -27q11 -6 4 -18q-5 -5 -10 -5q-1 0 -4 1.5t-4 1.5q-14 10 -41 23q-5 2 -7.5 7t-0.5 9zM414 -161q-7 12 2 18q20 16 35 33v0q9 9 17 1q12 -7 3 -18q-18 -20 -39 -36q-4 -3 -8 -3 q-5 0 -10 5zM435 64q-9 8 0 17q18 18 31 38v0q1 4 6.5 5.5t9.5 -1.5q11 -6 4 -18q-14 -24 -33 -41q-3 -4 -9 -4q-5 0 -9 4zM443 397q-9 9 1 18q8 9 18 -1q23 -28 32 -43q4 -13 -5 -17q-6 -2 -7 -2q-8 0 -11 6q-13 22 -28 39zM475.5 -80.5q-1.5 4.5 1.5 9.5q11 18 17 46 q2 11 15 9q13 -4 9 -15q-6 -27 -18 -51q-5 -7 -11 -7q-4 0 -7 2q-5 2 -6.5 6.5zM500 22v2v49q0 12 13 12q5 0 8.5 -3.5t3.5 -8.5v-49v-2q0 -13 -12 -13v0q-13 0 -13 13zM500 123v51q0 13 13 13q4 0 8 -4t4 -9v-51q0 -12 -12 -12q-13 0 -13 12zM500 225v50q0 13 13 13 q5 0 8.5 -4t3.5 -9v-50q0 -13 -12 -13q-13 0 -13 13zM500 326v51q0 13 13 13q4 0 8 -4t4 -9v-51q0 -5 -3.5 -9t-8.5 -4q-13 0 -13 13zM500 428v50q0 13 13 13q5 0 8.5 -4t3.5 -9v-50q0 -13 -12 -13q-13 0 -13 13z" />
<glyph unicode="h" horiz-adv-x="613" d="M93 13v14v2v51q0 5 4 8.5t9 3.5q12 0 12 -12v-67q0 -13 -12 -13q-13 0 -13 13zM93 114v51v2v14q0 5 4 9t9 4q12 0 12 -13v-51v-3v-13q0 -13 -12 -13q-5 0 -9 4t-4 9zM93 215v51v2v14q0 13 13 13q12 0 12 -13v-50v-3v-14q0 -12 -12 -12q-5 0 -9 3.5t-4 8.5zM93 333v51 q0 5 4 8.5t9 3.5q12 0 12 -12v-6q4 0 7 -1q12 -4 6 -16q-8 -23 -11 -46q0 -11 -13 -11h-1q-12 2 -12 15q0 4 1 6q-2 2 -2 8zM93 434v51q0 5 4 8.5t9 3.5q12 0 12 -12v-51q0 -12 -12 -12q-13 0 -13 12zM93 535v51q0 5 4 9t9 4q12 0 12 -13v-51q0 -12 -12 -12q-13 0 -13 12z M93 637v50q0 13 13 13q12 0 12 -13v-50q0 -13 -12 -13q-13 0 -13 13zM135 418q16 20 38 36q11 9 17 -2q10 -8 -2 -18q-16 -11 -33 -33q-6 -4 -10 -4q-5 0 -8 3q-8 7 -2 18zM213 465q-3 10 8 16q21 8 52 13q14 0 14 -12q1 -5 -2.5 -9.5t-9.5 -4.5q-23 -1 -45 -11h-5 q-8 0 -12 8zM312 481q2 12 15 10q32 -7 51 -16q11 -7 6 -18q-3 -6 -11 -6q-4 0 -5 1q-23 10 -46 14q-12 2 -10 15zM406 443q2 4 7.5 4.5t9.5 -3.5q21 -18 36 -40q6 -10 -4 -18q-3 -1 -8 -1q-6 0 -10 5q-12 19 -30 35q-10 9 -1 18zM458 347q-5 12 7 16q11 6 17 -9 q6 -20 8 -53q0 -12 -12 -12q-13 0 -13 12q-1 18 -7 46zM465 13v35q0 13 13 13q12 0 12 -13v-35q0 -5 -3.5 -9t-8.5 -4q-13 0 -13 13zM465 99v50q0 13 13 13q12 0 12 -13v-50q0 -5 -3.5 -9t-8.5 -4q-13 0 -13 13zM465 200v51q0 12 13 12q12 0 12 -12v-51q0 -5 -4 -9t-8 -4 q-13 0 -13 13z" />
<glyph unicode="i" horiz-adv-x="281" d="M94 13v52q0 13 13 13t13 -13v-52q0 -13 -13 -13t-13 13zM94 116v52q0 13 13 13t13 -13v-52q0 -5 -4 -8.5t-9 -3.5t-9 3.5t-4 8.5zM94 220v52q0 13 13 13t13 -13v-52q0 -5 -4 -9t-9 -4t-9 4t-4 9zM94 324v51q0 13 13 13t13 -13v-51q0 -5 -4 -9t-9 -4t-9 4t-4 9zM94 427v52 q0 13 13 13t13 -13v-52q0 -5 -4 -9t-9 -4t-9 4t-4 9zM94 613v24q0 13 13 13t13 -13v-24q0 -13 -13 -13t-13 13z" />
<glyph unicode="j" horiz-adv-x="249" d="M-5 -203q0 14 12 14h2q13 0 13 -14q0 -12 -12 -12h-3q-12 0 -12 12zM42.5 -182.5q-0.5 5.5 3.5 9.5q13 16 13 34v3q0 13 12 13q14 0 14 -13v-3q0 -28 -21 -51q-3 -4 -9 -4q-5 0 -8 4q-4 2 -4.5 7.5zM59 19v52q0 12 12 12q14 0 14 -12v-52q0 -12 -14 -12q-5 0 -8.5 3.5 t-3.5 8.5zM59 -34q0 14 12 14q14 0 14 -14v-50q0 -13 -14 -13q-4 0 -8 4t-4 9v50zM59 121v52q0 13 12 13q14 0 14 -13v-52q0 -12 -14 -12q-5 0 -8.5 3.5t-3.5 8.5zM59 224v52q0 12 12 12q14 0 14 -12v-52q0 -13 -14 -13q-4 0 -8 4t-4 9zM59 326v52q0 12 12 12q14 0 14 -12 v-52q0 -12 -14 -12q-5 0 -8.5 4t-3.5 8zM59 428v53q0 13 12 13q14 0 14 -13v-53q0 -12 -14 -12q-5 0 -8.5 4t-3.5 8zM62 613v25q0 12 12 12q13 0 13 -12v-25q0 -13 -13 -13q-4 0 -8 4t-4 9z" />
<glyph unicode="k" horiz-adv-x="560" d="M93 29v51q0 12 13 12q4 0 8 -4t4 -8v-51q0 -5 -3.5 -9t-8.5 -4q-13 0 -13 13zM93 130v51q0 13 13 13q4 0 8 -4t4 -9v-13l21 22q9 8 17 0q10 -10 0 -18l-35 -37q-2 -2 -3 -2v-3q0 -12 -12 -12q-13 0 -13 12zM93 232v50q0 13 13 13q5 0 8.5 -4t3.5 -9v-50q0 -13 -12 -13 q-13 0 -13 13zM93 333v51q0 12 13 12q4 0 8 -4t4 -8v-51q0 -13 -12 -13q-13 0 -13 13zM93 434v51q0 12 13 12q4 0 8 -3.5t4 -8.5v-51q0 -12 -12 -12q-13 0 -13 12zM93 535v51q0 13 13 13q4 0 8 -4t4 -9v-51q0 -12 -12 -12q-13 0 -13 12zM93 637v50q0 13 13 13q5 0 8.5 -4 t3.5 -9v-50q0 -13 -12 -13q-13 0 -13 13zM174 208q-8 8 0 17l37 36q8 9 17 0q11 -9 0 -18l-36 -35q-4 -4 -9 -4t-9 4zM234 253q-9 11 2 18q8 9 18 -1l31 -40q4 -4 3.5 -9.5t-4.5 -7.5q-2 -3 -9 -3q-5 0 -9 4zM246 278q-9 11 0 18l36 37q8 9 17 0t0 -18l-35 -37q-4 -3 -9 -3 t-9 3zM298 175q-8 12 3 17q8 8 17 -1l32 -39q8 -8 -1 -18q-6 -2 -9 -2q-5 0 -9 5zM317 351q-9 9 0 17l37 36q8 8 17 0q11 -9 0 -18l-35 -35q-3 -4 -10 -4q-5 0 -9 4zM363 97q-7 10 1 18q11 7 19 -2l32 -38q5 -12 -2 -19q-3 -3 -9 -3t-8 5zM389 423q-9 7 0 18l36 35q9 8 17 0 q9 -9 0 -18l-35 -35q-4 -4 -9 -4t-9 4zM427 19q-9 9 1 18q11 8 18 -2l12 -13q7 -10 -2 -18q-3 -4 -7 -4q-5 0 -10 5z" />
<glyph unicode="l" horiz-adv-x="249" d="M100 13v52q0 13 13 13t13 -13v-52q0 -13 -13 -13t-13 13zM100 117v52q0 12 13 12t13 -12v-52q0 -13 -13 -13t-13 13zM100 220v52q0 13 13 13t13 -13v-52q0 -13 -13 -13t-13 13zM100 324v52q0 13 13 13t13 -13v-52q0 -13 -13 -13t-13 13zM100 428v52q0 13 13 13t13 -13 v-52q0 -13 -13 -13t-13 13zM100 531v52q0 13 13 13t13 -13v-52q0 -12 -13 -12t-13 12zM100 635v52q0 13 13 13t13 -13v-52q0 -13 -13 -13t-13 13z" />
<glyph unicode="m" horiz-adv-x="951" d="M93 13v10v2v38v2v11q0 4 3.5 8t9.5 4q5 0 8.5 -4t3.5 -8v-11v-2v-50q0 -13 -12 -13q-13 0 -13 13zM93 113v50v2v11q0 12 13 12q12 0 12 -12v-11v-2v-50q0 -13 -12 -13q-13 0 -13 13zM93 213v50v2v11q0 12 13 12q12 0 12 -12v-11v-2v-50q0 -12 -12 -12q-13 0 -13 12z M93 326v50q0 12 13 12q12 0 12 -12v-2h7q10 -5 6 -16q-11 -28 -11 -46q-4 -11 -13 -11h-1q-14 0 -12 14v4q-1 2 -1 7zM93 426v51q0 12 13 12q12 0 12 -12v-51q0 -13 -12 -13q-13 0 -13 13zM134 413q24 26 37 37q13 7 18 -2q8 -11 -2 -18q-20 -15 -32 -33q-5 -5 -10 -5 q-2 0 -4.5 1t-3.5 1q-10 8 -3 19zM212 459q-5 13 7 16q23 10 52 13q12 2 14 -11q0 -12 -12 -14q-21 -1 -45 -10l-4 -2q-10 0 -12 8zM311 475q0 11 14 11q25 -4 50 -17q12 -4 6 -16q-3 -8 -11 -8q-4 0 -6 1q-11 6 -43 16q-14 2 -10 13zM402 439q8 8 17 1q20 -19 36 -41 q6 -11 -4 -16q-1 -2 -6 -2q-8 0 -11 4q-9 16 -31 36q-9 8 -1 18zM453 344q-2 13 9 15q6 2 10 -1q0 1 2 4t2 5q4 11 16 7q10 -5 6 -16q-8 -24 -11 -46q0 -4 -2 -6v-8q1 -5 -2.5 -8.5t-7.5 -3.5h-1q-11 0 -13 11q0 23 -8 47zM461 13v50q0 13 13 13q11 0 11 -13v-10q2 -4 2 -7 v-33q0 -13 -11 -13h-2h-2q-11 0 -11 13zM461 113v50q0 5 4 9t9 4q11 0 11 -13v-9q2 -4 2 -6v-51q0 -5 -4 -8.5t-8 -3.5q-13 0 -13 12v10q-1 2 -1 6zM461 213v50q0 5 4 9t9 4q11 0 11 -13v-9q2 -4 2 -6v-49q0 -6 -4 -9.5t-8 -3.5q-13 0 -13 13v9q-1 1 -1 5zM501 413 q24 26 40 37q8 7 17 -2q6 -10 -2 -18q-21 -16 -34 -33q-5 -5 -11 -5q-1 0 -3.5 1t-3.5 1q-8 8 -3 19zM579 459q-3 12 8 16q23 10 51 13q14 2 14 -11q2 -12 -12 -14q-20 -2 -44 -10q-1 -2 -5 -2q-7 0 -12 8zM677 475q1 11 15 11q28 -5 51 -17q10 -3 6 -16q-3 -8 -11 -8 q-4 0 -6 1q-14 9 -45 16q-12 2 -10 13zM770 439q9 9 18 1q13 -13 35 -41q6 -10 -4 -16q-2 -2 -8 -2t-10 4q-9 16 -29 36q-11 7 -2 18zM822 344q-2 4 0 9t7 6q12 5 16 -7q8 -29 9 -54q0 -12 -12 -12q-13 0 -13 11q-1 17 -7 47zM829 13v35q0 12 13 12q4 0 8 -4t4 -8v-35 q0 -13 -12 -13q-13 0 -13 13zM829 97v51q0 13 13 13q4 0 8 -4t4 -9v-51q0 -12 -12 -12q-13 0 -13 12zM829 199v49q0 12 13 12q4 0 8 -4t4 -8v-49q0 -13 -12 -13q-13 0 -13 13z" />
<glyph unicode="n" horiz-adv-x="613" d="M93 13v9v3v38v2v11q0 12 13 12q4 0 8 -4t4 -8v-11v-2v-38v-3v-9q0 -13 -12 -13q-13 0 -13 13zM93 113v50v2v11q0 12 13 12q4 0 8 -4t4 -8v-51v-3v-9q0 -12 -12 -12q-13 0 -13 12zM93 213v51v2v10q0 13 13 13q5 0 8.5 -4t3.5 -9v-63q0 -12 -12 -12q-13 0 -13 12zM93 327 v50q0 12 13 12q4 0 8 -3.5t4 -8.5v-2q3 0 5 -1q11 -4 8 -16q-11 -24 -11 -45q-3 -11 -13 -11h-1q-14 0 -12 14v4q-1 2 -1 7zM93 427v50q0 13 13 13q5 0 8.5 -4t3.5 -9v-50q0 -13 -12 -13q-13 0 -13 13zM134 414q18 21 38 37q10 8 18 -2q6 -11 -3 -18q-21 -17 -34 -33 q-3 -5 -10 -5q-1 0 -3.5 1t-3.5 1q-10 10 -2 19zM213 460q-5 12 5 16q29 10 53 13q12 2 14 -12q0 -10 -11 -14q-11 0 -47 -9q-1 -2 -3 -2q-11 0 -11 8zM311 476q0 12 13 10q20 -2 52 -16q11 -4 5 -16q-3 -8 -12 -8q-4 0 -4 1q-6 3 -45 16q-5 0 -8 4t-1 9zM402 440q8 6 18 1 q20 -20 35 -41q7 -12 -4 -18q-2 -1 -6 -1q-8 0 -12 5q-8 14 -30 36q-9 7 -1 18zM453 344q-4 13 10 15q4 2 8.5 0t5.5 -7q9 -32 9 -53q0 -12 -11 -14h-1q-5 0 -9 3.5t-4 8.5q0 23 -8 47zM461 13v33q0 13 13 13q12 0 12 -13v-33q0 -13 -12 -13q-13 0 -13 13zM461 97v50 q0 13 13 13q12 0 12 -13v-50q0 -13 -12 -13q-13 0 -13 13zM461 197v51q0 12 13 12q12 0 12 -12v-51q0 -12 -12 -12q-5 0 -9 3.5t-4 8.5z" />
<glyph unicode="o" horiz-adv-x="625" d="M70 239v6q0 27 5 46q1 5 5.5 8.5t8.5 2.5q12 -3 10 -16q-4 -28 -4 -41v-5q0 -14 -11 -14h-1q-13 0 -13 13zM76 186q-2 11 10 15q4 2 9 -1t6 -8q6 -24 15 -45q3 -5 1 -9.5t-7 -6.5q-1 -2 -5 -2q-6 0 -11 8q-8 15 -18 49zM89 342q18 37 25 46q6 11 18 4q10 -6 3 -18 q-14 -21 -22 -41v0q-5 -9 -12 -9l-4 1q-13 6 -8 17zM122 92q-9 8 2 17q8 7 17 -2q7 -10 33 -36q8 -5 2 -17q-6 -4 -11 -4q-1 0 -3.5 1t-3.5 1q-24 20 -36 40zM148 411q-7 9 1 17q18 18 43 32q4 2 9.5 1t6.5 -5q6 -10 -4 -18q-11 -6 -39 -27q-3 -4 -7 -4q-7 0 -10 4zM195 40 q7 11 18 6q18 -9 44 -16q14 -2 10 -15q-2 -10 -12 -10h-3q-34 9 -50 19q-11 5 -7 16zM232 465q-4 13 9 16q24 7 52 9q13 0 13 -13q0 -12 -13 -12q-30 -4 -46 -8l-3 -1q-10 0 -12 9zM293 13q-1 4 2.5 8t8.5 4q26 0 47 6q11 3 16 -9q0 -12 -9 -16q-36 -6 -53 -6v0 q-12 0 -12 13zM331 475q2 12 15 10q28 -6 51 -17q11 -5 5 -17q-4 -7 -11 -7q-5 0 -5 2q-17 7 -44 15q-13 3 -11 14zM389 31q-4 10 5 18q28 16 39 27q10 8 18 -2q9 -9 -2 -17q-16 -16 -42 -30q-3 -2 -7 -2q-8 0 -11 6zM423 438q8 9 17 2q21 -15 38 -38q9 -8 -1 -18 q-4 -2 -9 -2t-10 5q-12 17 -32 34q-9 7 -3 17zM465 111q11 13 24 41q4 11 16 6q11 -4 7 -16q-7 -16 -26 -47q-5 -5 -10 -5q-2 0 -4.5 1.5t-3.5 1.5q-11 8 -3 18zM484 346q-5 11 5 17q11 7 18 -5q12 -27 18 -49q2 -12 -9 -16h-4q-9 0 -11 10q-6 23 -17 43zM503 197q4 20 4 48 v10q0 11 13 14q13 0 13 -13v-11q0 -27 -6 -53q-2 -10 -13 -10h-2q-11 2 -9 15z" />
<glyph unicode="p" horiz-adv-x="660" d="M93 -2v51q0 12 13 12q12 0 12 -12v-51q0 -12 -12 -12q-5 0 -9 3.5t-4 8.5zM93 -52q0 12 13 12q12 0 12 -12v-51q0 -13 -12 -13q-5 0 -9 4t-4 9v51zM93 99v51q0 13 13 13q6 0 9 -5q1 1 5 3q12 6 16 -6q7 -17 24 -42q8 -11 -2 -17q-4 -3 -8 -3q-8 0 -10 5q-11 12 -22 36 v-35q0 -12 -12 -12q-5 0 -9 3.5t-4 8.5zM93 -154q0 13 13 13q12 0 12 -13v-50q0 -13 -12 -13q-13 0 -13 13v50zM93 201v50q0 13 13 13q12 0 12 -13v-50q0 -13 -12 -13q-13 0 -13 13zM93 302v51q0 12 13 12q12 0 12 -12v-6q6 8 14 3q11 -3 7 -16q-3 -4 -3 -7q-3 -7 -11 -7 q-4 0 -5 1q-2 0 -2 1v-20q0 -13 -12 -13q-5 0 -9 4t-4 9zM93 403v51q0 13 13 13q12 0 12 -13v-51q0 -12 -12 -12q-5 0 -9 3.5t-4 8.5zM142 391q16 18 37 38q10 8 18 -2q4 -4 3.5 -9.5t-4.5 -7.5q-21 -19 -33 -36q-6 -4 -11 -4t-7 3q-8 6 -3 18zM170.5 67.5q-0.5 5.5 3.5 9.5 q9 9 18 1q13 -13 39 -28q5 -2 6.5 -6.5t-1.5 -9.5q-3 -8 -11 -8q-2 0 -7 3q-24 11 -43 30q-4 3 -4.5 8.5zM218 441q-4 12 7 17q21 13 49 19q13 2 15 -9q4 -11 -9 -17q-13 -2 -44 -15q-4 -2 -6 -2q-8 0 -12 7zM260 24q1 5 5.5 7.5t9.5 0.5q30 -6 47 -6q5 0 9 -4t4 -9 q0 -12 -13 -12q-16 0 -53 7q-13 3 -9 16zM315 470q0 5 3.5 9t8.5 4q21 0 53 -6q13 -6 9 -16q-2 -10 -11 -10h-4q-26 7 -47 7q-12 0 -12 12zM360 16q-1 4 1.5 9t7.5 6q20 4 46 15q10 5 16 -6q7 -11 -5 -16q-27 -13 -51 -18h-4q-9 0 -11 10zM413 451q6 11 18 7q26 -16 44 -31 q4 -2 4 -7.5t-2 -9.5q-4 -4 -11 -4q-5 0 -7 2q-24 18 -39 27q-11 6 -7 16zM450 63.5q0 5.5 4 8.5q22 18 34 34q8 10 18 2q9 -9 2 -17q-17 -21 -38 -38q-3 -4 -7 -4q-6 0 -11 5q-2 4 -2 9.5zM490 373q-6 11 3 18q10 9 18 -3q16 -20 28 -46q4 -11 -7 -16q-2 -1 -5 -1 q-9 0 -12 7q-14 28 -25 41zM511.5 136.5q-1.5 4.5 1.5 9.5q11 21 15 46q4 12 16 9q12 -4 10 -15q-9 -34 -18 -50q-3 -7 -11 -7q-4 0 -7 1q-5 2 -6.5 6.5zM530 287q-4 13 10 15q9 2 15 -10q5 -28 5 -51v-2q-2 -13 -13 -13h-1q-5 0 -8.5 4t-2.5 9v2q0 9 -5 46z" />
<glyph unicode="q" horiz-adv-x="660" d="M60 241v2q0 30 5 51q2 12 14 10t10 -15q-4 -28 -4 -46v-2q0 -5 -3.5 -9t-8.5 -4q-13 0 -13 13zM66 188q-3 11 9 15q5 1 9.5 -1.5t5.5 -7.5q6 -26 16 -46q6 -12 -5 -16q-3 -1 -7 -1q-8 0 -11 7q-10 19 -17 50zM80 344q12 26 28 46q7 11 18 3q9 -7 2 -18q-14 -18 -24 -41 q-3 -7 -11 -7q-4 0 -6 1q-11 5 -7 16zM111 93q-7 8 2 17q11 9 18 -2q15 -19 34 -34q9 -8 1 -18q-3 -4 -10 -4q-5 0 -7 3q-21 17 -38 38zM142 412q-9 11 2 17q14 13 44 31q12 4 18 -7q4 -10 -5 -16q-17 -8 -41 -27q-1 -2 -8 -2q-6 0 -10 4zM187 32.5q-2 4.5 1 9.5q4 12 16 6 q27 -12 46 -15q5 -1 7.5 -6t1.5 -9q-3 -10 -12 -10h-3q-29 7 -50 18q-5 2 -7 6.5zM230 463q-4 10 8 16q36 6 54 6q5 0 8.5 -4t3.5 -9q0 -12 -12 -12q-21 0 -47 -7h-4q-9 0 -11 10zM284 15q0 13 13 13q15 0 47 6q11 5 15 -8q4 -12 -9 -16q-24 -7 -52 -7h-1q-13 0 -13 12z M330 470q2 11 15 9q27 -6 50 -19q11 -5 6 -17q-4 -7 -12 -7q-3 0 -5 2q-34 14 -46 15q-11 5 -8 17zM381.5 45.5q1.5 4.5 6.5 6.5q26 15 39 28q9 8 18 -1q4 -4 3.5 -9.5t-4.5 -8.5q-19 -19 -43 -30q-5 -3 -7 -3q-8 0 -11 8q-3 5 -1.5 9.5zM418.5 419.5q-0.5 5.5 3.5 9.5 q9 11 18 2q21 -18 36 -40q7 -8 -2 -17q-4 -3 -8 -3q-2 0 -10 5q-15 20 -33 36q-4 2 -4.5 7.5zM459 115q11 15 24 42q4 12 16 6q2 -1 4 -3q3 5 10 5q13 0 13 -13v-51q0 -4 -4 -8t-9 -4q-12 0 -12 12v34q-10 -20 -22 -35q-4 -5 -10 -5q-5 0 -6 3q-12 5 -4 17zM480 336 q-4 13 7 16q7 4 14 -3v6q0 12 12 12q13 0 13 -12v-51q0 -4 -4 -8.5t-9 -4.5q-12 0 -12 13v20l-2 -1q-1 -1 -5 -1q-8 0 -11 7q0 3 -3 7zM501 0v51q0 12 12 12q13 0 13 -12v-51q0 -4 -4 -8t-9 -4q-12 0 -12 12zM501 -50q0 12 12 12q13 0 13 -12v-51q0 -5 -4 -9t-9 -4 q-12 0 -12 13v51zM501 -152q0 13 12 13q13 0 13 -13v-50q0 -5 -4 -9t-9 -4q-12 0 -12 13v50zM501 203v50q0 13 12 13q13 0 13 -13v-50q0 -5 -4 -9t-9 -4q-12 0 -12 13zM501 405v51q0 13 12 13q5 0 9 -4t4 -9v-51q0 -4 -4 -8t-9 -4q-12 0 -12 12z" />
<glyph unicode="r" horiz-adv-x="439" d="M93 13v51q0 14 13 14q5 0 9 -4.5t4 -9.5v-51q0 -13 -13 -13t-13 13zM93 116v52q0 13 13 13q5 0 9 -4t4 -9v-52q0 -5 -4 -9t-9 -4q-13 0 -13 13zM93 219v22v1v29q0 13 13 13h2l4 8q4 12 16 7q12 -3 8 -17q-10 -22 -17 -43v-20q0 -12 -13 -12t-13 12zM93 323v51q0 14 13 14 q5 0 9 -4.5t4 -9.5v-51q0 -13 -13 -13t-13 13zM93 426v52q0 13 13 13q4 0 8.5 -4.5t4.5 -8.5v-52q0 -13 -13 -13t-13 13zM135 339q18 32 29 46q7 10 18 3q9 -9 3 -19q-13 -18 -27 -41q-5 -8 -12 -8l-6 3q-12 4 -5 16zM199 406q-9 11 0 20l43 34q12 4 18 -6q3 -4 1.5 -9.5 t-5.5 -7.5q-19 -11 -39 -31q-3 -3 -9 -3q-4 0 -9 3zM283 466q-4 12 9 15q23 7 54 10q5 0 9 -4t4 -9q0 -13 -13 -13q-32 -4 -47 -8q0 -1 -3 -1q-11 0 -13 10z" />
<glyph unicode="s" horiz-adv-x="492" d="M52 381q4 28 23 51q9 11 18 2q9 -7 2 -18q-15 -18 -18 -39q-2 -10 -13 -10h-1q-13 2 -11 14zM61 325v0q-5 10 5 17q12 5 17 -6q12 -19 31 -31q10 -8 3 -17q-3 -6 -10 -6q-3 0 -7 2q-25 16 -39 41zM77 59q7 10 18 5q20 -12 43 -21v0q10 -5 7 -17q-3 -8 -12 -8q-1 0 -2 0.5 t-2 0.5q-24 10 -47 23q-10 7 -5 17zM113 450q-8 12 5 17q26 14 50 19v0q11 4 15 -9q2 -13 -10 -15q-21 -5 -43 -17q-4 -2 -6 -2q-8 0 -11 7zM140 277q4 12 16 7q16 -6 47 -13q5 -1 7.5 -5.5t1.5 -9.5q-2 -10 -12 -10q-2 0 -3 1q-34 8 -50 14q-12 4 -7 16zM169 19q2 13 15 11 q16 -3 34 -3h13v0q13 0 13 -12q0 -13 -12 -13q-2 0 -7 -0.5t-7 -0.5q-13 0 -39 4q-12 2 -10 14zM208 479q0 5 4 9t9 3q26 0 52 -8v0q13 -4 9 -16q-4 -9 -12 -9q-3 0 -4 1q-25 7 -46 7q-12 0 -12 13zM237 252q4 12 15 9q28 -8 50 -16q11 -4 7 -16q-3 -8 -12 -8q-3 0 -5 1 q-26 9 -46 14q-13 4 -9 16zM269 19q-3 12 8 16q21 7 43 20q11 5 17 -4q7 -11 -4 -18q-17 -11 -48 -22h-4q-9 0 -12 8zM305 457q5 11 17 5q16 -9 44 -27v0q9 -7 3 -17q-3 -6 -10 -6q-3 0 -7 2q-33 21 -42 26q-11 5 -5 17zM331 217q7 10 18 3q26 -21 36 -42q6 -12 -5 -17 q-2 -1 -6 -1q-8 0 -11 7q-9 17 -29 33q-11 7 -3 17zM353 85q14 21 17 40q0 5 4.5 8.5t9.5 2.5q11 -2 11 -14q-5 -29 -22 -52q-3 -5 -10 -5q-4 0 -7 3q-11 7 -3 17z" />
<glyph unicode="t" horiz-adv-x="400" d="M42 478q0 13 13 13h50q13 0 13 -13q0 -12 -13 -12h-50q-13 0 -13 12zM127 75v3q0 13 13 13t13 -13v-3q0 -20 13 -35q9 -9 0 -18q-4 -3 -9 -3q-6 0 -9 4q-21 23 -21 52zM127 129v50q0 13 13 13t13 -13v-50q0 -13 -13 -13t-13 13zM127 230v51q0 12 13 12t13 -12v-51 q0 -13 -13 -13t-13 13zM127 331v51q0 13 13 13t13 -13v-51q0 -12 -13 -12t-13 12zM127 433v50q0 13 13 13t13 -13v-50q0 -13 -13 -13t-13 13zM127 534v51q0 12 13 12t13 -12v-51q0 -13 -13 -13t-13 13zM127 635v51q0 13 13 13t13 -13v-51q0 -12 -13 -12t-13 12zM162 478 q0 13 13 13h50q13 0 13 -13q0 -12 -13 -12h-50q-13 0 -13 12zM189 12q0 12 13 12h2q12 0 12 -13q0 -12 -12 -12h-2q-13 0 -13 13z" />
<glyph unicode="u" horiz-adv-x="613" d="M83 191q0 13 13 13q12 0 12 -13q4 -32 8 -45q3 -13 -8 -16h-3q-10 0 -13 8q-8 26 -9 53zM83 242v49q0 13 13 13q12 0 12 -13v-49q0 -13 -12 -13q-13 0 -13 13zM83 342v50q0 13 13 13q12 0 12 -13v-50q0 -13 -12 -13q-13 0 -13 13zM83 443v35q0 5 4 8.5t9 3.5q12 0 12 -12 v-35q0 -13 -12 -13q-13 0 -13 13zM115 89q-8 9 3 18q11 7 18 -4q17 -24 31 -35q9 -9 0 -18q-4 -4 -8 -4q-7 0 -9 3q-22 19 -35 40zM189 36q6 14 16 5q23 -10 45 -14q5 0 8.5 -4.5t1.5 -9.5q-1 -10 -12 -10h-3q-29 5 -50 16q-12 6 -6 17zM285 11q-2 14 12 14q27 3 45 11 q10 5 16 -7q5 -12 -8 -16q-17 -7 -51 -13h-1q-13 0 -13 11zM381 41q-9 9 2 18q19 13 33 33q9 9 18 3q9 -9 2 -19q-17 -22 -37 -37q-3 -3 -8 -3q-7 0 -10 5zM440 132q5 15 11 45v0q4 11 14 11q11 -2 11 -14q-3 -31 -14 -52q-2 -8 -11 -8q-3 0 -5 2q-11 4 -6 16zM453 226v51 q0 12 12 12q5 0 9 -3.5t4 -8.5v-51q0 -12 -13 -12q-12 0 -12 12zM453 327v50q0 12 12 12q5 0 9 -3.5t4 -8.5v-50q0 -13 -13 -13q-12 0 -12 13zM453 427v51q0 12 12 12q5 0 9 -3.5t4 -8.5v-51q0 -12 -13 -12q-12 0 -12 12z" />
<glyph unicode="v" horiz-adv-x="582" d="M56 470q-5 12 6 16q10 5 16 -6l20 -46q5 -10 -7 -16q-2 -1 -5 -1q-8 0 -12 7zM94 378q-5 11 7 16q12 6 16 -6l20 -46q5 -11 -8 -17q-1 -1 -5 -1q-7 0 -11 7zM133 285q-3 13 7 16q9 7 16 -5l19 -47q5 -11 -7 -16l-2 -1q-1 -1 -2 -1q-8 0 -12 9zM172 194q-6 12 6 16 q13 4 16 -7l20 -45q4 -12 -7 -18h-4q-9 0 -12 7zM211 101q-5 12 6 16q12 6 16 -6l20 -46q6 -12 -6 -16q-3 -1 -5 -1q-9 0 -13 7zM249 9q-4 11 7 16q3 2 8 0h3q11 -6 8 -16l-1 -1q-2 -5 -7 -7q-1 -1 -3 -1h-2h-2q-3 0 -3 1h-1q-1 1 -2 1q-2 2 -4 6zM270 55.5q-2 4.5 1 9.5 l18 46q6 12 17 6q12 -4 7 -16l-20 -46q-3 -7 -11 -7q-4 0 -5 1q-5 2 -7 6.5zM309 158l19 45q3 11 16 7q12 -3 8 -16l-20 -47q-4 -7 -11 -7h-5q-10 6 -7 18zM349 249l18 47q6 10 17 7q10 -7 7 -18l-20 -45q-2 -9 -11 -9q-1 0 -3 1t-3 1q-10 6 -5 16zM387 342l19 46q4 12 16 6 q12 -4 8 -16l-21 -47q-1 -7 -11 -7q-3 0 -5 1q-11 5 -6 17zM426 434l18 46q8 10 18 6q11 -4 6 -16l-19 -46q-3 -7 -12 -7q-4 0 -5 1q-11 6 -6 16z" />
<glyph unicode="w" horiz-adv-x="861" d="M61 471q-6 12 7 16q11 6 17 -6l19 -46q5 -11 -8 -17q0 -1 -4 -1q-7 0 -12 8zM101 379q-5 10 6 16q13 4 16 -7l20 -46q4 -12 -7 -17h-5q-8 0 -11 7zM139 286q-4 12 6 17q11 5 17 -7l20 -47q5 -10 -8 -16l-2 -1h-3q-6 0 -11 9zM178 194q-4 12 7 17q13 4 16 -8l20 -45 q3 -12 -8 -17h-3q-10 0 -13 7zM217 101q-3 12 6 17q12 4 17 -7l20 -46q4 -13 -8 -16q-1 -1 -4 -1q-8 0 -12 7zM256 8v1q-5 10 6 16h1q-2 5 1 9l18 45q6 11 18 8q12 -6 6 -17l-20 -46q-2 -6 -6 -7q4 -13 -6 -16q-3 -1 -5 -1q-10 0 -13 8zM302 125l21 46q4 13 16 8 q11 -5 6 -17l-20 -46q-2 -8 -12 -8h-1q-2 1 -3 1q-11 3 -7 16zM341 218l20 47q5 10 17 6q10 -6 5 -17l-19 -46q-3 -8 -11 -8q-3 0 -5 2q-11 3 -7 16zM380 311l20 46q2 7 11 7q10 2 14 -7l19 -46q7 -12 -7 -16q0 -2 -5 -2q-6 0 -11 8l-9 20l-8 -20q-3 -8 -13 -8q-2 0 -5 2 q-10 3 -6 16zM440 254q-6 11 8 17q11 4 16 -6l19 -47q6 -12 -7 -16q-1 -2 -4 -2q-9 0 -12 8zM480 162q-6 11 6 17q11 5 17 -8l18 -46q3 -5 1 -9.5t-7 -6.5l-1 -1h-4q-6 0 -11 8zM519 70q-7 11 6 17q13 4 17 -8l20 -45q1 -3 -1 -9h1q12 -6 7 -16l-1 -1q-5 -8 -11 -8 q-4 0 -6 1q-12 4 -6 16q-6 2 -7 7zM565 65l19 46q3 11 16 7q13 -6 8 -17l-20 -46q-3 -7 -11 -7q-4 0 -5 1q-11 3 -7 16zM605 158l18 45q4 12 17 8q11 -5 7 -17l-20 -46q-1 -7 -11 -7h-5q-12 6 -6 17zM643 249l19 47q2 5 6.5 7t9.5 -1q14 -4 8 -16l-21 -45q-2 -9 -11 -9h-2 q-2 1 -3 1q-11 6 -6 16zM682 342l18 46q7 10 17 7q12 -5 7 -16l-19 -47q-3 -7 -12 -7h-4q-13 5 -7 17zM721 435l19 46q5 10 17 6t6 -16l-20 -46q-2 -8 -11 -8q-2 0 -5 1q-11 5 -6 17z" />
<glyph unicode="x" horiz-adv-x="570" d="M71 21l31 41q7 10 18 3q10 -7 3 -18l-31 -42q-4 -5 -11 -5q-5 0 -8 3q-9 5 -2 18zM85 468q-7 12 3 19t18 -3l32 -42q6 -11 -3 -18q-3 -3 -8 -3q-7 0 -10 6zM132 104l32 43q6 11 18 3q9 -9 3 -18l-30 -43q-6 -6 -12 -6q-1 0 -7 3q-12 8 -4 18zM147 385q-7 10 2 17 q13 9 18 -2l32 -42q8 -10 -3 -19q-4 -2 -8 -2q-5 0 -10 5zM195 189l30 42q3 5 8.5 6t9.5 -4q12 -5 3 -18l-30 -41q-3 -6 -11 -6q-1 0 -4 1.5t-4 1.5q-11 7 -2 18zM208 300q-8 13 4 18q8 8 18 -2l28 -40l28 40q10 10 19 2q11 -6 3 -18l-31 -41q-3 -6 -10 -6q-6 0 -8 2h-1 q-3 -2 -8 -2q-6 0 -11 6zM270 215q-9 12 3 18q10 10 18 -2l31 -42q8 -12 -3 -18q-6 -3 -8 -3q-7 0 -11 6zM317 358l32 42q7 11 18 2q9 -6 3 -17l-32 -43q-3 -5 -10 -5q-2 0 -8 2q-9 9 -3 19zM332 132q-7 9 3 18q10 8 18 -3l31 -43q8 -10 -4 -18q-3 -3 -7 -3q-7 0 -11 6z M379 442l32 42q6 10 18 3q9 -7 2 -19l-31 -41q-4 -6 -10 -6t-8 3q-10 7 -3 18zM393 47q-6 11 3 18q12 8 18 -3l32 -41q6 -13 -3 -18q-3 -3 -8 -3q-7 0 -10 5z" />
<glyph unicode="y" horiz-adv-x="588" d="M52 195q0 12 13 12q12 0 12 -12q0 -24 8 -46q4 -13 -9 -16h-4q-10 0 -11 9q-9 29 -9 53zM52 245v51q0 13 13 13q12 0 12 -13v-51q0 -5 -3.5 -8.5t-8.5 -3.5q-13 0 -13 12zM52 347v50q0 13 13 13q12 0 12 -13v-50q0 -5 -3.5 -9t-8.5 -4q-13 0 -13 13zM52 448v35 q0 13 13 13q5 0 8.5 -4t3.5 -9v-35q0 -5 -4 -9t-8 -4q-13 0 -13 13zM84 92q-7 12 3 18q11 6 18 -4q15 -22 31 -35q10 -9 1 -18q-5 -5 -10 -5q-4 0 -8 4q-17 14 -35 40zM143 -180q5 12 15 9q16 -4 48 -8q12 0 12 -12q0 -5 -4 -9t-9 -4q-29 2 -53 9q-11 4 -9 15zM158 39 q6 11 17 5q23 -10 44 -14q12 -1 10 -15q-2 -10 -11 -10h-3q-27 6 -52 16q-11 7 -5 18zM243 -190q-2 13 10 15q23 4 46 14q12 6 16 -6q5 -12 -6 -17q-22 -9 -51 -16h-2q-11 0 -13 10zM255 14q0 14 11 14q28 4 47 11q10 5 15 -8q4 -11 -6 -16q-23 -8 -54 -13h-1q-10 0 -12 12z M338 -155q-10 10 3 18q24 20 34 33q8 10 18 1q10 -8 1 -17q-22 -25 -38 -37q-1 0 -3.5 -1.5t-4.5 -1.5q-8 0 -10 5zM351 44q-7 9 2 18q18 13 34 33q7 9 18 2q9 -8 1 -19q-13 -18 -38 -36q-2 -3 -7 -3q-7 0 -10 5zM401 -65q11 23 17 45q2 12 15 10q11 -4 9 -16 q-7 -28 -19 -50q-1 -6 -10 -6q-5 0 -7 1q-11 4 -5 16zM410 135q9 17 12 46q2 11 14 11t12 -12v-51q0 -13 -12 -13q-4 0 -9 3q-1 -1 -4 -1q-4 0 -5 1q-12 3 -8 16zM423 28v50q0 13 13 13q12 0 12 -13v-50q0 -13 -12 -13q-13 0 -13 13zM423 228v2v51v2v1q1 1 2 2.5t1 2.5l1 1 h1q3 3 8 3q6 0 9 -5q2 -2 2 -3l1 -2v-2v-51v-3q-1 0 -1 -2q0 -1 -1.5 -2.5t-1.5 -2.5h-1q-1 -1 -2 -1q-1 -1 -3 -1h-2q-4 0 -8 2q-5 3 -5 8zM423 329v2v51v2v1l1 1q0 2 1 2q1 4 6 6h1l2 1h2h2q3 -1 7 -5q2 -2 2 -4l1 -2v-2v-51q0 -1 -0.5 -3t-0.5 -3l-2 -2q0 -1 -0.5 -1 t-0.5 -1l-1 -1h-2q0 -1 -1 -1h-4h-2q-4 0 -6 2l-3 3q-1 0 -1 2q-1 1 -1 3zM423 430v3v50v2q2 11 13 11h2h1q1 -1 2 -1l4 -4q3 -3 3 -8v-50q0 -3 -1 -5q-2 -8 -11 -8h-4l-1 1q-1 1 -2 1q-4 2 -5 4v2z" />
<glyph unicode="z" horiz-adv-x="554" d="M61 13q0 4 3 7l30 40q8 10 18 3q9 -7 2 -17l-16 -21h14q12 0 12 -12q0 -13 -12 -13h-36h-2q-5 0 -8 3q-1 0 -2 1q-3 3 -3 9zM61 478q0 4 4.5 8.5t8.5 4.5h38q12 0 12 -13t-12 -13h-38q-13 0 -13 13zM123 101l30 41q8 9 18 2q8 -8 3 -17l-31 -41q-3 -5 -10 -5q-2 0 -8 2 q-8 8 -2 18zM149 13q0 5 4 8.5t9 3.5h50q13 0 13 -12q0 -13 -13 -13h-50q-13 0 -13 13zM149 478q0 5 4 9t9 4h50q13 0 13 -13t-13 -13h-50q-13 0 -13 13zM182 182l30 41q8 12 18 2q8 -7 2 -18l-28 -39q-3 -5 -12 -5q-5 0 -7 2q-9 7 -3 17zM242 263l30 41q5 10 17 3 q12 -8 2 -18l-28 -40q-4 -5 -10 -5t-8 1q-11 10 -3 18zM250 13q0 5 4 8.5t9 3.5h50q13 0 13 -12q0 -13 -13 -13h-50q-13 0 -13 13zM250 478q0 5 4 9t9 4h50q13 0 13 -13t-13 -13h-50q-13 0 -13 13zM302 345l29 40q7 11 17 3q10 -9 4 -18l-31 -41q-5 -5 -9 -5q-2 0 -4.5 1.5 t-3.5 1.5q-10 8 -2 18zM351 13q0 5 3.5 8.5t8.5 3.5h50q13 0 13 -12q0 -13 -13 -13h-50q-12 0 -12 13zM351 478q0 5 4 9t8 4h50q13 0 13 -13t-13 -13h-2q4 -8 0 -14l-30 -40q-5 -5 -11 -5q-4 0 -7 3q-9 7 -2 17l28 39h-26q-12 0 -12 13z" />
<glyph unicode="{" horiz-adv-x="480" d="M56 302v1v1q0 13 13 13q10 1 28 3q6 1 11 -2.5t6 -9.5q0 -4 -1 -6q1 -2 1 -5q-2 -13 -15 -13h-2q-14 3 -28 3q-15 2 -13 15zM142 291q4 14 18 9q29 -8 57 -25q11 -9 3 -21q-4 -6 -12 -6q-3 0 -8 3q-21 14 -48 22q-14 3 -10 18zM142 314q-4 15 10 18q27 8 48 22 q13 9 20 -4q9 -11 -4 -20q-25 -16 -56 -26h-4q-11 0 -14 10zM224 77q0 15 3 31q2 14 16 12t12 -16q-2 -20 -2 -27q0 -14 3 -26q2 -15 -12 -17h-3q-12 0 -14 12q-3 14 -3 31zM224 528q0 16 3 31q2 14 17 12q14 -3 12 -17q-3 -12 -3 -26q0 -9 2 -27q1 -6 -2.5 -10.5t-9.5 -5.5 q-1 -1 -2 -1q-12 0 -14 13q-3 17 -3 31zM232 214q-5 12 8 19q13 6 19 -8q9 -23 9 -46q0 -12 -1 -18q-2 -13 -15 -13h-1q-15 2 -13 16q1 5 1 15q0 20 -7 35zM232 391q7 15 7 35q0 10 -1 15t3 10t10 6q14 0 16 -13q0 -3 0.5 -9t0.5 -9q0 -24 -9 -46q-5 -9 -14 -9q-3 0 -5 1 q-14 5 -8 19zM251 -13q-8 12 4 20q11 9 20 -4q14 -20 37 -36q13 -7 4 -20q-3 -6 -12 -6q-5 0 -8 2q-26 18 -45 44zM251 618q19 26 45 44q13 7 20 -4q9 -13 -4 -20q-24 -17 -37 -37q-5 -6 -12 -6q-5 0 -8 3q-12 7 -4 20zM343 -66q4 15 18 9q22 -7 38 -9l15 -3q6 0 10 -4.5 t3 -10.5q0 -6 -4.5 -10t-9.5 -4h-1q-18 0 -60 14q-14 5 -9 18zM343 670q-5 14 9 19q39 13 60 13q6 1 10.5 -3t4.5 -10q2 -14 -13 -16l-15 -2q-20 -4 -38 -10l-2 -1h-3q-10 0 -13 10z" />
<glyph unicode="|" horiz-adv-x="286" d="M121 26q0 15 15 15t15 -15v-59q0 -6 -4.5 -10.5t-10.5 -4.5t-10.5 4.5t-4.5 10.5v59zM121 86v59q0 6 4.5 10.5t10.5 4.5t10.5 -4.5t4.5 -10.5v-59q0 -6 -4.5 -10.5t-10.5 -4.5t-10.5 4.5t-4.5 10.5zM121 204v60q0 14 15 14t15 -14v-60q0 -6 -4.5 -10.5t-10.5 -4.5 t-10.5 4.5t-4.5 10.5zM121 323v59q0 6 4.5 10.5t10.5 4.5t10.5 -4.5t4.5 -10.5v-59q0 -6 -4.5 -10.5t-10.5 -4.5t-10.5 4.5t-4.5 10.5zM121 441v60q0 14 15 14t15 -14v-60q0 -14 -15 -14t-15 14zM121 560v59q0 6 4.5 10.5t10.5 4.5t10.5 -4.5t4.5 -10.5v-59q0 -6 -4.5 -10.5 t-10.5 -4.5t-10.5 4.5t-4.5 10.5zM121 678v60q0 14 15 14t15 -14v-60q0 -14 -15 -14t-15 14z" />
<glyph unicode="}" horiz-adv-x="480" d="M54 -84q-1 6 3 10.5t10 4.5l15 3q16 2 38 9q14 6 18 -9q5 -13 -9 -18q-42 -14 -60 -14h-1q-5 0 -9.5 4t-4.5 10zM54 689q0 6 4.5 10t10.5 3q21 0 60 -13q14 -5 9 -19q-3 -10 -13 -10h-3l-2 1q-18 6 -38 10l-15 2q-15 2 -13 16zM165 -53q-9 13 4 20q23 16 37 36q9 13 20 4 q12 -8 4 -20q-19 -26 -45 -44q-3 -2 -8 -2q-9 0 -12 6zM165 658q7 11 20 4q26 -18 45 -44q8 -13 -4 -20q-3 -3 -8 -3q-8 0 -12 6q-13 20 -37 37q-13 7 -4 20zM213 179q0 23 9 46q6 14 19 8q13 -7 8 -19q-7 -15 -7 -35q0 -10 1 -15q2 -14 -13 -16h-1q-13 0 -15 13q-1 6 -1 18 zM213 426q0 3 0.5 9t0.5 9q2 13 16 13q6 -1 10 -6t3 -10t-1 -15q0 -20 7 -35q6 -14 -8 -19q-2 -1 -5 -1q-10 0 -14 9q-9 22 -9 46zM225 51q3 12 3 26q0 7 -2 27q-2 14 12 16t16 -12q3 -17 3 -31q0 -17 -3 -31q-2 -12 -14 -12h-3q-14 2 -12 17zM225 554q-2 14 12 17 q15 2 17 -12q3 -15 3 -31q0 -14 -3 -31q-2 -13 -14 -13q-1 0 -2 1q-6 1 -9.5 5.5t-2.5 10.5q2 18 2 27q0 14 -3 26zM261 254q-8 12 3 21q28 17 57 25q14 5 18 -9q4 -15 -10 -18q-27 -8 -48 -22q-5 -3 -8 -3q-7 0 -12 6zM261 350q7 13 20 4q21 -14 48 -22q14 -3 10 -18 q-3 -10 -14 -10h-4q-31 10 -56 26q-13 9 -4 20zM367 297q0 3 1 5q-1 2 -1 6q1 6 6 9.5t11 2.5q18 -2 28 -3q13 0 13 -13v-1v-1q2 -13 -13 -15q-14 0 -28 -3h-2q-13 0 -15 13z" />
<glyph unicode="~" horiz-adv-x="460" d="M87 647l17 17q4 4 8 0q3 -5 -1 -9l-11 -11l-4 -4q-2 -3 -4 -3t-4 2q-5 2 -1 8zM122 670q-3 6 2 8q9 6 22 11q6 0 7 -4q2 -6 -4 -8q-9 -3 -20 -8l-2 -2q-5 0 -5 3zM165 687q-1 6 5 6q2 1 8 1q2 0 8 -0.5t8 -0.5q5 -2 5 -7t-6 -5h-1q-5 1 -14 1h-8q-2 -1 -3.5 1t-1.5 4z M210 683q2 3 8 3q14 -7 21 -12q6 -3 1 -8q0 -2 -4 -2q-2 0 -4 1q-3 2 -19 10q-5 2 -3 8zM250 659q3 5 8 2q15 -8 20 -9q7 -2 3 -8q-2 -4 -5 -4q-1 0 -2 1q-9 3 -22 10q-6 4 -2 8zM292 641q2 7 7 5q5 -1 15 -1h7q4 0 6 -5q0 -6 -5 -6q-2 0 -4.5 -0.5t-3.5 -0.5h-1q-6 0 -16 2 q-5 0 -5 6zM338 642q-2 5 4 8q11 4 19 9q4 4 8 -1q1 -1 0.5 -4t-2.5 -4q-5 -4 -21 -11l-1 -1h-1q-4 0 -6 4zM376 675q8 9 10 18q4 5 8 4q6 -4 3 -8q-1 -3 -12 -22q-1 -1 -5 -1q-2 0 -3 1q-5 4 -1 8z" />
<glyph unicode="&#xad;" horiz-adv-x="408" d="M66 350q0 11 7 11h29q8 0 8 -11q0 -10 -8 -10h-29q-7 0 -7 10zM124 350q0 11 7 11h29q8 0 8 -11q0 -10 -8 -10h-29q-7 0 -7 10zM182 350q0 11 7 11h29q8 0 8 -11q0 -10 -8 -10h-29q-7 0 -7 10z" />
<glyph unicode="&#x2000;" horiz-adv-x="404" />
<glyph unicode="&#x2001;" horiz-adv-x="808" />
<glyph unicode="&#x2002;" horiz-adv-x="404" />
<glyph unicode="&#x2003;" horiz-adv-x="808" />
<glyph unicode="&#x2004;" horiz-adv-x="269" />
<glyph unicode="&#x2005;" horiz-adv-x="202" />
<glyph unicode="&#x2006;" horiz-adv-x="134" />
<glyph unicode="&#x2007;" horiz-adv-x="134" />
<glyph unicode="&#x2008;" horiz-adv-x="101" />
<glyph unicode="&#x2009;" horiz-adv-x="161" />
<glyph unicode="&#x200a;" horiz-adv-x="44" />
<glyph unicode="&#x2010;" horiz-adv-x="408" d="M66 350q0 11 7 11h29q8 0 8 -11q0 -10 -8 -10h-29q-7 0 -7 10zM124 350q0 11 7 11h29q8 0 8 -11q0 -10 -8 -10h-29q-7 0 -7 10zM182 350q0 11 7 11h29q8 0 8 -11q0 -10 -8 -10h-29q-7 0 -7 10z" />
<glyph unicode="&#x2011;" horiz-adv-x="408" d="M66 350q0 11 7 11h29q8 0 8 -11q0 -10 -8 -10h-29q-7 0 -7 10zM124 350q0 11 7 11h29q8 0 8 -11q0 -10 -8 -10h-29q-7 0 -7 10zM182 350q0 11 7 11h29q8 0 8 -11q0 -10 -8 -10h-29q-7 0 -7 10z" />
<glyph unicode="&#x2012;" horiz-adv-x="408" d="M66 350q0 11 7 11h29q8 0 8 -11q0 -10 -8 -10h-29q-7 0 -7 10zM124 350q0 11 7 11h29q8 0 8 -11q0 -10 -8 -10h-29q-7 0 -7 10zM182 350q0 11 7 11h29q8 0 8 -11q0 -10 -8 -10h-29q-7 0 -7 10z" />
<glyph unicode="&#x2013;" horiz-adv-x="500" d="M100 250v100h300v-100h-300z" />
<glyph unicode="&#x2014;" horiz-adv-x="1000" d="M100 250v100h800v-100h-800z" />
<glyph unicode="&#x2018;" horiz-adv-x="230" d="M77 669v1v3v3v3l1 2q5 18 23 18q11 0 18.5 -7.5t7.5 -18.5q0 -10 -7.5 -17t-18.5 -7h-6q7 -16 24 -20q8 -4 5 -9q0 -6 -6 -6h-3q-38 10 -38 55z" />
<glyph unicode="&#x2019;" horiz-adv-x="230" d="M59 674q0 10 7.5 18t18.5 8q18 0 23 -18q0 -2 1 -2v-10q0 -45 -38 -55h-3q-6 0 -6 6q-3 5 5 9q18 4 23 20h-5q-11 0 -18.5 7t-7.5 17z" />
<glyph unicode="&#x201c;" horiz-adv-x="410" d="M77 635v6v3v1q0 45 38 55h3q6 0 6 -6q3 -5 -5 -9q-17 -5 -24 -21q2 1 6 1q11 0 18.5 -7t7.5 -17q0 -11 -7.5 -18.5t-18.5 -7.5q-18 0 -23 18q-1 0 -1 2zM151 635v2v4v4q0 45 38 55h3q6 0 6 -6q3 -5 -5 -9q-17 -5 -24 -21q2 1 6 1q11 0 18.5 -7t7.5 -17q0 -11 -7.5 -18.5 t-18.5 -7.5q-18 0 -23 18q-1 0 -1 2z" />
<glyph unicode="&#x201d;" horiz-adv-x="410" d="M59 675q0 11 7.5 18.5t18.5 7.5q18 0 23 -18q0 -2 1 -2v-6v-3v-1q0 -45 -38 -55h-3q-6 0 -6 6q-3 5 5 9q18 4 23 20h-5q-11 0 -18.5 7t-7.5 17zM133 675q0 11 7.5 18.5t18.5 7.5q18 0 23 -18q0 -2 1 -2v-6v-3v-1q0 -45 -38 -55h-3q-6 0 -6 6q-3 5 5 9q18 4 23 20h-5 q-11 0 -18.5 7t-7.5 17z" />
<glyph unicode="&#x2026;" horiz-adv-x="690" d="M542 28q0 10 7.5 17.5t18.5 7.5q10 0 17 -7.5t7 -17.5t-7 -17.5t-17 -7.5t-18 7.5t-8 17.5zM312 28q0 10 7.5 17.5t18.5 7.5q10 0 17 -7.5t7 -17.5t-7 -17.5t-17 -7.5t-18 7.5t-8 17.5zM82 28q0 10 7.5 17.5t18.5 7.5q10 0 17 -7.5t7 -17.5t-7 -17.5t-17 -7.5t-18 7.5 t-8 17.5z" />
<glyph unicode="&#x202f;" horiz-adv-x="161" />
<glyph unicode="&#x205f;" horiz-adv-x="202" />
<glyph unicode="&#x2122;" horiz-adv-x="1492" d="M752 13v52q0 13 13 13t13 -13v-52q0 -13 -13 -13t-13 13zM752 116v52q0 13 13 13t13 -13v-52q0 -12 -13 -12t-13 12zM752 220v52q0 13 13 13t13 -13v-52q0 -13 -13 -13t-13 13zM752 323v52q0 13 13 13t13 -13v-52q0 -12 -13 -12t-13 12zM752 427v52q0 13 13 13t13 -13 v-52q0 -13 -13 -13t-13 13zM752 530v52q0 13 13 13t13 -13v-52q0 -12 -13 -12t-13 12zM752 634v52q0 13 13 13q3 0 4 -1q3 0 9 -4l30 -43q7 -9 -3 -17q-3 -3 -8 -3t-10 6l-9 12v-15q0 -13 -13 -13t-13 13zM817 594q-7 11 2 18q13 9 18 -3l31 -41q7 -11 -3 -18q-2 -3 -7 -3 q-7 0 -12 5zM878 510q-7 11 2 18q12 8 18 -3l30 -41q8 -12 -3 -18q-2 -3 -7 -3q-6 0 -11 5zM938 427q-10 10 3 17q10 10 18 -3l30 -41q6 -11 -3 -18q-3 -3 -8 -3q-6 0 -10 5zM998 343q-8 10 4 18q10 8 18 -4l30 -41q2 -8 1 -11q-1 4 2 11l32 41q5 11 18 4q9 -9 2 -18 l-31 -43q-1 -5 -10 -5q-4 0 -7 3q-4 1 -6 7q0 -5 -4 -7q-5 -3 -8 -3q-7 0 -10 5zM1114 400l30 41q9 12 18 3q12 -7 4 -17l-31 -43q-4 -5 -10 -5q-5 0 -8 3q-9 7 -3 18zM1175 484l30 41q8 13 18 3q12 -8 3 -18l-30 -42q-5 -5 -11 -5q-5 0 -7 3q-9 7 -3 18zM1236 568l30 41 q6 11 18 3q9 -7 2 -18l-29 -42q-5 -5 -11 -5q-5 0 -7 3q-12 7 -3 18zM1295 651l31 43q4 4 8 4q1 1 4 1q13 0 13 -13v-52q0 -13 -13 -13q-4 0 -8.5 4.5t-4.5 8.5v14l-8 -11q-3 -6 -11 -6q-5 0 -7 3q-10 7 -4 17zM1325 13v52q0 5 4 9t9 4q13 0 13 -13v-52q0 -13 -13 -13 q-5 0 -9 4t-4 9zM1325 116v52q0 13 13 13t13 -13v-52q0 -12 -13 -12q-5 0 -9 4t-4 8zM1325 220v52q0 5 4 9t9 4q13 0 13 -13v-52q0 -13 -13 -13q-5 0 -9 4t-4 9zM1325 323v52q0 13 13 13t13 -13v-52q0 -12 -13 -12q-5 0 -9 4t-4 8zM1325 427v52q0 13 13 13t13 -13v-52 q0 -13 -13 -13q-4 0 -8.5 4t-4.5 9zM1325 530v52q0 13 13 13t13 -13v-52q0 -12 -13 -12q-5 0 -9 4t-4 8zM50 687q0 13 13 13h52q13 0 13 -13q0 -5 -4 -9t-9 -4h-52q-13 0 -13 13zM154 687q0 13 13 13h52q12 0 12 -13q0 -5 -4 -9t-8 -4h-52q-13 0 -13 13zM257 687q0 13 13 13 h11h2h39q13 0 13 -13q0 -5 -4 -9t-9 -4h-28v-39q0 -13 -13 -13t-13 13v39q-11 2 -11 13zM268 13v52q0 13 13 13q5 0 9 -4t4 -9v-52q0 -13 -13 -13t-13 13zM268 117v52q0 12 13 12q5 0 9 -4t4 -8v-52q0 -13 -13 -13t-13 13zM268 220v52q0 13 13 13q5 0 9 -4t4 -9v-52 q0 -5 -4 -9t-9 -4q-13 0 -13 13zM268 324v52q0 13 13 13q5 0 9 -4.5t4 -8.5v-52q0 -13 -13 -13t-13 13zM268 428v52q0 13 13 13q5 0 9 -4.5t4 -8.5v-52q0 -13 -13 -13t-13 13zM268 531v52q0 13 13 13q5 0 9 -4t4 -9v-52q0 -12 -13 -12t-13 12zM361 687q0 13 13 13h52 q13 0 13 -13q0 -5 -4.5 -9t-8.5 -4h-52q-13 0 -13 13zM465 687q0 13 13 13h52q13 0 13 -13q0 -5 -4.5 -9t-8.5 -4h-52q-13 0 -13 13z" />
<glyph unicode="&#xe000;" horiz-adv-x="490" d="M0 490h490v-490h-490v490z" />
<glyph unicode="&#xfb01;" horiz-adv-x="643" d="M456 13v52q0 13 13 13t13 -13v-52q0 -13 -13 -13t-13 13zM456 116v52q0 13 13 13t13 -13v-52q0 -5 -4 -8.5t-9 -3.5t-9 3.5t-4 8.5zM456 220v52q0 13 13 13t13 -13v-52q0 -5 -4 -9t-9 -4t-9 4t-4 9zM456 324v51q0 13 13 13t13 -13v-51q0 -5 -4 -9t-9 -4t-9 4t-4 9z M456 427v52q0 13 13 13t13 -13v-52q0 -5 -4 -9t-9 -4t-9 4t-4 9zM456 613v24q0 13 13 13t13 -13v-24q0 -13 -13 -13t-13 13zM65 480q0 12 12 12h51q13 0 13 -12q0 -13 -13 -13h-51q-12 0 -12 13zM141 13v50q0 13 13 13t13 -13v-50q0 -13 -13 -13t-13 13zM141 114v51 q0 12 13 12t13 -12v-51q0 -13 -13 -13t-13 13zM141 215v51q0 13 13 13t13 -13v-51q0 -12 -13 -12t-13 12zM141 317v50q0 13 13 13t13 -13v-50q0 -13 -13 -13t-13 13zM141 418v51q0 12 13 12t13 -12v-51q0 -13 -13 -13t-13 13zM141 520v39v12q2 12 13 12q13 0 13 -13v-11v-39 q0 -13 -13 -13t-13 13zM148 624q10 32 28 49q9 9 18 0q9 -11 -1 -18q-13 -12 -20 -38q-3 -9 -12 -9h-4q-11 4 -9 16zM166 480q0 12 13 12h50q13 0 13 -12q0 -13 -13 -13h-50q-13 0 -13 13zM218 683q-2 4 1.5 8.5t8.5 5.5q16 3 35 3q13 0 13 -13q0 -12 -13 -12q-16 0 -31 -3 h-2q-10 0 -12 11z" />
<glyph unicode="&#xfb02;" horiz-adv-x="611" d="M462 13v52q0 13 13 13t13 -13v-52q0 -13 -13 -13t-13 13zM462 117v52q0 12 13 12t13 -12v-52q0 -13 -13 -13t-13 13zM462 220v52q0 13 13 13t13 -13v-52q0 -13 -13 -13t-13 13zM462 324v52q0 13 13 13t13 -13v-52q0 -13 -13 -13t-13 13zM462 428v52q0 13 13 13t13 -13 v-52q0 -13 -13 -13t-13 13zM462 531v52q0 13 13 13t13 -13v-52q0 -12 -13 -12t-13 12zM462 635v52q0 13 13 13t13 -13v-52q0 -13 -13 -13t-13 13zM65 480q0 12 12 12h51q13 0 13 -12q0 -13 -13 -13h-51q-12 0 -12 13zM141 13v50q0 13 13 13t13 -13v-50q0 -13 -13 -13t-13 13 zM141 114v51q0 12 13 12t13 -12v-51q0 -13 -13 -13t-13 13zM141 215v51q0 13 13 13t13 -13v-51q0 -12 -13 -12t-13 12zM141 317v50q0 13 13 13t13 -13v-50q0 -13 -13 -13t-13 13zM141 418v51q0 12 13 12t13 -12v-51q0 -13 -13 -13t-13 13zM141 520v39v12q2 12 13 12 q13 0 13 -13v-11v-39q0 -13 -13 -13t-13 13zM148 624q10 32 28 49q9 9 18 0q9 -11 -1 -18q-13 -12 -20 -38q-3 -9 -12 -9h-4q-11 4 -9 16zM166 480q0 12 13 12h50q13 0 13 -12q0 -13 -13 -13h-50q-13 0 -13 13zM218 683q-2 4 1.5 8.5t8.5 5.5q16 3 35 3q13 0 13 -13 q0 -12 -13 -12q-16 0 -31 -3h-2q-10 0 -12 11z" />
<glyph unicode="&#xfb03;" horiz-adv-x="1005" d="M818 13v52q0 13 13 13t13 -13v-52q0 -13 -13 -13t-13 13zM818 116v52q0 13 13 13t13 -13v-52q0 -5 -4 -8.5t-9 -3.5t-9 3.5t-4 8.5zM818 220v52q0 13 13 13t13 -13v-52q0 -5 -4 -9t-9 -4t-9 4t-4 9zM818 324v51q0 13 13 13t13 -13v-51q0 -5 -4 -9t-9 -4t-9 4t-4 9z M818 427v52q0 13 13 13t13 -13v-52q0 -5 -4 -9t-9 -4t-9 4t-4 9zM818 613v24q0 13 13 13t13 -13v-24q0 -13 -13 -13t-13 13zM427 480q0 12 12 12h51q13 0 13 -12q0 -13 -13 -13h-51q-12 0 -12 13zM503 13v50q0 13 13 13t13 -13v-50q0 -13 -13 -13t-13 13zM503 114v51 q0 12 13 12t13 -12v-51q0 -13 -13 -13t-13 13zM503 215v51q0 13 13 13t13 -13v-51q0 -12 -13 -12t-13 12zM503 317v50q0 13 13 13t13 -13v-50q0 -13 -13 -13t-13 13zM503 418v51q0 12 13 12t13 -12v-51q0 -13 -13 -13t-13 13zM503 520v39v12q2 12 13 12q13 0 13 -13v-11v-39 q0 -13 -13 -13t-13 13zM510 624q10 32 28 49q9 9 18 0q9 -11 -1 -18q-13 -12 -20 -38q-3 -9 -12 -9h-4q-11 4 -9 16zM528 480q0 12 13 12h50q13 0 13 -12q0 -13 -13 -13h-50q-13 0 -13 13zM580 683q-2 4 1.5 8.5t8.5 5.5q16 3 35 3q13 0 13 -13q0 -12 -13 -12q-16 0 -31 -3 h-2q-10 0 -12 11zM65 480q0 12 12 12h51q13 0 13 -12q0 -13 -13 -13h-51q-12 0 -12 13zM141 13v50q0 13 13 13t13 -13v-50q0 -13 -13 -13t-13 13zM141 114v51q0 12 13 12t13 -12v-51q0 -13 -13 -13t-13 13zM141 215v51q0 13 13 13t13 -13v-51q0 -12 -13 -12t-13 12zM141 317 v50q0 13 13 13t13 -13v-50q0 -13 -13 -13t-13 13zM141 418v51q0 12 13 12t13 -12v-51q0 -13 -13 -13t-13 13zM141 520v39v12q2 12 13 12q13 0 13 -13v-11v-39q0 -13 -13 -13t-13 13zM148 624q10 32 28 49q9 9 18 0q9 -11 -1 -18q-13 -12 -20 -38q-3 -9 -12 -9h-4 q-11 4 -9 16zM166 480q0 12 13 12h50q13 0 13 -12q0 -13 -13 -13h-50q-13 0 -13 13zM218 683q-2 4 1.5 8.5t8.5 5.5q16 3 35 3q13 0 13 -13q0 -12 -13 -12q-16 0 -31 -3h-2q-10 0 -12 11z" />
<glyph unicode="&#xfb04;" horiz-adv-x="973" d="M824 13v52q0 13 13 13t13 -13v-52q0 -13 -13 -13t-13 13zM824 117v52q0 12 13 12t13 -12v-52q0 -13 -13 -13t-13 13zM824 220v52q0 13 13 13t13 -13v-52q0 -13 -13 -13t-13 13zM824 324v52q0 13 13 13t13 -13v-52q0 -13 -13 -13t-13 13zM824 428v52q0 13 13 13t13 -13 v-52q0 -13 -13 -13t-13 13zM824 531v52q0 13 13 13t13 -13v-52q0 -12 -13 -12t-13 12zM824 635v52q0 13 13 13t13 -13v-52q0 -13 -13 -13t-13 13zM427 480q0 12 12 12h51q13 0 13 -12q0 -13 -13 -13h-51q-12 0 -12 13zM503 13v50q0 13 13 13t13 -13v-50q0 -13 -13 -13 t-13 13zM503 114v51q0 12 13 12t13 -12v-51q0 -13 -13 -13t-13 13zM503 215v51q0 13 13 13t13 -13v-51q0 -12 -13 -12t-13 12zM503 317v50q0 13 13 13t13 -13v-50q0 -13 -13 -13t-13 13zM503 418v51q0 12 13 12t13 -12v-51q0 -13 -13 -13t-13 13zM503 520v39v12q2 12 13 12 q13 0 13 -13v-11v-39q0 -13 -13 -13t-13 13zM510 624q10 32 28 49q9 9 18 0q9 -11 -1 -18q-13 -12 -20 -38q-3 -9 -12 -9h-4q-11 4 -9 16zM528 480q0 12 13 12h50q13 0 13 -12q0 -13 -13 -13h-50q-13 0 -13 13zM580 683q-2 4 1.5 8.5t8.5 5.5q16 3 35 3q13 0 13 -13 q0 -12 -13 -12q-16 0 -31 -3h-2q-10 0 -12 11zM65 480q0 12 12 12h51q13 0 13 -12q0 -13 -13 -13h-51q-12 0 -12 13zM141 13v50q0 13 13 13t13 -13v-50q0 -13 -13 -13t-13 13zM141 114v51q0 12 13 12t13 -12v-51q0 -13 -13 -13t-13 13zM141 215v51q0 13 13 13t13 -13v-51 q0 -12 -13 -12t-13 12zM141 317v50q0 13 13 13t13 -13v-50q0 -13 -13 -13t-13 13zM141 418v51q0 12 13 12t13 -12v-51q0 -13 -13 -13t-13 13zM141 520v39v12q2 12 13 12q13 0 13 -13v-11v-39q0 -13 -13 -13t-13 13zM148 624q10 32 28 49q9 9 18 0q9 -11 -1 -18 q-13 -12 -20 -38q-3 -9 -12 -9h-4q-11 4 -9 16zM166 480q0 12 13 12h50q13 0 13 -12q0 -13 -13 -13h-50q-13 0 -13 13zM218 683q-2 4 1.5 8.5t8.5 5.5q16 3 35 3q13 0 13 -13q0 -12 -13 -12q-16 0 -31 -3h-2q-10 0 -12 11z" />
</font>
</defs>
</svg>
