<?xml version="1.0" encoding="UTF-8" standalone="no"?>
<svg width="125px" height="142px" viewBox="0 0 125 142" version="1.1" xmlns="http://www.w3.org/2000/svg" xmlns:xlink="http://www.w3.org/1999/xlink" xmlns:sketch="http://www.bohemiancoding.com/sketch/ns">
    <!-- Generator: Sketch 3.3.2 (12043) - http://www.bohemiancoding.com/sketch -->
    <title>Thimble</title>
    <desc>Created with Sketch.</desc>
    <defs></defs>
    <g id="Page-1" stroke="none" stroke-width="1" fill="none" fill-rule="evenodd" sketch:type="MSPage">
        <g id="Thimble" sketch:type="MSArtboardGroup" fill="#FFFFFF">
            <g id="Imported-Layers" sketch:type="MSLayerGroup" transform="translate(0.000000, 2.000000)">
                <path d="M123.588818,110.042857 C123.365455,109.365714 123.136364,108.862857 122.913,108.631429 L122.913,108.628571 L122.910136,108.622857 L122.904409,108.617143 C121.781864,107.502857 116.220682,104.465714 116.220682,104.465714 C116.220682,104.465714 107.440773,22.96 105.834273,20.32 C104.224909,17.6857143 86.8855909,0.788571429 61.5023182,0.788571429 L61.2073636,30.4657143 C63.6643636,30.7657143 65.5772727,32.86 65.5772727,35.3885714 C65.5772727,37.9657143 63.6156818,40.0714286 61.11,40.3285714 L61.0097727,50.4685714 C63.567,50.6828571 65.5772727,52.8228571 65.5772727,55.42 C65.5772727,58.0542857 63.5097273,60.2085714 60.9124091,60.3685714 L60.7864091,73.0028571 C63.4467273,73.1028571 65.5772727,75.2828571 65.5772727,77.96 C65.5772727,80.6657143 63.3923182,82.8714286 60.6890455,82.9228571 L60.6002727,92.0142857 C60.6002727,92.0142857 34.6815,93.0285714 8.75413636,104.454286 C8.75413636,104.454286 3.18436364,107.22 2.31954545,108.617143 C1.46045455,110.014286 -0.00572727273,116.397143 0.899181818,119.977143 L0.916363636,120.028571 C2.10477273,123.665714 33.7479545,135.494286 62.5733182,135.494286 C90.4250455,135.494286 122.486318,123.251429 124.293273,119.977143 C124.992,117.754286 124.413545,112.634286 123.588818,110.042857 M83.0196818,35.3857143 C85.7745,35.3857143 88.011,37.6057143 88.011,40.3457143 C88.011,43.0971429 85.7745,45.3171429 83.0196818,45.3171429 C80.2849091,45.3171429 78.0484091,43.0971429 78.0484091,40.3457143 C78.0484091,37.6085714 80.2849091,35.3857143 83.0196818,35.3857143 M81.4847727,65.84 C79.8553636,65.84 78.5151818,64.5114286 78.5151818,62.8628571 C78.5151818,61.2285714 79.8553636,59.8971429 81.4847727,59.8971429 C83.1285,59.8971429 84.4686818,61.2285714 84.4686818,62.8628571 C84.4686818,64.5114286 83.1285,65.84 81.4847727,65.84 M84.4686818,77.0914286 C84.4686818,78.7257143 83.1285,80.0571429 81.4847727,80.0571429 C79.8553636,80.0571429 78.5151818,78.7257143 78.5151818,77.0914286 C78.5151818,75.4485714 79.8553636,74.1228571 81.4847727,74.1228571 C83.1285,74.1228571 84.4686818,75.4485714 84.4686818,77.0914286 M62.5733182,126.6 C36.5285455,126.6 15.4750909,116.311429 15.4750909,116.311429 C15.4750909,116.311429 36.1849091,104.46 62.5733182,104.46 C90.0585,104.457143 109.728818,116.311429 109.728818,116.311429 C109.728818,116.311429 90.2560909,126.6 62.5733182,126.6" id="Fill-1" sketch:type="MSShapeGroup"></path>
                <path d="M37.6596818,80.0628571 C36.0159545,80.0628571 34.6815,78.7342857 34.6815,77.0914286 C34.6815,75.4514286 36.0159545,74.12 37.6596818,74.12 C39.3062727,74.12 40.6378636,75.4514286 40.6378636,77.0914286 C40.6378636,78.7342857 39.3062727,80.0628571 37.6596818,80.0628571 M37.6654091,65.8428571 C36.0188182,65.8428571 34.6815,64.5142857 34.6815,62.8657143 C34.6815,61.2314286 36.0216818,59.9 37.6654091,59.9 C39.3091364,59.9 40.6378636,61.2314286 40.6378636,62.8657143 C40.6378636,64.5114286 39.312,65.8428571 37.6654091,65.8428571 M38.1608182,45.32 C35.4174545,45.32 33.1809545,43.1028571 33.1809545,40.3514286 C33.1809545,37.6114286 35.4174545,35.3914286 38.1608182,35.3914286 C40.9070455,35.3914286 43.1464091,37.6114286 43.1464091,40.3514286 C43.1464091,43.1028571 40.9070455,45.32 38.1608182,45.32 M61.5023182,0.788571429 C40.6407273,0.788571429 20.6525455,15.9657143 19.152,20.32 C17.6027727,24.8428571 8.76272727,104.42 8.757,104.454286 C11.9671364,103.04 15.1772727,101.782857 18.3387273,100.671429 C18.3415909,100.668571 18.3473182,100.668571 18.3530455,100.665714 C18.3645,100.662857 18.3759545,100.657143 18.3874091,100.654286 C40.635,92.8285714 60.4227273,92.0228571 60.6002727,92.0142857 L60.6890455,82.9228571 L60.6919091,82.9171429 L60.5945455,82.9257143 C57.8597727,82.9257143 55.6204091,80.7028571 55.6204091,77.9628571 C55.6204091,75.2171429 57.8597727,72.9971429 60.5945455,72.9971429 L60.7892727,73.0171429 L60.7892727,73.0028571 L60.7864091,73.0028571 L60.9124091,60.3685714 L60.9124091,60.3485714 L60.5945455,60.38 C57.8597727,60.38 55.6204091,58.16 55.6204091,55.42 C55.6204091,52.6828571 57.8597727,50.4514286 60.5945455,50.4514286 L61.0126364,50.4942857 L61.0097727,50.4685714 L61.11,40.3285714 L61.1128636,40.3028571 L60.5945455,40.3542857 C57.8597727,40.3542857 55.6204091,38.14 55.6204091,35.3885714 C55.6204091,32.6514286 57.8597727,30.4285714 60.5945455,30.4285714 L61.2102273,30.4914286 L61.2102273,30.4657143 C61.2102273,30.4657143 61.2102273,30.4657143 61.2073636,30.4657143 L61.5023182,0.788571429" id="Fill-2" fill-opacity="0.8" sketch:type="MSShapeGroup"></path>
                <path d="M18.3530455,100.665714 C18.3473182,100.668571 18.3415909,100.668571 18.3387273,100.671429 C18.3444545,100.668571 18.3473182,100.668571 18.3530455,100.665714 M60.6002727,92.0142857 C60.4227273,92.0228571 40.635,92.8285714 18.3874091,100.654286 C40.635,92.8285714 60.4227273,92.0228571 60.6002727,92.0142857 M60.6919091,82.9228571 L60.6890455,82.9228571 L60.6002727,92.0142857 L60.6919091,82.9228571 M60.9124091,60.3685714 L60.9124091,60.3685714 L60.7864091,73.0028571 L60.7892727,73.0028571 L60.9124091,60.3685714 M61.1128636,40.3285714 L61.11,40.3285714 L61.0097727,50.4685714 L61.0126364,50.4685714 L61.1128636,40.3285714 M61.5023182,0.788571429 L61.2073636,30.4657143 L61.2102273,30.4657143 L61.5023182,0.788571429" id="Fill-3" sketch:type="MSShapeGroup"></path>
                <path d="M15.4750909,116.311429 C15.4750909,116.311429 36.5285455,126.6 62.5733182,126.6 C90.2560909,126.6 109.728818,116.311429 109.728818,116.311429 C109.728818,116.311429 90.0670909,104.46 62.5847727,104.46 C36.1849091,104.46 15.4750909,116.311429 15.4750909,116.311429 Z" id="Fill-4" fill-opacity="0.3" sketch:type="MSShapeGroup"></path>
                <path d="M62.5847727,104.46 L62.5733182,104.46 C36.1849091,104.46 15.4750909,116.311429 15.4750909,116.311429 C15.4750909,116.311429 36.1849091,104.46 62.5733182,104.46 L62.5847727,104.46 C90.0670909,104.46 109.728818,116.311429 109.728818,116.311429 C109.728818,116.311429 90.0670909,104.46 62.5847727,104.46" id="Fill-5" sketch:type="MSShapeGroup"></path>
            </g>
        </g>
    </g>
</svg>