<?xml version="1.0" encoding="UTF-8" standalone="no"?>
<svg
   xmlns:dc="http://purl.org/dc/elements/1.1/"
   xmlns:cc="http://creativecommons.org/ns#"
   xmlns:rdf="http://www.w3.org/1999/02/22-rdf-syntax-ns#"
   xmlns:svg="http://www.w3.org/2000/svg"
   xmlns="http://www.w3.org/2000/svg"
   height="102.8"
   width="360"
   version="1.1"
   viewBox="0 0 360 102.8"
   id="Layer_1">
  <metadata
     id="metadata6661">
    <rdf:RDF>
      <cc:Work
         rdf:about="">
        <dc:format>image/svg+xml</dc:format>
        <dc:type
           rdf:resource="http://purl.org/dc/dcmitype/StillImage" />
        <dc:title></dc:title>
      </cc:Work>
    </rdf:RDF>
  </metadata>
  <defs
     id="defs6659" />
  <path
     id="rect7203"
     d="M 0 0 L 0 102.80078 L 360 102.80078 L 360 0 L 0 0 z M 200.9707 29.484375 L 200.44336 37.591797 L 182.31641 35.839844 L 182.12305 47.833984 L 195.11328 46.695312 L 194.19727 55.021484 L 181.98242 54.662109 L 181.78906 65.183594 L 201.16406 63.519531 L 200.63672 72.400391 L 181.64844 72.400391 L 173.9043 72.595703 L 172.93164 29.677734 C 175.92937 29.7899 178.91066 29.845703 181.87305 29.845703 C 183.57396 29.845703 185.25867 29.825939 186.92578 29.789062 L 200.9707 29.484375 z M 340.07227 29.539062 L 340.07227 38.533203 L 329.99609 38.117188 L 330.69141 71.177734 L 321.69727 70.789062 L 323.36133 37.841797 L 311.31445 37.367188 L 312.31445 30.705078 L 340.07227 29.539062 z M 19.367188 29.931641 L 28.916016 30.123047 L 48.099609 32.480469 L 48.683594 48.306641 L 43.519531 49.554688 L 49.847656 53.96875 L 48.681641 70.013672 L 27.78125 72.734375 L 24.365234 72.761719 C 22.086592 72.761719 20.811311 72.615322 20.533203 72.320312 L 19.367188 29.931641 z M 122.32812 29.931641 L 128.18555 30.898438 L 134.04297 68.068359 L 124.4668 70.205078 L 123.27148 47.335938 L 113.91602 71.927734 L 107.47656 71.566406 L 101.75781 45.419922 L 98.677734 73.316406 L 95.761719 73.039062 C 93.799597 72.834707 92.487157 72.734375 91.820312 72.734375 L 92.402344 30.123047 L 103.56445 30.511719 L 111.97266 59.271484 L 122.32812 29.931641 z M 137.90234 29.931641 L 147.44922 30.123047 L 166.63086 32.480469 L 167.21484 48.306641 L 162.05078 49.554688 L 168.38086 53.96875 L 167.21484 70.013672 L 146.3125 72.734375 L 142.89844 72.761719 C 140.62133 72.761719 139.34493 72.615322 139.06836 72.320312 L 137.90234 29.931641 z M 240.5 29.931641 L 250.05078 30.123047 L 269.23047 32.480469 L 269.81445 48.306641 L 264.65234 49.554688 L 270.98242 53.96875 L 269.8125 70.013672 L 248.91211 72.734375 L 245.49805 72.761719 C 243.22094 72.761719 241.94566 72.615322 241.66602 72.320312 L 240.5 29.931641 z M 215.34961 30.123047 L 234.58789 31.095703 L 232.0332 53.384766 L 227.98047 53.607422 L 236.5293 68.431641 L 227.92578 71.177734 L 227.06641 69.181641 C 225.75115 66.168547 224.28841 62.686823 222.67969 58.744141 C 221.8638 56.801993 221.22616 55.208713 220.76367 53.96875 L 214.26758 54.300781 L 213.46094 70.984375 L 206.02344 71.566406 L 204.85742 30.318359 L 215.34961 30.123047 z M 81.132812 30.900391 L 86.794922 37.171875 L 86.212891 65.904297 L 79.9375 70.791016 L 62.5625 71.179688 L 56.09375 64.738281 L 53.345703 42.642578 L 59.8125 32.289062 L 81.132812 30.900391 z M 302.26562 30.900391 L 307.92773 37.171875 L 307.34375 65.904297 L 301.07031 70.791016 L 283.69531 71.179688 L 277.22656 64.738281 L 274.47852 42.642578 L 280.94531 32.289062 L 302.26562 30.900391 z M 215.04492 37.976562 L 214.57227 47.583984 L 226.95312 47.916016 L 227.3418 39.310547 L 215.04492 37.976562 z M 61.5625 38.144531 L 63.923828 62.962891 L 77.607422 64.15625 L 79.550781 40.089844 L 61.5625 38.144531 z M 282.69336 38.144531 L 285.05469 62.962891 L 298.73828 64.15625 L 300.68359 40.089844 L 282.69336 38.144531 z M 28.724609 38.171875 L 28.5 46.166016 L 41.076172 44.972656 L 41.851562 38.337891 L 28.724609 38.171875 z M 147.25586 38.171875 L 147.0332 46.166016 L 159.60938 44.972656 L 160.38672 38.337891 L 147.25586 38.171875 z M 249.85547 38.171875 L 249.63281 46.166016 L 262.20898 44.972656 L 262.98438 38.337891 L 249.85547 38.171875 z M 28.279297 53.248047 L 27.974609 64.40625 L 43.212891 65.126953 L 42.824219 55.550781 L 28.279297 53.248047 z M 146.81445 53.248047 L 146.50586 64.40625 L 161.74805 65.126953 L 161.35742 55.550781 L 146.81445 53.248047 z M 249.41211 53.248047 L 249.10547 64.40625 L 264.3457 65.126953 L 263.95508 55.550781 L 249.41211 53.248047 z "
     style="opacity:1;fill:#ffffff;fill-opacity:1;fill-rule:nonzero;stroke:none;stroke-width:2;stroke-linecap:round;stroke-linejoin:round;stroke-miterlimit:4;stroke-dasharray:none;stroke-dashoffset:0;stroke-opacity:1" />
  <g
     transform="matrix(3.0144459,0,0,3.0144459,10.530647,9.2217949)"
     id="g5143">
    <g
       id="g4262"
       transform="matrix(0.50971517,0,0,-0.50971521,6.0352916,9.6035309)"
       style="fill:#ffffff;fill-opacity:1" />
    <g
       id="g4266"
       transform="matrix(0.50971517,0,0,-0.50971521,16.92923,9.5945599)"
       style="fill:#ffffff;fill-opacity:1" />
    <g
       id="g4270"
       transform="matrix(0.50971517,0,0,-0.50971521,26.966745,21.069626)"
       style="fill:#ffffff;fill-opacity:1" />
    <g
       id="g4293"
       transform="matrix(0.50971517,0,0,-0.50971521,45.35681,9.6035309)"
       style="fill:#ffffff;fill-opacity:1" />
    <g
       id="g4278"
       transform="matrix(0.50971517,0,0,-0.50971521,63.065181,20.95861)"
       style="fill:#ffffff;fill-opacity:1" />
    <g
       id="g4282"
       transform="matrix(0.50971517,0,0,-0.50971521,67.844984,9.5387971)"
       style="fill:#ffffff;fill-opacity:1" />
    <g
       id="g4286"
       transform="matrix(0.50971517,0,0,-0.50971521,79.392479,9.6035309)"
       style="fill:#ffffff;fill-opacity:1" />
    <g
       id="g4290"
       transform="matrix(0.50971517,0,0,-0.50971521,90.286418,9.5945599)"
       style="fill:#ffffff;fill-opacity:1" />
    <g
       id="g4294"
       transform="matrix(0.50971517,0,0,-0.50971521,103.77741,9.4939931)"
       style="fill:#ffffff;fill-opacity:1" />
  </g>
</svg>
