<svg width="14" height="12" viewBox="0 0 14 12" xmlns="http://www.w3.org/2000/svg"><title>line-icon-115</title><path d="M11.681 7.913c-.154-.154-.637-.114-.792.04v1.438H8.815L6.982 6.867l-.652.85 1.966 2.67h2.593v1.499c.155.154.638.085.792-.07l2.2-1.672a.393.393 0 0 0 0-.558l-2.2-1.673zm-.792-5.304V4.01c.155.154.638.218.792.064l2.2-1.673a.394.394 0 0 0 0-.558L11.681.17c-.154-.154-.637-.243-.792-.089v1.484H8.296L2.593 9.391H.519c-.287 0-.519.195-.519.48s.232.564.519.564H3.11l5.704-7.826h2.074zm-10.37 0h2.074l1.819 2.506.652-.851S3.243 1.734 3.11 1.565H.52c-.287 0-.519.279-.519.564 0 .285.232.48.519.48z" fill="#000" fill-rule="evenodd"/></svg>