<?xml version="1.0" encoding="UTF-8" standalone="no"?>
<svg width="20px" height="20px" viewBox="0 0 20 20" version="1.1" xmlns="http://www.w3.org/2000/svg" xmlns:xlink="http://www.w3.org/1999/xlink" xmlns:sketch="http://www.bohemiancoding.com/sketch/ns">
    <!-- Generator: Sketch 3.3.2 (12043) - http://www.bohemiancoding.com/sketch -->
    <title>Help icon</title>
    <desc>Created with Sketch.</desc>
    <defs></defs>
    <g id="Page-1" stroke="none" stroke-width="1" fill="none" fill-rule="evenodd" sketch:type="MSPage">
        <g id="Help-icon" sketch:type="MSArtboardGroup" fill="#FFFFFF">
            <path d="M9.317,0 C4.171,0 0,4.172 0,9.317 C0,14.463 4.171,18.635 9.317,18.635 C14.463,18.635 18.634,14.463 18.634,9.317 C18.634,4.172 14.463,0 9.317,0 L9.317,0 Z M10.4,14.492 C10.4,14.681 10.246,14.836 10.057,14.836 L7.999,14.836 C7.81,14.836 7.656,14.681 7.656,14.492 L7.656,12.435 C7.656,12.246 7.81,12.091 7.999,12.091 L10.057,12.091 C10.246,12.091 10.4,12.246 10.4,12.435 L10.4,14.492 L10.4,14.492 Z M11.19,9.999 C10.683,10.291 10.366,10.882 10.366,11.131 C10.366,11.319 10.221,11.543 10.023,11.543 L7.965,11.543 C7.776,11.543 7.656,11.251 7.656,11.063 L7.656,10.676 C7.656,9.639 8.685,8.747 9.44,8.404 C10.101,8.104 10.375,7.821 10.375,7.272 C10.375,6.792 9.749,6.363 9.053,6.363 C8.668,6.363 8.316,6.483 8.128,6.612 C7.922,6.757 7.716,6.963 7.21,7.598 C7.141,7.684 7.039,7.735 6.944,7.735 C6.867,7.735 6.799,7.71 6.73,7.667 L5.323,6.594 C5.178,6.483 5.144,6.295 5.238,6.14 C6.164,4.605 7.468,3.859 9.217,3.859 C11.052,3.859 13.11,5.325 13.11,7.289 C13.11,8.918 12.004,9.544 11.19,9.999 L11.19,9.999 Z" id="Imported-Layers" sketch:type="MSShapeGroup"></path>
        </g>
    </g>
</svg>