<?xml version="1.0" encoding="UTF-8" standalone="no"?>
<svg width="20px" height="19px" viewBox="0 0 20 19" version="1.1" xmlns="http://www.w3.org/2000/svg" xmlns:xlink="http://www.w3.org/1999/xlink" xmlns:sketch="http://www.bohemiancoding.com/sketch/ns">
    <!-- Generator: Sketch 3.3.3 (12081) - http://www.bohemiancoding.com/sketch -->
    <title>Imported Layers</title>
    <desc>Created with Sketch.</desc>
    <defs></defs>
    <g id="Page-1" stroke="none" stroke-width="1" fill="none" fill-rule="evenodd" sketch:type="MSPage">
        <g id="Imported-Layers" sketch:type="MSLayerGroup" fill="#FFFFFF">
            <path d="M10.067,5.677 C9.149,5.677 8.402,6.425 8.402,7.343 L8.402,8.445 L11.733,8.445 L11.733,7.343 C11.733,6.425 10.986,5.677 10.067,5.677" id="Fill-1" sketch:type="MSShapeGroup"></path>
            <path d="M6.067,14.445 L6.067,8.445 L7.102,8.445 L7.102,7.343 C7.102,5.708 8.432,4.376 10.067,4.376 C11.703,4.376 13.034,5.708 13.034,7.343 L13.034,8.445 L14.067,8.445 L14.067,14.445 L6.067,14.445 M10.067,0.291 C4.921,0.291 0.75,4.463 0.75,9.608 C0.75,14.754 4.921,18.925 10.067,18.925 C15.213,18.925 19.385,14.754 19.385,9.608 C19.385,4.463 15.213,0.291 10.067,0.291" id="Fill-2" sketch:type="MSShapeGroup"></path>
        </g>
    </g>
</svg>