<svg width="70" height="56" xmlns="http://www.w3.org/2000/svg" xmlns:xlink="http://www.w3.org/1999/xlink"><defs><path d="M32.027 51.567c.431.967.618 2.024.545 3.08a8.518 8.518 0 0 1-2.122.24c-1.96.348-3.972.277-5.902-.209-3.882-.823-5.677-4.966-5.677-4.966s.038-.037.112-.1a.883.883 0 0 0-.37-.033c-1.884.365-3.805.51-5.723.433-1.91 0-9.465-2.869-11.9-5.945 0 0 3.78-.923 3.78-1.703S.452 40.142.452 40.142s-.654-3.599 3.974-7.192a28.282 28.282 0 0 1 8.05-4.742c-2.404-.321-9.2-3.026-11.486-5.913 0 0 3.78-.923 3.78-1.703S.452 18.37.452 18.37s-.654-3.599 3.974-7.193c4.628-3.594 8.092-5.3 11.984-5.499 3.892-.199 5.197-.2 5.197-.2S24.995.904 26.775.904c.89 0 13.927 2.77 15.056 4.574a4.676 4.676 0 0 0 2.256 2.105c.577.433.214.087 2.829.671 6.541 1.462 5.65 2.035 10.51 2.923 1.966.36 10.98-4.07 11.831-3.64.396.2.707 4.01-.84 6.509-1.547 2.499 1.241 4.561-.012 7.69-1.253 3.129 1.435 5.445.852 6.504-.583 1.059-10.155-3.465-11.832-3.138-1.5.292-5.762 2.296-14.086 3.828.257.129.506.27.748.426.577.432.213.087 2.829.671 6.541 1.462 5.649 2.035 10.51 2.923 1.966.36 10.98-4.07 11.831-3.64.396.2.707 4.01-.841 6.508s1.242 4.562-.01 7.69 1.434 5.446.85 6.505c-.584 1.059-10.154-3.466-11.83-3.138-1.676.328-6.8 2.79-17.185 4.345-2.72.383-5.471.5-8.214.347z" id="a"/><linearGradient x1="50%" y1="0%" x2="50%" y2="99.391%" id="c"><stop stop-color="#E559FF" offset="0%"/><stop stop-color="#924DFF" offset="100%"/></linearGradient><linearGradient x1="24.121%" y1="-68.244%" x2="65.803%" y2="99.175%" id="d"><stop stop-color="#F1A5FF" offset="0%"/><stop stop-color="#FF686C" offset="100%"/></linearGradient><linearGradient x1="50.001%" y1="-1.998%" x2="50.001%" y2="102.737%" id="e"><stop stop-color="#6F3CFF" offset="0%"/><stop stop-color="#3633FF" offset="100%"/></linearGradient><path d="M3.245 2.044c1.525.078 3.049.161 4.573.248.998.057 1.834.11 2.476.154 3.017.266 6.018.698 8.987 1.296a60.67 60.67 0 0 1 13.576 4.665l1.946.866a.715.715 0 0 0 .958-.463.862.862 0 0 0-.413-1.073L33.4 6.87a61.882 61.882 0 0 0-13.86-4.756A83.196 83.196 0 0 0 10.386.796 223.98 223.98 0 0 0 7.894.641L6.785.578A840.811 840.811 0 0 0 2.168.334l-.32-.016-.114-.005a.823.823 0 0 0-.687 1.207l.061.137c.26.594.493 1.198.7 1.812.255.739.458 1.495.605 2.263.048.266.085.52.11.763a12.637 12.637 0 0 1-.432 3.45c-.13.57-.27 1.138-.423 1.702-.248.92-.519 1.835-.812 2.742l-.055.17-.02.057a.859.859 0 0 0 .432 1.064.717.717 0 0 0 .95-.483l.022-.065.059-.18c.302-.936.582-1.88.838-2.829.159-.589.306-1.18.44-1.775a13.83 13.83 0 0 0 .468-4.039 11.67 11.67 0 0 0-.13-.908 18.153 18.153 0 0 0-.67-2.517 25.45 25.45 0 0 0-.309-.859l.364.019z" id="f"/><path d="M3.254 11.553c.097-.387.187-.763.268-1.13.354-1.334.512-2.712.468-4.091-.03-.297-.073-.604-.13-.92a18.577 18.577 0 0 0-.67-2.55c-.1-.298-.204-.59-.309-.87l.364.02c1.525.08 3.05.162 4.574.25.997.059 1.833.112 2.476.157a81.04 81.04 0 0 1 8.987 1.312 60.142 60.142 0 0 1 13.575 4.725l1.946.877a.713.713 0 0 0 .958-.468.878.878 0 0 0-.413-1.087c-.033-.015-1.515-.684-1.948-.878a61.344 61.344 0 0 0-13.86-4.817A82.203 82.203 0 0 0 10.386.747C9.737.702 8.896.649 7.894.59L6.785.526A831.486 831.486 0 0 0 2.168.28l-.32-.017-.114-.005a.834.834 0 0 0-.687 1.223l.061.138c.26.602.493 1.214.7 1.835.255.75.458 1.515.605 2.293.048.27.085.527.11.773a12.957 12.957 0 0 1-.432 3.494c-.11.492-.235 1.007-.374 1.539h1.537z" id="h"/><path id="j" d="M.449.796h69.202v54.976H.449z"/><path d="M.226 1.316c.011.019.036.06.07.121.3.53.572 1.074.815 1.632A11.7 11.7 0 0 1 1.85 5.3c.081.371.124.75.129 1.13a9.721 9.721 0 0 1-.584 3.092 13.293 13.293 0 0 1-.584 1.417.778.778 0 0 0 .258 1.01.649.649 0 0 0 .924-.282c.046-.09.122-.246.216-.46.156-.352.311-.743.456-1.165.42-1.16.646-2.38.67-3.614a7.194 7.194 0 0 0-.162-1.456 13.212 13.212 0 0 0-.836-2.538c-.29-.664-.616-1.31-.98-1.937a.644.644 0 0 0-.94-.209.784.784 0 0 0-.191 1.028z" id="l"/><path d="M2.513 10.553c.051-.139.102-.281.152-.427a11.55 11.55 0 0 0 .67-3.664 7.393 7.393 0 0 0-.162-1.477 13.53 13.53 0 0 0-.835-2.574 19.118 19.118 0 0 0-.98-1.963.64.64 0 0 0-.94-.212.802.802 0 0 0-.192 1.04l.07.124c.3.537.572 1.09.815 1.655.321.728.569 1.485.74 2.262.08.376.124.76.128 1.145a9.98 9.98 0 0 1-.584 3.136c-.116.343-.24.663-.364.955h1.482z" id="n"/><linearGradient x1="41.07%" y1="-.101%" x2="58.244%" y2="96.248%" id="p"><stop stop-color="#F1A5FF" offset="0%"/><stop stop-color="#FF686C" offset="100%"/></linearGradient><path d="M3.245 2.071c1.525.078 3.049.161 4.573.248.998.058 1.834.11 2.476.154a82 82 0 0 1 8.987 1.296 60.67 60.67 0 0 1 13.576 4.665l1.946.867a.715.715 0 0 0 .958-.463.862.862 0 0 0-.413-1.074c-.033-.014-1.515-.675-1.948-.866a61.88 61.88 0 0 0-13.86-4.756A83.192 83.192 0 0 0 10.386.824 223.98 223.98 0 0 0 7.894.668L6.785.606A858.696 858.696 0 0 0 2.168.362l-.32-.016L1.734.34a.823.823 0 0 0-.687 1.208l.061.137c.26.594.493 1.198.7 1.812.255.739.458 1.495.605 2.263.048.265.085.52.11.763a12.637 12.637 0 0 1-.432 3.45c-.13.57-.27 1.138-.423 1.702-.248.92-.519 1.834-.812 2.741l-.055.17-.02.057a.859.859 0 0 0 .432 1.065.717.717 0 0 0 .95-.483l.022-.065.059-.18c.302-.936.582-1.88.838-2.829.159-.589.306-1.18.44-1.775a13.83 13.83 0 0 0 .467-4.039 11.67 11.67 0 0 0-.13-.908 18.154 18.154 0 0 0-.67-2.517 25.45 25.45 0 0 0-.308-.86l.364.019z" id="q"/><path d="M3.254 11.459c.097-.381.187-.754.268-1.117.354-1.316.512-2.676.468-4.038-.03-.293-.073-.596-.13-.909a18.154 18.154 0 0 0-.67-2.516 25.45 25.45 0 0 0-.309-.86l.364.02c1.525.078 3.05.16 4.574.247.997.058 1.833.11 2.476.154a82 82 0 0 1 8.987 1.296 60.67 60.67 0 0 1 13.575 4.665l1.946.867a.715.715 0 0 0 .958-.463.862.862 0 0 0-.413-1.073c-.033-.015-1.515-.676-1.948-.867a61.88 61.88 0 0 0-13.86-4.756A83.192 83.192 0 0 0 10.385.791c-.83-.056-1.66-.108-2.49-.155L6.785.573A858.696 858.696 0 0 0 2.168.329L1.847.313 1.733.307a.823.823 0 0 0-.687 1.208l.062.137c.26.594.493 1.198.7 1.812.255.739.457 1.495.604 2.263.05.265.086.52.11.763a12.637 12.637 0 0 1-.432 3.45c-.109.485-.234.994-.373 1.52l1.537-.001z" id="s"/><path d="M2.513 10.459c.051-.137.102-.277.152-.422.42-1.16.646-2.38.67-3.613a7.195 7.195 0 0 0-.162-1.457 13.213 13.213 0 0 0-.835-2.538c-.29-.664-.616-1.31-.98-1.936a.644.644 0 0 0-.94-.21.784.784 0 0 0-.192 1.027c.011.02.036.06.07.122.3.53.572 1.074.815 1.632a11.7 11.7 0 0 1 .74 2.23c.08.371.124.75.128 1.13a9.721 9.721 0 0 1-.584 3.093c-.116.338-.24.654-.364.942h1.482z" id="u"/></defs><g fill="none" fill-rule="evenodd"><mask id="b" fill="#fff"><use xlink:href="#a"/></mask><g mask="url(#b)"><path fill="url(#c)" fill-rule="nonzero" d="M.598.904h70.918v19.87H.598z" transform="translate(-2)"/><path fill="url(#d)" fill-rule="nonzero" d="M63.469 30.062l8.111-1.112.183-2.604v-5.772l-.632-2.031H44.683v2.031H2.449v5.772l5.704 1.88 21.604 1.836h4.707" transform="translate(-2)"/><path fill="url(#e)" d="M29.757 26.346H54.35v2.649l17.64-.047v11.475H35.354v2.036H2.449V28.948l10.262-.737 17.046.132v-1.997z" transform="translate(-2)"/><g transform="translate(24 9)"><mask id="g" fill="#fff"><use xlink:href="#f"/></mask><path fill="#974DFF" fill-rule="nonzero" mask="url(#g)" d="M-.144-.464h36.806v17.131H-.144z"/></g><g transform="translate(24 9)"><mask id="i" fill="#fff"><use xlink:href="#h"/></mask><g mask="url(#i)"><g transform="translate(-24 -9)"><mask id="k" fill="#fff"><use xlink:href="#j"/></mask><path fill="#F1A5FF" fill-rule="nonzero" mask="url(#k)" d="M24.195 8.355h36.467v13.057H24.195z"/></g></g></g><g transform="translate(21 10)"><mask id="m" fill="#fff"><use xlink:href="#l"/></mask><path fill="#974DFF" fill-rule="nonzero" mask="url(#m)" d="M-.706-.616h4.919v13.569H-.706z"/></g><path d="M23.513 20.553c.051-.139.102-.281.152-.427a11.55 11.55 0 0 0 .67-3.664 7.393 7.393 0 0 0-.162-1.477 13.53 13.53 0 0 0-.835-2.574 19.118 19.118 0 0 0-.98-1.963.64.64 0 0 0-.94-.212.802.802 0 0 0-.192 1.04l.07.124c.3.537.572 1.09.815 1.655.321.728.569 1.485.74 2.262.08.376.124.76.128 1.145a9.98 9.98 0 0 1-.584 3.136c-.116.343-.24.663-.364.955h1.482z" fill="#F1A5FF" fill-rule="nonzero"/><g transform="translate(21 10)"><mask id="o" fill="#fff"><use xlink:href="#n"/></mask><path fill="#F1A5FF" fill-rule="nonzero" mask="url(#o)" d="M-20.551-9.225h69.202v55.034h-69.202z"/></g><path fill="url(#p)" fill-rule="nonzero" d="M71.601 55.18H2.399V42.459h32.905l-.002-2.07h36.299z" transform="translate(-2)"/><g transform="translate(24 31)"><mask id="r" fill="#fff"><use xlink:href="#q"/></mask><path fill="#373FFF" fill-rule="nonzero" mask="url(#r)" d="M-.144-.584h36.806v17.131H-.144z"/></g><g transform="translate(24 31)"><mask id="t" fill="#fff"><use xlink:href="#s"/></mask><path fill="#F1A5FF" fill-rule="nonzero" mask="url(#t)" d="M.195-.584h36.467v12.89H.195z"/></g><path d="M21.226 33.343c.011.02.036.06.07.122.3.53.572 1.074.815 1.632a11.7 11.7 0 0 1 .74 2.23c.08.371.124.75.128 1.13a9.721 9.721 0 0 1-.584 3.093 13.293 13.293 0 0 1-.584 1.417.778.778 0 0 0 .258 1.01.649.649 0 0 0 .924-.282c.046-.09.122-.246.216-.46.156-.352.311-.744.456-1.165.42-1.16.646-2.38.67-3.614A7.195 7.195 0 0 0 24.174 37a13.213 13.213 0 0 0-.835-2.538c-.29-.664-.616-1.31-.98-1.937a.644.644 0 0 0-.94-.209.784.784 0 0 0-.192 1.027h-.001z" fill="#373FFF" fill-rule="nonzero"/><path d="M23.513 42.459c.051-.137.102-.277.152-.422.42-1.16.646-2.38.67-3.613a7.195 7.195 0 0 0-.162-1.457 13.213 13.213 0 0 0-.835-2.538c-.29-.664-.616-1.31-.98-1.936a.644.644 0 0 0-.94-.21.784.784 0 0 0-.192 1.027c.011.02.036.06.07.122.3.53.572 1.074.815 1.632a11.7 11.7 0 0 1 .74 2.23c.08.371.124.75.128 1.13a9.721 9.721 0 0 1-.584 3.093c-.116.338-.24.654-.364.942h1.482z" fill="#F1A5FF" fill-rule="nonzero"/><g transform="translate(21 32)"><mask id="v" fill="#fff"><use xlink:href="#u"/></mask><path fill="#F1A5FF" fill-rule="nonzero" mask="url(#v)" d="M-20.551-31.096h69.202V23.18h-69.202z"/></g></g><circle fill="#000" fill-rule="nonzero" cx="12.226" cy="15.056" r="3"/><path d="M9.226 14.817v-.037a3.234 3.234 0 1 1 3.232 3.328 2.985 2.985 0 0 1-3.186-2.766 2.359 2.359 0 0 0 2.446 2.073 2.567 2.567 0 1 0-2.492-2.598z" fill="#FFF"/><circle fill="#FFF" fill-rule="nonzero" cx="10.519" cy="15.743" r="1"/><circle fill="#000" fill-rule="nonzero" cx="12.226" cy="36.987" r="3"/><path d="M9.226 36.748v-.037a3.234 3.234 0 1 1 3.232 3.329 2.985 2.985 0 0 1-3.186-2.767 2.359 2.359 0 0 0 2.445 2.074 2.567 2.567 0 1 0-2.491-2.599z" fill="#FFF"/><circle fill="#FFF" fill-rule="nonzero" cx="10.519" cy="37.675" r="1"/></g></svg>