<svg xmlns="http://www.w3.org/2000/svg" id="Layer_1" viewBox="0 0 360 102.8">
  <path fill="#FFFFFF" d="M134.3 45.6c-6.6 0-10.7 4.9-10.7 13.4 0 7.8 3.6 13.8 10.6 13.8 6.7 0 11.1-5.4 11.1-14 0-9.1-4.9-13.2-11-13.2zm176.6 22.7c0 2.9 1.4 5.2 5.3 5.2 4.6 0 9.5-3.3 9.8-10.8-2.1-.3-4.4-.6-6.5-.6-4.6 0-8.6 1.3-8.6 6.2z" class="st0"/>
  <path fill="#FFFFFF" d="M.1 0v103h360V0H.1zm105 82h-19V56.3c0-7.8-2.9-10.8-8-10.8-6.2 0-9 4.4-9 10.7V72h6v10h-18V56.3c0-7.8-2.9-10.8-8-10.8-6.2 0-9 4.4-9 10.7V72h9v10h-28V72h6V46h-6v-9h19v6.4c3-4.8 7.5-7.7 13.8-7.7 6.5 0 12.5 3.1 14.7 9.7 2.5-6 7.8-9.7 14.9-9.7 8.1 0 15.7 4.9 15.7 15.6V72h6v10zm28.7.6c-13.9 0-23.5-8.5-23.5-22.9 0-13.2 8-24.1 24.2-24.1s24.1 10.9 24.1 23.5c0 14.4-10.4 23.5-24.8 23.5zm72.6-.6h-39.3l-1.3-7.2L190.6 46h-14.1l-2 7.2-9.3-.7 1.6-15.5h39.5l1 6.7-25 28.3h14.6l2.1-7.1 10.2 1.1-2.8 16zm25.7 0h-13V65h13v17zm0-29h-13V37h13v16zm8.5 29L260 13h12.7l-19.5 69h-12.6zm26.1 0l19.5-69h12.7l-19.5 69h-12.7zm69.2.6c-6 0-9.3-3.5-9.9-9-2.6 4.6-7.2 9-14.5 9-6.5 0-13.9-3.5-13.9-12.9 0-11.1 10.7-13.7 21-13.7 2.5 0 5.4.1 7.4.4V55c0-4.6-.1-10.1-7.4-10.1-2.7 0-4.8.2-6.9 1.3l-1.5 5.1-10.2-1.1 1.8-10.4c7.9-3.2 12-4.1 19.4-4.1 9.7 0 18 5 18 15.3v19.6c0 2.6.9 3.5 3 3.5.6 0 1.1-.1 1.8-.3l.1 6.8c-2.5 1.2-5.4 2-8.2 2z" class="st0"/>
</svg>