<svg width="893" height="234" viewBox="0 0 893 234" xmlns="http://www.w3.org/2000/svg"><title>Imported Layers</title><desc>Created with Sketch.</desc><g fill="none" fill-rule="evenodd"><g fill="#fff"><g><path d="M36.773 67.394c2.706 4.176 3.9 7.9 5.41 15.76 10.58-10.326 23.624-15.76 37.86-15.76 12.86 0 23.414 4.176 31.58 12.698 2.2 2.137 4.322 4.892 6.152 7.597 14.21-14.556 26.937-20.296 43.986-20.296 12.143 0 23.65 3.63 30.678 9.677 8.776 7.585 11.56 16.703 11.56 37.93v110.444h-39.453v-102.53c0-18.587-2.2-22.18-12.78-22.18-7.583 0-18.242 5.172-26.992 13.058v111.652H86.275V124.37c0-19.38-2.81-23.93-14.104-23.93-7.503 0-17.897 3.887-26.647 11.814v113.19H5.806V117.106c0-22.432-1.538-32.122-5.806-39.742l36.773-9.97"/><path d="M349.24 90.435c12.41 14.556 17.95 31.536 17.95 56.714 0 26.697-6.123 44.936-19.514 60.078-11.77 13.337-27.282 21.556-51.198 21.556-42.236 0-69.784-31.566-69.784-80.39 0-48.868 27.84-81.347 69.784-81.347 22.14 0 39.427 7.61 52.762 23.388zm-73.097 22.43c-2.785 8.218-4.268 19.13-4.268 34.614 0 17.854 1.828 31.272 5.142 39.133 3.66 8.5 12.808 12.74 20.627 12.74 17.607 0 25.137-15.762 25.137-52.47 0-20.948-2.73-34.63-8.165-41.627-3.9-5.118-10.235-8.166-17.553-8.166-9.73 0-17.632 6.043-20.92 15.774z"/><path d="M497.956 70.1v27.915l-68.616 99.203h71.295l-9.73 28.226H376.577V200.27l73.046-101.642h-66.95v-28.53h115.282"/><path d="M566.71 27.33c0 13.975-11.11 25.135-25.162 25.135-13.603 0-24.79-11.16-24.79-25.135 0-13.946 11.56-25.2 25.476-25.2 13.63 0 24.475 11.254 24.475 25.2zm-4.772 39.108v159.006H521.29V72.828l40.648-6.39z"/><path d="M635.963 41.305V162.34c0 26.738.32 30.332 2.76 34.574 1.536 2.756 4.823 4.244 8.218 4.244 1.458 0 2.332 0 4.534-.56l6.947 24.246c-6.946 2.72-15.456 4.233-24.257 4.233-17.342 0-31.288-8.17-36.116-21.187-3.048-7.9-3.71-12.778-3.71-34.918V57.024c0-20.31-.53-32.717-2.044-46.73L633.87.897c1.457 8.485 2.093 18.507 2.093 40.41"/><path d="M720.276 41.305V162.34c0 26.738.347 30.332 2.84 34.574 1.43 2.756 4.717 4.244 8.113 4.244 1.536 0 2.464 0 4.61-.56l6.923 24.246c-6.922 2.72-15.434 4.233-24.263 4.233-17.31 0-31.284-8.17-36.136-21.187-3.102-7.9-3.607-12.778-3.607-34.918V57.024c0-20.31-.61-32.717-2.174-46.73l41.52-9.398c1.672 8.485 2.173 18.507 2.173 40.41"/><path d="M784.07 75.876c15.114-6.39 28.108-9.094 42.424-9.094 26.143 0 44.013 9.68 50.136 26.99 2.016 6.366 2.944 11.22 2.76 27.92l-.984 52.155v2.756c0 16.678 2.76 23.067 14.637 31.845l-21.58 24.922c-9.496-3.976-17.95-10.975-21.904-18.84-2.997 3.064-6.364 6.035-9.44 8.18-7.53 5.465-18.53 8.514-31.26 8.514-34.598 0-53.396-17.634-53.396-48.522 0-36.468 25.24-53.48 74.66-53.48 2.97 0 5.78 0 9.148.347v-6.337c0-17.327-3.367-23.095-18.32-23.095-12.887 0-28.185 6.336-44.837 17.59l-17.313-29.137c8.246-5.17 14.32-8.18 25.267-12.714zm52.683 81.613c-28.106 0-37.967 5.116-37.967 23.702 0 12.09 7.69 20.282 18 20.282 7.558 0 15.195-3.95 21.215-10.606l.664-33.38h-1.91z"/></g></g></g></svg>