<svg xmlns="http://www.w3.org/2000/svg" viewBox="0 0 186.1 113.74"><title>mozilla-festival-logo</title><g id="Layer_2" data-name="Layer 2"><g id="Layer_4" data-name="Layer 4"><rect width="186.1" height="53.22"/><path d="M177.75,38.2a3.49,3.49,0,0,1-1,.16c-1.08,0-1.6-.46-1.6-1.81V26.43c0-5.32-4.24-7.86-9.24-7.86a22.36,22.36,0,0,0-10,2.11L155.1,26l5.32.57.75-2.62a7.22,7.22,0,0,1,3.56-.67c3.77,0,3.82,2.84,3.82,5.24v.78a30.45,30.45,0,0,0-3.82-.21c-5.32,0-10.84,1.35-10.84,7.08,0,4.85,3.82,6.66,7.17,6.66a8.43,8.43,0,0,0,7.49-4.65c.31,2.84,2,4.65,5.11,4.65a9,9,0,0,0,4.18-1.08ZM163.45,38a2.44,2.44,0,0,1-2.72-2.68c0-2.53,2.06-3.2,4.44-3.2a24.56,24.56,0,0,1,3.35.31C168.36,36.34,165.83,38,163.45,38ZM154.51,6.76,144.45,42.28H137.9L148,6.76ZM141,6.76,130.92,42.28h-6.55L134.43,6.76ZM113,19h7v8.36h-7Zm0,14.92h7v8.37h-7Zm-10.14-.31,5.24.52-1.44,8.16H86.38l-.67-3.49L98.5,24.08H91.22l-1,3.62-4.8-.52L86.22,19h20.44l.52,3.49L94.27,37.22h7.54ZM69.53,18.54C61.17,18.54,57,24.16,57,31c0,7.46,5,11.83,12.13,11.83,7.43,0,12.8-4.7,12.8-12.13C82,24.16,77.89,18.54,69.53,18.54Zm-.16,19.15c-3.62,0-5.47-3.1-5.47-7.12,0-4.37,2.11-6.92,5.52-6.92,3.14,0,5.68,2.11,5.68,6.81C75.13,34.9,72.84,37.69,69.38,37.69ZM51,37.22h3.13v5.06H44.39V29.18c0-4-1.35-5.57-4-5.57-3.2,0-4.49,2.27-4.49,5.52v8.11H39v5H29.26V29.18c0-4-1.31-5.59-4-5.59-3.2,0-4.49,2.27-4.49,5.52v8.11h4.44v5.07H11V37.22h3.1V24.06H11V19H20.8v3.49a7.71,7.71,0,0,1,7.08-4c3.35,0,6.46,1.6,7.59,5a7.8,7.8,0,0,1,7.59-5c4.18,0,8,2.53,8,8.05Z" style="fill:#fff"/><rect y="60.52" width="162.68" height="53.22" style="fill:#fff"/><path d="M26.62,74.25c0-3.35-2-5.5-4.77-5.5s-4.56,2.15-4.56,6.18v4.56H23.4V82H17.29v18.4h5.66v2.41H10.11v-2.41h4.3V82H10.91V79.49H14.4V75c0-5.61,2.88-8.81,6.92-8.81a6.11,6.11,0,0,1,5.29,2.88V66.52h2.57v7.73Z"/><path d="M34.94,103.31c-6.5,0-10.74-4.37-10.74-11.85,0-7.23,4-12.42,10.43-12.42s9.54,4.87,9.54,10.22a15.34,15.34,0,0,1-.26,2.62H27.25c.16,5.61,3,8.86,7.91,8.86,3.67,0,6-1.75,6.81-5l2.41.58C43.68,100.22,40.39,103.31,34.94,103.31Zm-.47-21.7c-4.66,0-6.71,3.67-7.18,7.86H41.13C41.49,85.76,39.41,81.62,34.47,81.62Z"/><path d="M56.48,103.31c-3.25,0-5.61-1-6.87-2.73v2.49H47V95.85h2.57c0,3.41,2.52,4.93,6.34,4.93,3.49,0,6.11-1.31,6.11-4.25,0-7-14.73-1.83-14.73-10.8,0-4.72,4.09-6.66,8.18-6.66,2.83,0,4.82.94,6,2.57V79.41h2.57v7.23h-2.6c0-3.56-1.94-5-5.61-5-3.25,0-5.5,1.15-5.5,3.77C50.34,92,65,86.86,65,96.19,65,100.54,61.82,103.31,56.48,103.31Z"/><path d="M76.87,103.31c-4.51,0-6.81-2.83-6.81-7.34V82H66.23V79.49h3.83V72h2.88v7.52h9.28V82H72.94V95.64c0,3,1.1,5.08,4.25,5.08,2,0,3.77-.87,4.51-4.72l2.25.73C83.27,101,80.91,103.31,76.87,103.31Z"/><path d="M84.79,102.79v-2.41h4.37V82H84.73V79.49H92v20.86h4.3v2.41ZM90.34,72.6a1.91,1.91,0,1,1,1.92-1.92,1.91,1.91,0,0,1-1.92,1.92Z"/><path d="M117.5,82,109,102.79H106.7L97.84,82H95V79.49h10.43V82H100.9l7,16.77h.31L114.64,82H110.4V79.49h10.12V82Z"/><path d="M140.56,103.31c-2.57,0-4-1.83-4-4.72v-.1a9.4,9.4,0,0,1-8,4.82c-3,0-7.08-1.52-7.08-6.5,0-5.87,5.71-7.18,11-7.18,1.36,0,2.88.1,4.14.21V87.36c0-3.41-1.36-5.77-5.4-5.77s-6,2.46-6,6.11h-2.57V79.41h2.57v2.7c1.42-2.25,4-3.09,6.76-3.09,5,0,7.55,2.83,7.55,7.81V98.19c0,1.83.63,2.67,2,2.67a4,4,0,0,0,1.75-.37l.05,2.1A5.16,5.16,0,0,1,140.56,103.31Zm-4-11.22c-1.36-.1-2.94-.26-4.46-.26-3.88,0-7.6.79-7.6,4.66,0,3.35,2.73,4.25,4.77,4.25,3.49,0,7.08-2.62,7.29-6.5Z"/><path d="M144.56,102.79v-2.41h4.3V69.14h-4.37V66.73h7.23v33.65H156v2.41Z"/></g></g></svg>