<?xml version="1.0" encoding="UTF-8" standalone="no"?>
<svg width="103px" height="28px" viewBox="0 0 103 28" version="1.1" xmlns="http://www.w3.org/2000/svg" xmlns:xlink="http://www.w3.org/1999/xlink" xmlns:sketch="http://www.bohemiancoding.com/sketch/ns">
    <!-- Generator: Sketch 3.3.2 (12043) - http://www.bohemiancoding.com/sketch -->
    <title>Mozilla Logo</title>
    <desc>Created with Sketch.</desc>
    <defs></defs>
    <g id="Page-1" stroke="none" stroke-width="1" fill="none" fill-rule="evenodd" sketch:type="MSPage">
        <g id="Mozilla-Logo" sketch:type="MSArtboardGroup" fill="#FFFFFF">
            <g id="Imported-Layers" sketch:type="MSLayerGroup">
                <path d="M0.086,25.7 L0.086,8.652 L3.663,8.652 L3.953,10.779 C5.403,9.039 7.111,8.168 8.948,8.168 C11.139,8.168 12.461,9.103 13.073,10.779 C14.523,9.103 16.36,8.168 18.165,8.168 C21.291,8.168 22.677,10.038 22.677,13.228 L22.677,25.7 L18.552,25.7 L18.552,13.776 C18.552,11.971 18.036,11.262 16.715,11.262 C15.49,11.262 14.298,12.293 13.46,13.615 L13.46,25.7 L9.335,25.7 L9.335,13.711 C9.335,11.939 8.787,11.262 7.498,11.262 C6.273,11.262 5.048,12.293 4.211,13.615 L4.211,25.7 L0.086,25.7" id="Fill-1" sketch:type="MSShapeGroup"></path>
                <path d="M33.244,8.168 C38.303,8.168 41.236,11.713 41.236,17.16 C41.236,22.638 38.271,26.183 33.212,26.183 C28.152,26.183 25.187,22.767 25.187,17.16 C25.187,11.81 28.185,8.168 33.244,8.168 L33.244,8.168 Z M33.244,11.294 C30.827,11.294 29.505,13.131 29.505,17.16 C29.505,21.252 30.795,23.057 33.212,23.057 C35.661,23.057 36.918,21.252 36.918,17.16 C36.918,13.131 35.661,11.294 33.244,11.294 L33.244,11.294 Z" id="Fill-2" sketch:type="MSShapeGroup"></path>
                <path d="M48.453,22.477 L56.381,22.477 L55.962,25.7 L43.716,25.7 L43.716,22.735 L51.514,11.874 L43.973,11.874 L43.973,8.652 L56.252,8.652 L56.252,11.617 L48.453,22.477" id="Fill-3" sketch:type="MSShapeGroup"></path>
                <path d="M61.697,5.075 C60.15,5.075 59.087,3.979 59.087,2.561 C59.087,1.175 60.15,0.08 61.697,0.08 C63.212,0.08 64.307,1.175 64.307,2.561 C64.307,3.979 63.212,5.075 61.697,5.075 L61.697,5.075 Z M59.634,8.652 L63.759,8.652 L63.759,25.7 L59.634,25.7 L59.634,8.652 Z" id="Fill-4" sketch:type="MSShapeGroup"></path>
                <path d="M75.425,25.603 C74.619,25.925 73.588,26.183 72.556,26.183 C70.107,26.183 68.496,24.765 68.496,21.607 L68.496,1.82 L72.621,1.369 L72.621,21.542 C72.621,22.509 72.943,22.864 73.555,22.864 C73.91,22.864 74.265,22.799 74.522,22.703 L75.425,25.603" id="Fill-5" sketch:type="MSShapeGroup"></path>
                <path d="M84.866,25.603 C84.06,25.925 83.029,26.183 81.998,26.183 C79.549,26.183 77.937,24.765 77.937,21.607 L77.937,1.82 L82.062,1.369 L82.062,21.542 C82.062,22.509 82.385,22.864 82.997,22.864 C83.351,22.864 83.706,22.799 83.963,22.703 L84.866,25.603" id="Fill-6" sketch:type="MSShapeGroup"></path>
                <path d="M100.269,21.285 C100.269,22.574 100.624,23.057 101.462,23.379 L100.56,26.119 C98.755,25.958 97.53,25.313 96.885,23.831 C95.661,25.442 93.759,26.183 91.697,26.183 C88.216,26.183 86.09,24.024 86.09,20.833 C86.09,17.224 88.958,15.194 94.178,15.194 L96.273,15.194 L96.273,14.227 C96.273,12.068 95.274,11.327 92.889,11.327 C91.794,11.327 90.182,11.584 88.442,12.197 L87.443,9.361 C89.603,8.555 91.762,8.168 93.502,8.168 C98.303,8.168 100.269,10.231 100.269,13.969 L100.269,21.285 L100.269,21.285 Z M96.273,21.091 L96.273,17.675 L94.823,17.675 C91.633,17.675 90.505,18.739 90.505,20.608 C90.505,22.284 91.278,23.186 92.986,23.186 C94.34,23.186 95.468,22.413 96.273,21.091 L96.273,21.091 Z" id="Fill-7" sketch:type="MSShapeGroup"></path>
            </g>
        </g>
    </g>
</svg>