<?xml version="1.0" encoding="UTF-8" standalone="no"?>
<svg width="207px" height="24px" viewBox="0 0 207 24" version="1.1" xmlns="http://www.w3.org/2000/svg" xmlns:xlink="http://www.w3.org/1999/xlink" xmlns:sketch="http://www.bohemiancoding.com/sketch/ns">
    <!-- Generator: Sketch 3.3.2 (12043) - http://www.bohemiancoding.com/sketch -->
    <title>Mozilla Thimble Logo Header</title>
    <desc>Created with Sketch.</desc>
    <defs></defs>
    <g id="Page-1" stroke="none" stroke-width="1" fill="none" fill-rule="evenodd" sketch:type="MSPage">
        <g id="Mozilla-Thimble-Logo-Header" sketch:type="MSArtboardGroup" fill="#FFFFFF">
            <path d="M119.54,17.606 C118.505,17.606 117.404,17.034 116.831,16.285 L116.831,10.648 C117.097,10.296 117.074,10.275 117.603,9.901 C118.284,9.416 118.88,9.218 119.584,9.218 C120.443,9.218 121.235,9.57 121.655,10.164 C122.116,10.802 122.292,11.661 122.292,13.116 C122.292,14.964 121.917,16.042 121.522,16.639 C121.125,17.209 120.288,17.606 119.54,17.606 M116.567,2.744 L114.696,3.119 C114.983,3.69 115.137,4.55 115.137,5.717 L115.137,16.131 C115.137,17.606 115.048,18.333 114.807,18.862 L116.523,18.862 C116.722,18.443 116.766,18.246 116.831,17.673 C117.449,18.487 118.704,19.126 119.848,19.126 C122.468,19.126 124.208,16.747 124.208,13.225 C124.208,9.791 122.579,7.654 119.959,7.654 C118.792,7.654 117.889,8.073 116.811,9.129 C116.831,8.997 116.854,8.468 116.854,7.917 L116.854,5.474 C116.854,4.329 116.787,3.69 116.567,2.744" id="Fill-1" opacity="0.4" sketch:type="MSShapeGroup"></path>
            <path d="M127.399,7.566 L125.703,8.138 L128.059,15.009 C128.434,16.109 129.028,18.246 129.16,18.949 L129.865,18.84 C129.579,19.984 129.249,20.756 128.874,21.217 C128.479,21.68 127.796,22.12 127.332,22.209 L127.84,23.376 C128.499,23.222 129.205,22.847 129.646,22.428 C130.393,21.724 130.988,20.448 131.384,19.257 L135.149,7.917 L133.19,7.917 L131.033,15.097 C130.768,15.999 130.35,17.409 130.35,17.409 L130.305,17.409 C130.305,17.409 129.953,15.713 129.646,14.678 L127.399,7.566" id="Fill-2" opacity="0.4" sketch:type="MSShapeGroup"></path>
            <path d="M153.052,7.39 C151.82,7.39 150.896,7.808 149.859,8.865 C149.64,8.557 149.574,8.468 149.419,8.314 C148.824,7.698 148.054,7.39 147.13,7.39 C146.094,7.39 145.148,7.787 144.378,8.535 C144.267,7.962 144.18,7.698 143.981,7.39 L141.317,8.116 C141.625,8.667 141.735,9.372 141.735,11.001 L141.735,18.862 L144.62,18.862 L144.62,10.648 C145.259,10.076 146.007,9.791 146.558,9.791 C147.371,9.791 147.57,10.121 147.57,11.529 L147.57,18.862 L150.367,18.862 L150.367,10.759 C151.005,10.186 151.776,9.811 152.325,9.811 C153.096,9.811 153.251,10.076 153.251,11.418 L153.251,18.862 L156.113,18.862 L156.113,10.847 C156.113,9.305 155.915,8.646 155.277,8.095 C154.77,7.654 153.933,7.39 153.052,7.39" id="Fill-3" opacity="0.4" sketch:type="MSShapeGroup"></path>
            <path d="M163.294,16.968 C162.721,16.968 162.06,16.66 161.795,16.042 C161.554,15.472 161.422,14.502 161.422,13.203 C161.422,12.08 161.532,11.287 161.73,10.693 C161.971,9.988 162.545,9.548 163.248,9.548 C163.778,9.548 164.24,9.767 164.526,10.142 C164.923,10.648 165.12,11.639 165.12,13.159 C165.12,15.823 164.57,16.968 163.294,16.968 M163.205,7.368 C160.166,7.368 158.14,9.724 158.14,13.268 C158.14,16.813 160.144,19.103 163.205,19.103 C164.945,19.103 166.068,18.51 166.927,17.539 C167.896,16.439 168.336,15.118 168.336,13.181 C168.336,11.353 167.94,10.121 167.035,9.064 C166.068,7.917 164.812,7.368 163.205,7.368" id="Fill-4" opacity="0.4" sketch:type="MSShapeGroup"></path>
            <path d="M177.937,7.654 L169.568,7.654 L169.568,9.724 L174.436,9.724 L169.128,17.034 L169.128,18.862 L177.429,18.862 L178.134,16.813 L172.959,16.813 L177.937,9.68 L177.937,7.654" id="Fill-5" opacity="0.4" sketch:type="MSShapeGroup"></path>
            <path d="M182.583,7.324 L179.633,7.787 L179.633,18.862 L182.583,18.862 L182.583,7.324 M181.151,2.656 C180.138,2.656 179.303,3.47 179.303,4.483 C179.303,5.496 180.116,6.311 181.108,6.311 C182.12,6.311 182.936,5.496 182.936,4.483 C182.936,3.47 182.142,2.656 181.151,2.656" id="Fill-6" opacity="0.4" sketch:type="MSShapeGroup"></path>
            <path d="M188.088,2.568 L185.07,3.251 C185.181,4.264 185.225,5.166 185.225,6.641 L185.225,15.053 C185.225,16.66 185.27,17.012 185.489,17.584 C185.841,18.531 186.854,19.126 188.11,19.126 C188.747,19.126 189.365,19.016 189.871,18.817 L189.365,17.055 C189.211,17.101 189.144,17.101 189.036,17.101 C188.793,17.101 188.55,16.99 188.441,16.792 C188.264,16.483 188.242,16.22 188.242,14.283 L188.242,5.496 C188.242,3.911 188.198,3.184 188.088,2.568" id="Fill-7" opacity="0.4" sketch:type="MSShapeGroup"></path>
            <path d="M194.011,2.568 L190.995,3.251 C191.105,4.264 191.15,5.166 191.15,6.641 L191.15,15.053 C191.15,16.66 191.193,17.012 191.413,17.584 C191.766,18.531 192.777,19.126 194.034,19.126 C194.671,19.126 195.289,19.016 195.794,18.817 L195.289,17.055 C195.135,17.101 195.068,17.101 194.959,17.101 C194.716,17.101 194.474,16.99 194.364,16.792 C194.187,16.483 194.165,16.22 194.165,14.283 L194.165,5.496 C194.165,3.911 194.122,3.184 194.011,2.568" id="Fill-8" opacity="0.4" sketch:type="MSShapeGroup"></path>
            <path d="M200.861,17.122 C200.111,17.122 199.561,16.528 199.561,15.646 C199.561,14.303 200.266,13.929 202.314,13.929 L202.445,13.929 L202.401,16.352 C201.96,16.836 201.412,17.122 200.861,17.122 M201.564,7.346 C200.53,7.346 199.583,7.544 198.482,8.008 C197.69,8.314 197.382,8.468 196.655,8.932 L197.91,11.045 C199.121,10.231 200.221,9.767 201.169,9.767 C202.247,9.767 202.49,10.186 202.49,11.442 L202.49,11.904 C202.181,11.882 202.049,11.882 201.828,11.882 C198.24,11.882 196.412,13.116 196.412,15.756 C196.412,18.003 197.776,19.281 200.288,19.281 C201.212,19.281 202.004,19.06 202.555,18.663 C202.776,18.51 202.82,18.465 203.238,18.07 C203.524,18.641 204.14,19.148 204.824,19.433 L206.385,17.63 C205.529,16.99 205.329,16.528 205.329,15.316 L205.329,15.118 L205.396,11.331 C205.396,10.121 205.353,9.767 205.199,9.305 C204.758,8.051 203.459,7.346 201.564,7.346" id="Fill-9" opacity="0.4" sketch:type="MSShapeGroup"></path>
            <path d="M18.628,17.071 C18.595,16.972 18.561,16.897 18.529,16.864 L18.529,16.863 L18.527,16.861 C18.362,16.698 17.546,16.249 17.546,16.249 C17.546,16.249 16.256,4.245 16.019,3.856 C15.782,3.469 13.236,0.979 9.506,0.979 L9.462,5.351 C9.823,5.395 10.103,5.703 10.103,6.077 C10.103,6.456 9.815,6.766 9.448,6.803 L9.433,8.297 C9.808,8.328 10.103,8.644 10.103,9.027 C10.103,9.414 9.8,9.731 9.419,9.755 L9.4,11.616 C9.79,11.631 10.103,11.952 10.103,12.345 C10.103,12.744 9.783,13.069 9.386,13.077 L9.372,14.416 C9.371,14.416 5.563,14.566 1.754,16.248 C1.754,16.248 0.936,16.656 0.808,16.861 C0.682,17.066 0.467,18.007 0.6,18.534 L0.603,18.541 C0.777,19.077 5.426,20.819 9.663,20.819 C13.755,20.819 18.466,19.016 18.731,18.534 C18.835,18.207 18.75,17.452 18.628,17.071 M12.668,6.075 C13.072,6.075 13.4,6.403 13.4,6.806 C13.4,7.211 13.072,7.537 12.668,7.537 C12.264,7.537 11.936,7.211 11.936,6.806 C11.936,6.403 12.264,6.075 12.668,6.075 M12.442,10.561 C12.203,10.561 12.005,10.365 12.005,10.122 C12.005,9.881 12.203,9.685 12.442,9.685 C12.683,9.685 12.879,9.881 12.879,10.122 C12.879,10.365 12.683,10.561 12.442,10.561 M12.879,12.218 C12.879,12.459 12.683,12.655 12.442,12.655 C12.203,12.655 12.005,12.459 12.005,12.218 C12.005,11.977 12.203,11.781 12.442,11.781 C12.683,11.781 12.879,11.977 12.879,12.218 M9.663,19.509 C5.835,19.509 2.742,17.994 2.742,17.994 C2.742,17.994 5.785,16.249 9.663,16.249 C13.701,16.248 16.591,17.994 16.591,17.994 C16.591,17.994 13.73,19.509 9.663,19.509" id="Fill-10" sketch:type="MSShapeGroup"></path>
            <path d="M6.002,12.655 C5.759,12.655 5.563,12.459 5.563,12.218 C5.563,11.977 5.759,11.781 6.002,11.781 C6.243,11.781 6.439,11.977 6.439,12.218 C6.439,12.459 6.243,12.655 6.002,12.655 M6.002,10.561 C5.76,10.561 5.563,10.366 5.563,10.122 C5.563,9.883 5.76,9.686 6.002,9.686 C6.244,9.686 6.439,9.883 6.439,10.122 C6.439,10.365 6.244,10.561 6.002,10.561 M6.075,7.539 C5.672,7.539 5.344,7.212 5.344,6.806 C5.344,6.403 5.672,6.077 6.075,6.077 C6.479,6.077 6.808,6.403 6.808,6.806 C6.808,7.212 6.479,7.539 6.075,7.539 M9.506,0.981 C6.439,0.979 3.503,3.215 3.282,3.856 C3.053,4.522 1.754,16.243 1.754,16.248 C5.444,14.618 9.134,14.427 9.361,14.417 C9.368,14.417 9.372,14.416 9.372,14.416 L9.386,13.075 L9.372,13.077 C8.97,13.077 8.641,12.75 8.641,12.347 C8.641,11.943 8.97,11.614 9.372,11.614 L9.4,11.617 L9.4,11.616 L9.406,10.996 L9.419,9.752 L9.372,9.756 C8.97,9.756 8.641,9.43 8.641,9.027 C8.641,8.624 8.97,8.294 9.372,8.294 L9.433,8.3 L9.433,8.297 L9.441,7.55 L9.448,6.8 L9.372,6.808 C8.97,6.808 8.641,6.481 8.641,6.077 C8.641,5.674 8.97,5.345 9.372,5.345 L9.462,5.355 L9.462,5.351 L9.506,0.981" id="Fill-11" fill-opacity="0.8" sketch:type="MSShapeGroup"></path>
            <path d="M9.361,14.417 C9.134,14.427 5.444,14.618 1.754,16.248 C5.445,14.618 9.134,14.427 9.361,14.417 M9.406,10.996 L9.4,11.616 L9.406,10.996 M9.441,7.55 L9.433,8.297 L9.441,7.55 M9.506,0.981 L9.506,0.981 L9.462,5.351 L9.506,0.981" id="Fill-12" sketch:type="MSShapeGroup"></path>
            <path d="M9.668,16.249 L9.663,16.249 C5.785,16.249 2.742,17.994 2.742,17.994 C2.742,17.994 5.835,19.509 9.663,19.509 C13.73,19.509 16.591,17.994 16.591,17.994 C16.591,17.994 13.703,16.249 9.668,16.249" id="Fill-13" fill-opacity="0.3" sketch:type="MSShapeGroup"></path>
            <path d="M36.353,5.959 L36.353,18.861 L33.425,18.861 L33.425,5.959 L29.286,5.959 L29.286,3.646 L40.603,3.646 L40.295,5.959 L36.353,5.959" id="Fill-14" sketch:type="MSShapeGroup"></path>
            <path d="M42.431,18.861 L42.431,2.568 L45.25,2.281 L45.25,8.535 C46.197,7.478 47.385,6.884 48.729,6.884 C50.887,6.884 51.899,8.16 51.899,10.341 L51.899,18.861 L49.081,18.861 L49.081,10.627 C49.081,9.46 48.64,8.997 47.65,8.997 C46.681,8.997 45.888,9.746 45.25,10.627 L45.25,18.861 L42.431,18.861" id="Fill-15" sketch:type="MSShapeGroup"></path>
            <path d="M55.732,4.77 C54.675,4.77 53.948,4.021 53.948,3.053 C53.948,2.105 54.675,1.357 55.732,1.357 C56.767,1.357 57.516,2.105 57.516,3.053 C57.516,4.021 56.767,4.77 55.732,4.77 L55.732,4.77 Z M54.323,7.214 L57.142,7.214 L57.142,18.862 L54.323,18.862 L54.323,7.214 Z" id="Fill-16" sketch:type="MSShapeGroup"></path>
            <path d="M60.114,18.861 L60.114,7.214 L62.558,7.214 L62.757,8.667 C63.747,7.478 64.914,6.884 66.17,6.884 C67.667,6.884 68.569,7.522 68.988,8.667 C69.978,7.522 71.233,6.884 72.466,6.884 C74.603,6.884 75.549,8.16 75.549,10.341 L75.549,18.861 L72.731,18.861 L72.731,10.715 C72.731,9.481 72.379,8.997 71.475,8.997 C70.639,8.997 69.824,9.702 69.252,10.605 L69.252,18.861 L66.434,18.861 L66.434,10.671 C66.434,9.46 66.06,8.997 65.178,8.997 C64.342,8.997 63.505,9.702 62.933,10.605 L62.933,18.861 L60.114,18.861" id="Fill-17" sketch:type="MSShapeGroup"></path>
            <path d="M80.88,8.535 C81.65,7.5 82.817,6.884 84.051,6.884 C87.134,6.884 88.41,9.283 88.41,13.005 C88.41,16.571 86.759,19.191 83.721,19.191 C82.487,19.191 81.43,18.686 80.681,17.717 L80.55,18.861 L78.061,18.861 L78.061,2.546 L80.88,2.237 L80.88,8.535 L80.88,8.535 Z M85.46,13.026 C85.46,10.076 84.645,8.997 83.213,8.997 C82.245,8.997 81.43,9.702 80.88,10.56 L80.88,15.823 C81.387,16.615 82.134,17.078 82.994,17.078 C84.535,17.078 85.46,15.845 85.46,13.026 L85.46,13.026 Z" id="Fill-18" sketch:type="MSShapeGroup"></path>
            <path d="M95.258,18.796 C94.709,19.016 94.004,19.191 93.3,19.191 C91.626,19.191 90.525,18.223 90.525,16.065 L90.525,2.546 L93.344,2.237 L93.344,16.021 C93.344,16.682 93.563,16.924 93.982,16.924 C94.224,16.924 94.467,16.88 94.643,16.814 L95.258,18.796" id="Fill-19" sketch:type="MSShapeGroup"></path>
            <path d="M99.289,13.907 C99.51,16.109 100.589,17.056 102.151,17.056 C103.142,17.056 103.979,16.77 104.97,15.978 L106.18,17.673 C105.08,18.575 103.671,19.191 101.975,19.191 C98.232,19.191 96.361,16.66 96.361,13.049 C96.361,9.569 98.232,6.884 101.602,6.884 C104.794,6.884 106.665,9.085 106.665,12.763 C106.665,13.137 106.621,13.6 106.599,13.907 L99.289,13.907 L99.289,13.907 Z M99.267,12.08 L103.869,12.08 C103.846,10.076 103.23,8.888 101.623,8.888 C100.28,8.888 99.422,9.878 99.267,12.08 L99.267,12.08 Z" id="Fill-20" sketch:type="MSShapeGroup"></path>
        </g>
    </g>
</svg>