<svg xmlns="http://www.w3.org/2000/svg" viewBox="0 0 238.4 26.08">
  <title>
    Thimble Logo
  </title>
  <g data-name="Layer 1">
    <g fill="#fff">
      <path d="M122 19.22a3.71 3.71 0 0 1-2.78-1.35v-5.78a2.35 2.35 0 0 1 .79-.77 3.3 3.3 0 0 1 2-.7 2.59 2.59 0 0 1 2.12 1 5 5 0 0 1 .65 3 6.57 6.57 0 0 1-.79 3.61 2.62 2.62 0 0 1-2 1M119 4l-1.92.38a6.13 6.13 0 0 1 .43 2.62v10.71a7 7 0 0 1-.34 2.8h1.76a3.08 3.08 0 0 0 .32-1.22 4.17 4.17 0 0 0 3.09 1.49c2.69 0 4.47-2.44 4.47-6.05S125.15 9 122.46 9a4.32 4.32 0 0 0-3.23 1.51V6.78A10.77 10.77 0 0 0 119 4M130.09 8.92l-1.74.59 2.42 7c.38 1.13 1 3.32 1.13 4l.72-.11a6.45 6.45 0 0 1-1 2.44 3.32 3.32 0 0 1-1.58 1l.52 1.2a4.3 4.3 0 0 0 1.85-1 8.33 8.33 0 0 0 1.78-3.25L138 9.28h-2l-2.21 7.36-.7 2.37s-.36-1.74-.68-2.8l-2.3-7.29" style="isolation:isolate" opacity=".4"/>
      <path d="M18.53 18.67a.63.63 0 0 0-.1-.21 8.79 8.79 0 0 0-1-.63S16.1 5.52 15.86 5.12a9.23 9.23 0 0 0-6.68-3V6.6a.75.75 0 0 1 0 1.49v1.53a.75.75 0 0 1 0 1.5v1.91a.75.75 0 0 1 0 1.5v1.37a24 24 0 0 0-7.81 1.88 4.17 4.17 0 0 0-1 .63A3.28 3.28 0 0 0 0 20.17c.18.55 4.95 2.34 9.29 2.34s9-1.85 9.3-2.34a3.36 3.36 0 0 0-.11-1.5M12.42 7.39a.75.75 0 1 1-.75.75.75.75 0 0 1 .75-.75M12.19 12a.45.45 0 1 1 .45-.45.45.45 0 0 1-.45.45m.45 1.7a.45.45 0 1 1-.45-.45.45.45 0 0 1 .45.45m-3.3 7.48a17.89 17.89 0 0 1-7.1-1.55 15.75 15.75 0 0 1 7.1-1.79 15 15 0 0 1 7.11 1.79 16.53 16.53 0 0 1-7.11 1.55"/>
      <path d="M5.58 14.14A.45.45 0 1 1 6 13.7a.45.45 0 0 1-.45.45m0-2.15a.45.45 0 1 1 .45-.45.45.45 0 0 1-.45.45m.07-3.1a.75.75 0 1 1 .75-.75.75.75 0 0 1-.75.75m3.56-6.73C6 2.17 3 4.46 2.79 5.12s-1.56 12.7-1.56 12.71A24 24 0 0 1 9 16v-1.43a.75.75 0 0 1 0-1.5v-1.9a.75.75 0 1 1 0-1.5h.1V8.14H9a.75.75 0 0 1 0-1.5h.09V2.16" fill-opacity=".8"/>
      <path d="M9 16a24 24 0 0 0-7.8 1.88A24 24 0 0 1 9 16m.07-13.78V6.7 2.22"/>
      <path d="M9.34 17.83a15.75 15.75 0 0 0-7.1 1.79 17.89 17.89 0 0 0 7.1 1.55 16.53 16.53 0 0 0 7.11-1.55 15 15 0 0 0-7.1-1.79" fill-opacity=".3"/>
      <path d="M36.71 7.28v13.23h-3V7.28h-4.25V4.9h11.61l-.32 2.37h-4M42.95 20.51V3.8l2.89-.29v6.41a4.72 4.72 0 0 1 3.56-1.7c2.21 0 3.25 1.31 3.25 3.55v8.74h-2.88v-8.45c0-1.2-.45-1.67-1.47-1.67a3.31 3.31 0 0 0-2.46 1.67v8.44h-2.89M56.59 6.06a1.75 1.75 0 1 1 1.83-1.76 1.74 1.74 0 0 1-1.83 1.76zm-1.45 2.5H58v11.95h-2.86zM61.08 20.51V8.56h2.51l.2 1.49a4.52 4.52 0 0 1 3.5-1.83 2.75 2.75 0 0 1 2.89 1.83 4.83 4.83 0 0 1 3.57-1.83c2.19 0 3.16 1.31 3.16 3.55v8.74H74v-8.36c0-1.27-.36-1.76-1.29-1.76A3.05 3.05 0 0 0 70.45 12v8.47h-2.89v-8.4c0-1.24-.38-1.72-1.29-1.72A3.09 3.09 0 0 0 64 12v8.47h-2.92M82.38 9.92a4.08 4.08 0 0 1 3.25-1.69c3.16 0 4.47 2.46 4.47 6.28 0 3.66-1.69 6.34-4.81 6.34a3.81 3.81 0 0 1-3.12-1.51L82 20.51h-2.51V3.78l2.89-.32v6.46zm4.7 4.61c0-3-.84-4.13-2.3-4.13a3 3 0 0 0-2.4 1.6v5.4a2.56 2.56 0 0 0 2.17 1.29c1.58 0 2.53-1.26 2.53-4.16zM97.13 20.44a5.58 5.58 0 0 1-2 .41c-1.72 0-2.85-1-2.85-3.21V3.78l2.89-.32V17.6c0 .68.22.93.65.93a2 2 0 0 0 .68-.11l.63 2M101.26 15.43c.23 2.26 1.33 3.23 2.94 3.23a4.33 4.33 0 0 0 2.89-1.11l1.24 1.74a6.69 6.69 0 0 1-4.33 1.56c-3.84 0-5.76-2.6-5.76-6.3s1.92-6.32 5.38-6.32c3.27 0 5.19 2.26 5.19 6 0 .38 0 .86-.07 1.17zm0-1.87H106c0-2.06-.66-3.27-2.3-3.27-1.38 0-2.26 1-2.42 3.27z"/>
    </g>
    <path d="M181.23 11.55c-1.67 0-2.71 1.24-2.71 3.39 0 2 .91 3.49 2.68 3.49s2.8-1.37 2.8-3.54-1.23-3.34-2.77-3.34zM225.94 17.29a1.19 1.19 0 0 0 1.34 1.32 2.54 2.54 0 0 0 2.48-2.73 12.05 12.05 0 0 0-1.65-.15c-1.11-.01-2.17.32-2.17 1.56z" fill="#fff"/>
    <path d="M147.25 0v26.08h91.15V0zm26.58 20.76H169v-6.51c0-2-.73-2.73-2-2.73-1.57 0-2.28 1.11-2.28 2.71v4h1.52v2.53h-4.56v-6.51c0-2-.73-2.73-2-2.73-1.57 0-2.28 1.11-2.28 2.71v4h2.28v2.53h-7.09v-2.53h1.52v-6.58h-1.52V9.37h4.81V11a3.91 3.91 0 0 1 3.47-2 3.7 3.7 0 0 1 3.72 2.46A3.9 3.9 0 0 1 168.37 9a3.73 3.73 0 0 1 4 3.95v5.24h1.52v2.53zm7.27.15c-3.52 0-5.95-2.15-5.95-5.8 0-3.34 2-6.1 6.13-6.1s6.1 2.76 6.1 5.95c0 3.65-2.63 5.95-6.28 5.95zm18.38-.15h-10l-.33-1.82 6.28-7.29h-3.57l-.51 1.82-2.35-.18.41-3.92h10l.25 1.7-6.33 7.17h3.7l.53-1.8 2.58.28zm6.51 0h-3.29v-4.3h3.3zm0-7.34h-3.29V9.37h3.3zm2.15 7.34l4.91-17.47h3.22l-4.94 17.47zm6.61 0l4.94-17.47h3.22L218 20.76zm17.52.15a2.33 2.33 0 0 1-2.51-2.28 4.14 4.14 0 0 1-3.67 2.28 3.21 3.21 0 0 1-3.52-3.27c0-2.81 2.71-3.47 5.32-3.47a14.18 14.18 0 0 1 1.87.1v-.35c0-1.16 0-2.56-1.87-2.56a3.54 3.54 0 0 0-1.75.33l-.38 1.31-2.58-.28.46-2.63a11.08 11.08 0 0 1 4.91-1c2.46 0 4.56 1.27 4.56 3.87v5c0 .66.23.89.76.89a1.56 1.56 0 0 0 .46-.08v1.72a4.92 4.92 0 0 1-2.06.42z" fill="#fff"/>
  </g>
</svg>