<?xml version="1.0" encoding="utf-8"?>
<!-- Generator: Adobe Illustrator 17.0.0, SVG Export Plug-In . SVG Version: 6.00 Build 0)  -->
<!DOCTYPE svg PUBLIC "-//W3C//DTD SVG 1.1//EN" "http://www.w3.org/Graphics/SVG/1.1/DTD/svg11.dtd">
<svg version="1.1" id="Layer_1" xmlns="http://www.w3.org/2000/svg" xmlns:xlink="http://www.w3.org/1999/xlink" x="0px" y="0px"
   width="100px" height="100px" viewBox="0 0 100 100" enable-background="new 0 0 100 100" xml:space="preserve">
<g>
  <path fill="#FFFFFF" d="M50.114,86.821c-13.164-0.481-23.554-4.641-27.859-6.5c0,0,11.912-6.385,27.859-6.813v-13.74
    c-0.034,0.001-0.063,0.02-0.098,0.02c-1.905,0-3.45-1.544-3.45-3.45c0-1.905,1.545-3.45,3.45-3.45c0.035,0,0.063,0.019,0.098,0.02
    v-7.431c-0.034,0.001-0.063,0.02-0.098,0.02c-1.905,0-3.45-1.545-3.45-3.45c0-1.905,1.545-3.45,3.45-3.45
    c0.035,0,0.063,0.019,0.098,0.02V33.65c-0.034,0.001-0.063,0.02-0.098,0.02c-1.905,0-3.45-1.545-3.45-3.45
    c0-1.905,1.545-3.449,3.45-3.449c0.035,0,0.063,0.019,0.098,0.02V7.661c-2.559,0.112-17.979,1.278-26.432,13.286
    c-1.22,8.928-4.356,44.822-5.402,51.745c-3.829,2.607-5.228,4.373-5.576,5.466c0,1.234,0.097,3.141,0.097,4.724
    c9.732,5.824,24.008,8.694,37.313,9.458V86.821z M35.396,57.488c-0.998,0-1.807-0.809-1.807-1.807c0-0.998,0.809-1.807,1.807-1.807
    c0.998,0,1.807,0.809,1.807,1.807C37.203,56.679,36.394,57.488,35.396,57.488z M35.396,48.782c-0.998,0-1.807-0.809-1.807-1.807
    c0-0.998,0.809-1.807,1.807-1.807c0.998,0,1.807,0.809,1.807,1.807C37.203,47.973,36.394,48.782,35.396,48.782z M35.889,29.398
    c1.905,0,3.45,1.545,3.45,3.45c0,1.905-1.545,3.45-3.45,3.45c-1.905,0-3.449-1.544-3.449-3.45
    C32.44,30.943,33.984,29.398,35.889,29.398z"/>
  <path opacity="0.8" fill="#FFFFFF" d="M81.72,72.691c-1.045-6.924-4.182-42.818-5.402-51.745
    C67.865,8.939,52.446,7.773,49.887,7.661V26.79c0.034-0.001,0.063-0.02,0.097-0.02c1.905,0,3.45,1.544,3.45,3.449
    c0,1.905-1.545,3.45-3.45,3.45c-0.035,0-0.063-0.019-0.097-0.02v4.967c0.034-0.001,0.063-0.02,0.097-0.02
    c1.905,0,3.45,1.545,3.45,3.45c0,1.905-1.545,3.45-3.45,3.45c-0.035,0-0.063-0.019-0.097-0.02v7.431
    c0.034-0.001,0.063-0.02,0.097-0.02c1.905,0,3.45,1.545,3.45,3.45c0,1.905-1.545,3.45-3.45,3.45c-0.035,0-0.063-0.019-0.097-0.02
    v13.74c15.946,0.428,27.859,6.813,27.859,6.813c-4.305,1.859-14.695,6.019-27.859,6.5v5.518
    c13.304-0.764,27.581-3.634,37.313-9.458c0-1.583,0.097-3.49,0.097-4.724C86.948,77.064,85.55,75.298,81.72,72.691z M64.604,57.488
    c-0.998,0-1.807-0.809-1.807-1.807c0-0.998,0.809-1.807,1.807-1.807c0.998,0,1.807,0.809,1.807,1.807
    C66.411,56.679,65.602,57.488,64.604,57.488z M64.604,48.782c-0.998,0-1.807-0.809-1.807-1.807c0-0.998,0.809-1.807,1.807-1.807
    c0.998,0,1.807,0.809,1.807,1.807C66.411,47.973,65.602,48.782,64.604,48.782z M64.111,36.297c-1.905,0-3.45-1.544-3.45-3.45
    c0-1.905,1.545-3.45,3.45-3.45c1.905,0,3.45,1.545,3.45,3.45C67.561,34.753,66.016,36.297,64.111,36.297z"/>
</g>
</svg>