<svg xmlns="http://www.w3.org/2000/svg" viewBox="0 0 115.26 60.73">
  <g data-name="Layer 1">
    <path fill="#fff" d="M1.93 40.31h74.85v18.4H1.93z"/>
    <path d="M29.64 48.06c-1.46 0-2.36 1.08-2.36 3s.79 3 2.34 3 2.44-1.19 2.44-3.09-1.06-2.91-2.42-2.91zm39 5a1 1 0 0 0 1.17 1.15A2.22 2.22 0 0 0 72 52v-.12a10.51 10.51 0 0 0-1.44-.13c-1-.06-1.92.25-1.92 1.31z"/>
    <path d="M0 38v22.73h79.5V38zm23.18 18.09H19v-5.68c0-1.74-.64-2.38-1.74-2.38-1.37 0-2 1-2 2.36v3.49h1.33v2.21h-4v-5.68c0-1.74-.64-2.38-1.74-2.38-1.37 0-2 1-2 2.36v3.49h2v2.21H4.66v-2.21H6v-5.74H4.66v-2h4.2v1.42a3.41 3.41 0 0 1 3-1.74A3.23 3.23 0 0 1 15.12 48a3.4 3.4 0 0 1 3.3-2.15 3.25 3.25 0 0 1 3.49 3.45v4.57h1.33v2.21zm6.34.13c-3.07 0-5.19-1.88-5.19-5.06a5 5 0 0 1 5.35-5.32A4.92 4.92 0 0 1 35 51c0 3.18-2.29 5.19-5.48 5.19zm16-.13h-8.69l-.29-1.59L42 48.14h-3.09l-.44 1.59-2-.16.36-3.42h8.67l.22 1.48-5.52 6.25h3.23l.46-1.57 2.25.24zm5.68 0h-2.83v-3.75h2.88zm0-6.4h-2.83v-3.53h2.88zm1.88 6.4l4.28-15.24h2.84l-4.31 15.24zm5.77 0l4.31-15.24H66l-4.29 15.24zm15.28.13A2 2 0 0 1 72 54.35v-.12a3.61 3.61 0 0 1-3.2 2 2.8 2.8 0 0 1-3.07-2.85c0-2.45 2.36-3 4.64-3a12.37 12.37 0 0 1 1.63.09v-.31c0-1 0-2.23-1.63-2.23a3.09 3.09 0 0 0-1.53.29l-.33 1.14-2.25-.24.4-2.29a9.66 9.66 0 0 1 4.28-.87c2.15 0 4 1.11 4 3.38v4.36c0 .58.2.78.66.78a1.36 1.36 0 0 0 .4-.07v1.5a4.29 4.29 0 0 1-1.8.37z"/>
    <path fill="#fff" d="M105.75 15.82c-2.74 0-3.95 2.11-4.25 4.62h8.16c.24-2.21-1-4.62-3.91-4.62z"/>
    <path fill="#fff" d="M0 0v34.87h115.26V0zm36.26 7.3h2.54v3h-2.54zM9.13 29.4c-3 0-4.62-1.81-4.62-4.72v-8.62h-2.4v-1.87h2.41V9.4h2.34v4.78h5.82v1.87H6.86v8.33c0 1.81.7 3 2.51 3 1.17 0 2.27-.47 2.71-2.88l1.77.57c-.4 2.86-2.04 4.33-4.72 4.33zm23.31-.33h-7.55v-1.91h2.61v-6.92c0-3.21-1.44-4.38-3.51-4.38a4.46 4.46 0 0 0-4.45 4.28v7h2.58v1.91h-7.54v-1.89h2.58V8h-2.58V6.06h5v10.8a5.67 5.67 0 0 1 5.22-3c2.91 0 5.12 1.71 5.12 5.65v7.63h2.58zm9 0h-7.56v-1.91h2.61V16.09h-2.68v-1.9h5v13h2.61zm29.23 0h-7.12v-1.91h2.17v-6.92c0-3.21-1.4-4.38-3.38-4.38-2.74 0-4.21 2.61-4.28 4.48v6.82h2.58v1.91h-7.09v-1.91h2.14v-6.92c0-3.24-1.37-4.38-3.31-4.38a4.49 4.49 0 0 0-4.31 4.42v6.89h2.73v1.91h-7.69v-1.92h2.61V16.09h-2.64v-1.9h5V17a5.45 5.45 0 0 1 5-3.08 4.55 4.55 0 0 1 4.78 3.58 5.56 5.56 0 0 1 5.25-3.58c2.84 0 5 1.71 5 5.65v7.63h2.61zm10.26.33a5.6 5.6 0 0 1-5.22-2.81l-.33 2.48H73a29.35 29.35 0 0 0 .47-4.35V8h-2.53V6.06h4.92v11.2a5.56 5.56 0 0 1 5.32-3.38c3.71 0 6.39 2.64 6.39 7.36-.01 3.95-1.92 8.16-6.63 8.16zm16.12-.33H89.5v-1.91h2.61V8h-2.65V6.06h5v21.1h2.61zm9 .33c-4.21 0-7-2.74-7-7.56 0-4.62 2.61-8 6.82-8s6.29 3 6.32 6.52a8.23 8.23 0 0 1-.2 1.77h-10.52c.13 3.31 1.77 5.22 4.72 5.22a3.84 3.84 0 0 0 4.11-3l2 .43c-.43 2.55-2.6 4.62-6.3 4.62z"/>
    <path fill="#fff" d="M80.6 15.89a5 5 0 0 0-4.75 4.78v2.24a4.48 4.48 0 0 0 4.58 4.48c3.28 0 4.65-2.84 4.65-5.92 0-3.71-1.97-5.58-4.48-5.58z"/>
  </g>
</svg>
